/* XPM */
static char *_2779_2b1d3952ef5c2cb48aa2523ef9749e9ed9dac3be3e0a901d7ee67f79e292b0a0[] = {
/* columns rows colors chars-per-pixel */
"60 60 256 2 ",
"   c black",
".  c #010101",
"X  c #020202",
"o  c gray1",
"O  c #040404",
"+  c gray2",
"@  c #060606",
"#  c #070707",
"$  c gray3",
"%  c #090909",
"&  c gray4",
"*  c #0B0B0B",
"=  c #0C0C0C",
"-  c gray5",
";  c #0E0E0E",
":  c gray6",
">  c #101010",
",  c #111111",
"<  c gray7",
"1  c #131313",
"2  c gray8",
"3  c #151515",
"4  c #161616",
"5  c gray9",
"6  c #181818",
"7  c #191919",
"8  c gray10",
"9  c #1B1B1B",
"0  c gray11",
"q  c #1D1D1D",
"w  c #1E1E1E",
"e  c gray12",
"r  c #202020",
"t  c gray13",
"y  c #222222",
"u  c #232323",
"i  c gray14",
"p  c #252525",
"a  c gray15",
"s  c #272727",
"d  c #282828",
"f  c gray16",
"g  c #2A2A2A",
"h  c gray17",
"j  c #2C2C2C",
"k  c #2D2D2D",
"l  c gray18",
"z  c #2F2F2F",
"x  c gray19",
"c  c #313131",
"v  c #323232",
"b  c gray20",
"n  c #343434",
"m  c #353535",
"M  c gray21",
"N  c #373737",
"B  c gray22",
"V  c #393939",
"C  c #3A3A3A",
"Z  c gray23",
"A  c #3C3C3C",
"S  c gray24",
"D  c #3E3E3E",
"F  c #3F3F3F",
"G  c gray25",
"H  c #414141",
"J  c gray26",
"K  c #434343",
"L  c #444444",
"P  c gray27",
"I  c #464646",
"U  c gray28",
"Y  c #484848",
"T  c #494949",
"R  c gray29",
"E  c #4B4B4B",
"W  c #4C4C4C",
"Q  c gray30",
"!  c #4E4E4E",
"~  c gray31",
"^  c #505050",
"/  c #515151",
"(  c gray32",
")  c #535353",
"_  c gray33",
"`  c #555555",
"'  c #565656",
"]  c gray34",
"[  c #585858",
"{  c gray35",
"}  c #5A5A5A",
"|  c #5B5B5B",
" . c gray36",
".. c #5D5D5D",
"X. c gray37",
"o. c #5F5F5F",
"O. c #606060",
"+. c gray38",
"@. c #626262",
"#. c gray39",
"$. c #646464",
"%. c #656565",
"&. c gray40",
"*. c #676767",
"=. c #686868",
"-. c DimGray",
";. c #6A6A6A",
":. c gray42",
">. c #6C6C6C",
",. c #6D6D6D",
"<. c gray43",
"1. c #6F6F6F",
"2. c gray44",
"3. c #717171",
"4. c #727272",
"5. c gray45",
"6. c #747474",
"7. c gray46",
"8. c #767676",
"9. c #777777",
"0. c gray47",
"q. c #797979",
"w. c gray48",
"e. c #7B7B7B",
"r. c #7C7C7C",
"t. c gray49",
"y. c #7E7E7E",
"u. c gray50",
"i. c #808080",
"p. c #818181",
"a. c gray51",
"s. c #838383",
"d. c #848484",
"f. c gray52",
"g. c #868686",
"h. c gray53",
"j. c #888888",
"k. c #898989",
"l. c gray54",
"z. c #8B8B8B",
"x. c gray55",
"c. c #8D8D8D",
"v. c #8E8E8E",
"b. c gray56",
"n. c #909090",
"m. c gray57",
"M. c #929292",
"N. c #939393",
"B. c gray58",
"V. c #959595",
"C. c gray59",
"Z. c #979797",
"A. c #989898",
"S. c gray60",
"D. c #9A9A9A",
"F. c #9B9B9B",
"G. c gray61",
"H. c #9D9D9D",
"J. c gray62",
"K. c #9F9F9F",
"L. c #A0A0A0",
"P. c gray63",
"I. c #A2A2A2",
"U. c gray64",
"Y. c #A4A4A4",
"T. c #A5A5A5",
"R. c gray65",
"E. c #A7A7A7",
"W. c gray66",
"Q. c #A9A9A9",
"!. c #AAAAAA",
"~. c gray67",
"^. c #ACACAC",
"/. c gray68",
"(. c #AEAEAE",
"). c #AFAFAF",
"_. c gray69",
"`. c #B1B1B1",
"'. c #B2B2B2",
"]. c gray70",
"[. c #B4B4B4",
"{. c gray71",
"}. c #B6B6B6",
"|. c #B7B7B7",
" X c gray72",
".X c #B9B9B9",
"XX c gray73",
"oX c #BBBBBB",
"OX c #BCBCBC",
"+X c gray74",
"@X c gray",
"#X c gray75",
"$X c #C0C0C0",
"%X c #C1C1C1",
"&X c gray76",
"*X c #C3C3C3",
"=X c gray77",
"-X c #C5C5C5",
";X c #C6C6C6",
":X c gray78",
">X c #C8C8C8",
",X c gray79",
"<X c #CACACA",
"1X c #CBCBCB",
"2X c gray80",
"3X c #CDCDCD",
"4X c #CECECE",
"5X c gray81",
"6X c #D0D0D0",
"7X c gray82",
"8X c #D2D2D2",
"9X c LightGray",
"0X c gray83",
"qX c #D5D5D5",
"wX c gray84",
"eX c #D7D7D7",
"rX c #D8D8D8",
"tX c gray85",
"yX c #DADADA",
"uX c gray86",
"iX c gainsboro",
"pX c #DDDDDD",
"aX c gray87",
"sX c #DFDFDF",
"dX c gray88",
"fX c #E1E1E1",
"gX c #E2E2E2",
"hX c gray89",
"jX c #E4E4E4",
"kX c gray90",
"lX c #E6E6E6",
"zX c #E7E7E7",
"xX c gray91",
"cX c #E9E9E9",
"vX c #EAEAEA",
"bX c gray92",
"nX c #ECECEC",
"mX c gray93",
"MX c #EEEEEE",
"NX c #EFEFEF",
"BX c gray94",
"VX c #F1F1F1",
"CX c gray95",
"ZX c #F3F3F3",
"AX c #F4F4F4",
"SX c gray96",
"DX c #F6F6F6",
"FX c gray97",
"GX c #F8F8F8",
"HX c #F9F9F9",
"JX c gray98",
"KX c #FBFBFB",
"LX c gray99",
"PX c #FDFDFD",
"IX c #FEFEFE",
"UX c white",
/* pixels */
"& * % + o O # $ % % # + # = ; ; - - ; , 2 3 3 2 < 2 5 6 7 6 3 < 4 1 = : % & # % * - - * = ; * @ $ & & @ O + $ & & * = ; ",
"= = % + O # % & % % % & - > : ; ; : > 1 3 5 5 4 4 5 8 0 8 5 3 4 5 : 3 - = ; # ; ; = = ; : - & $ & & % @ + # % & * = ; > ",
"; = $ + @ % = - & $ % - , , : ; , < 1 4 6 7 7 7 8 9 w e 0 5 5 8 2 : 4 - : * - > , = - , , = % * = * # + @ % = = - : < 1 ",
"; * @ + # * - - = % & ; , , , < < 2 5 7 9 0 0 0 q r y r q 9 9 0 < 6 ; , , # 4 > > ; > 1 , * & ; ; * # @ $ = ; ; , 1 3 3 ",
"; & @ # & - ; ; = = : < 1 , 1 4 2 5 8 q w w w w u a p r w e q 6 5 q - 2 < : 6 1 ; , 2 1 : = - : ; & # $ * ; > > 1 3 5 5 ",
"= % $ & ; : ; - & ; < 3 2 < 1 3 5 8 q e e r t y d f a t r t q 4 9 5 1 1 > 7 < 2 : 2 4 , ; : > : = & % & - : , < 2 4 6 6 ",
"% $ % - , > - = = : 1 1 1 1 2 3 8 q e r e t i a f a i i i y w 9 8 1 5 < 1 9 , 1 3 4 3 , : , , ; % % * - ; : , 2 4 4 5 6 ",
"# @ % ; , : = & , 1 1 < < 4 6 5 q e r e e t a g s y y s s y e t 5 4 6 3 9 5 6 , 8 5 1 , , < , - # % = : : ; , 2 5 5 5 5 ",
"+ & - > < - % = 4 > : < 2 2 4 9 w t 8 w s t x f a y p a h r e t 5 q 6 4 0 6 < 7 0 , 5 : 1 < ; * $ * > < , > 1 4 5 4 4 5 ",
"# & : < > * * > 1 , > < 2 3 7 w u u 9 u u f g d g u a g p d s 9 8 w 0 9 q 4 < 8 9 < ; < 3 5 < + = ; , , > , 2 5 4 4 5 5 ",
"& * , 1 - % ; 2 , , < < 2 6 q r y w q u a x f g y d g h y f y 6 r q 8 9 0 7 7 0 4 8 : 2 ; O # ; : < < > > 1 4 4 4 5 6 7 ",
"= ; 1 , & * 1 2 : , < < 4 0 r t q 8 t y k k j d y x h f l k t i u r r e 9 9 w 0 3 4 8 - 8 ( p   > 1 1 > > 3 5 3 3 6 8 9 ",
": , 1 - $ > 4 , : > , 1 8 t y r 0 e i s z f h p h l h f v i 7 w > < 4 < = 1 9 6 t 3 # a [ ) Q.e : < 1 , < 4 5 2 4 7 9 8 ",
", 1 < * * 1 3 ; > , < 5 w i y w 9 i p z j h f s b f j p r 9 l A G K T Y G B s < + = s ' z s A.f : < 2 1 2 4 4 3 4 7 8 6 ",
"1 2 > = > 2 < ; > < 3 0 y i y w t p g z g l s g g w f K { &.#.^ Q Y Y ! { %.;.*.I H / M g o.` . , 1 3 4 4 4 4 5 5 8 8 5 ",
"2 2 : ; 2 1 : > > < 6 e i i t w g i b d h h u s j E | ( v w , < 1 : = = - 1 t z Y Q n j E `   = 1 2 4 5 4 3 4 7 5 9 9 6 ",
"7 ; - 2 1 < 1 , : 5 9 u h t 9 s d k n p x w q W ..H a 3 8 * = % & % @ % ; - - 1 4 w y A ..$ % 2 3 1 5 7 2 5 8 2 e 6 3 5 ",
"3 ; : 2 1 , < > 1 9 y a a t r p a A q f 9 f { T i u 3 ;   @ * < < 2 7 5 ; = > , 1 0 N P < % 7 4 < 5 7 6 6 5 5 6 9 6 4 7 ",
", : < 2 < , < > 5 t d a t t i i z z a 7 z ` C s p * O & w p v n j x f u p t 6 6 ; ; 7 $   q ; 7 < 0 8 3 6 5 3 q 4 5 7 9 ",
": , 2 2 , , 1 1 8 a f u r t i f m s q v } c u 7 X $ 9 M n V f w 6 4 5 5 0 d d 7 w 3 o $ e 7 6 < 5 0 7 2 4 5 6 w 2 6 9 9 ",
": 1 3 < , < 3 6 w f p e i y i c f f i _ z h 9 $ 5 s B B e h B T  .| ` I g < 1 i e : : 8 8 q 2 8 9 6 6 6 3 6 0 7 3 7 0 9 ",
"> 2 2 , 1 2 5 q u d y r a a s b l < Q V z 9   7 x f z d J ..X.T H S Q <.a.5.F & ; 6 7 t 7 5 2 4 9 3 7 9 6 9 0 1 6 8 0 9 ",
"> 1 < , 4 5 7 e s u y u p f k j 7 S T d f % r N l d A ( J s % 4 3 = , % & Y f.f.y X 6 e 3 7 9 7 9 7 7 8 9 0 7 1 7 8 9 0 ",
"> < > < 6 6 7 r g w y a t g c u t L z B : 5 m z t D [ z 7 : - * * 1 = 1 9   % T J.H = e 8 3 7 8 9 w 6 3 0 9 4 5 7 8 9 q ",
"1 1 > 6 3 7 0 d u t t y d x a q x C N m & c b p v _ l a * % # 7 9 w 4 ; , 7 7 O r D.} % 7 8 7 e q 0 6 9 r 6 2 0 9 8 9 w ",
"2 ; 3 4 6 7 i i e t u p d h p 8 G M T i 6 n h g W V K , % p c v c a d d q 6 > w 5 6 R.L , 8 w 0 q 8 9 w 9 6 7 9 8 9 q r ",
"1 = 5 5 6 q f r e q d y l y u q I b X.1 f m s N N Y z O z b c b h f p 8 x a < 3 s 8 V L., q e y q 8 e e 5 7 q 7 6 0 e e ",
": , 2 8 5 p p e r w p i j t 9 k B S *.= v x s F N [ = t D v b k d z a u h 6 w i r F 3 a.) # a r q q r q 6 9 q 5 7 q w 0 ",
"; 5 2 6 w d r e w i y h r y 4 K u ^ X.; b g d B W H = C N C v l k f r z t q g p 1 f S J y.> 8 i w u w 7 0 0 6 5 9 q q 7 ",
"< 7 7 4 d i e e q u g i e 7 d L 1 ..! > v f j k | l e V Z C h h a a p e y y s s y 4 k h k.s 6 i r i q 7 w 0 3 6 0 0 9 6 ",
"5 6 8 9 s t q 0 w y h 7 e 6 I h , $.T , b f l d 7.z s Z N z M s M =.:.V 4 p l r e 9 a l 3.L 1 r u e 0 q q 7 4 6 0 8 6 6 ",
"7 4 4 y r r 8 8 r d q 0 4 a [ , 6 -.^ 1 b a h s e.V i A Z l l s u w e ;.g f a y w 9 j n ) ~ % s p 9 q t 8 4 7 7 0 6 4 5 ",
"3 6 q t r 0 7 6 t a 4 w 2 E C 7 : >.@.& v g k s 9.( 4 G z j l g w = 3 Y H 7 j q i 8 r V J B : g 0 8 w e 5 2 7 9 6 5 6 7 ",
"4 6 q t w 6 6 0 d 2 0 > c ! f i 3 ) 0., k l d f o.q.9 N x l j f M w e T Q 5 i s y 9 i B K b 2 i 9 0 q 0 5 5 7 7 4 5 7 9 ",
"5 8 w e 8 3 6 e 0 4 6 q E b V 3 : R x.4 h Z t i 9 Z.m 7 m b g j c < M ( V > d i u 0 d V F f 3 w 0 w 0 6 7 8 6 4 4 6 8 0 ",
"8 q e 0 5 3 7 w < w > F Z N Z . q j B.k g m y f i V Z.i 6 y h n i 4 ) H 2 3 p d p 8 z Z Z q , e w w 7 4 9 9 4 3 6 8 0 0 ",
"q r e 5 2 6 8 7 5 1 r Y c ' , % i 4 8.>.1 s Z k w 2 V N...m a 8 q X.~ y - 1 j s p 4 S C S , > u r 0 4 6 q 7 1 4 7 8 0 q ",
"w e 9 2 2 6 6 2 , 2 J Z | b o 5 2 e b R.w g B N i y : 4 ] <.8.*.5.Q f 2 * p k p r 0 Y N Z * 4 i w 7 4 8 0 5 2 6 9 0 0 0 ",
"q 7 3 1 2 4 2 , - v W Y { X 6 0 < y > ;.c.< S M N 6 5 > * % 5 p : 5 > . 4 x a p 9 m P N d - 0 y 8 4 5 8 6 4 6 8 e q 9 8 ",
"9 2 , 1 3 1 > > 9 / S -.< * q u y < h , C.;.- S z x s < ; % =   @ + > 5 d g i i 8 ! C V > < w e 4 3 7 8 3 5 0 9 r w 8 7 ",
"4 ; ; 0 > > 2 & R A #.n   e 9 0 p 4 4 r 0 U.+.: c c c c g 8 , 2 6 w r u f g t , T W c u $ 9 e 8 3 4 5 5 4 5 8 q 8 9 7 3 ",
"1 , - 1 , 4 @ h ~ K @.X < 7 7 y u g , < w w R.8.6 r z N b x l d j a w p l 2 1 ! Q h x $ , t 5 9 3 3 3 4 6 7 8 8 0 7 5 5 ",
", , , 1 < & = ! Z [ > O 1 5 4 5 q 6 0 > 2 6 > t.z.K w a a a z z j w i g 1 p _ ^ c y & & 9 6 e 3 4 2 2 4 7 9 7 5 9 5 3 5 ",
": , 3 2 > $ N ~ ~ &.u f w r t f f g b h 0 j 2 & v ,.e.) v u 7 7 ; < p j K  .P a : : O 3 9 w 4 5 3 2 2 5 8 9 6 4 6 3 2 2 ",
"- 2 1 - = w ` b ' o.1.X.*.#.@...#.@.O._ } Q 6 2 ; = d ) -.=.#.@.[ o._ / L f 8 * + O 7 2 e 9 > 6 2 3 5 7 8 7 5 3 2 3 3 , ",
"> < ; ; * t B q 5 9 5 6 0 9 0 7 e 3 9 t y r v y 8 4 , : 2 y v V B c g 8 3 > X # = 5 6 6 e ; 8 , 2 4 6 7 7 5 3 2 < 3 2 > ",
"1 : - 1 1 1 < 1 : ; ; < * $ X > $ - : 6 > 4 2 ; < @ - 1 & ; 5 > > - + @ + + > 2 5 0 5 0 1 2 2 , 2 4 6 7 6 4 2 < 2 1 , > ",
"> : ; < 0 , : = % $ o # + = = @ & = = $ % & $ < > < ; ; , & O # $ $ * ; 4 0 q w 6 7 4 q 1 1 2 > 3 3 4 5 5 4 1 > 4 > - : ",
"; * , 6 4 3 6 6 1 , , 4 6 4 3 5 8 d e t e y f v f j z d a 6 6 e d t q t p y 0 6 4 7 8 4 1 < < < 1 3 3 4 6 < : 3 , ; - : ",
"- : 2 5 4 6 7 5 > > 1 5 6 3 3 5 e r y e u u k h d h g l u r y x h p t y y q 5 2 5 6 6 2 < < < < 3 4 4 4 3 , > 1 - - ; , ",
"= 3 5 2 4 7 5 1 - > 3 6 5 2 4 7 y 7 t r u s k p h h f h w r s m a u y y e 7 4 4 6 5 3 < , < 1 1 4 3 4 4 < > , > * ; , 1 ",
": 5 4 1 5 6 < : - < 5 7 4 2 5 9 w 7 w y r j s s l f g e 0 e j j r r t e 8 3 3 6 7 4 < > , 1 2 2 4 2 4 3 : > < ; * : < < ",
"2 5 2 2 6 3 - = : 2 6 6 3 3 6 0 8 q w r y h u k g s a 7 w g v i t y t q 4 , < 4 6 2 > > , 1 2 2 3 < 2 1 ; > < ; = > , : ",
"5 3 2 4 5 , = - , 3 5 3 3 5 7 8 8 q t 0 d p p k p a q 0 e v l r t t e 7 2 , 1 4 4 < > , 1 2 2 2 1 , < < > > , : > , > : ",
"3 1 4 5 1 ; ; : , 1 2 1 3 7 8 5 9 0 w e s y s s p t 6 r a j y q e q 7 3 < < 3 5 1 > > < 2 2 1 < < , > , < : ; > < > : : ",
", , 5 5 ; * : > : , , , 4 9 8 3 0 8 4 i r u s e p 8 6 t z y 0 e e 9 4 , > , 1 3 > : > 1 3 1 < , , , : > 2 : * , < ; * = ",
"> 2 < ; - = - : ; , , - 7 1 1 6 5 3 e 0 w i 0 e 9 2 q s i q 5 0 8 2 , : ; > < ; > : > < , : : > ; : > > - = : 1 - & * - ",
": < > = * * = ; ; ; > ; 3 , 1 4 3 3 9 9 q r 9 9 5 2 w u w 7 3 8 3 , : ; ; : > - : ; : > > ; - ; - ; : ; = = ; > = & = : ",
"; : = $ & * * - - * ; ; , : < < < 4 4 7 8 7 7 3 < 3 r q 5 2 2 3 ; - - - - - - = - - ; : ; = = = * - ; * * = - * & $ * : ",
"; - $ @ % & & = - $ - : - ; < ; > 5 < 6 7 2 6 , > 4 t 5 < 1 2 , * * * = = * & = = - ; - = & & * & - - % & - = # % # * ; "
};
