/* XPM */
static char *_7856_df21c44c8121e622b6c1da5c0d8ff712fbcf5b023fc872c63696bd2387d2c41e[] = {
/* columns rows colors chars-per-pixel */
"60 60 256 2 ",
"   c #050402",
".  c #0B0102",
"X  c #0B0909",
"o  c #140200",
"O  c #1B0301",
"+  c #140A02",
"@  c #1C0B03",
"#  c #150C0A",
"$  c #1A090B",
"%  c #14110B",
"&  c #1A1208",
"*  c #1A0C14",
"=  c #1D1C14",
"-  c #191517",
";  c #0B1414",
":  c #240100",
">  c #2B0200",
",  c #250906",
"<  c #330100",
"1  c #3C0100",
"2  c #350E01",
"3  c #3B0C02",
"4  c #38070C",
"5  c #291606",
"6  c #321200",
"7  c #3C1602",
"8  c #3D1A00",
"9  c #371808",
"0  c #241818",
"q  c #2D0E14",
"w  c #1D2117",
"e  c #39200F",
"r  c #28241A",
"t  c #342B09",
"y  c #1D1C21",
"u  c #291D23",
"i  c #262B23",
"p  c #252B2C",
"a  c #2B2C2B",
"s  c #282526",
"d  c #3E3A39",
"f  c #302E2C",
"g  c #430100",
"h  c #4A0200",
"j  c #440C01",
"k  c #4C0901",
"l  c #460C0A",
"z  c #540301",
"x  c #5B0401",
"c  c #540C01",
"v  c #5C0D01",
"b  c #5A0A0A",
"n  c #570E08",
"m  c #451400",
"M  c #431A02",
"N  c #4C1801",
"B  c #531000",
"V  c #5B1301",
"C  c #531B00",
"Z  c #581608",
"A  c #591912",
"S  c #4C1313",
"D  c #640401",
"F  c #6B0300",
"G  c #640A01",
"H  c #680B05",
"J  c #720B01",
"K  c #700200",
"L  c #621300",
"P  c #6B1A04",
"I  c #791804",
"U  c #761B16",
"Y  c #6C1513",
"T  c #4A2707",
"R  c #542300",
"E  c #5A2400",
"W  c #562705",
"Q  c #482B17",
"!  c #46351C",
"~  c #56331E",
"^  c #562E0F",
"/  c #632400",
"(  c #692900",
")  c #772803",
"_  c #6A3400",
"`  c #6B390A",
"'  c #723101",
"]  c #7A3B01",
"[  c #753707",
"{  c #662717",
"}  c #7C2414",
"|  c #653919",
" . c #7D391A",
".. c #5D2323",
"X. c #483426",
"o. c #573328",
"O. c #4D3735",
"+. c #6A3629",
"@. c #7A4307",
"#. c #754618",
"$. c #6D4A10",
"%. c #4F4538",
"&. c #664824",
"*. c #754728",
"=. c #684537",
"-. c #794C38",
";. c #745132",
":. c #75542C",
">. c #7E6839",
",. c #3F4649",
"<. c #4E514E",
"1. c #745242",
"2. c #706656",
"3. c #72586B",
"4. c #63696A",
"5. c #871905",
"6. c #921B01",
"7. c #871810",
"8. c #8A2308",
"9. c #9B2602",
"0. c #833B00",
"q. c #8C3C01",
"w. c #863605",
"e. c #913B00",
"r. c #88341B",
"t. c #953A17",
"y. c #942816",
"u. c #A12404",
"i. c #B63707",
"p. c #A73B16",
"a. c #BB3B16",
"s. c #B73005",
"d. c #90382B",
"f. c #A93D23",
"g. c #CB3807",
"h. c #D33702",
"j. c #C33912",
"k. c #884606",
"l. c #974805",
"z. c #9A5508",
"x. c #884A18",
"c. c #944914",
"v. c #9A5818",
"b. c #815818",
"n. c #A34B04",
"m. c #BA4609",
"M. c #BD5A07",
"N. c #B84319",
"B. c #AA5A15",
"V. c #B65912",
"C. c #A9520A",
"Z. c #81610A",
"A. c #BD6203",
"S. c #BB670B",
"D. c #A86319",
"F. c #BD6C11",
"G. c #BC6C1B",
"H. c #B96618",
"J. c #BA721D",
"K. c #A07500",
"L. c #974A2E",
"P. c #885428",
"I. c #925826",
"U. c #865836",
"Y. c #925534",
"T. c #AA4F28",
"R. c #9D6329",
"E. c #8E6D34",
"W. c #A76626",
"Q. c #BC6D23",
"!. c #B46C27",
"~. c #A77622",
"^. c #BA7227",
"/. c #A46935",
"(. c #B26E31",
"). c #B87637",
"_. c #A77434",
"`. c #C55F01",
"'. c #CC5E01",
"]. c #C7570E",
"[. c #CC4F0A",
"{. c #C56501",
"}. c #CC6601",
"|. c #C56902",
" X c #CA6901",
".X c #C4640C",
"XX c #CB6509",
"oX c #C46A0B",
"OX c #CB6B0C",
"+X c #D16402",
"@X c #D26A03",
"#X c #D26409",
"$X c #D26A0B",
"%X c #DA6703",
"&X c #D47804",
"*X c #C66613",
"=X c #C36A14",
"-X c #CA6D14",
";X c #C46D1C",
":X c #CA6E1B",
">X c #D26A13",
",X c #CB7112",
"<X c #C5721A",
"1X c #CC741B",
"2X c #C57818",
"3X c #CB700C",
"4X c #E76617",
"5X c #F57919",
"6X c #EB780B",
"7X c #C76D23",
"8X c #C37224",
"9X c #C87528",
"0X c #C57A39",
"qX c #D66F27",
"wX c #EE7327",
"eX c #895342",
"rX c #98704F",
"tX c #A5774A",
"yX c #B87955",
"uX c #B27446",
"iX c #897765",
"pX c #A57F74",
"aX c #78847A",
"sX c #AE872D",
"dX c #A48012",
"fX c #D38B08",
"gX c #E28802",
"hX c #EA9105",
"jX c #E8A404",
"kX c #F8A814",
"lX c #F3B312",
"zX c #C8882F",
"xX c #FDBA26",
"cX c #FBB336",
"vX c #F2A731",
"bX c #D4AD07",
"nX c #FFC333",
"mX c #FFE229",
"MX c #E9C517",
"NX c #B48F51",
"BX c #8C8677",
"VX c #B48A71",
"CX c #D08B44",
"ZX c #D1AD54",
"AX c #F0B951",
"SX c #C88A6A",
"DX c #CA987D",
"FX c #DCA27D",
"GX c #FFCD42",
"HX c #FFE655",
"JX c #A7968B",
"KX c #B4A88E",
"LX c #CFADA9",
"PX c #D3AF8B",
"IX c #F9CFB0",
"UX c #F0DCD3",
/* pixels */
"oX|.|.|. X}.}.}.|.XX|.|.}.#X}. X X}. X%X+XXXXX}.}.|.+X+X{. X+X+X+X X X|.|.|.}.}. X X+X X+X X}. X}.}.}. X}.}.}.}.+X}.}. X",
"XX}.}.}.}.}.}.XX|.|. X X}.}.}.}.@X}.}.}.'.$X#X}.|.}.}.}.|. X+X+X+X}.}.|.}.}.}.}.}.}.}.}. X}. X}.}.}.}.}.}.}.}.}. X}.}.}.",
"}.}.+X+X+X+X}.XX X}.}.}.}. X@X}.`.@X X X X X'.@X}.}.}. X|.|.}.+X+X}.+X}.}.}.+X}.}.}.}.}.}. X}.}.}.}.}.}.}. X}.}.}.}.}.}.",
"}.+X+X+X+X+X}. X X X}.}.}.@X X}.$X}.|. X|.}. X@X}.}.}.|.|. XXX}.}.}.+X+X+X+X}.}.}.}.}.}.}.}.}.}.}.}.}.}.}.}.}.}.}.}.}.}.",
"XX}.}.}.}.XX}.}.}.XXXXXX@X}.{.{.XXXX X|.XX|.|.{.}.}.XXXX X}. X}.XXXX}.+X+X}.}.XXXXXX}.}.+X}.}.}.}.}.}.}.}.}.}.}.}. X}.}.",
"}.}.}.}.XXXX}.}.}.}.XX}.#X'.|.,X.X-X XXXXXOX.XoX#X+X XXX+X+X}. X}.}.}.}.}.}.XX}.XXXX}.}.}.}.+X}.}.}.}.}.}.}.}.}.}.}.}.}.",
"}.XX|.|.XX'.+X+X+X+X'.@X}.}.,XA.H.=X{.}.XX.XS..X#X+X}.}.+X}. X|. X}. X}.}.}. X X X}.XXXXXXXX+X+X}.}. X}.}.}.}.}.+X}.}.}.",
" X}.|. XXX}.#X#X+X+X+X$XH.H.;Xk.P 8XA.|.;Xl.P G.XX+X}.}.}.+X X|.|.}.|.|. X X+X}. X}. XoXXX}.}.+X+X}.}.}.+X}. X}. X}.}.}.",
"}. X X X|. X+X+X}. XXX7X` ^ sX] : _ J.J.v.1 N ^..X#X}.+X@X}.}.|.oX|.|.}.}.}.@X X}.|.}. X}.}.+X}. X}.}.}.}.}.}. X}.}.}.}.",
" X}.}.|. X X X}. X|.*X0.O & 1 @.b.: ] c.v [ Z (.*XXX2XJ.S.G.G.H.G.V.;X*XOX{.XX{.|.}. X+X}.}.}.}.}.}.}. X}.}.}.+X}.}. X}.",
"{.}.}.}. X{.}.}.|.{.9X/ $.sX> _ vXzX) z G r.k ).F.F._.rXrX6 6 2 m /.).(.!.Q.^.<XoX}.@X+X+X X|.oX X}.}.}.}.}. X}.}.}.}.}.",
"}.@X}.}.}.@X@X XOXS.0X( $.GX~.z.nXnXH.9.p.w.> T !.W.&.t 5 o . O : j m R ( ( / C.oX}.+X+X+X}.|.|.}.}.}.}.}.}.}.}.}.}.}.}.",
"'.+X+X+X+X'.|.S.^.@.7 2 > dXHXbXfXkXcX|.m.t.. + ~ ! & & :.>.;.e 2 7 6 8 T N k.F.XX+X+X+X}.}.}.}.}.}.}. X}.}.}.}.}.}.}.}.",
"%X+X}.+X#X].$XJ.@.> _ CXsXK.MXmXjXjXxXfX>Xw.o % s 0 + 2.NXrXrXe ;.:.rXU.I.v.H.-X}.}.+X}.}.}.}.}.}.}.}.}.}.}.}.}.}.}.}.}.",
"{. X X|.XX>X{.0.: | zXcXHXlXfXlXxX&XkXnXvXw.O @ 0 * X r 5 6 5 , :.tX_.!.J.,XXX}. X}.}.}.}.}.}.XX}.}.}.}.}.}.}.}.}. X}.}.",
"}.|.|. XXX].8XW.M < n.hXjXjXlXgXhXgXfXjX<XzX-.O O o o , #.P.*.> < T k.J.1X|.}. X}. X}.}.}.}.+X+X}.}. X+X}. X}.}.+X}.}.}.",
" X X}.+XXX-X' C P./.XXvXjXfXhXfX6X@X1XD.8 &.=.o.m U.k.z.8X;X9Xl.k.1 < R B C.,X{.}.}.XX'. X|.}.XX}.}.+X+X}.|. X}.XX+XXXXX",
"}. X}.'.+X.XD.j 1 ( n.fXxXGXvXvXAXn.V C 5 5 e 8 > ' 9X3X|.oX].7XQ.v.#.*.:._.!.8X9X;XqX1XoX|.OX}.}.}.+X}. X|. X}.+X+XXX}.",
"+X+XXX.X}.}.,XC.x.m > I.sX$.$.$.sXZX~.$.@ = o 5 -.1 Q.S.F.<XF.<X^.).uX$.Q Q ^ T R E P c z.J.{.}.}.}.}.}.|.}.}.}.}.XXXXXX",
"+X}.oXXX}.}.}.9XP.m t &.>.VXiX! t NXZX7 O 5 X.> +.| @.).~.( _ / / W W , @ @ + + o 2 k L.k.k.oX}.}.}.}. X|.}.}.}.}.}.}.}.",
"+X+X+X X X|.oXk.< O 9 X.KXUXJX<.& 5 | I.| m yX| , e , T t o . O X X + & 0 & X 0 @ W } T.C ` 9X|.}.}.XX XXX}.}.}.}. X}.}.",
"}.}.}. X+X{.-Xk.[ #.7 9 BXBX<.0 = X.4 L.yX' c.yXO @ X.o X X - ; ; ; - 0 , 5 # o O < Y r.rX#.l.$X}.}. X XXX+X+X}.}.|.}.|.",
"}.|.}.@X'.@XXX,XfXJ.v.M 5 0 $ q 3.LXrXd.t.t.c | O # f o s <.d * X X % @ o o . o 3 +.Q T U.[ n.$X}.+X X}.XXXX+X}.}. X|.|.",
"}.XX}.#X+X+X+X XA.A.F.R.3 $ =.o.3.UXVXuXt.I { O o % - O.4.4.d u p y X . X.=.&.&.m { 3 m E z.qX|. X X}.}.XX}.+X+X X X}.|.",
"}.}.XX}.@X+X+X+X XA.|.0X` O 1.pXDXLXeXI L.{ 4 $ 0 = f aX4.,.p p a s * X O.=.~ tXP.( ( B.9X=X{.|. X X+X+XXX'.@X'.+X}.}.|.",
"}. X}. X+X+X+X+X|.}.OX=Xv.j > VXIXPXSX .c l o X - - i ,.,.<.p p s = = r & , O ^ &.#.).9X:XoX{.|.A. X+X+X@XXX'.#X+X+X|.|.",
"|.A. X XXX+X+X}.|.XX+X`.<XB.3 7 rX;.| ~ : o . X * i p   p <.p i f % w i a f u - + o Q | B.8X:X1XF.oX XXXXX{.@X#X+X+X X|.",
"|.|. X X}.}.XX+X}.}.+X#XXX7XI.R R T E M O . # # - p u 0 X i w i i w r w p p p a = = % o R k.0.w.D.J.9XXXXX}.}.}.+X+X}. X",
"+X+X%X+XXXXX}.}.}.}.#X#X'.'.-X9X;X9X9XD.8 o 0 - p a u 0 X . o & y a 0 - w i s a - s r X.> 3 ^ j Z ' z.7X.X}.|.}.}.}.}.}.",
"+X+X+X+X}.}.}.}.}. X}.+X%X+X+X}.}.#X{.S./.T f O.  0 $ $ , q : 4 O 0 * # w r i a y s f O.9 -.VXeX` x.x.v.:X`.}. X X}.+X+X",
"}.}.+XXX}.}.}.|.|. X}.@XXX`.}.XX}.|. X|.7Xc.@ <.0 o 1 b b z Y } Y 4 o X w % s p f p %.5 m eXuXSXpXDX:.C <X}. X|.|. X+X+X",
"|.|.XX}.+X}.}.|.|. X}.}.}. XA.|.XXXX}.}.}.V.8 5 iXo.k U J J 7.7.D S @ % & % % - # % %.w > P.FXVXeX .< E <X}. X X X X+X+X",
"}.}.}.}.}.}.}. X X}. X}. X}. X}.}.{.}. X'.>XD.C *.VX4 +.} 8.I G x 4 , - , , O 9 T : r f o Q VXIXIXSX( 0.;XXX}.}. X X}.}.",
"}.}.}.}.}. X}.}.}.}.}.}.}.}.}.}.+X}. X}.*X*X^.W.P N 9 3 Z Y h j S : q q > 9 > =.tX` o e X.> &.tX/ g q.7XoX}.}.@X X}.}.}.",
"}.}.}.}.}.}.}.}.}.}.}.}.}.}.}.}.XXXX X{.Q.v.I.Y.*.: 7 9 o : $ $ * 0 q : h n S < c.0X[ < c.k.B C c q.8XH.A.@X}.}.}.}.XXXX",
"}.}.}.}.}.}.}.}.}.}.}.}.}.}.}.}.}.#XoXH.k.c V B k j < : > $ * y * q : S G F b g w.!.J.Q.;XS.8X8XQ.G.F.OXOX}.}.}.}. XXX{.",
"}.}.}.}.}.}.}.}.}.}.}.}.}.}.}.}.@XXXG.e.J i.m.[.a.a.6.U v 1 4 o > < b U 7.7.U F 1 c.1X{.XX}.`.=X|.oXoX|.}.+X}.$X}.}.XXXX",
"}.}.}.}.}.}.}.}.}.}.}.}.}.}.}. X}.oXq.G V.[.g.h.h.j.a.5.F b ..< l Z D I 6.[.y.J 1 x.-X`.@X}. X|.|. X X}.+X+X'.+XXXXXXX|.",
"}.}.}.}.}.}.}.}.}.}.}. X}.}.}. X*Xn.P V.].4Xh.h.h.g.s.a.8.U n 1 h v I 6.i.wX[.5.g  .7X}. X|.3X{.{.}.}.+X}.'.#XXX}.XXXX X",
"}.}.}.}.}.}.}. X}.}.}.}.}.}.}.XX-Xe.) CXwX4Xg.g.g.g.u.I P n c k 1 z 5.m.4X5X[.9.L 1 k.9XXX X|.|. X}.'.@X@X+X}.XX}.}. X X",
"}.}.}.}.}.}.}.}.}. X}.}.}.}.}. X=Xl.( 0X4Xg.i.j.g.u.d.n A j > > > < J qX5X6X5X].I g  .(.H..XXX|. X}.}.}.}.XXXX}. X}.}. X",
"+X}.}.}.}.}.}.}.}.+X}.}.}.}.}. X{.-Xq.P m.m.i.6.u.y.h 1 1 > > ~ q > x p.wX5X5X].8.z g 1 w.qXXX}. X}.}.}.}.XX}.}.|. X X}.",
" X}.}.}.}.}.}. X}. X}.}.}.}.}.}.}.XX;Xq.v T.f.f.t.K D d.k j ....S l 1 I s.>XwX[.N.J z h <  .;X{.}.}.}.}.}.|.|.|.}. X}.}.",
"}.}. X}.}.}.}.+X}.}.}.}.}.}.}.}.$X{.OX<Xl.h h x G } r.v h h g h 1 3 < v 6.6.s.[.N.T.7.{ Z g q.-X|.}. X}. X}.}.}.|.}.}.}.",
"}.}.}.}.}.}.}.}.}.+X}.}.}.}.}.+X+X{. XoX*XV.V.n.h h h c B.V.V.B.B.D.D.v g G p.a.9.J H b c 1 q.:X}.}.}.{.}.}. X}.}.}.}.}.",
"}.}.}. X}.}. X}.}. X}.}.}.}.}. X}.}.|.{.#XXX#X*XT.R.v.B..X$X>X>X,XoXF.D./.B D I J J D H n g ' 8X.X}.}.}. X X}.}.}.}.}.}.",
"}.}.}.}.}.}.}.}.}.}.}.}.}.}.}.}.}.+X|.}.}.}.|.oX=X1XoXF.}.$XM.{.{.XX#X=X!.V G H F F D z g >  .).*X#X}.}.}.}.}.}.}.+X+X+X",
"}.}.}.}.}.}.}.}. X}.}.}.}.}.}. X}.}.}.}.}.}.|. X}. X|. X}.{. XOX{.#X'.XX;XB.L L U H x h m W 2 #.^.*X}.}.}. X}.}.+XXX+X+X",
"}.}.}.}.}.}.}.}.}.}.}.}.}.}.}.}.}.}.}.}. X X}.}.}.}.}. X}.}. X}.#XXX@X#X{.-XB.V g 1 < l eX=.@ @ #.).oX}.}.}.}.|.+X+X'.#X",
"}.}.}.}.}.}.}.}.}. X}.}.}.}. X}.}.}.}.}.+X}.}.}. X}.}.}.}.}.}.}.+X+X}.}.'.}.F.B.P.M : =.=., 0 & > @.H.`.}.@X X}.}.+X#X#X",
" X}.}.}.}.}. X+X}.}. X}.}.}.+X}.}.}.}. X}.}.}.}.}.}. X}.}.}.}.}.}. X}.XX}.}.OX,X9XD.M 5 &   0 5 O ' 1X}.+X+X|. X}.+X+X+X",
"+X}.}. X X}.}.}.}.}.+X}.}. X}.}.}.}.}.}.}.}. X}.}.+X}.}.}.}.}. X|.|.|.|. X}.}.{.M.sX^   X   0 5 : ' :X}.%X}.|.|.}.+X+X+X",
"}.}.}.}.}.}.}.}.}.}.}.}.}.}.}.}.}.}.}.}.}.}.}.}.}.}.}.}.}.}.}. X}. X|.|.}.}.}.XX9X` ,   ; - s 6 E D.OX+X}.}.}. X X}.}.+X",
"}.}.}.}.}.}.}.}.}.}.}.}.}.}.}.}.}.}. X}.}.}.}.}.}.}.}.}.}.}.}.}.}.|.XXXX X}.+X-X] > 5 ; p <.i o [ Q.{.+X}.+XXX{.}.}.}.}.",
"}.}.}. X+X X}.}.}.}.}.}.}. X}.}.+X X}.}.}.}.}. X}.}.}.}.}.}.}.+X#XXX}. X@X}.}.;Xm =.<.2.JX%.o T v.2X}.+X'.@XOXXX}. X X}.",
"}.}.}.}.}.}.}.}.}.}. X}.}.+X}.}.}.}.}.}.}.}.}.}.}. X}.}.}.}.}.}.+X#X}.|.}.}.}.9XN 7 3 T | > R R.8XA.}.+X}.@X|. X X}. X X",
"}.}.+X}.}.}.}.+X X}.}.}.}.}.}. X}.}.}.}.}.}.}.}. X}.}.}.+X}.}.}.+X+X}.}. X}.}.XXl.] ] ] ' 0.B.;XoX|. X+X+X}.}.XX}. X}.|.",
" X}.}.}.}.}.}.}.}.}.}.}.+X X}.}.}.}.}.}.}. X}.}.}.}.}.}. X}.}. X}.}.}.|.|. X}.}.1X=X<X9X<X=X$XXX|. X}.+X+X}.}.XX X X X X",
"}.}. X}. X}.}.}.}.}.}.}.}.}.}.}.}.}.}.}.}.+X}.}. X}.}.}.}.}.}.}.}. X}.|.|.XX}.+X}.|.|.|.{.}.+X'. X}.}.+X}.+XXX}.}.|. X}.",
"}.}.}.}.}.}.}.}.}.}.}. X}.}.}.}.}.}. X}.}.}.}.}.+X}.}.}.}.}.}. X}. X}.|.|. X}.+X}.@X}.}.}.'.%X%X+X X}.+X+X}.}.}.}.}. X X"
};
