/* XPM */
static char *_674_ab5b6c1dc71be623dd2ec5b0fe10236e29ce506a1810b6dd05d2895579098420[] = {
/* columns rows colors chars-per-pixel */
"60 60 255 2 ",
"   c #040201",
".  c #0C0201",
"X  c #0C0B05",
"o  c #0A0B08",
"O  c #140201",
"+  c #1C0100",
"@  c #150A03",
"#  c #1A0B01",
"$  c #150D0A",
"%  c #1C130B",
"&  c #141309",
"*  c #160D11",
"=  c #1B1B1C",
"-  c #181715",
";  c #0B130E",
":  c #240100",
">  c #2C0000",
",  c #260C01",
"<  c #2C0C01",
"1  c #280C0B",
"2  c #340100",
"3  c #3B0100",
"4  c #320C01",
"5  c #3D0D00",
"6  c #350408",
"7  c #2C1201",
"8  c #22140D",
"9  c #261508",
"0  c #341501",
"q  c #3A1101",
"w  c #3D1B02",
"e  c #37160C",
"r  c #241512",
"t  c #241B13",
"y  c #261A17",
"u  c #351815",
"i  c #2F0F10",
"p  c #1B221E",
"a  c #272219",
"s  c #322418",
"d  c #34290A",
"f  c #1D1B20",
"g  c #261D25",
"h  c #1B2223",
"j  c #2C2423",
"k  c #262827",
"l  c #352625",
"z  c #373835",
"x  c #2D332D",
"c  c #450200",
"v  c #4C0201",
"b  c #440A00",
"n  c #4C0B01",
"m  c #4D0B0F",
"M  c #540200",
"N  c #580A02",
"B  c #431401",
"V  c #4C1301",
"C  c #481902",
"Z  c #531301",
"A  c #541B00",
"S  c #5C1C01",
"D  c #5B1606",
"F  c #521614",
"G  c #6B0300",
"H  c #6B0C00",
"J  c #630902",
"K  c #770B04",
"L  c #641401",
"P  c #621C00",
"I  c #6C1802",
"U  c #791902",
"Y  c #6C1514",
"T  c #711213",
"R  c #4D2201",
"E  c #482205",
"W  c #592704",
"Q  c #57360A",
"!  c #462912",
"~  c #542A16",
"^  c #503717",
"/  c #652B01",
"(  c #6A2900",
")  c #662406",
"_  c #772806",
"`  c #6B3503",
"'  c #6C3805",
"]  c #7C3401",
"[  c #733B03",
"{  c #793904",
"}  c #6B2215",
"|  c #782615",
" . c #683B1C",
".. c #78391B",
"X. c #411721",
"o. c #462924",
"O. c #553728",
"+. c #513733",
"@. c #673625",
"#. c #6E352C",
"$. c #794604",
"%. c #7B4817",
"&. c #754B0F",
"*. c #564232",
"=. c #774A24",
"-. c #795B28",
";. c #6B4B32",
":. c #766A30",
">. c #423C48",
",. c #3E4845",
"<. c #474844",
"1. c #47514D",
"2. c #51514F",
"3. c #6B5348",
"4. c #72504A",
"5. c #746A4D",
"6. c #6A7272",
"7. c #727574",
"8. c #860B00",
"9. c #831B01",
"0. c #851605",
"q. c #961802",
"w. c #831B12",
"e. c #A11800",
"r. c #852408",
"t. c #982707",
"y. c #823E03",
"u. c #943901",
"i. c #8F3017",
"p. c #A22802",
"a. c #B92B03",
"s. c #B7370A",
"d. c #B93616",
"f. c #A6340E",
"g. c #94372C",
"h. c #A83E2A",
"j. c #B43B2A",
"k. c #CA3708",
"l. c #C73B14",
"z. c #D33A0E",
"x. c #894404",
"c. c #984705",
"v. c #854916",
"b. c #974C14",
"n. c #995617",
"m. c #94540B",
"M. c #A54805",
"N. c #A95608",
"B. c #BC5B04",
"V. c #A74817",
"C. c #A65A17",
"Z. c #B65019",
"A. c #93640E",
"S. c #BE6204",
"D. c #BE6E00",
"F. c #BB660A",
"G. c #A7651A",
"H. c #BA6B13",
"J. c #BC6A1B",
"K. c #BA6618",
"L. c #BC761B",
"P. c #B17707",
"I. c #874E27",
"U. c #86572B",
"Y. c #9D5C23",
"T. c #965A3B",
"R. c #8D4B32",
"E. c #A75A27",
"W. c #AD4F2F",
"Q. c #8E6B2D",
"!. c #AB6324",
"~. c #AB662A",
"^. c #B56B24",
"/. c #B36C2C",
"(. c #BA6A28",
"). c #A56937",
"_. c #A7723A",
"`. c #BB7A35",
"'. c #B77030",
"]. c #CC4803",
"[. c #C55E01",
"{. c #CB5E00",
"}. c #C9580C",
"|. c #D75D09",
" X c #C64616",
".X c #D3520B",
"XX c #C56401",
"oX c #CC6601",
"OX c #C56A03",
"+X c #CB6902",
"@X c #C4660B",
"#X c #CB6509",
"$X c #C4690A",
"%X c #CC6A0A",
"&X c #D16401",
"*X c #D16A03",
"=X c #D3640A",
"-X c #D36A0A",
";X c #D96B05",
":X c #CD7609",
">X c #C46C14",
",X c #CB6B13",
"<X c #C26C1C",
"1X c #CB6D1C",
"2X c #C46517",
"3X c #D56813",
"4X c #CB7015",
"5X c #CA721C",
"6X c #C47218",
"7X c #D37517",
"8X c #D17106",
"9X c #C46E22",
"0X c #CB6D26",
"qX c #C27324",
"wX c #C87528",
"eX c #D37426",
"rX c #C37635",
"tX c #DA7337",
"yX c #D06929",
"uX c #ED7A28",
"iX c #DF6817",
"pX c #915C4F",
"aX c #8F6348",
"sX c #AE6944",
"dX c #B17650",
"fX c #C57947",
"gX c #B38D32",
"hX c #D68700",
"jX c #D18D12",
"kX c #E68407",
"lX c #EC871B",
"zX c #F0A311",
"xX c #ED8B35",
"cX c #DDA52C",
"vX c #F7AC31",
"bX c #D9992B",
"nX c #F0C715",
"mX c #FFD538",
"MX c #FFE02F",
"NX c #B2866C",
"BX c #AC9061",
"VX c #D1A94F",
"CX c #E3B24F",
"ZX c #D6916E",
"AX c #FFBB60",
"SX c #C8A261",
"DX c #F5C44F",
"FX c #ECC564",
"GX c #AB9F8C",
"HX c #BFBE9F",
"JX c #D6A78E",
"KX c #E6A68C",
"LX c #F3B8B2",
"PX c #F3C8AF",
"IX c #FFFCD7",
/* pixels */
"|.&XOXD.OXoX=X3X=X{.*X+XoXoXoXoX&X=X#X#XoX*XoXoX+XOXOX+XoXoX+X+XoXoXoXoX#XoXoXoXoXOXoX+X&X&X&X&X&XoXoX+XoXoXoXoXoXoXoXoX",
"|.&XOXOX+XoX#X}.=X&XoXXXoX*XoXoX{.&X#XOX+XoX&X&X+XOX+XoXoXoXoXoX+XoXoXoXoXoXoX+XOX+X+XXXoX&X&X&X&XoXoXoXoXoXoXoXoXoXoXoX",
"&XoX#XoX*X+XOXOXoX&X&X*X+XXXOXoX*X+XXX%X+X+X{.&XoX#XOXoXoXoX$X#XoXoXoXoXoX+XoX+XoX+X+XXXoXoXoXoXoXoXoXoXoXoXoXoX+XoXoXoX",
"oX#X#X&X&X+X+XOX+X+XoX+XXX+X+X+XoX*XXXOXXXoX{.3X#X#X#XoX#X#XoXoXoXoXoXoX+X&XoX&XoXoX+X#XOX#XOXoXoXoXoXoXoXoXoXoX&XoXoXoX",
"OXD.OXoXoXoXoXoX+XXX+X+XOXS.oXoXoXoX#XoX+XoX-X{.oX+X&X&X#X#X&X&XoXoXoXoX+X&X+X&XoX&XoX#XXX#X$XXXoX+XoXoX+XoXoXoXoXoX+XoX",
"D.OX+XoX+XoX&XoX#XOXoXXX>X5X@X5X%X#XXX7XXXoX-X#X+X+XoXoX#X*X&X&XoX+XoX+X+X+XoXoXoX&X&X&XoX#XOXOX+XoXoXoXoXoXoX&XoXoXoXoX",
"+XoX&XoXoX&X&X=X=X[.=X3XC.{ /.P _ K.<X@XD.D.S.%XoX&X+XXXoXoXoX&XoXoXoX+X+XoXoXoX&X&X&XoXoXoXoX+XoXoXoXoXoXoXoX+XoXoXoXoX",
"&XoX&X&X&X*X%X,X2XeXwXC.P / ` { c '.'._ D.D.F.XX&X&X#XOXoXoXoX&XoXoXOXOX+XXXoXoX&X&X&X&X&X&X+XoXoXoXoXoXoXoXoXoXoXoXoXoX",
"oX&XoX&XXX5Xm.$.Q.W R $.jXA.B CX] I S 3 N.:X@X#X&X&X#XS.+XoXoX+X*XoXoXoXXX#X#X#X+X&X&XoX*XoX&XoXoXoXoXoXoXoXoXoXoXoX&X+X",
"*XoXoXoX@XM.x.A.w 7 Q w DXcXx.FXwXU A b N.S.}.3X{.,XL.H.OXOX@XXXoX*XoXoX-XOX%XoXoXoXoXoX&X&X+X&XoXoXoXoX+XoXoXoXoXoXoXoX",
"+XXX+X@XeX] &.VX7 R cX$.&.DX8XxXuXtXdXb ~.wX2X2X2X(.sXdX^.L.H.F.OXoX{.oX#X#XoX#XoX+XoX+XoX+XoX#XoXoXoXoXoXoXoXoXoXoXoXoX",
"+XXX%X[.6X$.&.FX$.P.mXjXhXjX[.iX;XB.{ 3 ' v.n.E._.dX-.O.[ m.n.G.>X[.%X-XoXoXoXoXoX+X+XOX+XXXOX#XoXoX+XoXoXoXoXoXoXoXoXoX",
"XXoX*X#XwXx.` DXjXjXmXnXmXhXoXkXvXbXy.)  .5 ! d ^ ^ , O + 4 A T.`.wX0X@X#X*X&XoXoX+XXXOXOXOX#XoXoXoXoX+XoXoXoXoXoXoX+XoX",
"+X+X{.%XC.( A H.mXP.nXMXzXhXlXkXcXgXU. .O.: a $   s *.O.*.O.w R $.{ ] M.%XoXoX&XoX+XOX#X#XoXoX&XoXoXoXoXoXoX+X&XoX+X&XoX",
"+XXX&X4X{ ` P.y.vX8XhXzXhXlXlX(.R + + O . - , . X *.3.=.;.dXU.5 : > n c.>XoX&X&X&X+XoX#XoXoX&XoX&XoXoXoXoXoXoXoXoXoXoXoX",
"OX8XoX,X{ [ AXjXjXvXzXhX7XM.b.W 7 $ % * $ s ! ^ 7 X + > : W %.[ ` W n.qXF.+X+XoX&XoX#XoXoXoX+XoX+XoXoXoXoXoXoXoXoXoXoXoX",
"XX*XoX5X] N VXcX&.gXCXCXA.> O O - o t X . 7 sXfXv.) ) ( ( P L m.wX>X$XOX@XOXXX+X&XoX=X&X*XoX+XOX+XoX+XoXoXoX+XoXoXoXoXoX",
"oXXXXX1Xb.I y.A.:.:.gXSXSXQ @ X s + O e ~ 2 { '.^.`.`.gX`.rXwX1XoX&X*XoX+XOXoXoX&XoX&X&X[.*XoXXXoXoX&XoXoXoXoXoXoXoXoXoX",
"*X*XXXOXeXV.q :.IXHX5.d BXU.> ~ aXF 2 T.fX_ : &._.v.&.=.%.Y.2X#X&X{.oX+X%XOX$X#XoX+XoXoX#XoXoX*XoXoXoXoXoXoXoXoXoXoXoX+X",
"oXoXOX+X[.1X&.! BX1.<.a < 2 A T.r.sX5 ) b.).! . -., # + + ` '.9X<XeX4X$XS.@XoXoXoX+XOXXX%XoX&X&XoXoXoXoXoXoXoXoXoXoXoXoX",
"{.#X:XOXoXeXb.q & p X s NXi.I U r.R.< + @.2 % o X & O $ O O ^ U.I.v.v.G.0X1X,X-X%XXX+XOX#X+XoXoXoXoXoX+XoXoX+XoXoX+X&XoX",
"-X+XS.XX-X{.<XY.d 9 o.! PXdXf.i.r.} +   O l k k h f = y * O # O + O + W b.M.M.c.N.6X$X%XoXoXoX+XoXoXoXoXoXoX&XoXoXoXoXoX",
"{.oX8X+XoXoXXX9XI.6 +.pXKXZXW.W._ F 1 o y 7.7.1.<.p - * r 1 : : O @ O + : > V D [ G.J.S.oX&X-XXX+XoXoXoXoXoXoXoXoXoXoXoX",
"&XoXoX+XoX*X{.,Xn.m #.LXKXsXv.P D > r h 6.7.2.1.x k - X 8 1 e 1 # @ . @ : e pXJX=.B G.H.-XoX+XOXoXoXoXoXoXoXoXoXoX+XoXoX",
"+X&X&XoX#X#X*XoX,XC.c  .NXaX;.: 0 + % = 6.6.1.,.z p k y o o O i u #   . C | } P C 4 W 6XXXoX#X+XoXoXoXoXoXoXoXoXoXoXoXoX",
"oX+X&XoXOXoX=X&XoX,Xn.Z 5 3 q C aXw , X 6.2.,.x <.k y g f f - * + .   X B } | ..NXQ.W J.oXoXoXoXoXoXoXoXoX+XoXoXoXoXoXoX",
"&X&X+XoXoXXXoX&X{.-X@XF.J.K.K.H.<X!.4 +   z ,.x k +.<.2.2.z z g f g k f $ O.4.B : ` J.[.;X&XoX*X+XoXoXoXoXoXoX&XoXoXoXoX",
"&X&XoXOXOXoXoXoX*XoXoX+X+XoX+XoXXX6X)., X o   p l j k z >.>.1.x k g >.g . 1 > + E ).9X%X{.&X&X{.oXoXoXoXoXoX+XoXoXoXoXoX",
"&XoX#X@XoX+XoX$XoXXX%XOXXX*XXX+X+XOXG.B d p X X . # . $ = - = h p z j + M pX;.4 0 Q !.F.%XXXoX;X&XoXoXoXoXoXoXoXoXoXoXoX",
"&XoX$XOXoX+XoXoX+XoX+X%X+XXXXX+X+XOXJ.~.0 d a . + e < , i - ; x 1.a . < R.fXdXJXPXBXA L.$X%X&X{.+XoXoXoXoXoXoXoXoXoXoXoX",
"oXoXoXoXoX+XoXXXoXoX=X#XOX*XoXoXoXoX$X2X!.b i X.m J N } c > . $ z l   e R.ZXdX..@.> S (.@XXX+X+XoXoXoXoXoXoXoXoXoXoXoXoX",
"#XoXoXoXOXoXoX+X&XoX&XoX+XXX*XoX+XoX=XXX9X~.B 6 m g.| | Y O.i @ z k   O ~ ZXJXKXJX/ ) qX@X+XOX#X$X@X@X#XoX*XoXoXoXoXoXoX",
"+X+X+X+XoXoX&X&X+X#XoXoXoXoX+X+X#XoX;XoX3X'.aX5 4.+.~ pX#.F o.j = & X . # ;.dXpX) ( (.@X%XoX2XK.^.^.K.2X*X&XoX+X&X=X#XXX",
"oX+X+XXX+XoXoXoXXXXX*XoX+X*XoX$X@X@XB.0XK.!.P > , 3.4.+.;.o.r r t r + + : < u 6 D )./.J.2X>XN.v N v D !.<X@X2XF.%XoX+X$X",
"|.=XoX#X#XOX#XoXoX*X+XoXoXoX&X%X<X^./.Z n n M M 2 4 6 y y t 8 O : : N | I P Z : 4 q B V b Z J U u.u.W R ).~.^.L.H.F.OXOX",
"=X|.=X#X#X#XOXoXoXoXoX&X*X=X}.2X!.V n n c ..h.h.g.D : + O O e ~ F Y w.w.9.r._ D 2 : 3 I._.!.Z.M. XyX2 + 0 0 C q A G.H.%X",
"|.oXoXoXoXoX+XoX*XoX*X&X{.#XJ.~.V > v N G 0.K K H L c 6 m m Y w.g.j.t.8.e.q.8.U c ) tXuXuXuXuXiX].f.B 3.8   O t 9 0 /.9X",
"&XoX+XoX+XoX&XoXoX#XoX#X@X9X~.Z > n U 9.8.8.8.8.w.U T T m v T G 9.t.f.d.l.d.d.f.t.d.l..X]..X.X|.iXu.V GXk o k - k 9 B Y.",
"oX+X+XOXoX&X+XoX#X$XF.wXE.D n 3 H f.s.a.d.d.j.j.0.G T T c > n N L H K q.d.l.l.l. Xk.k.k.k.q.e.t.yXK 6 ! % @ = * - s , U.",
"OXOXOXOXoXoX&XoX2XwXC.N I L L i.s. Xl.l.q.t.t.i.U H G M m > > 2 2 v J G 8.8.e.k.z.k.z.s.q.9.r.r.r.N > @ # & ;   o a # 5.",
"OXF.wXH.oX*X{.4XC.N L H t.s.s. Xk.z.l.0.G Y N v c c 3 3 > : : : + > N M w.d.a.k.k.k.d.t._ _ 3 2 5 2 : + O @ o ; - & t s ",
"wXc.n x.wX9X0XC.D W ..V. Xk.k.k.k.l.t.G v 3 3 ..v.v.v.v.v.I.%.=.U.A > v Y r.t. Xl.Z.9.M v 3 q %.%.%.%.I.=.+ y k -   s @ ",
"&.U.*.> ~ C ^ w + e D g. Xz.k.k.p.t.U v > ' x.J.0X1X1X1X1X5X>X5X9XN.u.) 3 2 c N N N 3 v u.c.m.qX6X>X6XwX(...9 l u s r o ",
"W B aXO.+ r 9 X % i @.v t.p.Z.t.U | n 3 ' '.5X+XXXoX{.&XoXXXoXoXoX#XeXC.{ %.&.$.{ v.{ n.wX,X%XoXXXXXoXoXXX9X4 O 1 4.8   ",
"E.V < +.j k z x - s 4.#.n | i._ V 2 6 $.L.S.oXoX#X#XoX+XoXOX+X+X*XoX[.,X1X1X5X>X1X0X5X5XS.oXoXoX=X;XoX#X,XN.6 ;.r <.1 O ",
"qX!.A + 9 & k x z % s O.2 D S c > ..{ J.@X&X&XoXOXOX#XoXoXoX+XoXoXoXoXoX&X&X+XoX{.{.XXXXXX&XoX&X{.{.XX#XoX2X{ Q : + + Q ",
"OXJ.G.W @ % p h x a t : + > Z _ y.qX1X#X*X{.&XoXOXOXoX&X&XoXoXoXoXXX%XXX&X&XXX+X-X&XoXoX+X+XXX+X&X*XOXOX8XS.6X] { { x./.",
"OXOX>XC.' E . - - k t , @.` { wX5XXXoX&X&X&XoX+X+X+XoX&X&X*XoX*X#X#XXXoX*XoX+XXX#XoX+XoX+XXX#XoXoXoX+X+XS.+XOX4X4X5X0XB.",
"OXOXXX#XeXC.R O * f # 0 `.6X,XXX#X#XoXoX+X&XoXoX+XoXoXoX&XoXoXoXoXOXoX+XoXoXoX+XoXoXoX+X&X+X+XoXoXoXoX+XoX+XoXoX#XXX#XXX",
"OXOX=XoXXX5XG.R O . : $.H.OXoX&XoXoXoXoXoXoXoXoXoXoXoXoXoX+XoXoX&XoX+XoXoXoXoXoX+XoXoXoXoXoXoXoXoXoXoXoXoXoXoXoXoXoXoXoX",
"*XXXoX;XoXoX>XC.( / { L.OXoXoXoXoXoXoXoXoXoXoX+XoXoX+XoXoXoXoXoXoXoXoXoXoXoXoXoXoXoXoXoXoXoXoXoXoXoXoXoXoX+XoXoXoXoXoXoX",
"oX*XoX{.&XoXXX>XqXwX,X%XXXoX#X#XoXoXoXoXoXoXoXoXoXoXoXoXoXoXoXoXoXoXoXoXoXoXoXoXoXoXoXoXoXoXoXoXoXoXoX+XoXoXoXoXoXoXoXoX",
"{.*XoXoXoX*XoXoXXXXXoX&X;X&X=X#XoXoXoXoXoXoXoXoXoXoXoXoXoXoXoXoXoXoXoXoXoXoXoXoX+XoXoXoXoXoXoXoXoXoXoXoXoXoXoXoXoXoXoXoX",
"=XoX#X+XoXoXoXoX*XXXoX&XoX{.oXoXoXoXoXoXoXoXoXoXoXoXoXoXoX+XoXoXoX+X&XoXoXoXoXoX&XoXoXoXoXoXoXoXoXoXoXoXoXoXoXoX*XoXoXoX",
"|.%X%XOXXXXXoX+XoXXXOX*X{.&X=X&X&X+XoX+XoXoXoX+XoXoXoXoXoXoXoXoXoXoXoXoXoXoXoXoXoXoXoXoXoXoXoXoXoXoXoXoXoX+XoXoXoXoXoX+X",
"#X[.OX%XOXOX+XXXoXOXOXOXXX*XoX&XoXoXoXoXoXoXoX&XoX+X&XoXoXoXoXoXoXoXoXoXoXoXoX+XoXoXoX+XoXoX+X&XoX+XoXoXoXoXoXoXoXoXoXoX",
"oX#XoX+X+XoXoX&X&XoXoXOXOX#XoX&XoXoXoXoXoXoXoXoXoX+XoXoXoX&X+XoXoX+XoXoXoXoXoXoXoXoXoXoXoXoXoXoXoXoXoXoXoXoXoXoXoXoXoXoX",
"oXOXoX+XoXoX&X&X&X&XoX$X$XOXoXoXoXoXoXoXoXoXoXoXoX&XoXoXoXoXoXoXoXoXoXoXoXoX+XoXoXoXoXoXoXoXoXoXoXoXoXoXoXoXoXoXoXoXoXoX",
"oXoX+X+X+XoX&X&X&X&XoXOXOXOXoXoXoXoXoXoXoXoXoXoXoXoXoXoXoXoXoXoXoXoXoXoXoXoXoX+XoXoX&X+X+XoXoXoX+XoXoXoXoX+XoXoXoXoX+X&X",
"oX+XoXoXoXoXoX&X&X&XoXXXOXOXoXoXoXoX+X&X+XoXoXoX+XoXoXoXoXoXoXoXoXoXoXoXoXoXoX&XoXoXoXoXoXoXoXoX&XoXoXoXoXoXoXoXoXoXoXoX"
};
