/* XPM */
static char *_0871_a0d7b6b9f20793bced5036893713d47cc543bace3fe4a0c0df4765d6d616a53a[] = {
/* columns rows colors chars-per-pixel */
"60 60 255 2 ",
"   c #040400",
".  c #0C0302",
"X  c #010C00",
"o  c #0C0B09",
"O  c #130200",
"+  c #1C0200",
"@  c #110902",
"#  c #1B0B01",
"$  c #150B0C",
"%  c #091707",
"&  c #171308",
"*  c #170A13",
"=  c #0C1617",
"-  c #191A17",
";  c #230200",
":  c #2B0100",
">  c #240A00",
",  c #2C0C01",
"<  c #260B0B",
"1  c #340200",
"2  c #3B0100",
"3  c #330D00",
"4  c #3C0B00",
"5  c #370A0B",
"6  c #221102",
"7  c #2E1101",
"8  c #28160B",
"9  c #3B1401",
"0  c #361905",
"q  c #260D13",
"w  c #261917",
"e  c #341815",
"r  c #033B06",
"t  c #152813",
"y  c #37260C",
"u  c #29251B",
"i  c #362419",
"p  c #2F300D",
"a  c #1A1A22",
"s  c #2B1D23",
"d  c #1B2424",
"f  c #2C2524",
"g  c #252B2B",
"h  c #282928",
"j  c #362929",
"k  c #2C2935",
"l  c #2F3739",
"z  c #373738",
"x  c #35312C",
"c  c #430100",
"v  c #4B0200",
"b  c #440D01",
"n  c #4C0C01",
"m  c #4A0F0E",
"M  c #530100",
"N  c #5C0401",
"B  c #540B01",
"V  c #5B0B03",
"C  c #4A1400",
"Z  c #451801",
"A  c #5C1500",
"S  c #521C00",
"D  c #5B1B01",
"F  c #551506",
"G  c #481C12",
"H  c #6B0901",
"J  c #660902",
"K  c #760600",
"L  c #661804",
"P  c #771803",
"I  c #671A13",
"U  c #7A1915",
"Y  c #4B2403",
"T  c #552400",
"R  c #5B2402",
"E  c #5D2B00",
"W  c #57280A",
"Q  c #5B3307",
"!  c #462716",
"~  c #4D3118",
"^  c #563014",
"/  c #632300",
"(  c #672902",
")  c #742D00",
"_  c #7A2B02",
"`  c #6A3505",
"'  c #773907",
"]  c #683616",
"[  c #702C15",
"{  c #492925",
"}  c #453629",
"|  c #583B26",
" . c #453939",
".. c #55383A",
"X. c #693725",
"o. c #1F5823",
"O. c #3E423C",
"+. c #254722",
"@. c #265E29",
"#. c #524110",
"$. c #6B4504",
"%. c #774108",
"&. c #735900",
"*. c #784516",
"=. c #74491C",
"-. c #484537",
";. c #564537",
":. c #794726",
">. c #7C5124",
",. c #795A36",
"<. c #694933",
"1. c #483F40",
"2. c #494947",
"3. c #554843",
"4. c #514E4E",
"5. c #67544A",
"6. c #736259",
"7. c #625965",
"8. c #890800",
"9. c #881803",
"0. c #951400",
"q. c #931E03",
"w. c #9C1901",
"e. c #831C15",
"r. c #A01E01",
"t. c #962608",
"y. c #833400",
"u. c #883B03",
"i. c #8B2D10",
"p. c #A72505",
"a. c #BA3509",
"s. c #AA3519",
"d. c #BB3B1D",
"f. c #B52607",
"g. c #893628",
"h. c #93362B",
"j. c #A73824",
"k. c #B23422",
"l. c #C83C08",
"z. c #C23C17",
"x. c #D13A03",
"c. c #C33821",
"v. c #844202",
"b. c #894706",
"n. c #974B06",
"m. c #975309",
"M. c #864815",
"N. c #92491B",
"B. c #995517",
"V. c #8C5211",
"C. c #B5440A",
"Z. c #A95608",
"A. c #B74417",
"S. c #AB5918",
"D. c #B45915",
"F. c #AE500E",
"G. c #8E661C",
"H. c #BD6403",
"J. c #BD660D",
"K. c #BC6A07",
"L. c #AA651C",
"P. c #BD6C1B",
"I. c #B76517",
"U. c #BD731A",
"Y. c #AE620E",
"T. c #9D422E",
"R. c #875728",
"E. c #9A5923",
"W. c #98583B",
"Q. c #884E30",
"!. c #A65D25",
"~. c #A74B22",
"^. c #9C673E",
"/. c #9A7537",
"(. c #956229",
"). c #AA6729",
"_. c #B66A27",
"`. c #BB7526",
"'. c #A86937",
"]. c #B97736",
"[. c #B06E2F",
"{. c #CD4904",
"}. c #C55D00",
"|. c #CA5F01",
" X c #C94519",
".X c #CB530D",
"XX c #C56401",
"oX c #CC6601",
"OX c #C56A02",
"+X c #CA6902",
"@X c #C4660C",
"#X c #CB6609",
"$X c #C46A0B",
"%X c #CC6B0B",
"&X c #D16501",
"*X c #D26A03",
"=X c #D26B0B",
"-X c #D46708",
";X c #D67605",
":X c #C36413",
">X c #C56B13",
",X c #CB6C13",
"<X c #C36C19",
"1X c #CA6D1B",
"2X c #C86515",
"3X c #D16D16",
"4X c #C3711B",
"5X c #CA731C",
"6X c #C87417",
"7X c #D17116",
"8X c #C3710D",
"9X c #ED7A19",
"0X c #EA7211",
"qX c #C36C23",
"wX c #C96E25",
"eX c #C47223",
"rX c #C97728",
"tX c #C37634",
"yX c #DA7529",
"uX c #EC7025",
"iX c #8D5B4B",
"pX c #8F7352",
"aX c #B3764E",
"sX c #B17C66",
"dX c #907B78",
"fX c #C07846",
"gX c #AB8108",
"hX c #CC9109",
"jX c #F78818",
"kX c #E88C09",
"lX c #D4A805",
"zX c #F1AF13",
"xX c #DB942D",
"cX c #C68A31",
"vX c #F4992D",
"bX c #F1B030",
"nX c #F7C514",
"mX c #FFDB2E",
"MX c #FFE430",
"NX c #B58450",
"BX c #B48A6E",
"VX c #988A7F",
"CX c #D0A65A",
"ZX c #F9B74F",
"AX c #E3A37D",
"SX c #D0A267",
"DX c #FFC25A",
"FX c #F9DD5F",
"GX c #7D7988",
"HX c #AD9DA0",
"JX c #A6A7A2",
"KX c #CBA584",
"LX c #E5B494",
"PX c #DDB7A5",
"IX c #E5C2A4",
/* pixels */
"&X&XOXOX#XoX&X&X&X&X-X|.&X*XOXOXK.OX+X%X#X#X&XoXoXoXK.OX+X*X+XOX+XoXoXoXoXoX*XoX+X#X+XXXOXoXoX&XoXoXoXoXoXoXoXoXoXoXoXoX",
"&XoXXX$X$XoX&X&X&XoX|.&XoXoX%XOXOXOX-X#X#X#X&X&XoXoXOXOXoXoXoXoXoXoX+XoX&XoXoXoXoXOXoX+XoX+XoXoXoXoXoX*XoXoXoXoX*X+XoXoX",
"&X&XoX#X#X+XoXoX#X#X*X*XXXoXXXOX+XoX&X-XXX+XoX&X&X&XoXoX#X#XoXoXoXoXoXoXoXoX&XoXoXoX#XoX#XoXoXoXoXoXoXoXoXoXoXoXoXoXoXoX",
"&X&XoX#X#XoX+XoX#X+X+X+X*XoX%X+X+XoX|.oXoX+XoXoX&X&XoXoX#X#X&X&XoXOXoXoXoXoXoXoXoXoXoXoXoX#X+X#XoXoXoXoXoXoXoXoXoXoXoXoX",
"oXoXoXoXoXoXoXoX+X+XOXOXoX}.&X|.#XoXoXoXoXoX+XOX+XoXoX#X#XoX&X&XoXoXoX#X+XoXoXoXoX&XoXoXoX+X$XXX+X*XoXoXoXoXoXoXoXoXoXoX",
"+X+XXXoXoX&X&XoX%XH.8XK.XX7X:X:X%X#XoXoXoXoXoX+X+XoX#X#X-XoXoXoXoXoXXXoX#XoXoXoXoX&X&XoXoX+X#X#XoXoXoXoXoXoXoXoXoXoXoXoX",
"+XoXoX#XoX&X&X*XJ.S.qX_._._.` ( 1XoXoXoX&X&XoXoX+XoX+X#XoXoXoXOXoX-XoXoX#XoX#XoX&X&XoXoXoX+XoXoX+XoXoXoXoXoXoXoXoXoXoXoX",
"OXoXoX-X#XoX-X%X_ v.) ' v.2 : E eX>X2X2X:X@XXX#XoXOXoXoXoXoXOXOX&X&X&XoX#X#XoX+XoXoXoX*XoX+X+XOXoXoXoXoXoXoXoXoXoXoXoXoX",
"oX+XoX+X@X<XJ.rXD %.$.> : *.%.W ].[.N.c c ( <XXX+XOX+XoX&X&X#X#X|.&X&XoXoXoXOXoX+XoXoXoXoXoXoXoXoXoXoXoXoXoXoXoXoXoXoXoX",
"+XXX+XXX5X/ b.` V.` >.SXE B.ZXD n v D ] 4 ).I.%X@X+XoXoXoX2X>X@X-XoX*XoX+XoXXX+XoX+XoXoXoXoXoXoXoXoXoXoXoXoXoXoXoXoXoXoX",
"-XoX+X$XeXT 7 # V.$.&.FXgXrXZXXXt.m.Q Y [.K.K.@XoX#X|.#X1XP.J.:X$XXXOX+X+XXX+X+X+XoX#XoXoXoXoXoXoXoX+XoXoXoXoXoXoXoXoXoX",
"-X|.%X@XL.Z NX#.b.xXQ gXvXOXjX;X9XD.4 + E `.K.U.2X2X2X<XL._._.I.K.U.K.$X#XXX*XoXoXOXoX#XoX#X&XoXoXoXoXoXoXoXoXoXoXoXoXoX",
"|.oX%XJ.tXC cXhXZ.bXhXlXzXK.&X0XhX_ 1 4 Y R.[.`._.).[.[.^.Q ` L.[.`.`.P.>XoXoXoXoXoXoX#X+X%X-X&XoXoXoXoXoXoXoXoX*XoXoXoX",
"*X+XH.<X].S m.DX;XzXmXmXzX;X0XvXZXCXiXX.+ Z >.=.:.R.>.^.#.,.R./.T b S A Z.%XoX&XoXoXoXoXoXoX&XoXoXoXoXoXoXoXoXoXoXoXoXoX",
"oXXX<X` b $.( xXvXzXMXnXkX;XjXuXE.^ G { ..O p ;.} i i +.-.p p y ; + : 2 n.7X-X|.&X&XoX+XoXoXoX&XoXoXoXoX*XoXoXoXoXoXoXoX",
"oX%X<Xn /.$.S 4XhXzXnXhXkX%X2Xu., > e 8 8 o X % % -.-.% t . O ; ; :.R.m.I.-XoX&X&XoXoX+XoXoXoXoXoXoXoXoXoXoXoXoXoXoXoXoX",
"oXoX#XZ.$.NX`.K.mXFXlXgXxXm.b 3 6 x i ;   t o.r % % 7 + O > M.b.n.P.eXK.+X*X|.-X|.&XoXXX-X-XoXXX+XoXoXoXoXoXoXoXoXoXoXoX",
"XX*XoX,Xb.` Z.v.$.&.lXbXn.n O O & e b !   % r @.o.-.<.,.,.R.aXtXtX<XH.OXXX#X@X@XoXoX+X+X&XoX}.+XoXoXoX*XoXoXoXoXoXoXoXoX",
"+X+X|.-X6Xm.S pXpXt #.CXCXS + O O 9 N.fX=.X +.r t p } ~ ~ ~ Y Y R ).cXU.U.eXeXrX,X+XH.OX+X*X-X&XoXoXoXoXoXoXoXoXoXoXoXoX",
"+XXX&X&XXXcXY 6.JX4.8 Y NXR.+ e <.Z N.].~ & t X % @ # O # # @ # O ~ Q E ( R L A Z.6XK.OX+XoX|.&XoXoXoX+XoXoXoXoXoXoXoXoX",
"oX%X}.*XoX4XZ ;.6.f $ , S D ` Q.X.b 9 !   %   o O O * * * o = $ - & # > ; v Q.W.' !.5XXX+X=XoXoXoXoXoXoXoXoXoXoXoXoXoXoX",
"XXoX-XoXoX8XV.^ f * j } [ L !.~.2 { O   X X o O { j e o o o o   o & - @ O { iXAXW 4 Z.=XXX+XoXoXoXoXoXoXoXoXoXoXoXoXoXoX",
"+X+X#XXXXX$X6XN.5 * 4.dXBXfX'.N.; w . $ h x s * e e w O . @ . o . O $ @ ; G L W.sXb y.6XXXoXoXXXoXoXoXoXoXoX*XoXoXoXoXoX",
"+XoXXX+X+XXXXXrXG 1.HXPXLX'.N.] O . - 1.4.3.z q q < q & .   $ ;.;.> O ; ; :.g._ :.:.Z.8XXX-XoXoXoXoXoXoXoXoXoXoXoXoXoXoX",
"oXoXoX+X+XOX+XK.b.' KXIXBX'.[ ; o   k GX2.-.f h h h h O.g - & ;.<.=.' %.' ` C / L Z.5XXXoXoXoXoXoXoXoXoXoXoXoXoXoXoXoXoX",
"&X*XoXoXOX+X+X$XrXu.$.:.' y.' Q y   k 4.z z g h g z O.z l h & . O ] aXaX].' R ).5X7X#XXX-X*XoXoXoXoXoXoXoXoXoXoXoXoXoXoX",
"oXoX*XoXoXOXoX#X|.1Xn.) _ _ n.cX:.O . s h g l d u O.O.z a w w u w O | ] [.`.cXqX%XXX|.|.&XoXXX#XoX*XoXoXoXoXoXoXoXoXoXoX",
"oXoX&X&XoX+X#X#X-XoX1XwXqXwX=X@Xm.W w * - - = - X - u z j f f f a x 6 ; ` v.y.y.I.yX,X#X*XoX*XoXoXoXoXoXoXoXoXoXoXoXoXoX",
"&X&XoXoX&XoX#X#X+XoXXX|.2X2XXXOXeXE.8 = = $ - $ o   . w k k z s k z o O 2 N ( S E ` S.3XoX&X&X&XoXoXoXoXoXoXoXoXoXoXoXoX",
"-XoXoXoX&XoXOXOXOX+X-X-X-X#XXX#X#Xm.7 # w j j ; < < : 5 q w k k 2.o o 8 X.sXIXLXpXQ ' I.#X&XoX&XoXoXoXoXoXoXoXoXoXoXoXoX",
"XX#XoXoX&X&XoXOXXX+XoXoX|.&X*X&XoX>XB.0 @ f < 5 V J V B 1 , q d 4.* + W '.KXsXBXSXpX3 ' rXoX+XoXoXoXoXoXoXoXoXoXoXoXoXoX",
"OX#XoX&X&X&X+XOXOXXXoX&X&X&XoX&X&XOX6XE.0 + i m h.e.e.J C 7 * * x $ + C aXLXsX^ ; 9 Z V.8XXX#XoX+XoX+X+XoXoX*X+XoXOXoXoX",
"XX+XoXoX#X-XoXoXXX+X-X|.|.-XoX&X&X&X$XU.B.Q 3.! g.T.h.I G < f a o O . O pXVXBXpX5 M.rX@X+X+XXX#X;X+X+XXX+XoXoXoX+X+XOXOX",
"OXoXoXoXoX#XoX#XoXXXoX-X-X&XXXoX&X|.oX$XU.M.i 6.1 F c 5 5. .w * ; ; > i 7 , b S Z B.2X&XOX$XrXD.n.n.Y.4X@X*X&XoX+X+XOX+X",
"oX+XoX&XoX#XoXOX+XXX&X-XoXoXoX+XoX=XoX@X1XE.+  .} O q 3. .- $ > F J J n ; W.tX1XeX@X,X2X<XL.B.^ ; O R ).:XoX&X&X+X+XoX&X",
"XXoXoX&XoX#XoXoX+X+X*XoXoXoX+X+XoXXX@X<XqXu.: < ; # i w e ; : F _ 9.K J 1 W.<X#X>XJ.Z.B.!.R O 8 g z ; R eX,X&X|.oX+XoX&X",
"+X+XoXoXoX#X+XOX+XoXoXoX&XoXOXOXXX7XP.S.u.n P e.I 1 : O 1 B J q.0.r.9.H c X.].D.!.F 1 : # + - w d g 8 W ).I.#X+X#X$X$XoX",
"XXoXoXoXoXoXoXoX+X*XoX+XoXXX$X6X@XZ.u.M B i.d.s.i.I W 4 n N K c. Xz.p.K V c M.A 2 ( D 4 < - = g = % 2.i R _.J.#X#X#X#X+X",
"+XoXoXoX-X#XoXOX+XoXoX*XXXXX>XI.y.c P A.A.A.d.0.9.H N N c J q.uXuX{. Xr.H B 1 n 9.s.t.P 4 w - - - % z ;.; ( 4XXXoX&XoX+X",
"+XoXoXoXoXoXoX+X+XoXoXoXXX,X<Xy.L ~.A.l.C.f.8.9.U e.U I 2 B P yX9X0X{.l.t.N 2 L s.d.r.s.G + # X X u h u 8 Y _.$XoXoXoXoX",
"+XoXoXoXoXoXoXOX+XoXoX#XXX5Xy.H A.A.x.x.f.8.K K H J v b e : M A.0X9XuX{.q.9.0.k.d.p.0.j.F > 3 , + $ = w j 7 / U.OXoXoX-X",
"oX+X&XoXoXoXoX+XoX+XXX#X@XwXy.M p.l.x.f.r.k.U N N M v b 1 1 M P C.0XuX{.r.p.d.z.s.8.j.e.1 X.'.'.] ; 8 f } 7 R _.OX+XoX#X",
"+X+XoXoXoX+X+X+XoX#XoX#X2XqXu.v 9.w.0.p.j.L F n c B S.L.S.)._.M P A.C.l.l.c.p.9.8.K J B 2 u.eXU.`.' O ..6., T ].J.$X+XoX",
"OXoXoXoXoX#XXXoXoX-XoXXX<Xu.c L t.d.d.s.P 2 1 F '.L.>X#X3X@XK.D.N J 9.q.s.t.K H H J v 2 u.P.@XXX5Xy.R iX0 3 / `.>X#XoXoX",
"oXoXoXoXoXoX+X+XoXoXoX#XrXy.c g.s.0.0.w.P v n [.J.OX+XoX#XXX+X>XD.N c n L I v B c 2 u.I.J.#X&X&X+XJ.*.1 : E I.H.#X&X&X&X",
"oXoXoXoXoXoX+X+XoXoX#X#X>Xy.2 I i.9.9.i.h.v D L.OXXXoXXX+XXX+XOX1XS.!.B 1 2 2 2 M.S.I.%X#X&X&X|.oX%XI.B.B.L.>XoX&X&X&X&X",
"oXoX&XoXoXoX+XoXoX-XoX+X,Xu.2 F [ T.h.h.m : D eXOX+XoXoXoXoXoX+XH.$X<XD.D.F.F.D.P.6X@X$X#X-X|.-XoX#X>X>X1X=XoXoX+XoXoXoX",
"oXoXoXoXoXoXoXoX+XXXoX%X@X).] : 1 b B c ; n S.@X+XXX+X#X-XoXoXoXOX+XXX=X#X3X3XXXoXXX+X#X#XoXoXoXXX%XXX&XoX&X&XoXOXoXoX#X",
"oXoX#X+XoXoXoX+X+XXXoX&X@X].X.# e # 8 3 C !.>XoXoXOX#X#XoXoX+X+X+X+XoXoXoXoXoX+XoXoX+XoXoXoXoX+XoX+XoXoXoX*XoXoX+X+XoXoX",
"oXoX+XoX&X&XoX+XOX%X+X@XP.M.! j X o * O Z tX#XoX+XoX#X@X-X&XoX+X+XoXoXoXoXoXoXoXoXoXoXoXoXoXoXoXoXoXoXoXoXoXoXoXoXoXoXoX",
"oX+XoXoX-X#XoX+X+XH.U.].M.3 i z l d k j Z ).@X*X+X+X$X#XoX&XoXoXoXoXoXoXoXoXoXoXoXoXoXoXoXoX+XoXoXoXoXoXoXoXoXoXoXoXoXoX",
"+X+XoXoX#X#XoXoX$X5Xv.Y > & f h = = = & Z ].>XoXoXOXoX#XoX&XoXoXoXoXoXoXoXoXoXoXoXoXoXoXoXoXoXoXoXoXoXoXoXoXoXoXoXoXoXoX",
"&XoX#X+X#XoXoXoX1Xu.4 7 & u 3.j - h - > Y _.@X*X+X+X+XoX&X&X+XoXoXoXoXoXoXoXoXoXoXoXoXoXoXoXoXoXoXoXoXoXoXoXoXoXoXoXoXoX",
"&XoX#X$X+XoX&X%Xb.' ] 5.VX6.-.-.z } # O S `.XXoXoXoXoXoXoXoXoX+XoX*XoXoXoXoXoXoXoXoXoXoX+XoXoXoXoXoXoXoXoXoXoXoXoXoXoX*X",
"&X&X#XOXoXoXoX,XL 4 0 i | 0 8 6 7 : 9 M.n.>X#XoXoXoXoXoX&XoX+XoXoXoXoXoXoXoXoXoXoXoXoXoX*XoXoXoXoXoXoXoXoXoXoXoXoXoXoXoX",
"&X&XoX$XoXoXoX>Xm.*.*.] ' %.%.%.%.%.B.`.6X#XoX&XoX+X+XoXoXoX+XoXoXoXoXoXoXoXoXoXoXoXoXoXoXoXoXoXoXoXoXoX*XoX+XoXoXoXoXoX",
"&XoXoXOXoX&X&XoX1XqXeX1X,X,X1X1X5X4X,X@XoXoX&X&XoXoX+XoXoXoXoXoXoXoXoXoXoXoXoXoXoXoX*XoXoXoXoXoXoXoXoXoXoXoXoXoXoXoXoXoX",
"oXoXOXoXoXoXoXoX#X#XoXoX&X&X&X&X*X#XoXoXoX&X&XoX+XOXoXoXoXoXoXoXoXoXoXoXoXoXoXoXoXoXoXoXoXoXoXoXoXoXoXoX*X+XoXoXoXoXoXoX",
"OXoXoXoXoXoXoXoXoXoXoXoXoXoXoXoXoXoXoX&XoX&XoX+X#X$XOXoXoX&XoXoXoXoXoXoXoXoXoXoXoXoXoXoXoXoXoXoXoXoXoXoXoXoXoXoXoXoXoXoX",
"#XOXoX+XoX+XoXoX&XoX&XoX#X#XXXoX&X*X&X&X&XoXoXXXOXOX#X+XoXoXoXoXoXoXoXoXoXoXoXoXoXoXoXoXoXoXoXoXoXoXoXoXoXoXoXoXoXoXoXoX"
};
