/* XPM */
static char *_5231_dbd75522767bbe77de85939b95ac9f32bf7164ae950f616ac285daca191b2b70[] = {
/* columns rows colors chars-per-pixel */
"60 60 250 2 ",
"   c #030201",
".  c #0D0100",
"X  c #0C090A",
"o  c #140200",
"O  c #1B0200",
"+  c #140B03",
"@  c #1D0A02",
"#  c #14090B",
"$  c #0D1108",
"%  c #18120A",
"&  c #0D0B13",
"*  c #1A191A",
"=  c #141114",
"-  c #240200",
";  c #2B0300",
":  c #2C0C01",
">  c #220C06",
",  c #330100",
"<  c #3C0201",
"1  c #350B01",
"2  c #3A0D00",
"3  c #3C0A0B",
"4  c #39090B",
"5  c #291706",
"6  c #341401",
"7  c #3B1301",
"8  c #371A08",
"9  c #251A1A",
"0  c #351A13",
"q  c #320C11",
"w  c #1B211D",
"e  c #28241A",
"r  c #392518",
"t  c #322507",
"y  c #231C22",
"u  c #2A2424",
"i  c #282729",
"p  c #362A27",
"a  c #393427",
"s  c #383735",
"d  c #302F31",
"f  c #430100",
"g  c #4B0301",
"h  c #440C01",
"j  c #4C0A01",
"k  c #47080A",
"l  c #540300",
"z  c #5D0302",
"x  c #530B01",
"c  c #5B0B03",
"v  c #530B0B",
"b  c #570A0A",
"n  c #441201",
"m  c #491704",
"M  c #541B00",
"N  c #5B1B02",
"B  c #571405",
"V  c #561917",
"C  c #4A1714",
"Z  c #630403",
"A  c #690401",
"S  c #690B06",
"D  c #740A02",
"F  c #671805",
"G  c #761A07",
"H  c #7E1714",
"J  c #482608",
"K  c #532200",
"L  c #5C2302",
"P  c #562A06",
"I  c #5D3101",
"U  c #543105",
"Y  c #472918",
"T  c #582D16",
"R  c #55381E",
"E  c #672702",
"W  c #7B2D00",
"Q  c #762700",
"!  c #663507",
"~  c #7C3300",
"^  c #793805",
"/  c #6C2112",
"(  c #782516",
")  c #7C3B13",
"_  c #6C3016",
"`  c #472A23",
"'  c #493D38",
"]  c #5C3B32",
"[  c #513528",
"{  c #673B27",
"}  c #753B25",
"|  c #6E421D",
" . c #7B461A",
".. c #7D5816",
"X. c #724D0D",
"o. c #46423B",
"O. c #5A4838",
"+. c #514934",
"@. c #75482E",
"#. c #6E4F36",
"$. c #3C3E43",
"%. c #443E40",
"&. c #3F4042",
"*. c #494D4D",
"=. c #54524F",
"-. c #6A544B",
";. c #795747",
":. c #695750",
">. c #64655F",
",. c #6D634D",
"<. c #615F60",
"1. c #6F6E69",
"2. c #881903",
"3. c #8E1B0E",
"4. c #832B00",
"5. c #852202",
"6. c #853B01",
"7. c #883902",
"8. c #822B1A",
"9. c #93331D",
"0. c #A52903",
"q. c #B22A08",
"w. c #B73405",
"e. c #AE3214",
"r. c #933C28",
"t. c #902E21",
"y. c #B13E21",
"u. c #C53A03",
"i. c #854406",
"p. c #954804",
"a. c #995609",
"s. c #924F19",
"d. c #89551B",
"f. c #9C5A1B",
"g. c #875610",
"h. c #A55809",
"j. c #B94314",
"k. c #A85D15",
"l. c #BC5712",
"z. c #B55F08",
"x. c #94670B",
"c. c #BD640D",
"v. c #BD6607",
"b. c #AB661C",
"n. c #BC6A14",
"m. c #BB6C1B",
"M. c #B96717",
"N. c #BB711D",
"B. c #AD7403",
"V. c #8A4822",
"C. c #885322",
"Z. c #935C24",
"A. c #945A29",
"S. c #9B4633",
"D. c #9E5F39",
"F. c #874D31",
"G. c #A55623",
"H. c #B2502C",
"J. c #946A25",
"K. c #896336",
"L. c #9D6A3B",
"P. c #9D732B",
"I. c #AA6726",
"U. c #B86B26",
"Y. c #BD7223",
"T. c #BB742A",
"R. c #AA6B33",
"E. c #B56B36",
"W. c #B77539",
"Q. c #C45D01",
"!. c #CA5E00",
"~. c #C15E0D",
"^. c #C95218",
"/. c #C56401",
"(. c #CC6601",
"). c #C56902",
"_. c #CB6902",
"`. c #C4650B",
"'. c #CA650A",
"]. c #C56A0B",
"[. c #CC6B0B",
"{. c #D16501",
"}. c #D26A03",
"|. c #D1640A",
" X c #D3690B",
".X c #D96303",
"XX c #CA7205",
"oX c #DC7A00",
"OX c #C36513",
"+X c #CA6511",
"@X c #C46C13",
"#X c #CC6C13",
"$X c #C36C1A",
"%X c #C86B1B",
"&X c #C87218",
"*X c #D46818",
"=X c #EB6814",
"-X c #EA7615",
";X c #EF7512",
":X c #C46D24",
">X c #C56B29",
",X c #C47224",
"<X c #C5732C",
"1X c #CB7628",
"2X c #C47A33",
"3X c #D16E28",
"4X c #ED681C",
"5X c #885A4B",
"6X c #A55242",
"7X c #97774D",
"8X c #866551",
"9X c #976B4C",
"0X c #B07153",
"qX c #B47D63",
"wX c #C27C43",
"eX c #C27760",
"rX c #BA893D",
"tX c #C98D00",
"yX c #C49803",
"uX c #DB9A04",
"iX c #CB8A18",
"pX c #CF9418",
"aX c #E78D00",
"sX c #EF9304",
"dX c #D9A70A",
"fX c #F3A818",
"gX c #CE8C2E",
"hX c #ED8D2D",
"jX c #E5AF37",
"kX c #FEC427",
"lX c #F9D233",
"zX c #FFE63F",
"xX c #BB8346",
"cX c #B09076",
"vX c #89927F",
"bX c #D2AC42",
"nX c #C9B55E",
"mX c #F4B74A",
"MX c #CA8D70",
"NX c #FEC845",
"BX c #FFD641",
"VX c #9C8E83",
"CX c #B6908B",
"ZX c #A8A089",
"AX c #D6A490",
"SX c #EAAD98",
"DX c #FCCAAB",
"FX c #C1CAAD",
"GX c #E6E3C2",
"HX c #F3D1C5",
/* pixels */
"'.'.(.)._.(.(.{.{.|.+X`.).).(.{.(._.(.{.{.{.{.(.(.(.).].(._.(.).(.(.(.{.{.{.{.(.(.(.]._.'._.(.(.(.(.(.(.(.(.(._.(.(.(.(.",
"|.'._.(.(.(.(.{.{.'.Q.[.].XX(.{._.(.(.(.{.(.{.'._.(.'.'.(.(.(._._.).(.(.{.{.{.(.(.(.'.'.'._.(.(.(.(.(.(.(.(.(.(.(.(.(.(.",
"'.(.(.(.].'.(.{.(.{.).XX/./.(.(.(.(.(._.(.(.'.'.).).'.(.{.(.(.(._.(.(.(.(.(.(._.(.(.(.'._._.(.(.(.(.(.(.(.(.(.(.(.(.(.(.",
"(.(.{.(.'.'.'.{.(.(.).).).(.{.(.(.(._.(._._.'.].(.(.{.{.{.{.(.'.(._._.].'.(.(.(.(.(.(.(.(.(.(.(.(.(.(.(.(.(.(.(._.(.(.(.",
"{._._._.(.(.(.{.|./.(._._.(.{. X'.'.!.'.(._._._.(.(.{.{.{.{.(.(._.(.(.'./.'.(.(.(.(.(.{.(.(.(.(._.(.(.{.(.(.(.(.(.(.(.(.",
"(.(.(.(.(.{.(.{.'._.{._._.'.(.'.+X'.|.'._._._._.(.(.{.(.(.(.(.(.(._.'./.'.].).).(._.(._.{.(.(._.(.(.(._.(.(.(.(.(.(.(.(.",
"'.(.(.(.{.(.{.(.(.(.)./.&Xv.OX+X'.'.|.|.(._.).).(.(.(.(.(._.(.(.(.(._.'.).'.'._.(.(.{.{.(._.(._.(.(.(.(.(.(.(.(.(.(.(._.",
"'.'.(.(.{.{.(._.).].].n.M.F p.>X/.(.'.+Xv.v.).).).(.(.(.).).(.(.{.(.(.(._.]._._.{.(.{.(.(.(._._.(.(.(.(.(.(.(.(.(.(.(.{.",
"{.'.].'.(.(.(./.].m.I.R.E.B ; s.$Xv.>XQ f i.#X/.(.{.(.(.).).(.{.{.'.{.(.(.(.).(.(.{.(.(.(._.).(._.(.(.(.(.(.(.(.(.(.(.(.",
"(.{./.[.(.(._.].m.M n n j R.K 1 a.<XW ; ! R.U.OX'.)._.(.).'.|.{.{.Q.}.(.{./. X(.{.(.(.(._.(.'.'._.(.(.(.(.(.(.(.(._.(.(.",
"}.)._.).)./. Xl.B I.jXiXj h.mXB.M g G.G > 8 1 ) :X[./.(._./.'./.(.'.(.(.(.{.(.{.(.(.(.(.(.).(.)._.(.(.(.(.(.(.(.(.(.(.(.",
"(.(.).XXXX/.&X>Xf.N iXNXh.N.BXpXp.7.>XE.0 . O C D.b.Y.n.n.@Xv.[.n.$X).). X(.{.{.{.(._.(.).(.'.(.(.(.(.(.(.(.(.(.(.(.(.(.",
"~.(.}.).).c.M h N a.K jXzXyXyXkXhXQ.l.G - X o - O.7X7XL.W.b.N.N.m.T.@X]./.(.{.(.(.(._._._.(.(.(.(.(.(.(.(.(.(.(.(.(.(.(.",
"|.(.(._.].T.C.1 ..NXB.yXlXlXdXfXfX{.~.F O + -.` o r % R 7X0Xd.n L x Q @X(.{.(..X(.'.)._._._.(.(.(.(.(.(.(.(.{.(.(.(.(.(.",
"(.(.{.'.M.B K P.lXzXlXtXdXkXsXsXfXNX3XA L Y : a o.u O.+.9 t : O 1 j a.n./.(.}.!.'.'.).)._.(.{.{.(.(.(.(.(.(.(.(.(.(.(.(.",
"(.(.{.'.U.7., I lXdXdXkXuXsXsXoXuXiX>XwX_ R t + t 5 8 Y ' ` O.;.#.A.T.n.]._./.{.(.).(.(.(.(.{.{.(.(.(.(.(.(.(.(.(.(.(.(.",
"{.{.!.+XOX2Xg.2 pXkXyXdXaXoXoXXXgX! P #.Y 0 5 . K d.K - 8 : 6 R ;.J.T.].].]./.(.(.(.).}.{.{.(.{.(.(.(.(.(.(.(.(.(.(.(.(.",
"{.(.+X#X`.F ! rXx.pXNXBXpXNXhXE B 3 : r 9 o . Y R.0XA. .V.V.! - 7 < Q &X/._.(./.(.}.'././.{.{./._.(.(.(.(.(.(.(.(.(.(.(.",
"(._._.).c.7.< xXjXgX....X...bXbXJ.J @ > O o . t U d.0X,X,X$Xb.i.i.7.p.v./.'.(.(.}.!.'.[.).).(.{.{.(.(.(.(.(.(.(.(.(.(.(.",
"(.).)._.[.&X6.F gXi.xXcX-.t ..nXg.: o ` ;.`   X o : L i.2X,XY.2X2X2Xn.v.[.).{.(.!. X].v.XX(./.}.(.(.(.(.(.(.(.(.(.(.(.(.",
"(.'.{.(.(./.1X~ m #.GXFXVXi   t d.C.n @.MX_ = $ e o.0 Y P K U U X.E.Y.3X'.'.{.}.{.'.)./.).'.{.'.{.(.(.(.(.(.(._.(.(.(.(.",
"(.'.{.(./.'.).Y.; O.ZX+.d = a 8 M 0X9XN 5X{   d =.<.*.i % > . o : I E E 7.1X%X&X&X).)._.(.!.{.{.(.(.(._.(.(.(.(.(.(.(.(.",
"(.(._._.{._.).c.7.< J -.0 o CXMXL.r.S.F Y r   *.1.s s i s u % e : > r 5 ; ! E L ^ m.[.!..X.X(.{.(.(.(.(.(.(.(.(.{.(.(.(.",
"(._.(.(.(.{./.%X<X^ , @.8X3 AXSXeXD.8.V > $ * &.>.s y d y y u 9 u *.d p O ; P { 2 ~ n. X(.(.{.(.(.(.(.(.(.(.(.(.(.(.(.(.",
"_.(.{.{.(.(.'.'.`.T. .n CXCXSX6XS r.{ O X w & * o.o.u = $ * * i d w   o P 0XDXDX0XN W $X#X].)._._.(.(.(.(._.(.(.(.(.(.(.",
"_._.!.{.(.(.{.|.'.v.W.2 ;.HXSXD.S.F ; o $ & y # * i e X $ e i s &.. u 0 F.MXqXqX9Xh g k.+X/.).).(.(.(.(.(.(.(.(.(.(.(.(.",
"(.(.{.{.).).{.{.(.[.m.^ ; O.@.| @.! : o $   & = = * * X + % w $.s % ` q T AX0X} ; L ~ OX]._._._.(.(.(.(.(.(.(.(.(.(.(.(.",
").(.{.{.).).(.(.(._.).Y.X.I ! P I J...6 $ d y y d 9 # q ; O @ 9 0 O ; - C cXqX_ ^ E.:XOX].(._.(.(.(.(.(.(.(.(.(.(.(.(.(.",
"(.(.'.{.(.(._._.'./.'.).@X&X&X&X].&XT.L o =.<.d * . ; V v j f , 3 , O O 8 P n E :X+X'.(.[._.)._.(.(.(.(.(.(.(.(.(.(.(.(.",
"(.'.{.{.{.(._._.(.'./.}._.(._.Q. XQ.%Xi.; o o.>.i > v Z Z c b v V V 0 6 5 K.xXY.!..X|.'.'.).(.(.(.(.(.(.(.(.(.(.(.(.(.(.",
"(.(.'.'.(.)._.(.'.(.{./.(.(. X.X(.'.`.<Xi.1 O ' :.] ( H b k 3 q 4 q ` r @ 5 ..b.(.}.!.'. X(._.(._.(.(.(.(.(.(.{.(.(.(.(.",
"(.(.(.'.'.'.'.(.'.}.{.(._.'.{.!.'.[.+XOX,Xi.m m -.;.F ( h ; : - - ; ; - > O 1 T.'.(.'.'.].(.(._.{.(.(.(.(.(.(._.(.(.(.(.",
"(.(.(.(._.(.(.(.(.(.(._.(.(.{.(._./.'.[.`.OX2XE r -.` 7 5 0 O > h g k k , < h C.+X{.).)./.(.{.{.(.(.(.(.(.(.(.(.(.(.(.(.",
"(.(.(.(.(.(.(.(.(.(.(.(.(.(.(.(.'.(.}.Q.}.'.n.p.: p [ O m T m E 8.8.c v c b f g OX(.).].[.).(.(.(.(.(.(.(.(.(.(.(.(.(.(.",
"(.(.(.(.(.(.(.(.(.(.(.(.(.(.(.(._.).{.}./.).@XI.J ; x Z 4.>XhX*Xy.e.S z Z Z g g OX).].XX[.#X'._.(.(.(.(.(.(.(.(.(.(.(.(.",
"(.(.(.(.(.(.(.(.(.(.(.(.(.(.(._._._.{.{._.`.n.W g ( H.%XhX-X4X=Xu.e.2.A S z g N U.:Xa.a.f.h.c. X(.(.(.(.(.(.(.(.(.(.(.(.",
"(.(.(.(.(.(._.(.(.(.(.(.(.(.(._._.(.{.(./.M.4.4.j.^.-X;X-X-X*Xw.w.3.D b b < h 9XA.A.- o O ; h.'.(./.(.(.(.(.(.(.(.(.(.(.",
"(.(.(.(.(.(.{.(.(.(.(.(.(.(.(.(.'._.(.(.&X4.5.H.w.=X4X=X-X*X0.2.2.2.Z b k - 1 K.: O # &   @ G.#X'.(.(.(.(.(.(.(.(.(.(.(.",
"(.(.(.(.(.(.(.(.(.(.(.(.(.(.(.(./..X|.+X:X4.5.j.u.u.u.u.q.2.2.2.A b g < , ; ; O + # X i % o Z.OX].(.(.(.(.(.(.(.(.(.(.(.",
"(.(.(.(.(.(.(.(.(.(.(.(.(.(.(.(.{.(. X~.1XQ 2.H.u.q.0.q.2.3.2.D g < g v v v 7 O ` y & i u O ; k.].(.(.(.(.(.(.(.(.(.(.{.",
"(.(.(.(.(.(.(.(.(.(.(.(.(.(.{.(.{.{.(.].#X6.c 8.y.0.2.2.3.D l S 9.A H Z Z c n 1 8Xr   & i @ O f.$X(.(.(.(._.(.(.(.(.(.(.",
"(.(.(.(.(.(.(._.(.(._.(.(.(.(.(.{./.(.).).n.~ < S 5.G H 3.9.S.r.2.3.A S Z b 4 > 8X> & i i . > Z.&X(.(.(.(.(.(.(.(.(.(.(.",
"(.(.(.(.(.(.(.{.(.(.(.(.(.(.(.(.(.). X_./._.@Xm.~ < f < x S.r./ / B g v v < - # 5 o u i X @ O A.@X(.(.(.(.(.(.(.(.(.(.(.",
"(.(.(.(.(.(.(.(.(.(.(.(.(.(.(.(.'.)./.).XX}./.].>X! , m g < g < < f , ; < , ; 6 ;.: r X o o - A.$X(.(.(.(.(.(.(.(.(.(.(.",
"(.(.(.{.(.(.(.(.(.(.(.(.(.(.(.{.{..X'.)./.{.(.(./.:X^ g F c z z l b < f R.D.k.I.L.1 6 r r @ - Z.@X(.(.(.(.(._.(.(.(.(.(.",
"_.(.(.(.(.(.(.(.(.(.(.(._.(.(.{.{.{._.).(.(.(.'.'.].U.~ g ( F Z S l V 7 M U.OX&Xb.h P 9XR - ; f.@X(.(.(.(.(.(.(.(.(.(.(.",
"(.(.(.(.(.(.(.(.(.(.(.(.(.(.(.(.(.(.).).}.|.|.'.{.{.'.:X6., x / A S 4 ; O m U.n.n.a.< 7 2 ; p.%X'.(.(.(.(.(.(.(.{._.(.(.",
"(.(.(.(.(.(.(.(.(._.(.(.(.(.(.(.(.(.)._.(.'.+X|.{./.(.'.M.f.) f ( b - 0 -.; M U.m.n.k.f.A.G.:X+X_.(.(.(.(.(.(.(.(.(.(.(.",
"(.(.(.(.(.(.(.(.(.(.(.(.(.(.(.(.{.(.'.(._._._.(.'.(.{.(.).N.E. .- 0 5X;.8 @ o K U.v.].[.$X$X[.'.'.(.(.(.(.(.(.(.(.{.(.(.",
"(.(.(.(.(.(.(.(.(.(.(.(.(.(.(.(.(.(.(.(._.)._.).{. X{.(.).Y.d.J ` e O.O.o o o ; U./.{.}.(.).].(.(.(.(.(.(.(.(.(.(.(.(._.",
"_.(.(.(.(.(.(.(.(.(.(.(.(.(.(.(.(._._.(._.(.(.(.(./.(.`.T.Z.: O w i * % + O ; Z.n._.{.(.(.(.{.(.{.(.(.(.(.(.(.(.(.(.(.(.",
"(.(.(.(.(.(.(.(.(.(.(.(.(.(.(._._._._._.(.(.(.(.{._.'.1Xs.2 6 % e *.&.* 5 : s.m.[.(.(.(.(.(.{.{.(.(.(.(.(.(.(.(.(.(.(.(.",
"(.(._.(.(._.{.(.(.(.(.(.(.(.(._.)._._.(.(.(.'.(.(.(.#X7.^ { #.VX,.O.+.r 1 A.:X'.'._.(.(.(.(.(.(.(.(.(.(.(.(.(.(._.(.(.(.",
"(.(.(.(.(.(.(.(.(.(.(.(.(.(.(._._._._.(.(.(.(.(.(.(.&X7.g n 6 R 8 7 > 6 C.U.+X{.(.(.).).(.(.(.(.(.(.(.(.(.(.(.(.(.(.(.(.",
"(.(.(.(.(.(.(.(.(.(.(.(.(.(.(.(.(.(.(.(.(.(.'.{.(.).'.l.7.i.X.^ X.6.i.p.$X*X|.!. X'._.(.(.(.'.'.(.(.(.(.(.(.(.(.(.(.(.(.",
"(.(.(.(.(.(.(.(.(.(.(.(.(.(.(._.(.'.(.(.'.'.(.(.}._.[.OX3X:X&X,X,X1X$X#X(.(.!.{._._.(.(.(.(.(.'.(.(.(.(.(.(.(.(.(.(.(.(.",
"(.(.(.(.(.(.(.(.(.(.(.(.(.(.(.{.{.{.'.(.'._.'.(.(.(.(.'.]._._.).'./.'.{.{.{.(.(.(.(.(.{.{.{.{.(.(.{.(.(.(.(.(.(.(.(.(.(.",
"(.(.(.(.(.(.(.(.(.(.(.(.(.(.(.(.{.(.'.'._.].(.(.(.(.(.{.(.{.(.{._.(.(.{.{.{.(.(.(.(.{.{.{.{.(.(.(.(.(.(.(.(.(.(.(.(.(.(.",
"(.(.(.(.(.(.(.(.(.{.(._.(.(.(.(.(.(.(.'.].(.(.(.(.(.(.(.(.(.{.{.(.(.'.(.(.(.(.(.(.(.{.{.{.{.(.]._.(.(.(.(.(.(.(.(.(.(.(.",
"(._.{.(.(.(.(.(.(.(.(.(.(.(.(._.(._.(.'.'.(.(.(._.(.(._._._.(.{.{.(._.'.(._.(.(.(.(.(.(.{.(.).)._.(.(.(.(.(.(.(.(.(.(.(."
};
