/* XPM */
static char *_5500_b764935081fc946be5f751cefccfb1a9cdc5d7beeda2f84d9f5cdfd8e3852d9b[] = {
/* columns rows colors chars-per-pixel */
"60 60 256 2 ",
"   c #0D0301",
".  c #0C0A03",
"X  c #080809",
"o  c #140300",
"O  c #1C0200",
"+  c #140A02",
"@  c #1B0B01",
"#  c #140D0C",
"$  c #18050B",
"%  c #14130E",
"&  c #1C1407",
"*  c #0C0C11",
"=  c #131211",
"-  c #1B1513",
";  c #1B1B15",
":  c #171919",
">  c #0E1214",
",  c #230200",
"<  c #2D0300",
"1  c #230B00",
"2  c #2B0B00",
"3  c #280B0B",
"4  c #330100",
"5  c #3B0200",
"6  c #340D00",
"7  c #3B0C00",
"8  c #390C0C",
"9  c #271505",
"0  c #321301",
"q  c #3C1301",
"w  c #3A1905",
"e  c #241D1C",
"r  c #261915",
"t  c #371613",
"y  c #1F2219",
"u  c #29231B",
"i  c #382619",
"p  c #3E2810",
"a  c #1A1C22",
"s  c #2A1925",
"d  c #1A2322",
"f  c #272726",
"g  c #342828",
"h  c #3B342A",
"j  c #2C2C30",
"k  c #352933",
"l  c #383332",
"z  c #2A3130",
"x  c #430400",
"c  c #4B0100",
"v  c #440D00",
"b  c #4C0C06",
"n  c #530100",
"m  c #5B0402",
"M  c #570B06",
"N  c #4A1300",
"B  c #491605",
"V  c #5E1200",
"C  c #551C00",
"Z  c #5C1C01",
"A  c #541603",
"S  c #581714",
"D  c #471D11",
"F  c #650302",
"G  c #6B0201",
"H  c #630C01",
"J  c #660A07",
"K  c #750C01",
"L  c #770805",
"P  c #671904",
"I  c #771604",
"U  c #761A16",
"Y  c #690F13",
"T  c #492702",
"R  c #532B04",
"E  c #5C2B00",
"W  c #562301",
"Q  c #462518",
"!  c #562917",
"~  c #49351A",
"^  c #583618",
"/  c #553302",
"(  c #642300",
")  c #682400",
"_  c #692A05",
"`  c #732B00",
"'  c #772704",
"]  c #633302",
"[  c #6C3501",
"{  c #693A09",
"}  c #723402",
"|  c #7C3400",
" . c #733D02",
".. c #7C3D02",
"X. c #723A0D",
"o. c #6F2115",
"O. c #6F3613",
"+. c #472522",
"@. c #4A3728",
"#. c #583625",
"$. c #4E3230",
"%. c #673722",
"&. c #783D2B",
"*. c #7B460A",
"=. c #7D5500",
"-. c #774514",
";. c #734A14",
":. c #544129",
">. c #554734",
",. c #494337",
"<. c #654323",
"1. c #79542C",
"2. c #664A38",
"3. c #714B31",
"4. c #433E44",
"5. c #5C3F5E",
"6. c #523B67",
"7. c #494647",
"8. c #585556",
"9. c #4F4B4C",
"0. c #6B544B",
"q. c #7A625E",
"w. c #5C5F66",
"e. c #737663",
"r. c #880D02",
"t. c #851904",
"y. c #90180C",
"u. c #952206",
"i. c #863803",
"p. c #852816",
"a. c #99281A",
"s. c #95331A",
"d. c #88320A",
"f. c #A82B08",
"g. c #B52C04",
"h. c #B83607",
"j. c #A83A18",
"k. c #B63712",
"l. c #94362A",
"z. c #A52E26",
"x. c #C73A08",
"c. c #C63D11",
"v. c #D2380A",
"b. c #844302",
"n. c #884706",
"m. c #954803",
"M. c #895306",
"N. c #874817",
"B. c #964A13",
"V. c #8C5118",
"C. c #985818",
"Z. c #A7580C",
"A. c #BC5D01",
"S. c #B35B06",
"D. c #A65C17",
"F. c #B75D13",
"G. c #B84415",
"H. c #9E6E00",
"J. c #A76600",
"K. c #BE6305",
"L. c #BD630C",
"P. c #B86705",
"I. c #A86219",
"U. c #BD6A14",
"Y. c #BD6B1B",
"T. c #B66619",
"R. c #BC770D",
"E. c #955C25",
"W. c #8E522E",
"Q. c #A65D22",
"!. c #B65432",
"~. c #9D642B",
"^. c #986636",
"/. c #8C6828",
"(. c #A76729",
"). c #BB6B22",
"_. c #B46927",
"`. c #BC732B",
"'. c #B87429",
"]. c #A76A34",
"[. c #AD7036",
"{. c #BA7335",
"}. c #CB5E01",
"|. c #C65E04",
" X c #D45E03",
".X c #D04B16",
"XX c #C56402",
"oX c #CC6601",
"OX c #C56903",
"+X c #CB6902",
"@X c #C4650C",
"#X c #CA660A",
"$X c #C46A0B",
"%X c #CC6A0B",
"&X c #D16501",
"*X c #D26A03",
"=X c #D26B0A",
"-X c #D36409",
";X c #CA710C",
":X c #C46513",
">X c #C46B13",
",X c #CB6B13",
"<X c #C46C1C",
"1X c #C76819",
"2X c #D56B17",
"3X c #CB7216",
"4X c #C6721A",
"5X c #D2731A",
"6X c #DB7708",
"7X c #E77B0D",
"8X c #E36212",
"9X c #E15F21",
"0X c #C36D22",
"qX c #C26B28",
"wX c #C37322",
"eX c #CA7224",
"rX c #C8772A",
"tX c #D57621",
"yX c #CB6F39",
"uX c #CB5523",
"iX c #9A6447",
"pX c #936B4E",
"aX c #AE7450",
"sX c #9F6553",
"dX c #D07E44",
"fX c #B88406",
"gX c #B68332",
"hX c #CD860F",
"jX c #D78B28",
"kX c #EA9529",
"lX c #EB8633",
"zX c #CFA335",
"xX c #EDB032",
"cX c #DDA606",
"vX c #FFD12F",
"bX c #FFE130",
"nX c #8E8178",
"mX c #AC876D",
"MX c #AB945C",
"NX c #C99E4F",
"BX c #C4A652",
"VX c #F0B250",
"CX c #D4956D",
"ZX c #D9B075",
"AX c #F5B762",
"SX c #FFC75A",
"DX c #F1C86A",
"FX c #987EAE",
"GX c #D69F80",
"HX c #CBA98E",
"JX c #E7B992",
"KX c #D0B8A3",
"LX c #EECABA",
"PX c #DAD5A9",
"IX c #BEA0C4",
"UX c #E6D8C7",
/* pixels */
"+XOX+X+X+X+XXX+XoX&XoX&XoX+XXX%X#XoX*XoXXX+XoX*X&X&X#X#X&XoX#X#XoXoXoX+XoXoX+X+XoXoXoXoXoX&XoXoXoXoXoX+XoXoXoXoXoXoX&XoX",
"XXoX&XoXoX+XOX+XoXoX-X*XoXoX;XK.#XoX&XoX+X+XXXoX&XoXoXXXoXoX#XoXoXoXoXoXoXoXXXoXoXoXoXoXoX+X&XoXoXoXoXoXoXoXoXoXoXoX+XoX",
"oX*X-X XoXoX#X#XoXoX&XoX X*XoXOXOXXXoX+XOX+XXX+XoXXX#XOXoXoX&X+XoX&XoXoXoXoX+X+XoXoXoXoXoX&XoXoXoXoXoXoXoXoXoXoXoXoXoXoX",
"XX-X X X-X+X#X}.#XoXoX*X=XoXoXXX+XOX+XoXoXOX+XOXOX+X+X+X+XoX*X&X+X&XoX+XoXoXoXoXoXoXoXoXoX+X&X&X+X&XoXoXoXoXoXoXoXoXoXoX",
"OX+XoX+X*XoXoX+XK.OX,XL.m.>X-X X&XoXXXXXoX+X+XXXOX+X&XoXoX+XoXoXoXoX&XoXoXoXoXoXoXoX+XoXoXoX+XoXoXoXoX+XoXoXoXoXoXoXoX+X",
"XX+X+X+XoXXX*X+XR.Y.T._ N `.:X X}.-X#X#XoXoX+XoX+X+X&XoX+XXXXXXX+X&XoXoXoXoXoXoXoX+X&XoXoXoXoX+XoXoXoXoX*XoXoXoXoXoXoXoX",
"oXoX+X+XOXP.+XS.Z.(.M./ 2 ;.B.:X#X-XoX-X&XoX&X&XoXoXoXoXoXoX+X#XoXoX&XoX+X&XoXoXoXoXoXoXoXoXoXoXoXoXoXoXoXoXoXoXoXoXoXoX",
"&X&X+X+XOX4XY.m.N ] T BX9 w x {.rX:XS.A.*X&X&XoXoXoXoXoXoXoX+X+XoXoXoXoX+X+X+XoXoXoXoXoXoXoXoXoXoXoXoXoXoXoXoXoX+X&XoXoX",
"oX&X&X=XS.M.[.{ o 0 *. .T NXA N.N.*.v I.$X&X*X&X&XoX*X&X+X+XXX+X+XoXoXoX+XoXoX+XoXoXoXoX+XoXoX+XoX&X+XoXoXoXoXoXoXoXoXoX",
"=X#XoXA.*.*.-.< 6 T DXfXb.DXC.M v C 5 E.eXXXoX+XXXoX&X&XoX+X+XoXoXoXoX+X+X*XoXoX+X+XoXoXXXoX+XoXoXoXoXoXoXoXoXoXoXoXoXoX",
"}.#XeX| =.BX2 [ gX] fXvXK.xX5XF._.].v ].).:X,X>X<X$X*X=X}.oX*XoXoXoXoX+XoX+XoXoXoXoXoXoXoXoXoXoXoXoXoXoXoX+X&XoXoXoXoX+X",
"&XXXeX` =.DX] M.SXH.*.xXA.hX7X3XQ.4 4 ^.~.~.C.C.C.C.T.:X%XoXoX%X%X+X+X+XoXXX+XoXoXoXoX+XoXoXoXoXoXoXoXoXoXoXoXoXoXoXoX&X",
"oX@XeX| =.VXJ.kXvXcXbXfXm.kXkXP.x 7 ! @.>.#.9 , $ 9 W.(.:X-X-XXXoXOXXX+X+XoX+XoXoXoXoX&XoXoXoXoXoX+XoXoXoXoXoXoXoXoXoXoX",
"+X$XY...) zXxXOXbXbXvXH.[ AXSXNXR 2.2.1 9 u i i g @.>.^ Q.<X:X3X$X+X|.XX#XoX&XoX&XoXoX+XoXoXoXoXoXoXoXoXoXoX+XoX+XoXoXoX",
"OX;X[ ] n.b.VXhXcXvXxXzX~.6 ;.2 + # + O 7 E / T >.h f i 1.~.~.D.L.3X%XXX%X+XoXoX&XoXoX&XoXoXoXoXoXoXoX+XoXoXoXoXoXoXoXoX",
"oX3X] ;.VXS.kXhXhXM./ ZXgX. + u f s 2 4 ^.(.[.aX~ h ,.>.0 , 4 < i.S.K.OX+XoXXX+XoXoX+XoX&XoX&XoXoXoXoX&XoXoXoXoXoXoXoXoX",
"&XeX[ R VXzXBXDX1.~ 9 ~ MX. + o   3 l.m E._.(.^.9 + T / w 7 5 x v x m.$XoXoX#XOXOX+XoX*XXXoX=XoXoXoXoXoXoXoXoXoXoX+XoXoX",
"&X,Xb.< / gXBXPXKX0.e   ; . @ 1 @ 4 l.W.5 /.B O +   3.iX^.].].].].I.S.+XoXoX#XOXXX+X*XoX#X#XoX&X+XoXoXoXoXoXoXoXoXoXoXoX",
"oXXXU.*.9 pXKXe.nX8.$ O + @ N aXW.5 5 0.9 +     # $ $ 0.iX~.].(.Y.,X%X&X&X&X=XXX%XXXoXoXOX+X+X+XoXoX&XoXoXoXoXoXoXoXoXoX",
"XX=XOXgX/ 2.UX9.% u k s q.^ dXyXs.iX, i ; X s 7.7.4.g t 0 0 6 *.{.T.T.F.|.1XL.<XL.2X&XoXOXOX+X+XoXoX+XoXoXoXoXoXoXoXoXoX",
"&XoXXX<X-.0 h - w 0.FX6.LXiXm.yXX.sX& . & 7.7.9.l k g u u & & & 1 0 0 6 X.[.[.(._.F.#X&XXXoX+XXX+XoXoXoX&XoXoX+XoX&X+XoX",
"}.=XOXL.`.X.O , <.KXIX5.LXCX!.d.iX7 . % % ,.7.9.d = f j f d : ; = u e r 0 0 0 w 5 [ rXL.>X$X%XXXoXoXoXoXoXoXoXoXoXoXoXoX",
"&XoX*X+X#X).X.< ^.UXLXmXl.| p.P 8     ; - 7.9.7.f - - f f f : : f e j z f y y @ @ , 2 E {.).@X#X+XoXoXoXoXoXoXoXoXoXoXoX",
"oXoXoX&XoX%X0X..` JXJXGX^.^.o.5 o X * ; ; f 9.f % ; - - u - f = r u z d z z f f h g o 2 7 _ qX$XXXoXoXoX+XoXoXoXoXoXoXoX",
"oXXXoX&X&XoX$XU.*.] MXmXsX%.2 O . > : > : > s a . . $ $ o   = : ; : a : : : % f $., < &.#.O ` ).#X+XoXoXoXoXoXoXoXoXoXoX",
"OX+XoXoXoX&X+XOXT.b.V A C 0 1 l j 8.d > f j > X . + t 8 6 2 O #   + & 9 u u z l t B 3.HXKXHX-.) :XoXoXoXoXoXoXoXoXoXoXoX",
"L.$X+XoX&XoXoXoX$X>Xm.m.Z.s.1 9.l l w.a * s X s , 4 S m Y Y 5 O ^ /.E.E O + z l 2 &.aXiXw :.0 N >XoXoX+XoX+XoXoXoXoXoXoX",
"OXOX+XoX-X-XoXoX*X+X+X;X5XD.1 r e f $.w.e r , , 5 b J m n S +.0 7 /.{.D.V.R $ 2 , _ CXGXmX^ 2 E.U.oXoXoXoX&XoXoXoXoXoXoX",
"&X&XoX+XXXXX%XoXoXoXOXOX|.qX*.< 1 r Q $.i , o.s.&.S b +.t 3 t r 1 2 V.{.).F.m.B.B.| A O.<.E D.U.+XoXoXoXoXoXoXoXoXoXoXoX",
" X&XoX+XXX#XoXoXoXoXXX+X#X|.).V.1.2 ! t i ~ aX!.%.D t t $ , < , , , 8 V.eX@X2X,XeXF.b...| B.,XoXoXoXoXoXoXoX+XoXoXoXoXoX",
"&XoX#X#XOXoX+X+XoX&X*XXX#X+X@X<X).n.2 @ 9 @.#.#.t , 4 A H H V o.S 4 O 6 V.0XA.+X@X,X4XeXeX1X#X*XoXoX+XoXoXoXoXoXoXoXoXoX",
"+X+XXX#XoXoX+XoX*X}.%XXXOXOXoX}.1X).1.9 @ 1 O O O o.' s.j.j.z.s.Y M 8 o 5 C.eXXXXXXXoXoX}.oXoXoXoXoX&XoXoXoXoXoXoXoXoXoX",
"&X&X&X&X&X+XXX+XoX*XXXOX%XOXXX#X$X'.{ O O , N.B.d.k..Xc.c.h.u.L G U v < < 5 B.qX@X=XOXoX+XoX-X-XoXoX&XoXoX#XXX&X&X&X+XoX",
"oXoX&X&XoX+X+X#XoXoX+X*XXXXX%X:XY.( 4 -.N.' F.lX.Xx.v.v.g.t.L G G U D 4 b 5 b B.rX@XXX+X+XXX@X}.&XoX&X}.:X|.=XoX&XoXoXOX",
"#X#X+XoXoXoXoXoXoXoX+XXXoX=X%X1X| i.m.jXlX2X2X.X.Xc.f.f.u.I G G J m < 4 Y Y 5 v B.wXK.P.4XwXeX3XOX}.*XoX=XXX&X&X&XoX+XOX",
":XOXOX+XoXoXoXoXXXoX+X+X*X&XF.' n dXkX7X7X8X9Xc.f.f.u.K K J F J Y n 4 b F L M 4 x V.jXZ.[ | ' i.<X$XoXoX%X%X}.oXoXoX+XOX",
"XX+XoX&XoXoXoXoXoXOXoX-X X#X(.x t.uX X&X8Xg.g.k.r.r.K K G F J m M c m F G a.U M < 0 O.P 4 x x c N.qX#X+XOXK.+X*X&XoX#X$X",
"oXoXoXoXoX+X&X&XXX%XoXoX#X0X' P k.x.x.h.f.u.f.r.L F m H F m n x v b J G L a.z.I 5 < c J V P p.H 5 -.`.<X>X$X$XK.oXoXoX#X",
"&X-XXXOXoXoX&X XoXoXoX%X_.| n G.h.x..XG.t.H U P c x 4 4 x P ' ` N 5 c J J K a.z.J m z.z.t.t.s.p., , O.[ *.'.Y.3X#XXX&X&X",
"-XoXOXK.OXoXoXoX-X#X#X<X} 4 B.yX.Xv.g.h.p.5 M c P ( ( ] Z E.rXrXN.Z Z x m I L y.p.I y.y.z.r.r.s.B @ ! W 6 ;.*.i.Y.$XoX-X",
" XoX@X4X5X,X2XXX#X:X).` O 6 ' j.c.k.f.t.A 4 V P 1X<XwX4X<X:X#XOX$XrXm.P V c n F J I G t.y.z.L p.W.7 sX3.i + + @  .'.:X-X",
"oX,XF.i.m.| m.rX0X).} 7 Q O v !.k.y.L m < C _.eX#XoX+XOX+XXXoXoX&XXX>XrXB.P V x c c n n Y p.Y F o.5 pX, # * u + O } <X#X",
">XI.X.v 7 O.] ;.V.E.O #.aXB 7 ^.B.y.o.5 Z _.1X:XOXoXoXoXoXoXoX&X*X&X#X:X@X<XD.P P Z Z Z 5 5 x x 4 ! 0.& = > >   @ 4 Z.#X",
"4X` R >.$.pX:.O T <.o 3 pXsXO , P I 5 4 _.:X#X#XXXoX+X+XoXoX&X&X X&X#XXX+X+XL.Y.'.gX'.C.Z Z v < 5 ! o @ > > X # g , D.,X",
"%Xm.6 @ #     h h + % # k 0.$ @ A P 4 Z F.OX%X#X#XOXoXoXXXoX-X X*X&X%XOXXX+XOX$XK.P.K.$X<XrXD.Z B W w @ $ X * : u @ I.>X",
"+XeXN.6 9 ; # . : d f * o o   O 4 b C (.$XoX%X:X+XoXoXoXoXoXoX&X*X}.XXOX+XoX+XXX*XOX+X+XoX#X,XT.rX[.^.O o * a a d @ C.3X",
"@X:XwXV.0 + e > X d f y u & @ q v ) 0X@XOXOXOXoXoX&X&XoX+XOXoX%XXX*X+XOX#XoX XoXoX*X+XXX}.-X#X#XXXY.E.2 & : = : f & D.>X",
"#X#XoX<XN.2 o   X X = & 7.~ B [.{.T.#XoX+XOX+XoXoX&X&X*X+X+XOXXXoX+XXX#XoXoX-X&X&XoXoXoX#X#XoX+XoX,X(., @ + . f u O D.:X",
"XX=X}.oXeXM.q 0   X   9 ~ E _.Y.>X$XoXoXoX+XoXoXoX&X+XoXoX+X+XoXoXoXoX+XoXoXoX&X&X+XoXoXoXoXoXoX&X,XD.< @.i >.2.9 7 D.4X",
"-XoX*XoXK.>X[.V.2 $ O , T _.>XXXoXoX+XoXoXoXoXoXoXoXoXoXoXoXoXoXoXoXoXoXoXoXoXoX+XoXoXoXoXoXoXoXoX%XD.W 1.p MXpXB (.Y.L.",
"oXoX&X*X*X#XY.'.V.5 v E _.U.#XoXoXoXoXoXoXoXoXoXoXoXoX+XoXoXoXoXoXoXoXoXoXoXoXoXoXoXoXoXoXoXoXoXOX#X:XI.N N 6 N D.<XXX%X",
"oXoXoXoXoXXXK.>XY.T.T.Y.:X@XoXoXoXoXoXoXoXoXoX+XoXoXoXoXoXoXoXoXoXoXoXoXoXoXoXoXoXoXoXoXoXoXoX+X,X@X$XU.T.(._.(.:XXXoX*X",
"+XXX+X+XoX*X*X+X#XOX#X#XoX+X+X*XoX+XoXoXoXoXoXoXoXoX&XoXoXoX+X&XoXoXoXoXoXoXoXoXoXoXoXoXoXoXoXoX}.OXXX#X3X:X@X%X}.=X&XoX",
"+XoXXX+X*X+XoXoX*XoX&X+XoX+XXX+XoX&XoXoXoXoXoXoXoXoXoXoXoXoXoXoX+XoXoXoXoXoXoXoXoXoX&X+XoXoXoX&XoX=XoXXX+XoX&X&X=XoX}.&X",
"+XoXoXXXXX+X+XoX}.+XoXoXoXXX+XXXoXoXoXoXoXoXoXoX+XoXoXoXoXoXoXoX&XoXoXoXoXoXoX+XoXoXoXoXoXoXoX+XoXoX*XoX&X X*X&XoXXX=XXX",
"oXoXoX+XoX+XOXoXoX#X#X%XXX+XOX+X+XoXoXoXoXoX+XoXoXoXoXoXoXoXoXoXoXoXoXoXoXoXoXoXoXoXoXoXoX+XoXoXoXoXoXoXoX*XoX&XXX#XXX+X",
"&X&X&XoXoXoXoXoXoX#X#XoXoXoX+X+XoXoXoXoXoXoXoX+XoXoXoXoX+XoXoXoXoXoXoX+XoXoXoXoXoXoXoXoXoXoXoXoXoXoXoXoX+XXX+X#X+XoX#X+X",
"&XoXoX&XoX&X&XoXoXoXoXoXoX+XoXoX+XoXoXoXoXoXoXoXoXoXoXoXoXoXoXoXoXoXoXoXoXoXoXoX+XoXoXoXoXoX+XoXoXXXoXoXXX+XXX+XoXoXoXoX",
"+X+XoXoXoX&X&X&X&XoXoX+XoXoXoX&XoXoXoXoXoXoXoXoX&XoXoXoXoXoXoXoXoXoXoXoX+X&XoXoXoXoXoXoXoXoXoXoX+XoXoX+XXX+X+XoXoX&X&X&X",
"$X#XXXoX&XoX&XoXoX&X+X&XoXoX&X&XoXoXoXoX&X+XoXoX+XoXoXoXoXoXoXoXoXoXoXoXoXoXoXoX&XoXoXoXoXoXoX+XXXoX+XoXOXoXoXoX&X&X&X&X"
};
