/* XPM */
static char *_4763_b1732588ed7117bc2c282891fbdfc6b931746d78edc0fdfaa89ba5ea770b161f[] = {
/* columns rows colors chars-per-pixel */
"60 60 256 2 ",
"   c #0C0200",
".  c #090806",
"X  c #140200",
"o  c #1B0200",
"O  c #150B01",
"+  c #1B0B03",
"@  c #130D0A",
"#  c #1A080B",
"$  c #0E100A",
"%  c #17140B",
"&  c #1C1A14",
"*  c #1C1C1C",
"=  c #191415",
"-  c #101417",
";  c #230200",
":  c #2B0200",
">  c #230C01",
",  c #2B0A01",
"<  c #230C0C",
"1  c #2A0909",
"2  c #330100",
"3  c #3B0100",
"4  c #3A0A00",
"5  c #320A04",
"6  c #261707",
"7  c #321204",
"8  c #3B1201",
"9  c #381B07",
"0  c #231B1C",
"q  c #261A16",
"w  c #321910",
"e  c #28021B",
"r  c #1D231E",
"t  c #23231D",
"y  c #292218",
"u  c #362214",
"i  c #1D1D21",
"p  c #232223",
"a  c #2B2524",
"s  c #282A29",
"d  c #342C27",
"f  c #39382E",
"g  c #362E32",
"h  c #393737",
"j  c #2C3435",
"k  c #182224",
"l  c #440301",
"z  c #4A0100",
"x  c #450B01",
"c  c #4C0B00",
"v  c #480D0A",
"b  c #530101",
"n  c #5C0301",
"m  c #540C01",
"M  c #5B0B02",
"N  c #590C09",
"B  c #4C1400",
"V  c #4C1C00",
"C  c #461806",
"Z  c #541200",
"A  c #5B1300",
"S  c #521B01",
"D  c #591A07",
"F  c #471614",
"G  c #640400",
"H  c #6C0301",
"J  c #6B0B02",
"K  c #750900",
"L  c #621300",
"P  c #681A06",
"I  c #781904",
"U  c #601A10",
"Y  c #482607",
"T  c #542300",
"R  c #592804",
"E  c #482619",
"W  c #572616",
"Q  c #4A3318",
"!  c #5C3316",
"~  c #523206",
"^  c #632400",
"/  c #692803",
"(  c #732C00",
")  c #792708",
"_  c #663704",
"`  c #743402",
"'  c #7B3C01",
"]  c #773806",
"[  c #762615",
"{  c #773D1B",
"}  c #642F1A",
"|  c #411F37",
" . c #583727",
".. c #433A38",
"X. c #4C3330",
"o. c #71372A",
"O. c #684405",
"+. c #7A4204",
"@. c #774619",
"#. c #6A441F",
"$. c #706000",
"%. c #56463E",
"&. c #754823",
"*. c #724B31",
"=. c #3F3D42",
"-. c #6D3D4D",
";. c #3D4144",
":. c #474646",
">. c #534945",
",. c #585554",
"<. c #4C4F52",
"1. c #72584B",
"2. c #7C635C",
"3. c #6C696C",
"4. c #576363",
"5. c #881602",
"6. c #941A00",
"7. c #951904",
"8. c #8B180C",
"9. c #862804",
"0. c #96280A",
"q. c #823D01",
"w. c #873702",
"e. c #832B16",
"r. c #953819",
"t. c #97300B",
"y. c #A62705",
"u. c #A73306",
"i. c #B73605",
"p. c #A82B16",
"a. c #AB3714",
"s. c #B83915",
"d. c #B12A0F",
"f. c #963923",
"g. c #803A32",
"h. c #B03227",
"j. c #C13B06",
"k. c #C43B19",
"l. c #C53421",
"z. c #884706",
"x. c #964B07",
"c. c #944D13",
"v. c #8C561E",
"b. c #975718",
"n. c #8E4F11",
"m. c #AA580E",
"M. c #A75C17",
"N. c #B64A15",
"B. c #97611E",
"V. c #9B6E11",
"C. c #BE6503",
"Z. c #BC630B",
"A. c #BD6A0B",
"S. c #BB6707",
"D. c #A86216",
"F. c #BB6513",
"G. c #BD6A14",
"H. c #B5651A",
"J. c #BC6C1C",
"K. c #B7681A",
"L. c #B97911",
"P. c #895528",
"I. c #955926",
"U. c #875636",
"Y. c #8F4D2E",
"T. c #B5562A",
"R. c #9C6027",
"E. c #9D6832",
"W. c #A56627",
"Q. c #BC6D24",
"!. c #B56925",
"~. c #BC7324",
"^. c #B8722A",
"/. c #A86835",
"(. c #B36932",
"). c #BA7534",
"_. c #AD7235",
"`. c #CA5E01",
"'. c #C45D00",
"]. c #C34617",
"[. c #C55714",
"{. c #D64C09",
"}. c #C56403",
"|. c #CC6601",
" X c #C56903",
".X c #CB6902",
"XX c #C4660B",
"oX c #CA6509",
"OX c #C4690B",
"+X c #CB6A0C",
"@X c #D16401",
"#X c #D26A03",
"$X c #D26509",
"%X c #D26C0B",
"&X c #D96A04",
"*X c #CD7207",
"=X c #C36C13",
"-X c #CB6C14",
";X c #C36C1C",
":X c #CA6D19",
">X c #C46515",
",X c #D26A14",
"<X c #C2711C",
"1X c #CC731B",
"2X c #C97315",
"3X c #D57618",
"4X c #E97808",
"5X c #E96618",
"6X c #F17016",
"7X c #C95725",
"8X c #DE5C22",
"9X c #C56D23",
"0X c #C27422",
"qX c #C37329",
"wX c #C97725",
"eX c #C57A34",
"rX c #D66A27",
"tX c #F47629",
"yX c #E87330",
"uX c #895C48",
"iX c #975945",
"pX c #9A6A48",
"aX c #896856",
"sX c #967955",
"dX c #906E4C",
"fX c #B1794E",
"gX c #B86E54",
"hX c #C67350",
"jX c #B78D02",
"kX c #AC9308",
"lX c #B8843B",
"zX c #D48506",
"xX c #EA8E17",
"cX c #F0AD12",
"vX c #CD8D2A",
"bX c #C4A320",
"nX c #F3A41C",
"mX c #F6CB2A",
"MX c #FFE429",
"NX c #AE876E",
"BX c #D0934C",
"VX c #F0B85B",
"CX c #CE9473",
"ZX c #C9A956",
"AX c #F7CE4F",
"SX c #F9E575",
"DX c #887080",
"FX c #7E8887",
"GX c #AE9291",
"HX c #A8A293",
"JX c #DC9C81",
"KX c #D8B69A",
"LX c #E8B290",
"PX c #EBCEAC",
"IX c #F0C799",
"UX c #E3CFC1",
/* pixels */
"@X@XoXoXXX X|.|.|.@X%X|.}. X|.oXoX|.}.|. X.X|.|.oX|.|.|.@X@X|..X|.|.|.|.|.|.|..X|.|.|.|.@X|.|.|..X|.|.|.|.|.|.|.|.|.|.|.",
"@X|..X.X X X|.|.@X|.}.}..X}.|.%XoX$X|.@X|..X|..X$X|.|..X.X@X|.|.|.|.|..X|.|.|.|.|.|.|.|..X|.|.|.|.|.|.|..X|.|.|.|.|.|.|.",
"@X.X.XXX|..X|.|.|.|. X.X.X}.#X'.@X@X@X.X|.|.OXoX}.|.|.@X|..XoX|.|.|.|.|.|.|.|.|.|.|.|.|.|.|.|.|.|.|.|.|.|.|.|.|.|.|.|.|.",
"|.|. X.X|.@X|.|.@X|.*XC.%X#X`.%X@X|.|.|.|.|.oXoX|.|.@X|.|.|.$XoX|.|.|.|.|.|.|.|.|.|.|.|.|.|.|.|.|.|.|.|.|.|.|.|.|..X|.|.",
" X X|.|.|.@X@X|.`.oX.X}.|.$X$X@X|.|.OX.X@X@X@X|.XX|..X.X|.@X@X|.|.|.|.|.|.|.|.|..X@X|.|.|.|.|.|..X|.|.|.|.|.|.|.|.|.|.|.",
" X.X.X@X@X@X@X@X+XXXXXOXZ.XXoX}.oX.XoX|.@X@X@X|..X|..X|..X@X|.$X@X|.|..X.X|.|.|.|.|.|.|.|.|.|.|.|.|.|.|..X@X|.|.|.|..X@X",
"XXoX`.@X|.|.|.|.-X>XqX` ( ~.XX.X|.|.|.@X|.|.@X@X.XoX X X|.|.|.oX|.|.|.|.|.|.|.|.|..X|.|.|.|..X|.|.|.|.|.|.|.|..X|.|.|.|.",
"|.|.$X$X.XOX=X>X;X( q.' : ] 0XF.H.F.XX}.|.|.#X|..X}.OXOXoX.X|.|.|.|.|.|.|.|.|.|.|.|.|.|.|.|.|.|.|.|.|.|.|.|.|.|.|.|.|.|.",
"#X|.@XoX[.0X( z.` _ T @.z.^ fX@.2 5 / <XC.}.&X|.@X|.XXXXoX.X|.|.|.|.|.|.|.|.|.|.|.|.|.|.|.|.|.|.|.|.|.|.|.|.|.|.|.|..X@X",
"@X|.|.-X9X( +.O.V.VXT E.BX/ M l X Y E.~.A.}.}.@X&X@XoX+XOX}.@X#X|.|.|.|..X|.|.|.|.|.|.|.|.|.|.|.|.|.|.|.|.|.|.|.|.|.|.|.",
".X.X|.XXqXV kXMXbXAXjXvXVXw.n (.*.: 8 / G..X.X#X`.$X`.`.oX|.#X'.|.|.|.|.@X|.|.|.|.|.|.|.|.|.|.|.|.|.|.|.|.|.|.|.|.|.|.|.",
"OXS.OXK._.9 kXmX_ jXxXC.xX3X:XeX{ o 9 E._.K.G.A.>X9X>X,X-XXXOX+X|..X|.|..X|.|.|.|.|.|..X|.|.|.|.|.|.|..X|.|..X|.|.|..X|.",
"|.-X/ P._ _ V.mXjXcXnX|.&X4X*Xw.2 4 u 6 Q sXsXdX#.P._.Q.J.J.!.;X}.@X.X|..X|.|.|..X|.|.|.|.|.|..X|.|.|.|.|.|.|.|.|.|.|.|.",
"@X>XV 7 o lXzXcXMXmXcX&X6XnXAXBXU. .X   . y 6 r d Q #.T S S S A Z.}.|.|.@X|.|.|.@X|.|.|.|.|.|.|.|.|.|.@X|..X|.|.|.|.|..X",
"}.2XB &.B vXnXcXMXcXzXxX6XxXI.~ E E  .o 6 r s <.- . %   X o ; 2 Z.|.|.|.|..X|..X|.|..X|.|.|.|.|.|.|.|..X|.|.|.|.|.|.|.|.",
"|.2Xx E.b.~.vXmXmXcXcXzX%Xw.> % 6 w 8 ! *.o 6 y q X.f X.Q P.P.c.Z..X.X|.|.#X|.|.|.|..X|.|.|.|.|.|.|.|.|.|.|.|.|.|.|.|.|.",
"}.1Xc I.J.<X$.O.O._ kXAXV.; 6 f a o o R _.z.z.v.P.Y Y ~ W.qX1X-X.X|..X}.oX}..X|.|..X|.OX|.|.|.|..X|.|.|..X|.|.|.|.|.|.|.",
".XZ.b.( !.n.sXHX1.O $.SXZXY O O   w *.} ] eXQ.~.W.P.v.n.J..X`.@X|.@X.X}.oX.X.X.X|.|.|.|.|.|.@X|.|.|.|.|.|.|.|.|.|.|..X|.",
".X-X).S Y sXUXUX,.% 6 Y _.I.3 uXE : o.g.; O.).).^.vX!.<XA. X|.@X@X@X@X}.@X|.|.|..X|.|.|.@X|.|..X|.|.|.|.|.|.|.|.|.|.|.|.",
"}.oX!.B O NXHXGXh X g E B q.Y.Y.U.W 2 v X > ~ T R L ( ^.~.J.;XXXoX}.#X#X.X.X.X.X|.@X@X@X@X|. X}..X|.|.|.|.|.|.|.|.|.|.|.",
"#X+XG.n.9 f g g | e aXGXU r.hXM Y.uXo O @   O X.u o , Y ! _ D.0X1X$X'.}. X X}.|.|.@X@X@X|.|.|..X|.|.|.|.|.|.|.|.|.|.|.|.",
"}.|.XXqXY o O o 1.| GXUXhXT.I ( Y.C X - - k ,.4.<.:.a   O ; ~ _ / ^.qXG.A.+X#X}.|..X@X@X|..X.X.X|.|.|.|..X|.|.|.|.|.|.|.",
"$X}.#X Xx.] v F iXiXJXLXhXgX[ ^ E   = = k 4.FX;.:.h p a a y < O + Y _ W.wXA..X|.@X|.oXoXOXOX|.}.|.|.|.|.|.|.|.|.|.|..X|.",
"$X@X|..X*XeXD w gXPXIXfX[ e.g.2 X $ = - j FX,.<.f t j s s i p = = @ o ~ ` ` H.wXOX+XXX>XXXOX|..X|.|.|..X|.|.|.|.|.|.|.|.",
"|.|..X XC.J.n.B #.KXPXpXiXo.: X O r . . - j a h s s s j p r s f h 0 q + o o Y O.W.eX;X1X,X`.@X@X|.|.|.|.|.|.|.|.|.|.|.|.",
".X}. X X X2XK.c.2 T &./ { V o O $ $ - s s i 0 0 a y q 0 r s h %.h d t t = d % X S ( ' ] m.,X@X@X@X|.|.|.|.|.|.|.|.|.|.|.",
"|..X.X#X|.oX,X;Xx./ / L / / 9   r f h =.=.=.* = @ O ; ; # # 0 0 0 r p p p g # , R _ _ 2 B M.3X`.|..X|.|.|.|..X|.|..X|.|.",
"|..X@X@X$X`.`.$X-X1X1XqXqXeXv.7 u 3.g g i -   o 1 F D v 2 1 < # = * i i =.= , o.NXLXKXsX! _ m.+X|.|.|.|.|.|.|.|.|.|.|.|.",
"@X@X@X@X$XoX`.@X@X}..X XXXZ.0Xb.E f ,.,.a + 4 B U [ [ U N F 1 X   - 0 a >.> F iXCXNXpXaXaX8 ` wX.X.X|.|.|.|.|.|.|.|.|.|.",
"|.@X@X@X$XoX|.|..X#X|.}.#X|.XXqX&.7 2.2.>.< } [ I P U N N v 1 O $ .   + f 6 4 fXLXhXU.W , 4 x.1XoX|.|.|.|.|.|.|.|.|.|.|.",
"|..X|..X|.|.oX}. X X.X@X'.#X@X:Xn.c l  .1., E W F 1 1 < > + # 0 * & O u o X X uXNXJXLXfX/ c.wXXX.X|.|.|.|.|.|..X|.|.|.|.",
"+XXX.X.X|..X@X@X XC.+X$X@X@X@X`.wXx.3 l  .>.e F 1 : > ; ; : ; ; # < O aX! B W : c Z c M x.;XXX.X|..X|.|.|.|..X|.|.|.|.|.",
"|.|.|.|..X|.|.|..X|.OX.X+X`.@X@X+Xx.A 2 w %.q 7 3 4 Z L I I J N 3 1 : U.).!.eX` L R M m.>X|.}.+X%X,X*X+X.X.X.X.X.X|.|.|.",
"oX|.|. X X|.@X@X|.|..XoXXXoX@X@X}.;XBXP.o , 5 D f.a.T.7XN.h.p.n N N 2 g.H.-X'.;XJ.~.Q.;X1X,X=Xm.x.c.c.m.1X X.X}..X|.|.|.",
"oX|.|. X X|.|.@X@X}..X.X.X&X@X}.-XH.I./ m 9.9.N.yX8XrX7Xp.7.5.H M F ; ; m.+X+XXXS.A.<XM.n./.W./ o 6 > Y D.C. X.X|.oX|.|.",
"$X|.|.|.|.|.@X@X#X}.|.|.|.}.OXXXJ.9.z P t.[.{.{.k.j.y.7.5.5.H N v ; ; 5 z.>X:XA.~.D.m.^ 2 { ! o h <.h O R wX X.X|.|.oX+X",
"$XoX|..X|..X|.@X|..X.X|.|.}.1X!.] M u.;X6XtX6X5X5Xj.a.5.K J N v ; : N n z c.!.M.I.B 3 M L 3 > q 0 * =.u Y W.>X'.oXoX>X=X",
"`.$X@X.X}..X|.@X}..X}.|.#X.XD.' b b.yX6XtX5X5Xj.i.7.5.G P m z 2 : x G K J 3 P.S : 2 { [ I L 7 d = & s d > Y H.,XoXoXOXG.",
"oX|.@X.X X X|.|.|..X|.}.|.,Xq.3 5.].tXtX,XN.i.5.6.I n l 3 : 3 m M n H h.8.[ 2 : U G 9.u.y.T.W o % @ t s y ; / ;XoX|..XXX",
"@X|.@X.X.X.X|.@X.X}.|.#X`.1X] 3 5.y.j.i.u.0.5.K G n z l 4 ; v m N G 8.8.s.0.z l f.p.d.k.j.N.D o 6 % t s u 7 S (.|.@X|. X",
"|.|.#X|..X.X|.@X|.|.|.#X}.:X] 3 6.i.7.5.I ) Y.P z A T.!.W.x ; v N H H 5.a.N.K K h.l.s.k.y.p.W o o @ r t w E 7 S =X#X.X.X",
".X|.|.|..X.X|.|..X.X|.|.@X:X{ l y.k.a.K 3 Z L M W.K.Z.:XF.M.Z l n G H K 5.7.p.8.p.d.6.5.H P c { #.# & & w  .d C <X.X X.X",
"|.|.|.@X|.|.|.|..X@X|.}.|.wX] 3 9.y.k.u.b 2 m (.;X+X+XXXXX=XF.M.N b b n H 5.0.K K I L l x 2 w.^.^.O.o +  .aX# Y Q..X X X",
"oX|.@X|..X}.|..X}.}.|.#X|.J.] l 5.7.y.k.r.b m ).OX|.}.}.oX|.oX;XT.z l n b G G n n b 2 @./.D.Z.S.G.~._ W uXY , R ;X.X X X",
".XXX|.|.|.|.|.|.|.|.|.|.}.wX] z u.i.7.7.8.b m ^.S. X X*XXXOX.X'.OXH.M.x 3 4 5 4 3 q.H.>X:XXX X+X}.OX!.] 4 : T !.=X@X|..X",
".X.X|.oX@X|.|.|.|.&X`.}.XXQ.` M 7X8Xy.7.8.n m ^.A. X XC..X.X+X.X.XS.<XD.D.b.P.R.M.F.-X}.`.%X}..X#XoXXXJ.I.M.D.=XoX@X@X|.",
" X.X|.@X|.|.|.|.oX|.|.%X1Xw.M 9.rXyX8XN.0.b M Q.}.|..X#X@X`.}.$X`.%X XA.OX2X9X9X=XoX|.%X|.}..XoX|.}.@X@X.XOX.XXXoX.X@X@X",
"|.|.|.|.|.|.|.@X|.$X@X}.1Xw.z ) t.].[.yXT.b A !.+X@X|.|.@X&X|.|.$X}..X X|.`.$X`.}.#X@X}.@X|.|..XoX|.#X@X#X.X.X|.XXoX@X@X",
"|.@X.XoX}.|.|.#X|.$X@X|..XF.( z L P e.r.{ z Z 9XoX@X|. X|..X|.|.|.|..X|..X|.|.|.|.|.|.|.|.|.|.|.|.|.@X@X.X|..X|..X|.|.|.",
"@X@X|.OX.X.X|.|.|.|.}..XS.J._.} : 2 3 3 : : c ;XoX|.}.OXoX|.@X@X.X|.|.|.|.|.|.|.|.|.|.|.|.|.|.|.|.|.|..X|.|.|.|.@X.X|.|.",
"@X.X|.}..X X|.|.}.+XXX;X~._.U.> O y 7 > < 7 W.=X|.$X|.|.|.@X@X@X@X|.|.|.|.|.|.|.|.|.|.|..X|.|..X|.|.|.|.|.|.|.|.|.|.|.|.",
".X.X X|..X.X|.|.A.J.eXz.B C 9 y & $ % . O 9 ^.C.oX|.|.|.oX@X@X@X@X.X|.|.|.|.|.|.|.|.|.|.@X|.|.|.|.|.|.|.|.|.|.|.|.|.|.|.",
".X}.XXoX@X@X|.OX0X` V 8 9 w 6 % & i @     9 ~..XoX X|.|.@X$X@X|.|.|.|.|.|.|.|.|.|.|.|.|.|.|.|.|.|.|..X|.|.|.|.|.|.|.|.|.",
".X|.oXoX@X|..X=X+.U.Q X.GX>.% & p g g =   C J..X}.oX|.|.@X@X|.|.|.|.|.|.|.|.|.|.|.|..X|.|.|.|.|.|.|.@X|.|.|.|..X|.|.|.|.",
"|..XoX$X@X|.OX~.S  .X.:.3.d y t 0 p * q X x 0X|.oXoX|.|.|.|.}..X.X|.|.|.|.|.|.|.|.|.|.|..X|.|.|.|.|.|.|.|.|.|.|.|..X|.|.",
"|.|.|.@X@X|.OX<X/ ; 1 o X > + X o   o o , P.>X|..X|.|.|.@X|. XoX|.|.|..X|.|.|.|.|.|.|.|.|.|.|.|.|..X|.|.|.|.|.|.|.|.|.|.",
"@X|..X|.|.|.|.XXx.z.q.q.z.' ' +.' +.' q.c.J.*X}..X.X.X.X|.|.oX.X.X|.|.|..X|.|.|.|.|.|.|.|.|..X|.|.|.|.|.|.|.|..X@X|.|.|.",
"@X|..X.X|.|.|..X%X2X-X:X:X2X2X2X2XwX1X2X-XOXoX}..X.X.X.X|.|. XOX|.|.|.|.|.|.|.|.|.|.|.|.|.|.|.|.|.|.|.|.|.|.|.|.|.|.|..X",
"|..X.X.X|.|.@X@X}..X.XoXoXXXXXA.Z.C.}.oXoX|.OX.X.X|.|.|.|..X X X|.|.|.|.|.|.|.|.|.|.|.|.|.|.|.|..X|.|.|.|.|.|.|.|.|.|.|.",
"oX.X.X X|.@X@XoX|.oX.X.X}.oX XXXOXXX|.|.|.@XoXoX@X|.@X|..X.X X X.X|.|..X|.|.|.|.|.|..X|.|.|.|.|.|.|.|.|.|.|.|.|.|.|.|.|."
};
