/* XPM */
static char *_726_d65c78fcabc2ed576429f7a9c312dbe471a0726fd425c117f105069f65d4c87d[] = {
/* columns rows colors chars-per-pixel */
"60 60 256 2 ",
"   c #050301",
".  c #0C0201",
"X  c #070A05",
"o  c #140201",
"O  c #1A0200",
"+  c #1B0B00",
"@  c #120C0B",
"#  c #140906",
"$  c #0B1108",
"%  c #1C150B",
"&  c #17150B",
"*  c #190B12",
"=  c #1D1A13",
"-  c #1B1C1C",
";  c #161615",
":  c #0A1010",
">  c #240200",
",  c #2C0200",
"<  c #220B00",
"1  c #2B0B02",
"2  c #260D0B",
"3  c #330200",
"4  c #3A0200",
"5  c #3D0D01",
"6  c #320D00",
"7  c #271707",
"8  c #3B1300",
"9  c #391908",
"0  c #2B1D13",
"q  c #281A19",
"w  c #351A14",
"e  c #182D08",
"r  c #262418",
"t  c #362817",
"y  c #302B10",
"u  c #2B1824",
"i  c #1C2523",
"p  c #282828",
"a  c #342A28",
"s  c #36332A",
"d  c #2E2D35",
"f  c #342A33",
"g  c #3B3A3D",
"h  c #383637",
"j  c #2B322E",
"k  c #450100",
"l  c #4D0200",
"z  c #430C00",
"x  c #4C0C01",
"c  c #550D01",
"v  c #5C0B00",
"b  c #570602",
"n  c #441500",
"m  c #491400",
"M  c #431A00",
"N  c #46180D",
"B  c #591801",
"V  c #4C1714",
"C  c #6B0200",
"Z  c #670802",
"A  c #730C03",
"S  c #770A05",
"D  c #6C1C00",
"F  c #681706",
"G  c #791802",
"H  c #701D11",
"J  c #492605",
"K  c #542502",
"L  c #5A2903",
"P  c #5A3609",
"I  c #492618",
"U  c #542B16",
"Y  c #483319",
"T  c #55351C",
"R  c #672A04",
"E  c #722401",
"W  c #792804",
"Q  c #693505",
"!  c #7A3501",
"~  c #7B3C00",
"^  c #753904",
"/  c #692B17",
"(  c #762616",
")  c #633712",
"_  c #7B3515",
"`  c #492E25",
"'  c #4B3829",
"]  c #573A28",
"[  c #433C38",
"{  c #5A2A26",
"}  c #69372A",
"|  c #501F34",
" . c #324A33",
".. c #224D17",
"X. c #684500",
"o. c #7A4603",
"O. c #7D4816",
"+. c #754F18",
"@. c #514334",
"#. c #6B4827",
"$. c #754728",
"%. c #6D4E38",
"&. c #77630A",
"*. c #3F3F47",
"=. c #58394C",
"-. c #3E4742",
";. c #484749",
":. c #584C48",
">. c #575348",
",. c #555858",
"<. c #4F4C54",
"1. c #674D48",
"2. c #5C605F",
"3. c #746752",
"4. c #696453",
"5. c #675A62",
"6. c #5F6064",
"7. c #666764",
"8. c #707270",
"9. c #871803",
"0. c #931805",
"q. c #891A13",
"w. c #892405",
"e. c #962705",
"r. c #883A04",
"t. c #943505",
"y. c #853717",
"u. c #8A2A11",
"i. c #A52904",
"p. c #A83703",
"a. c #B93A16",
"s. c #B43A0B",
"d. c #8F382B",
"f. c #AB3A21",
"g. c #C73F0D",
"h. c #8A4403",
"j. c #884807",
"k. c #984804",
"l. c #98550B",
"z. c #8B551C",
"x. c #995916",
"c. c #8F4A16",
"v. c #A84604",
"b. c #B94704",
"n. c #A85707",
"m. c #B74718",
"M. c #B45B16",
"N. c #AC5611",
"B. c #956F07",
"V. c #BE6502",
"C. c #B9680A",
"Z. c #AA6319",
"A. c #BD6C15",
"S. c #BB661A",
"D. c #BC6B1B",
"F. c #B56817",
"G. c #B16C0F",
"H. c #884B24",
"J. c #885626",
"K. c #9A5D25",
"L. c #895735",
"P. c #AC552A",
"I. c #986437",
"U. c #9B642A",
"Y. c #AA682A",
"T. c #B96B26",
"R. c #B8722A",
"E. c #A96934",
"W. c #B76237",
"Q. c #B07538",
"!. c #C74704",
"~. c #C75A02",
"^. c #C84D15",
"/. c #CA5416",
"(. c #D75918",
"). c #D34F05",
"_. c #E35F1E",
"`. c #C56402",
"'. c #CC6601",
"]. c #C56A03",
"[. c #CB6902",
"{. c #C3640C",
"}. c #CC6509",
"|. c #C36A0A",
" X c #CC6A0B",
".X c #D16402",
"XX c #D36A03",
"oX c #D26309",
"OX c #D36B0B",
"+X c #DA6909",
"@X c #CA710B",
"#X c #D67405",
"$X c #C46B13",
"%X c #CA6C12",
"&X c #C36E1C",
"*X c #C66716",
"=X c #D56A17",
"-X c #C57313",
";X c #CA7315",
":X c #C5731C",
">X c #CC731B",
",X c #D1761B",
"<X c #EA7209",
"1X c #EB7419",
"2X c #F57A17",
"3X c #EE700D",
"4X c #C26B26",
"5X c #D96621",
"6X c #C57425",
"7X c #C97828",
"8X c #C97538",
"9X c #D87637",
"0X c #E96B27",
"qX c #EA7426",
"wX c #F17429",
"eX c #C95428",
"rX c #835043",
"tX c #986748",
"yX c #8E6A50",
"uX c #AC7150",
"iX c #A46768",
"pX c #CF7548",
"aX c #C17E61",
"sX c #A98910",
"dX c #A8852C",
"fX c #D98D04",
"gX c #E78903",
"hX c #D0AB13",
"jX c #ECAF11",
"kX c #CD8C2D",
"lX c #D5AD2D",
"zX c #EBB22B",
"xX c #FFCD2F",
"cX c #8C8579",
"vX c #AF896A",
"bX c #AB805E",
"nX c #C4844A",
"mX c #CFB95A",
"MX c #CA9574",
"NX c #CBA475",
"BX c #EFB75C",
"VX c #DCC541",
"CX c #FFE651",
"ZX c #FFC06B",
"AX c #FFE66A",
"SX c #7C7B81",
"DX c #938A90",
"FX c #BAAAA5",
"GX c #B29C8E",
"HX c #D0B08F",
"JX c #E7B196",
"KX c #DDADAB",
"LX c #EECA9C",
"PX c #FFD9BC",
"IX c #FFE1D1",
"UX c #D9D1C6",
/* pixels */
"'.'.'.'.'.'.'.'.'.'.'.'.'.'.'.'.XXXX[.[.'.[.'.[..X.X X].].`.XX'..X`. X|.`. XC.A.].}.'..X[.[.'.'.'.'.'.'.'.'.'.'.'.'.'.'.",
"'.'.'.'.'.'.'.'.'.'.'.'.'.'.'.'.'.'.'.'.'.'.'.'.'.'.'.[.[.`.`.OX{.A.n.v.;XA.G.k.;X{.%X`.].'.OX'..X'.'.'.'.'.'.'.'.'.'.'.",
"'.'.'.'.'.'.'.'.'.'.'.'.'.'.'.'.'.'.}.}.[.'.'.'.[.].[.'.`.}.>Xk.h.Y.R D x.U.6 L kXl.k.$X].`.~.}.'.'.'.'.'.'.'.'.'.'.'.XX",
"'.'.'.'.'.'.'.'.'.'.'.'.[.'.'.'.'.'.}.}.'.'..X'.V.].'.'.'.C.n.h.x.3 R h.k Q &.z.R z R 7X].XX~.OX'.'.'.'.'.'.'.'.'.'.'.'.",
"'.[.'.'.'.'.'.'.'.'.'.'.'.'.'.'.'.}.'.].[.'.'.}.[.'.'.XX}.7Xh.Q BXo.G.zXP X.CXsXJ X.Q A.[.'.[.[.'.'.'.'.'.'.'.'.'.'.'.'.",
"'.'.'.'.'.'.'.'.'.XX'.'.'.'.'.'.'.'.].'.'.'.'.}.'.`. X=Xn.W x m 7XjXfXCXdXB.CXsXsXdXL D.'.'.[.`.[.'.'.'.'.'.'.'.'.'.'.'.",
"'.'.'.'.'.'.'.'.'.'.'.'.'.'.'.'.'.}.'..X'.}.[.[.'.#Xn.E W W k.v.b..XjXxXfXfXxXhXzXB.Q kXV.OX~.[.'.'.'.'.'.'.'.'.'.'.'.[.",
"'.'.'.'.'.'.'.'.'.'.'.'.'.[.'.'.'.'.'..X'.}.'.'.XX[.N.B v W.9X5Xs.!.#XfX<XfXfXjXzXlXX.h.,X{.}.[.'.'.'.'.'.'.'.'.'.'.'.'.",
"'.'.'.'.'.'.'.'.'.'.'.'.'.'.'.'..XXX'.'.'.oX'.'.`.|.T.R.) Q m.^./.(.p.`.gXgXjXjXlXdXmX&.h.=X'.'.'.'.'.'.'.'.'.'.'.'.'.'.",
"'.'.'.'.'.'.'.'.'.'.'.'.'.'.'.'.'.'.'.`.}.'.'.[. X&XZ.J.Y , y.t.t.P.9.v.,XzXxXlXdXX.X.j.v. X X'.'.'.'.[.'.'.[.'.'.'.'.'.",
"'.'.'.'.'.'.'.'.'.'.'.'.'.'.'.'.'..X'.}.|.|.].}.*XY.%.' % . 2 z , I 9 8 H.x.hXVXNXL.3 l.@X].'.'.'.'.'.'.'.'.'.'.'.'.'.'.",
"'.'.[.'.'.'.'.XX'.'.'.'.'.'.'.'.'.XX`.}.|.|.[. XN.K Y r j $ . # w 0 a ` } K &.mXHXyXR 6XV.[.].[.[.'.'.'.'.'.'.'.[.'.'.'.",
"'.'.'.'.'.'.'.[.'.'.'.'.'.'.'.'..X.X'.'.'.[.].A.j.+ .... .X X + 6 , 1 q u o 1 yXUX%.K >X'.'.[.].[.'.'.'.'.'.'.'.'.'.'.'.",
"'.'.[.'.'.'.'.'.'.'.'.'.'.'.'.XX'.'.'.].'.'.'.A.+.% e ..$ X # Y H.Q } ` f =.* u >.] x.|.'.`.].[.[.'.'.'.'.'.'.'.'.'.'.'.",
"'.'.'.'.'.'.'.'.'.'.'.'.'.[.'.'.[.[.].].'..XoX&XJ.# $ e e 7 J z.BXnXaXMXFXDXu =.I R 7X'.'.oX'.'.'.'.'.'.'.'.'.'.'.'.'.'.",
"'.'.'.'.'.'.'.'.'.[.'.'.'.'.'.'.}.[.V.V.|.{.*X6XJ.+   r s Y tXH.ZX:Xw.iXIXDX| iXN E >X'..X.X'.'.'.'.'.'.'.'.'.'.'.'.'.'.",
"'.'.'.'.'.'.[.'.'.'.'.'.'.'.'.'.}.XX].G.j.J.R.U.8 . @ # y ] J M ! c.W.W.iXHXKXiXE M. X].`..X'.[.[.'.'.'.'.'.'.'.'.'.'.'.",
"'.[.'.'.'.'.'.'.'.'.'.'.'.'.'.'.oXoX].A.j.K o.8 M @.  & Y 7 o y ) c uXaXHXPXIXtXw.>X[.`.'.'.'.[.'.'.'.'.'.[.'.'.'.'.'.'.",
"'.'.'.'.'.'.'.'.'.'.'.'.'.'.'..XoX'.`.|.D.o.3 z U.L.X ; ;   = a ` 6 5 tXMXNXtXQ n. X X'..X.X[.}.[.'.'.'.'.'.'.'.'.'.'.'.",
"'.'.'.'.'.'.'.'.'.'.'.'.'.'.'.'..XXX].V.|.F.j.L.I.6 &  .i : p - 0 < + 9 9 8 J K.%X'.'..X'.'.`.].'.'.'.'.'.'.'.'.'.'.'.'.",
"'.'.'.'.'.'.'.'.'.'.'.'.'.'.'.[.}.`.].].[.|.8XE.9 + = -.8.,.j i ;   . + 7 o ) dX`.XX'.'.XX`. X'.'.'.'.'.'.'.'.'.'.'.[.'.",
"'.'.'.'.'.'.'.'.'.'.'.'.'.'.'.[.`.[.].[.`.&XZ.4 7 g $ i h ,.6.g - ; f ;.@.>.7 o.-X'.'.'.}.'.}.'.'.'.'.'.'.'.'.'.'.'.'.'.",
"'.'.'.'.'.'.'.'.'.'.'.'.'.'.'.'.'.'.[.V.&XY.6 + s ;.& r r s <.d ,.*.<.DX-.,.7 K kXV.'.'.oX'.`.[.[.'.'.'.[.'.'.'.'.'.'.'.",
"'.'.XX[.'.'.'.'.'.'.'.'.'.'.'.'.'..X'. Xx.n + q j g h & & - h <.SX<.,.DX;.h o P F. X'.~.XX'..X'.'.'.'.'.'.'.'.'.'.'.'.'.",
"'.'.'.'.'.'.'.'.'.'.'.'.'.'.'.'.'.'.'.:XJ.o ; - i h -.& : $ f 5.DX-.<.DX-.s o ) R.`.'.'.`.].'..X'.'.'.'.'.'.'.'.'.'.'.'.",
"'.'.'.'.'.'.'.'.'.'.'.'.'.'.'.'.'.'.6XK.6 0 q ;.*.p q % ; a 1.5.-.i -.8.t 9 O U 8X`.#X'.].[..X'.'.'.'.'.'.'.'.'.'.'.'.'.",
"'.'.'.'.'.'.'.'.'.'.[.'.[.'.'.'.'.%XU.6 + = q d d * . 2 , w I w p i i y R _ < P A..X~.'.].[.'..X'.'.'.'.'.'.'.'.'.'.'.'.",
"'.'.'.'.'.'.'.'.'.'.'.'.'.'.'.'.XXn.1 0 s ;.h : @ . # w U / B K = >.4.' uXy.> P 6XOX`.XX].[.'..XXX'.'.'.[.'.'.'.'.'.'.'.",
"'.'.'.'.[.'.'.'.'.'.'.'.'.'.'.}.,Xk.o p <.2.-.:   @ O 6 H 0.m.9X$.@.3.#.pXy.1 U R.`.'.XX].]..X'.'.'.'.'.'.'.'.'.'.'.'.'.",
"'.'.'.'.'.'.'.'.'.'.'.'.'.'.'.[.{.x.+ ; -.6.,.$ @ o > l 9.0.).eX_ 5 U } _ x Y I ~ 6X`.'.[.[..X.XXX'.'.'.'.'.'.'.'.'.[.XX",
"'.'.[.'.'.'.'.'.'.'.'.[.'.'.'.}. Xl.o f 8.,.j @ . > b 9.a.a.!.i.9.F l ( B , 1.[ K R.].'.}.'.'.'.'.'.'.'.'.'.'.'.'.'.'.'.",
"'.'.'.'.'.'.'.'.'.'.'.'.'.'.'.[.@Xl.O - <.7.>.:.O w / w.q.e.eXpXW.E ( L.rXI p 7.T ^ ;X`.OX'.'.[.'.'.[.'.'.'.'.'.'.'.'.'.",
"'.'.[.'.'.'.'.'.'.'.'.[.'.'.'.'. Xl., = h 7.r w O 2 9 I V v ( d./ 1.tX} %.o * [ 2 U 6X|.`.'.`. X[.'.'.'.'.'.'.'.'.'.'.'.",
"'.'.'.'.'.'.[.'.'.'.'.'.'.'.'.'.oXT.$.+ t t T 9 > < % % w V } { 2 :.3.y 0 # ;.8.1.N r.6X|. X'.'.'.'.'.'.'.'.'.'.'.'.'.'.",
"'.'.'.'.'.'.'.'.'.'.'.'.'.'.'.XX'.>XJ.O J yXHXbXbXyXo < o a q 0 @ & q 2 2 o 0 [ ` ] 5 ^ -X`.'.'.'.'.'.'.'.'.'.'.'.'.'.'.",
"'.'.'.'.'.'.'.'.'.'.'.'.'.'.'.'.[.|.x., ) HXLXNX#.rX3 { 9 > O + + O O , 5 9 % 0 ] vX$.L -X'..XXX'.'.'.'.'.'.'.'.'.'.'.[.",
"'.'.'.'.'.'.'.'.'.'.'.'.'.'.'.[.[.|.D.j.x aXLXHXL R l ( E F ( c c _ H S ( Z o 3.nXMXL.K kX`..X~.XX'.'.'.'.'.'.'.'.'.'.'.",
"'.'.'.'.'.'.'.'.'.'.'.'.'.'.[.[.'.~.-Xv.x H.uXLXJXy.Z m.s.p.e.9.A f.9.0.s.u.z #.P.uXJ.L @X'..XoX'.'.'.'.'.'.'.'.'.'.'.[.",
"'.XX'.'.'.'.'.'.'.'.'.'.'.'.'.'..X.X'.>Xj.3 U yXH b w.^.wX=Xp.G Z 9.e.a.s.g.t.b J.tX3 ^ -X`.XX`.'.'.'.[.'.'.'.'.'.'.'.'.",
"'.[.'.'.'.'.'.'.'.'.'.'.[.'.'..X.XoX'.$XR._ 3 k k t.qX1X2X<XqXb.w.P.e.i.(.0X9Xm.c _ U.T.C.[.'.'.'.'.'.'.'.'.'.'.'.'.'.'.",
"[.'.'.'.'.'.'.'.'.'.'.[.'.'.'.'.oXoX'.|.x.c G w.v.b.!.).gX3X2X5Xt.W u.f.g.).!.!.v.W r.T.].]. X}.'.'.'.'.'.'.'.'.'.'.'.'.",
"'.'.'.'.'.'.'.'.'.'.'.'.'.'..X'.oX}. X|.j.l 0.^.1X2X3X2X3X1X+Xv.W 4 l Z i.).0X1XqX5XE r.;X].'.oX.X'.'.'.'.'.'.'.'.'.'.'.",
"'.'.'.'.'.'.'.'.'.'.'.'.'.'.'.'.[.].@Xl.l W m.!.~.3X3XwX(.e.G l k x F E 0.i._.wX2X1X8Xr.r.:X}.'.'.'.'.'.'.'.'.'.'.'.'.'.",
"'.'.'.'.'.'.'.'.'.'.'.'.'.'.'.[.[.].G.l.k u./.2X3X<X!.!.v.Z D E.E.j.k b G 9.i.b.~.=Xt.l ! T.~.oX'.'.'.'.'.'.'.'.'.'.'.'.",
"'.'.'.'.'.'.'.'.'.'.'.'.'.'.'.[.`.:Xz.3 D M.2X3X<X2X=Xt.v E D.A.>XM.M.h.l b C C 0.s.p.G k y.=X`.'.'.'.'.'.'.'.'.'.'.'.'.",
"'.'.'.'.'.'.'.'.'.'.'.'.'.'.'. X*Xj.4 x w.^.2X2X2X1Xe.l E F.@X[.'.{.;XS.E.y.l A e.a.0.0.l Q 5X'.'.'.'.'.'.'.'.'.'.'.'.'.",
"'.'.'.'.'.'.'.'.'.'.'.'.'. X'.{.P.l b b 9.^.1X1X=Xp.F F S. X}.'.'. X].V.>Xr.k v G 0.0.9.x R 6X`.[.'.'.'.'.'.'.'.'.'.'.'.",
"[.'.[.'.'.'.'.'.'. X'.'.'. X`.M.l F Z C C 0.!.b.a.A E T.%X'.'.`..X'.].].`.6X_ l Z S q.w.B 3 r.;X X'.'.'.[.[.'.[.'.'.'.'.",
"[.[.`.[.'.'.'.'.[.].`..X}.{.S.c.l H Z C C 9.s.a.u.D 4X{.[.[. X`.oX'.].].].>X^ 4 Z S q.H l , ^ ;X`.XX'.'.|. X].[.[.'.'.'.",
"[.].[.'.'..X'.'.`.[.XX'.~.6Xx.4 B F C 9.q.C 9.G v D ,X'.`.[.'.'.'.`.[.[.[.$Xj.k b b V b 1.{ ^ A.`.'.'. X'.`. X`.'.'.'..X",
"'.'.'.XX.X'.'.'.'..X.XXXXX-XO.M tXB u.d.d.H c k D 4X'.'.OX'.'.'.'.[.].`.'.OXS.^ > a w w q o Q R.].[.'.'.XX'.`.'.}.].'.'.",
"'..X'.'.'..X'.'.`.XX`.`.;Xh.1 t vX%.x / G l B Q.S.`. XXX~.+XXX`.}.'.[.'.'.'.;X~ . ; @ @ f a o ^ T.].].[.'..X.X}.}.}.].}.",
"'.'.[.'.[.}.}.}.}. X$XD.z.1 r a q 7 o 3 F T.4X`.'.XX~.[..X~. X].'..X'.XX}.'.%X! t d u a f f < U E.Z.:X].'.XX'..X'.'.'.].",
"'.'.'.'.'.'.}.'.}.C.T.z.< o & j 2.f o n 8XC.].`.'.XX[.].+X'.|.].'..X'..X}.}.,X! . : X @ u f q < > R T.D.]..X.X.X.X'.].].",
".X.X.X.X.X.X'.'.'.:Xz.< 7 s p = X = Y K A.`.'.[.[.].|.].XXXX.X.X[.'.~..X'.].&X! + i j j g :.@.' ] 8 ^ F. X~.+X.X.X'.[.].",
"'.'.'..X.X.X.X'.$Xj., o y 4.cX7.>.+ M Y.|.[.].[.].].V. X'.'..X'.'.XX.X.X'.`.:Xh.6 + r a t Y #.bX#.#.K ! ;X'..X.X.X'.'.[.",
"`.].}.}..X.X.X'.Z., 6 @.cXHXDX>.GX$.B A.[.[.`. X'.'.}.}.[.[.'..X}.oX.X.X'.[.].A.T.~ n 5 n 5 8 M 8 M z h.-X'.'.oXoX.X'.'.",
"[.|.|.]..X.X.XoXx.6 T ] 3.%.' 1.K L 6X|.].'.'.'.'.'.'.[.`.[.'.'..X'..X'.'.].].|. X XS.T.T.Y.Y.E.E.R.G.C.;X`.}.oX}.}.'.'.",
"oX}.|.]..X.X.X XZ.n m M M m M m D 4XC.].'.XX~.oXoX}.'.'.'.'.'.].[.'.'.'.].'.}.'.`.'.'.~.}.*X*X*X*X$X|.].`.'.}.oX}.'.`.[.",
"oX}.|.C..X.XoX XS.R.E.E.Q.Y.E.Y.4X*X|.|.`..X+XoXoXoX|.'.'.`.'.'.].].[.`.].}.'.'.OXXXoXoX.X'.oX}.}.`. X'.'.'.`.'.|.}.'.[."
};
