/* XPM */
static char *_8159_cebf4f9ee37c1398e284b829cc3df9ec2e64a4cfc1411f3d34338e08e8a3995e[] = {
/* columns rows colors chars-per-pixel */
"60 60 256 2 ",
"   c #5B775D",
".  c #7A7659",
"X  c #76664D",
"o  c #637A63",
"O  c #7C7D67",
"+  c #705F4B",
"@  c #867338",
"#  c #987858",
"$  c #8E6E56",
"%  c #897C66",
"&  c #937B64",
"*  c #997D6A",
"=  c #857C73",
"-  c #AA7963",
";  c #A46754",
":  c #6C866B",
">  c #788668",
",  c #6E8B71",
"<  c #748C73",
"1  c #7B8C76",
"2  c #769275",
"3  c #7A9274",
"4  c #7C947B",
"5  c #7C9A7C",
"6  c #779778",
"7  c #749570",
"8  c #7DA27C",
"9  c #968653",
"0  c #A58B49",
"q  c #A99759",
"w  c #AB8E51",
"e  c #89856A",
"r  c #93836C",
"t  c #988669",
"y  c #88916E",
"u  c #888975",
"i  c #9B8A71",
"p  c #9B8D7C",
"a  c #958979",
"s  c #83937B",
"d  c #829C7D",
"f  c #899777",
"g  c #979779",
"h  c #AC9A65",
"j  c #A58777",
"k  c #A89979",
"l  c #B29A6E",
"z  c #86A27D",
"x  c #95A37E",
"c  c #9CA469",
"v  c #ACA379",
"b  c #B6A87A",
"n  c #B3A369",
"m  c #7D9C82",
"M  c #7E9583",
"N  c #7CA485",
"B  c #8A8A86",
"V  c #839D83",
"C  c #8B9D8B",
"Z  c #899786",
"A  c #9C9282",
"S  c #9D9B8B",
"D  c #959888",
"F  c #8D9693",
"G  c #9B9B94",
"H  c #9C9B9B",
"J  c #949695",
"K  c #908E8F",
"L  c #A39B8C",
"P  c #A69885",
"I  c #B49988",
"U  c #A59E91",
"Y  c #A99E93",
"T  c #B59E93",
"R  c #84A384",
"E  c #8CA385",
"W  c #84A38B",
"Q  c #8BA48B",
"!  c #8BAB8B",
"~  c #84AA8A",
"^  c #9EA987",
"/  c #93A38B",
"(  c #92AB8D",
")  c #9CAB8C",
"_  c #97A486",
"`  c #8DB28B",
"'  c #8BA992",
"]  c #93A592",
"[  c #9CA494",
"{  c #94AC94",
"}  c #9CAC94",
"|  c #9DAC9A",
" . c #99AA99",
".. c #8CB595",
"X. c #93B394",
"o. c #9CB29A",
"O. c #97B497",
"+. c #98B18C",
"@. c #A3AD8B",
"#. c #A7A58A",
"$. c #B4A484",
"%. c #B6A983",
"&. c #BAAB84",
"*. c #BCAE8A",
"=. c #B5A68A",
"-. c #A5B18E",
";. c #ABB28C",
":. c #BFB18B",
">. c #B8B285",
",. c #AAA296",
"<. c #A2AC92",
"1. c #A2A59C",
"2. c #ADA59A",
"3. c #A1AA9C",
"4. c #ADAA9D",
"5. c #A4A494",
"6. c #BBAD93",
"7. c #B2AA9C",
"8. c #BAAC9C",
"9. c #B7A596",
"0. c #ABB593",
"q. c #ACB59B",
"w. c #A3BB9C",
"e. c #A7B698",
"r. c #B3B494",
"t. c #B3BC9B",
"y. c #B9B798",
"u. c #9C9DA0",
"i. c #A29DA3",
"p. c #A4A4A3",
"a. c #ACAAA6",
"s. c #A9A9A8",
"d. c #B5AEA2",
"f. c #BBAEA3",
"g. c #B1AEA8",
"h. c #A5B9A3",
"j. c #B4B3A4",
"k. c #BBB3A5",
"l. c #BBBDA4",
"z. c #BCB6AA",
"x. c #BDBAAC",
"c. c #B4B9A4",
"v. c #BCBAB4",
"b. c #BEBDBB",
"n. c #B5B6B3",
"m. c #AEB5B1",
"M. c #C5AA8B",
"N. c #C2B38C",
"B. c #CCBC8D",
"V. c #C5B688",
"C. c #C2B594",
"Z. c #C6B994",
"A. c #CBBD93",
"S. c #C3B59A",
"D. c #C5BA9B",
"F. c #CBBD9C",
"G. c #CDB397",
"H. c #D3B49B",
"J. c #D4BD9E",
"K. c #D2B896",
"L. c #CDB491",
"P. c #C3BBA3",
"I. c #CABEA3",
"U. c #C3BBAC",
"Y. c #C3B6A8",
"T. c #D6BEA2",
"R. c #C3BDB1",
"E. c #C5BCB8",
"W. c #C8ADA2",
"Q. c #B9C49B",
"!. c #BCC3A3",
"~. c #B9C4AB",
"^. c #BDC4B7",
"/. c #A3C3A4",
"(. c #96C39F",
"). c #CEC094",
"_. c #CDC29C",
"`. c #C3C39D",
"'. c #D2C395",
"]. c #D3C59C",
"[. c #D5C99C",
"{. c #D7CB9D",
"}. c #D1C18F",
"|. c #CCC2A3",
" X c #C2C3AD",
".X c #CCC3AB",
"XX c #CAC9AA",
"oX c #D2C4A4",
"OX c #D5C9A2",
"+X c #D9CCA5",
"@X c #D2C5AB",
"#X c #DAC3AB",
"$X c #D3CAAC",
"%X c #DACDAB",
"&X c #DAC2A3",
"*X c #DBD1AD",
"=X c #C5C2B5",
"-X c #CCC5B3",
";X c #C4C3BC",
":X c #CBC6BB",
">X c #CDCABC",
",X c #C7CBB4",
"<X c #D2C6B2",
"1X c #D4CBB3",
"2X c #DDCAB3",
"3X c #D3CCBC",
"4X c #DBCBB7",
"5X c #D5D2B3",
"6X c #DCD3B3",
"7X c #DBD7BC",
"8X c #C8D0AB",
"9X c #E1CCB5",
"0X c #E4CDB8",
"qX c #E2D5BA",
"wX c #E3C9AF",
"eX c #E5E1BE",
"rX c #BBB8C2",
"tX c #C2BCC3",
"yX c #C5C5C3",
"uX c #C9C5C3",
"iX c #CBCAC5",
"pX c #C6C6C9",
"aX c #C9C7CA",
"sX c #CBC9CB",
"dX c #C6CAC6",
"fX c #D3CDC4",
"gX c #D7CDC8",
"hX c #D5D2C4",
"jX c #DAD4C6",
"kX c #D4D2CA",
"lX c #DBD5CB",
"zX c #DDDACC",
"xX c #DCDCC2",
"cX c #CDCBD2",
"vX c #DDDBD3",
"bX c #DAD8D4",
"nX c #E3DDCD",
"mX c #E6DCC5",
"MX c #E4DDD1",
"NX c #E5DFD7",
"BX c #E6E1CA",
"VX c #E6E2D3",
"CX c #EAE3D5",
"ZX c #E5E4DA",
"AX c #EBE5DA",
"SX c #EDE9DD",
"DX c #EBE9D6",
"FX c #F1EADE",
"GX c #F0E6DC",
"HX c #F2E4CA",
"JX c #EEEBE1",
"KX c #ECE5E1",
"LX c #F1ECE2",
"PX c #F9EAE5",
"IX c #F5F1E5",
"UX c #DEE1CC",
/* pixels */
"oXF.C.Z.).F.U.>X3X3XqXBXBX6X5X6X5X5X6XxXeX7X5X5X5X8X$X5X7XeXBXeXmXmXnXBXmXqXqXeXeXBXBXqXqXqXBXBXHXeXBXxXBXhX8X7X7X7X7X5X",
"F.|.D.C.Z.`.|..X|.|.|.$X$X$X$X$X$X5X5X6X6X6X5X5X$XOX$X$X[._._.].OXOXOXOXOX[._._._.[.].[._.).).V.C._.$XXXxX,XQ.!. X8X!.Q.",
"7.k.y.6.6.6.D.|.].].].].+X%X%X2X+X%X*X*XqXqXqX*X*X*X*X%X+XoX].oX[.[.+X{.[.[.[.[.'.[.[.'.'.}.}.V.'.B._.6.y.8X!.Q.Q.Q.t.e.",
"v.x.f.8.=.$.*.].'.'.'.].[.+X$X&X+X+X*X*X*XqX*XqX*X*X+X+X+X+XOX].].[.{.OXOX[.[.[.[.[.[.'.'.'.}.B.B.V.B.*.r.8X~.Q.r.t.Q.Q.",
"bXuXU.Y.8.=.*.A.].'.]._.].].OX+X%X%X%X%X*X6X6X9XqX6X%X%X%X%X[.].].].oX].OX{.[.].[.OX[.'.K.'.B.A.V.}.B.$.*.t. XQ.r.8XhX>X",
"tXU.k.I.U.I.Z.V.)._.[.OXoX[.{.+X%X6X*X%X$X6X6X6X6X6X6X6X*X*X*X*X[.].].OX+X*X+XOX[.{.'.'.'.}.B.B.'.K.A.$.$.6.F.`.|.XXhXvX",
"7.9.y.].+X#XoXA.:.N.Z.A.F.D.F.F.|.oX$XoXoX$X$X$X5X$X1X$XoX@X|.$X_._.D._.].OXOX_.V.V.V.V.>.V.b M.M.b *.=.P =.C.Z.].Z.P.fX",
"y.C.A.[.].oX].[.N.M.*.C.Z.C.S.S.S.F.oX@X@X@X$XoX|.$X<X@XI.oX@XI._.F.F.D.|.oXoX|.N.N.>.%.&.%.&.&.&.&.%.v $.k %.'.B.A.F.|.",
"S.oX].B.).{.oX|.F.C.*.*.C.C.C.C.C.y._.$XXX$X1X$XXX$X@X$X@X@XI.I..X|.I._._.|.|.oXF.Z.*.%.&.$.b &.&.b b v $.k N.V.).A.).).",
"F.oXoXK.).A.F.F.Z.C.:.*.C.C.D.C.Z.C.D.|.|.$X$X@X$X$X|.@X@X@X.X@XI.I.I.F.F.F._.F.F.Z.N.*.&.:.:.:.M.>.&.%.%.I N.B.}.}.).).",
"OX&XoX{.].A.Z.D.F.F.D.N.*.6.C.S.Z.G.F.I.$X1X1X1X1X1X$X$X$X$X@X.X.XoXR.T.oXI.D.S.C.y.C.*.&.:.M.N.*.%.&.*.b v V.B.B.}.).).",
"+XOXoX+X&X).Z.Z.P.I.D.S.6.=.=.S.6.y.P.I.XX1X7XjXjX3X4X3X<X-X-X-X<X-X<X<X1X<X.X XI.D.S.6.$.v $.I *.*.:.:.&.M.B.B.).[.{.{.",
"+X_.F.T.|.F.D.C.I..X@X@XP.S.S.I.R.-X<X-X-X:XiXhXjXiX:XuX>X=X:X3X>X:X3XfXfX3X3X-X-XU.I.Y.S.6.6.M.y.C.y.C.*.&.V.V.B.A.A.).",
"OX|.I.F.D.Z.F.D.k.P.-X-X3X-X<X-X<X:XR.U.U.z.z.z.x.z.z.z.j.7.a.f.2.a.d.f.z.z.U.E.R.U.U.R.U.U.Y.9.8.8.8.6.*.&.V.&.:.N.A.D.",
"6X1X$X@X_.|.$X<XP.8.d.z.R.fX3Xz.,.,.2.2.Y ,.7.a.j.z.Y.z.d.T T T f.f.z.g.j.d.7.2.,.5.Y T 7.U.Y.7.L L Y 9.*.%.:.&.:.N.Z.Z.",
"7X<X1X1X$X$X$X<Xk.,.L U d.R.U.S L L 2.7.Y 2.f.k.k.R.E.f.f.f.M.T 9.f.R.R.x.k.8.T k.4.L p A 7.7.A u = a A #.v %.%.>.>.:.V.",
"1X5X1X5X1X@X1XU.2.j.z.7.U j.j.,.d.8.8.T I T f.Y.z.z.R.W.T 9.W.M.Y.Y.R.R.x.f.9.T W.8.9.,.Y 2.S u S A A u P e i $.&.N.Z.Z.",
".X@X$X4X2X1X1XU.d.x.k.k.2.d.k.Y d.d.,.Y I T f.f.z.k.k.8.Y T f.T z.U.v.x.k.f.9.T 9.2.2.,.Y U A A U U A a a % % k $.%.*.6.",
"%X#X@X2X9X2X4XR.d.x.k.R.d.2.7.4.4.z.8.7.f.8.f.k.z.z.U.U.W.Y.Y.z.k.x.x.z.U.Y.Y.Y.d.4.4.4.,.L A P L L S L g % % k &.M.C.L.",
"0X0X#X2X9X2X0XR.d.R.U.k.j.x.5.Z S =XfXfXjXlXlXzXbXlXzXzXlXnXgXgXhXhXjXjXgXgXfXgXlX>Xx.D D [ S S L L S L A r e I G.G.G.H.",
"0X4X1X#X#X4X7X<XU.R.k.g.x.~.W , G vXSXFXFXSXSXAXLXJXSXDXSXAXAXSXSXSXAXFXFXAXAXFXGXFXvX} ] h.e.<.L A L Y p % & I G.G.G.L.",
"qXmX4X0X9X4X4XR.Y.v.c.~.h.Q N N J vXAXAXSXSXJXSXAXAXDXVXAXAXSXSXVXAXAXGXGXAXAXGXGXAXhX[ V N X.w.5.S S L P * * I L.G.K.L.",
"0XjX4X0XwX#X1Xk.q.,X~.h.Q R {  .| ZXAXGXVXVXSXCXAXAXAXAXGXNXCXVXAXAXAXVXnXnXnXnXZXAXgX[ V , m E o.<.5.S p * t =.J.T.J.J.",
"qX0X4X0X9X9X4XU.x.^.h.Q V {  .[ 3.ZXAXFXAXSXJXLXAXDXVXVXmXCXAXZXGXGXAXAXVXnXMXNXZXPXjXD M m N < 5 X.q.#.p r t =.T.T.T.T.",
"1X4X0X0XqX@X,X~.^.O.Q ]  . .{ ( [ ZXAXAXJXSXAXFXDXAXCXMXCXMXCXCXnXMXGXGXAXNXnXnXAXGXfX] 4 4 Q V 6 6 ' /.) i t 6.T.&X&XT.",
"9X1X#X2X1X-X,X~.'  .|  .{ O. .W G ZXSXAXSXAXAXZXAXAXDXMXmXlXnXMXMXMXnXnXMXMXnXnXnXAXkX] 5 5 E R ~ V m ( /.-.k 6.T.T.T.&X",
"#XwX#X-X,X^.~.' { [ [  .{ o.| W C ZXLXSXAXSXSXAXDXAXVXVXnXnXnXnXnXmXjXjXnXnXMXMXAXCXfXC m 5 E R R X.{ E R X.3.t.P.oXT.J.",
"wXwXI.x.^.h.W  .o.5.5.{ {  .| { J vXSXAXSXSXLXSXGXAXAXVXAXGXCXMXnXnXnXnXnXjXnXmXDXCXkX/ 5 V E R E ~ +.! R N ` h.c.D.J.&X",
"&X6.t.~.O.{ h.|  .5.5.] { 3.p.' [ vXZXAXSXSXSXAXSXAXAXAXCXCXCXMXBXVXDXGXVXmXnXBXVXCX3XJ W ! ! d z 8 g ` O.' m ! w.#.k M.",
"Z.D.,X~.} o.m.| 3.S L ) } [ ] V 3.VXAXAXLXSXSXSXSXSXVXAXAXDXCXCXBXVXCXDXAXCXAXAXVXCX3XZ V Q E ~ 8 z j E X.O.' Q X.x e 9 ",
"wX@X-Xc. .O.o.o.3.@.,.#.D f C Q 3.VXSXSXSXJXLXSXSXAXAXSXAXFXGXCXCXVXVXAXAXVXMXnXnXGXzXQ 2 < d X.X.y - +.X.O.O.( ..} j b ",
"wX2X X| '  . . ._ 5.#.A a S ] ] | ZXLXFXAXSXLXAXZXSXFXAXAXCXAXAXCXVXAXGXAXAXCXAXDXZXkXC 4 2 2 V +.x - ` { o.+...O._ i M.",
"#X9XP.! C ' {  .X.P j a D [ [ ' 1.ZXKXLXJXSXSXJXJXJXAXJXSXZXAXSXSXSXAXAXAXCXCXAXKXGXgXC 5 s Q 6 7 h P ` X.O...O.! _ i M.",
"#X#XU.Q < C o.3.Y i a S o./ ] ' p.ZXLXLXLXLXLXJXSXSXJXAXAXSXSXSXSXAXAXSXAXZXAXAXNXCXlXF N Q X.R y $ _ /.w.( ..X.~ D i M.",
"$X#Xl.E < C  .D j p / _ D / { C | ZXLXKXSXSXLXSXKXSXAXAXSXZXAXAXAXSXVXZXZXCXZXCXAXDXlX] R E ..E g j z R e.(.O.{ ! D t M.",
"&X&Xl.Q V C 4 s i D ) A p p L E 1.AXLXLXLXJXIXJXSXSXKXAXAXAXVXAXAXSXSXAXAXZXCXMXAXSXnXG N m ` E i g ` z s X./.{ X.) j M.",
"J.T.l.Q M 4 s s g D P p P A A D p.ZXLXLXLXJXLXLXJXSXAXSXKXSXSXSXJXJXFXAXSXAXDXCXMXBXjXJ 4 6 ~ f # z ` R ~ R Q w.O.) k W.",
"J.G.y.Q < 1 V f r p k p _ P p E | vXAXLXLXKXJXLXJXSXAXAXSXJXSXSXFXAXCXVXnXVXVXAXNXVXfXF 2 2 N i t z R ~ ..{ R ! X.) k M.",
"K.G.6.V < M V 1 & r p D ( D A / | NXJXLXIXJXLXLXSXAXVXCXAXAXZXVXAXVXmXmXnXmXVXCXAXVXfXZ 6 6 Z t t f _ R ! ] ..E X.} k G.",
"L.J.6.4 < Z 4 s r 1 f g Q S Y / | SXLXLXIXJXLXAXVXvXvXvXZXAXVXZXnXVXMXVXVXVXAXCXPXSXkXC 5 8 Z # e % y z E R ..O.X.o.P H.",
"H.A.#.4 o 1 d r & 3 % 4 Q P Y Z | KXJXFXFXAXKXZXNXCXAXCXVXVXBXnXmXMXmXVXmXVXAXGXDXIXjXC m ( g # # e * z x ( ` } O.} P W.",
"T.L.;.2 o 2 y % r i u d E a s Z p.ZXKXLXIXJXKXKXGXGXDXCXAXVXnXmXMXBXAXCXVXVXVXVXAXAX3XZ 4 s t w t z t z ~ ` X.X.O.-.P H.",
"H.M.-.4 o , % e 9 r V R > % d Q 1.ZXLXIXLXAXAXAXVXVXAXAXDXAXAXAXCXCXCXVXVXmXnXDXDXZX>XZ < O ; # x ~ & y ~ ~ E _ { } k F.",
"H.J.r.1 : 1 % > $ i Z , . e s C ] zXZXZXAXZXUXVXVXCXCXGXDXDXAXAXCXCXVXVXMXCXAXAXUXxX:XF < e $ . N E i y W W z f ~ ) P F.",
"H.&XS.Q < e 1 y # e < O % 3 s M F dXkXcXvXAXNXnXVXZXZXAXSXLXJXJXFXAXNXNXMXvXlXkX,XE.n.Z , 7 # 3 2 4 g ^ ` ! g g ! _ P F.",
"H.H.P...1 e z y $ X > a u 6 5 < B ^.dXsXcXcXsXgXlXlXbXMXvXNXNXZXMXnXkXfXuX:X=X=XrXtXrXF 6 2 f ~ 6 6 e k (.X.g D { _ P G.",
"D.J.l.N u k y . + . . e m M , 6 g P.:XiXaXsXaXcXyXiXiXuXuX;XyXuXyXyXE.v.b.b.E.^.tXaXx.[ V m W W N ` r # ! ;.k ^ O.) =.S.",
";.r.w.C Q e $ . 1 O > , 1 1 > > 9 v =.l.>XkXdXdXaXaXaXiXdXuXdXaXpXyXpXpX^.rXb.b.y.>.n c _ 8 N E x 8 z * # ; h w...o.Q.y.",
"r.-./.x 3 > u Z Z 4 7 : : 1 u O @ 9 0 w n V.C.P.=X-X:X>X:XuXaXsXaXyX=XP.C.%.h h 0 0 0 q v +.' ' ( R N g & $ e E { w.t.t.",
"-.-.O.s > 1 d d s V 4 , < Z J B e e t q w w q q n n b b b b b b n n n q q w 0 0 9 h b P.;X^.h.E ~ ~ Q d f y f 6 ! w.e.t.",
"@.-.+.2 o 4 V V V 4 4 Z J J J J H F K #.=.v v b h h h h q q q q w q q h h k k $.x.,XfXcXcXcX^.w.N m 5 d 8 N N 5 R +.-.;.",
";.@.( 2   , 4 2 : 1 s J H K K u.H u.H u.n.rXtXE.U.Y.P.8.y.6.6.8.k.k.k.x.^.;XyXdXpXaXdXiXdXsXdXdXm.Q 3 4 5 m V R 8 ` -.@.",
"0.-.) 3   , , : 3 f Z B K u.J H J H u.K F m.uX;XaXsXsXdXyXaXsXsXsXsXcXaXpXpXyXaXyXyXdXsXaXaXdXdX;Xq.z d 4 V V d N _ +.@.",
"0.-.( 3   o : 3 O.-._ D K K B K K K F K B K 4.x.^.tXyXdXdXaXaXaXiXyXiXpX;XyXyXyXiXdXsXsXcXcXaXb.4.<.@.z d 4 V d d ( ^ @.",
"t.-.) < o : f @.0.t.r.@.S B u B u B B K K B K s.n.n.v.b.tXb.rXb.n.n.n.n.n.b.b.yXpXpXyXb.n.n.a.5.<.) ^ ) ) E d 5 V _ @.@.",
"Q.e.) < > E @.0.r.r.0.0.c.c.G B B B B B B K J F J J H p.s.s.p.s.i.u.U H H H H H 3.p.p.H G 5.@.;.^ #.@.-.@.^ _ 5 V E @.@.",
"q.t.) f E @.-.r.!.l.l.U.x. XU.v.Y J B u K J H H H H H u.s.s.s.s.p.p.p.u.H U p.p.1.1.4.j.!.l.0.0.@.@.@.@.^ ^ _ x z _ 0.q.",
"e.q.q.e.@.-.@.0.l.~. X X=X=X=X=XE.yXv.a.G K J G H G G H U i.s.s.p.p.s.p.1.p.s.s.^.v.=X~.~.!.Q.q.0.0.@.^ @.@.@.@.@.@.t.l.",
"0.q.Q.q.e.;.-.r.c.P. X~.R.R.=X=X:X-XR.E.=X=X=Xv.d.m.g.a.a.a.g.g.n.n.b.E.;XdXsXfX>X,X X~.~.Q.t.e.t.0.;.@.-.@.-.0.q.y.P. X",
"t.q.q.e.r.0.-.t.t.~. X=XR.R.:X:X:X:XR.E.:X:X>X:X:XfXfXiXkXfXsXkXbXbXbXkXkXlXkXfX,X,X X!.c.!.!.!.t.0.-.@.-.0.;.0.t.c. X=X"
};
