/* XPM */
static char *_4672_ff0c25d7443e6a1a077db1cceedea2a93f805c36c9fcdf4c330a8a35660f0343[] = {
/* columns rows colors chars-per-pixel */
"60 60 247 2 ",
"   c #030304",
".  c #0C0101",
"X  c #040904",
"o  c #0D0A03",
"O  c #02040B",
"+  c #0B020C",
"@  c #040A0C",
"#  c #0C0B0C",
"$  c #140201",
"%  c #1C0301",
"&  c #140A03",
"*  c #1D0B01",
"=  c #12050B",
"-  c #120A0B",
";  c #1B0A0A",
":  c #1D020B",
">  c #0C1109",
",  c #1C1203",
"<  c #1C130B",
"1  c #12120A",
"2  c #040612",
"3  c #0D0514",
"4  c #030C13",
"5  c #0C0C14",
"6  c #0B0D1A",
"7  c #050D18",
"8  c #150A14",
"9  c #1B0C11",
"0  c #110D1B",
"q  c #1B0D1A",
"w  c #051013",
"e  c #0C1213",
"r  c #05131B",
"t  c #0C131C",
"y  c #0A1B1D",
"u  c #141215",
"i  c #1D1214",
"p  c #14151D",
"a  c #1B141B",
"s  c #18191C",
"d  c #220401",
"f  c #2B0300",
"g  c #240C02",
"h  c #2C0D01",
"j  c #2F0C0D",
"k  c #350200",
"l  c #330C02",
"z  c #3A0A05",
"x  c #241200",
"c  c #2A1103",
"v  c #2C1903",
"b  c #24130C",
"n  c #2B120D",
"m  c #291E0A",
"M  c #321200",
"N  c #3B1401",
"B  c #351902",
"V  c #3C150F",
"C  c #36170A",
"Z  c #230D15",
"A  c #241112",
"S  c #2B1315",
"D  c #2C171B",
"F  c #2D1B1B",
"G  c #27171A",
"H  c #341514",
"J  c #3C1B18",
"K  c #361919",
"L  c #3D2406",
"P  c #25201D",
"I  c #372118",
"U  c #0C1522",
"Y  c #0B1C24",
"T  c #0E1628",
"R  c #0D1A29",
"E  c #061822",
"W  c #131323",
"Q  c #141A24",
"!  c #1B1B24",
"~  c #131429",
"^  c #141C2B",
"/  c #1A1D2B",
"(  c #19152A",
")  c #1A1B37",
"_  c #0D0E20",
"`  c #231925",
"'  c #341924",
"]  c #1B222D",
"[  c #1A2224",
"{  c #1D2634",
"}  c #262629",
"|  c #382525",
" . c #232532",
".. c #24293C",
"X. c #4B0400",
"o. c #430C02",
"O. c #490702",
"+. c #5B0D00",
"@. c #530501",
"#. c #431401",
"$. c #441B01",
"%. c #4A1B00",
"&. c #491409",
"*. c #571506",
"=. c #441A16",
"-. c #521510",
";. c #6C1A00",
":. c #661A00",
">. c #771D00",
",. c #600E00",
"<. c #4B2300",
"1. c #462505",
"2. c #552200",
"3. c #5A2A07",
"4. c #563308",
"5. c #492619",
"6. c #463016",
"7. c #5A3817",
"8. c #53300E",
"9. c #632701",
"0. c #722300",
"q. c #7C2500",
"w. c #792902",
"e. c #663405",
"r. c #7D3500",
"t. c #743B03",
"y. c #703C16",
"u. c #6D341B",
"i. c #4A262B",
"p. c #483627",
"a. c #563623",
"s. c #4F322F",
"d. c #633827",
"f. c #7D4409",
"g. c #6B4218",
"h. c #7B4818",
"j. c #4A413C",
"k. c #5D4B37",
"l. c #754A2C",
"z. c #2B2740",
"x. c #4A4542",
"c. c #67594C",
"v. c #756552",
"b. c #746C62",
"n. c #871C0A",
"m. c #B11F00",
"M. c #832A00",
"N. c #8A2704",
"B. c #942500",
"V. c #942D00",
"C. c #873701",
"Z. c #983303",
"A. c #8B311E",
"S. c #8F2F15",
"D. c #A42E01",
"F. c #B83401",
"G. c #A63814",
"H. c #AD320F",
"J. c #AF3C27",
"K. c #942C23",
"L. c #C73A03",
"P. c #D13E04",
"I. c #C3330C",
"U. c #894706",
"Y. c #954B07",
"T. c #854A11",
"R. c #975915",
"E. c #955B11",
"W. c #BA5C08",
"Q. c #BB4317",
"!. c #AF5313",
"~. c #BD6709",
"^. c #AB671C",
"/. c #BC6C14",
"(. c #B36A1D",
"). c #BD6C1C",
"_. c #B76617",
"`. c #BB7319",
"'. c #964F2C",
"]. c #A55929",
"[. c #B34C2A",
"{. c #8C622D",
"}. c #9A642B",
"|. c #9A6A37",
" X c #966D37",
".X c #AD6C2C",
"XX c #A86929",
"oX c #B36B21",
"OX c #BB6B23",
"+X c #B26D28",
"@X c #B9762C",
"#X c #A56B36",
"$X c #AD7335",
"%X c #B77634",
"&X c #B76D30",
"*X c #D84609",
"=X c #CD5E00",
"-X c #C55F00",
";X c #C64613",
":X c #D94B15",
">X c #C84E16",
",X c #EB560C",
"<X c #E5561C",
"1X c #E95314",
"2X c #EC5311",
"3X c #C56402",
"4X c #CC6601",
"5X c #C56A04",
"6X c #CB6902",
"7X c #C4650B",
"8X c #CA6609",
"9X c #C46A0B",
"0X c #CD6B0B",
"qX c #D16501",
"wX c #D16A04",
"eX c #D16C09",
"rX c #D76905",
"tX c #C36513",
"yX c #C36B13",
"uX c #CA6C14",
"iX c #C36C1B",
"pX c #C96B1C",
"aX c #CD6510",
"sX c #C3721C",
"dX c #C87318",
"fX c #CC7010",
"gX c #D55628",
"hX c #EA5920",
"jX c #C36C25",
"kX c #C37423",
"lX c #C57427",
"zX c #C47531",
"xX c #996B51",
"cX c #AB7456",
"vX c #897869",
"bX c #B5804F",
"nX c #958477",
"mX c #B88467",
"MX c #C9906C",
"NX c #9F9A97",
"BX c #AF9584",
"VX c #B3A49D",
"CX c #B7B2AC",
"ZX c #E9B298",
"AX c #CAB9A7",
"SX c #F2E7D3",
"DX c #EAD7C9",
/* pixels */
"4X4X4X4X4X4XqX4XqXqX4X4X6X5X~.6X4X4X7XkXzXXXN 1.#X@XsX~.0X4XqX4X4X4X4X4X4X4XwX=X4X4X4X4X4X4X4X5X4X4X4X4X4X4X4X4X4X4X4X4X",
"4X4X4X4X4X4X4X4X4X4X4X4X4X6X5X3X5X7XW.C.r.w.:.o.9.r.C._.iX7X-XwX4XwX4X4X4X4X4X4X4X4X4X4X4X4X4X4X4X4X4X4X4X4X4X4X4X4X4X4X",
"4X4X6X6X6X6X6X6X4X4X4XwX4X4XqX8XpXzX].X.N.D.;XH.@.+.k 3.&XlXuX5X6X3X3X6XwX4X4XwX4X4X4X4X4X4X4X4X4X4X4X4X4X4X4X4X4X4X4X4X",
"4X4X6X6X7X5X9X8X8X4X4XqX4XqX4X8Xw.;.0.N.;X<X1XhXH.N.X.*.0.;.C./.9X4X6X4X4XwX3X4X4X4X4X4X4X4X5X4X4X4X4X4X4X4X4X4X4X4X4X4X",
"4X4X4X4X6X9X7X8X3XeX4X-XqXqX=XW.@.w.Q.>X:X<X2X,XL.;XD.Q.D.D.+.oX~.4X8X6X3X4X4X5X4X4X4XwX4X4X6X6X4X4X4X4X4X4X4X4X4X4X4XqX",
"4X4X5X4X8X5X6X4X3XeX4X4XaX8X8XpX].;.F.I.*X1X,X,X*X1XhXP.:XD.+.&XiX4X3X6X4X4XwX4X4X4X4X4X4X4X8X4X4X4X4X4X4X4X4X4X4X4X4X4X",
"4X4X4X4X4X4X4X4XqXqX-X8X8X9XyX_.>.N.F.:XP.I.P.hX*X:X<X:XL.:XV.M._.eX8X6X6X5X4X6X4X4X4X4X4X4X4X4X4X4X4X4X4X4X4X4X4X4X4X4X",
"4X4X4X4XqXqX4XqXqXqX4X6X7XuX~.q.q.G.gXgXm.;XH.D.B.N.D.gX:XL.[.>.N.8X9X3X4X5X4X4X4X4X4X4X4X4X4X4X4X4X4X4X4X4X4X4X4X4X4X4X",
"4X4XqX4X4XqXqXqX4XqX4X4X5X~.tX0.@.u.n.H.Q.>X*.M &.3.O.'.F.;XZ.;.N.0X0X3X6X5X6X5X4X4X4X4X4X4X6X4X4X4X4X4X4X4X4X4X4X4X4X4X",
"4X4X4X4X4X4X4X4XqX4X4X5X6X5XfX^.9.k @.K.J.A.C x.VXDXnX$.].Z.>.OXtXeX3X5X6X3X4X4X4X4X4X4X4X4X6X4X4X4X4X4X4X4X4XqX4X4X4X4X",
"4X4X4X4X8X4X4X4X4X6X4X4XwX5X3XsX#XO.*.-.@.-.F P nXSXSXv.a.+.jXaX9X8X-X5X4X3X6X4X4X4X4X4X4X4X4X4X4X4X4X4X4X4X4X4X4X4X4X4X",
"4X4X6X6X6X5X5X5X4X4X4X4X4X5X6X9X^.O.-.z @.z . b p.vXBXc.V z OX8X6X6X8X6X3X4XwX4X4X4X4X4X4X4X5X6X4XqX4X4X4X4X4X4X4X4X4X4X",
"4X4X6X6X8X9X5X6X5X4X4X4X4X4XeX5X~.U.y.3.A.+.d.5.k o.H * d y.iX4X4X4X4X4XwX4X4XwX4X4X4X4X4X4X6X4X4X4X4X4X4X4X4X4X4X4X4X4X",
"4X4X4X4X4X4X4X4X4X4X4X4X6X5X6XyXOX.XN #.A.A.ZXxX9.cXBX6.c #X_.4X4X5X3X3X4XqX-X8X4X4X4X4X4X4X6X4X4X4X4X4X4X4X4X4X4X4X4X4X",
"4XqX4X4X4X4XqXqXwX4X4X7XtX9X/.Y.T.7.$ C J.[.MXbXcXMXZXl.c |.iX4X6XwXwX4XqX4X4X4XwX4X4X4X4X4X6X4X4X4X4X4X4X4X4X4X4X4X4X4X",
"4X4X4X4X4X4XqX4XqX=X4X0X9XtX_.X.f $ . $ *.'.cXbXMXmXcXxXB 4.R.yX6X4X4X4X4X4XwX4X4X4X4X4X4X4X6X4X4X4X4X4X4X4X4X4X4X4X4X4X",
"4X4X5X4X4X4X8X4XqX4X4XeX4X4X0XY.h & #   $ l l.|.xXmXxXs.b $ d f.tX4X4X4X4X4X4X4X4X4X4X4X4X4X4X4X4X4X4X4X4X4X4X4X4X4X4X4X",
"qX4X4X5X4X4X9X8X4XrX4X-X4XeX7X.Xg . # 0 p i C $.$.&.=.H ' P g $.).4X4X4X4X4X4X4X4X4X4X4X4X4X4X4X4X4X4X4X4X4X4X4X4X4X4X4X",
"4X4X4X4X4X4X8X8XqX4X4X5X4X7XiX#X*     5 Q ! G Z % Z : Z } b %.R.9X4X4X4X4X4X4X4X4X4X4X4X4X4X4X4X4X4X4X4X4X4X4X4X4X4X4X4X",
"qX4X5X4X4X5X8X8XqXqX6X5X5XtXXX4.& O O 2 U Q / p ' ' ` q 3 , R.sX5X4X4X4X4X4X4X4X4X4X4X4X4X4X4X4X4XqX4X4X4X4X4X4X4X4X4X4X",
"qX4X4X4X5X4X6X4X4XqX5X5X9X(.e.% - 2 2 2 r Y E 4 ` 8 W ` & B ^.5X6X4X4X4X4X4X4X4X4X4X4X4X4X4X4X4X4X4X4X4X4X4X4X4X4X4X4X4X",
"qX4X4X4X4X4X6X4X=X4X3X9X~.+Xl $ 7 _ 6 2 4 7 r 4 # a 2 @ *  X/.5X4X4X4X4X4X4X4XwX4X4X4X4X4X4X4X4X4X4X4X4X4X4X4X4X4X4X4X4X",
"4X4X4X4X4X5X4X4XqX4X4X7X/.XXB X 4 r Q t U 7 7   & o w 1 x #X~.6X4X4X4X4X4X4X4X4X4X4X4X4X4X4X4X4X4X4X4X4X4X4X4X4X4X4X4X4X",
"4X4X4X4X6X4X4XqX4X4X6X9X).9.& 4 r r Q Q  .( 6 + & o y } x |.yX6X4X4X4X4X4X4X4XwX4XwX4X4X4X4X4X4X4X4X4X4X4X4X4X4X4XqX4X4X",
"8X4X4X4X6X4X4X4X4XqXwX7XoX#.. r Y r 7 W ) z.z.t & i  .} v {.iX8X4X4X4X4X4X4X4X4X4X4X4X4X4X4X4X4X4X4X4X4X4X4X4X4X4X4X4X4X",
"8X8X4X4X6X4X4XqXqXqX4X7X%X<.  Y Y E 7 _ ( ) { ~ = - / } b $.OX=X4X4X4X4X4X4X4X4X4X4X4X4X4X4X4X4X4X4X4X4X4X4X4X4X4X4X4X4X",
"8X6X4X4X6X4X4XqX4XqX4XtXR.B O R Y Y t 6 ( ~ ^ ) - G !  .a l _.8X4X4X4X4X4X4X4X4X4X4X4X4X4X4X4X4X4X4X4X4X4X4X4X4X4X4X4X4X",
"8X8X4X4X4X4XqX4X4X4X4X/.3.$ u R E ] ( 6 / ( { ..8 D G ` a l (.=X4X4X4X4X4X4X4X4X4X4X4X4X4X4XqX4X4X4X4X4XwX4X4X4X4X4X4X4X",
"8X4X4X4X4X4X4X4X4X4X7X@XB . ! T R R ^ 7 s [ {  .F g n b q c OX4X4X4X4X4X4X4X4X4X4X4X4X4X4X4X4X4X4X4X4X4X4X4X4X4XqX4X4X4X",
"4X4X4XqX6X4X4X6X6X8X7X@X1.@ W ^ ] R Q 2 u s [ 1 n J l J 9 h (.6X4X4X4X4X4X4X4X4X4X4X4X4X4X4X4X4X4X4X4X4X4X4X4X4X4X4X4X4X",
"4X4XqX4X4X4X5X5X6X9XyXE.m w r ^  ./ T 4 0 s a Z d 5.o.i.b M _.5X4X4X4X4X4X4X4XqX4X4X4X4X4X4X4X4X4X4X4X4X4X4X4X4X4X4X4X4X",
"qXwX4X4X4X4X6X8X8X7X`.2.. y ^ ~ / Q r O 6 s 9 S j V &.=.n h (.4X4X4X4X4X4X4X4X4X4X4X4X4X4X4X4X4X4X4X4X4X4X4X4X4X4X4X4X4X",
"8XwX4X4X4X4X6X8X=XtX%X4.X y y y ` /   O t s a A j =.i.=.% l oX5X5X4X4X4X4X4X4X4X4X4X4X4X4X4X4X4X4X4X4X4X4X4X4X4X4X4X4X4X",
"8X8X4X4X4X4XwX8XrXlXh.x > y y t / !   X w Q ! A d =.H f $ M XX/.4X4X4X4X4X4X4X4X4X4X4X4X4X4X4X4X4X4X4X4X4X4X4X4X4X4X4X4X",
"8X4X4X4X6X6X4X4X=X&X1.& e p t 7 ] Q   @ 4 U ! 8 $ i.Z . + d e.`.9X4X4X4X4X4X4X4X4X4X4X4X4X4X4X4X4X4X4X4X4X4XqX4X4X4X4X4X",
"8X4X4X4X4X6X6X5XuXU.c O ! W Q r ] [     4 r Q 3 . F 9   p $ #.oX9X4X4X4X4X4X4X4X4X4X4X4X4X4X4X4X4X4X4X4X4X4X4X4X4X4X4X4X",
"wX4XqXqX=XwX5X~.sX9.$ U T W 6 6 { / O   O 6 Q 5   | s    ., %.^.7X4X4X4X4X4X4X4X4X4X4X4X4X4X4X4X4X4X4X4X4X4X4X4X4X4X4X4X",
"4X4XqXqX=X4X5X/.@Xe.. + 2 W 0 2 / / O   2 t Q # . G P @ ] 1 $.oX9X4X4X4X4X4X4X4X4X4X4X4X4X4X4X4X4X4X4X4X4X4XqX4X4X4X4X4X",
"9X6XqXqXqXqX4XsXf.M 5.j 9 . # 5 Q { O O 6 0 Q 5   & a p [ 1 N $X/.4X4X4X4X4X4X4X4X4X4X4X4X4X4X4X4X4X4X4X4X4X4X4X4X4X4X4X",
"8X6XqXqXqXqX4XyXT.f $.i.n b   # Q } O @ 0 6 R 4 . & # s Y X B #XtX4X4X4X4X4X4X4X4X4XqX4X4X4X4X4X4X4X4X4X4X4X4X4X4X4X4X4X",
"8X4X4XqX4X4X6X7XpXY.M c C c , # s s X @ 6 ^ r 4 . = 6 ~ Q 5 % 2.iX4X4X4X4X4X4X4X4X4X4X4X4X4X4X4X4X4X4X4X4X4X4X4X4X4X4X4X",
"4X4X4XqX6X8X8X6X4XdXf.4.h % * - O O   # y t E O = 9 6 ~ ~ 0 : $./.4X4X4X4X4X4X4X4X4X4X4X4X4X4X4X4X4X4X4X4X4X4X4X4X4X4X4X",
"4X4X4X8X8X8XqXqX8X~.`.@Xh.h = O O . D Z u ^ U O ' D 2 U W q F %.OX4X4X4XwX4X4X4X4X4X4X4X4X4X4X4X4X4X4X4X4X4X4X4X4X4X4X4X",
"4X5XqX4X8X8XqX4X6X5X~./.{.d = 3 = A =.D = Q 6 + K K 5 W 8 Z I $.).4X4X4X4X4X4X4X4X4X4X4X4X4X4X4X4X4X4X4X4X4X4X4X4X4X4X4X",
"8X8X4X4X4XqX4X4X5X0X5X/.<.$ < G A K z J ' 8 3 . K H u p = * C $./.4X4X4X6XwX4X4X4X4X4X4X4XqX4X4X4X4X4X4X4X4X4X4X4X4X4X4X",
"8X4X4X4X4X4X4X6X4X6X4XzX1.. ; F n H z =.i.Z 0 = K H u 5 # < b <.).4X4X4X4X4X4X4X4X4X4X4X4X4X4X4X4X4X4X4X4X4X4X4X4X4X4X4X",
"4X4X4X4X4X6X4X4XeX-XtXT.h & * g j h =.V i.' 3 + A S u r w 1 ; $.iX4X4X4X4X4X4X4X4X4X4X4X4X4X4X4X4X4X4X4X4X4X4X4X4X4X4X4X",
"qX4X5X4X6X4X4X4X3XtXzX2.$ < % b J j k =.i.' 3 + S F 6 4 @ X : %.OX4X4X4X4X4X4X4X4X4X4X4X4X4X4X4XqX4X4X4X4X4X4X4X4X4X4X4X",
"4X4X6X5X4X4X4X5X5XsXf.M & i n J J =.h J | i 2 . S D 2 w w > & %.jXqX=X4XqX4X8X8X6X6X8XqXqX4X4X5X4X4X4X4X4X4X4X4X4X4X4X4X",
"4X4X6X6X4X4X4X6X5X/.e.% & $ = ' | i.K D 9 8 #   S ' 5 @ 1 , %.}.tXqXqX4XqX4X6X9X8X5X4X4XqX4X4X6X4X4X4X4X4X4X4X4X4X4X4X4X",
"4X4X6X4XqXqX4X4X4X9XoX3.$ i @ W ` ` a 5 # = . . Z 9 - o v {.^.uX6X4X4XqX4X4X5X8X5X4XqX4X4X4X4X5X4X4X4X4X4X4X4X4X4X4X4X4X",
"4X4X4XqXqXqX4X4X4X5X_.$X4.% - 5 3 0 6 # v M l B g 8 o . B }.dX4X4X4X4X4X4X4X4X5X4X4XqXqXqX4X4X6X4X4X4X4X4X4X4X4X4X4X4X4X",
"qXqX4X4XqX4X6X4X4XwX8XtXOX#X8.$ .     6.$X(.^.$Xg.- } P h #X7XqX4X5X4X4X4X4X4X5X6X4XqXqX4X4X9X6X4X4X4X4X4X4X4X4X4X4X4X4X",
"qX=X4X4X4X6X5X5X4XqX=XqX5X).|.B . i A 8.`.~.0XsXg.x vXnX6.|.jX9X9X5X5X4X4X4X4X4X4X4X4XwX4X4X8X5X4X4X4X4X4X4X4X4X4X4X4X4X",
"aX=X8X5X4X5X5X5XrX4XqXrX4X_. X, j.NXc.1.kX6X3XkXe.k.AXAXv.4.}.+X_.9X5X4X4X4X4X4X4X4XqX4X4X4X5X4X4X4X4X4X4X4X4X4X4X4X4X4X",
"qX8X8X6X4X4X5X4X4X=XrX=XwX).N b b.CXBX7.@X7XwXpX4.6.nXb., o g *.^./.9X5X4X4X4X4X4X4X4XqXqX4X4X5X5X4X4X4X4X4X4X4X4X4X4X4X",
"4X4X6X8XqXqXqX4X4XqXwX4X6X^.L b.o   I a.2.OXaXpXy.$ s.Q @ < 6.%.U._.8X8X4X4X4X4X4X4XqXqX4X4X6X4X4X4X4X4X4X4X4X4X4X4X4X4X",
"4X4X6X8X8XqXqXqXqXqX4X6X6XoX1.j.p.p.& I N t.uXuXR.z % . . * 7.:.U.;.pX8X8XwX8XqX4X4X4XqX4X4X6X5X4X4X4X4X4X4X4X4X4X4X4X4X",
"wX4X4X8X8X4X4X4XwX4X4X4X4X~.$.$ c.v.K p.5.e.dXW.dXE.U.U.U.f.U.r.C.!.pX-XrX=X4X4X4X4X4X4X4X6X4X4X4X4X4X4X4X4X4X4X4X4X4X4X",
"4X4X4X8X8X6X6X6X4X4X6X4XwXpXy.g = $ % d % g./.5X5X~.dX~./.kXoXzXOXjX_.uX-XrX8X5X4X4X4X4X4X4X4X6X4X4X4X4X4X4X4X4X4X4X4X4X"
};
