/* XPM */
static char *_653_d1239cad80a5690d61692df5014d7bd2decba9bf4297c9df03148df8fd25be67[] = {
/* columns rows colors chars-per-pixel */
"60 60 256 2 ",
"   c #170A04",
".  c #1B191C",
"X  c #1E100F",
"o  c #290C00",
"O  c #350D00",
"+  c #3B1500",
"@  c #251B1A",
"#  c #281708",
"$  c #362415",
"%  c #1D1C21",
"&  c #261D21",
"*  c #2B2526",
"=  c #382F33",
"-  c #3C3534",
";  c #3C3A34",
":  c #3C3A3A",
">  c #373738",
",  c #3B2E29",
"<  c #1E272C",
"1  c #4B1D00",
"2  c #461A02",
"3  c #541B00",
"4  c #430C00",
"5  c #482303",
"6  c #582703",
"7  c #492916",
"8  c #583419",
"9  c #543115",
"0  c #662A01",
"q  c #6A3306",
"w  c #7B3B00",
"e  c #763702",
"r  c #653A10",
"t  c #583925",
"y  c #433B3B",
"u  c #453937",
"i  c #493329",
"p  c #6A3B2B",
"a  c #601E00",
"s  c #3C403F",
"d  c #724215",
"f  c #44413B",
"g  c #564236",
"h  c #684A36",
"j  c #7E623B",
"k  c #3D3C41",
"l  c #443B41",
"z  c #3B4043",
"x  c #484445",
"c  c #554847",
"v  c #5D5555",
"b  c #574F53",
"n  c #6C5548",
"m  c #775949",
"M  c #675A5A",
"N  c #6B5552",
"B  c #68615E",
"V  c #7A6457",
"C  c #6A5D63",
"Z  c #735E63",
"A  c #6B6562",
"S  c #716266",
"D  c #766D72",
"F  c #8E3D0C",
"G  c #894B16",
"H  c #965618",
"J  c #904A0D",
"K  c #A55C16",
"L  c #AE5B0F",
"P  c #BE6703",
"I  c #BB6A19",
"U  c #AE6B18",
"Y  c #90542C",
"T  c #A5582B",
"R  c #A96426",
"E  c #BA6C24",
"W  c #BB7329",
"Q  c #B17234",
"!  c #976530",
"~  c #C85F00",
"^  c #D05F00",
"/  c #C56402",
"(  c #CC6502",
")  c #C56902",
"_  c #CB6901",
"`  c #C4660B",
"'  c #CA6609",
"]  c #C56A0B",
"[  c #CB6B0B",
"{  c #D26501",
"}  c #D26A02",
"|  c #D16809",
" . c #CB6C13",
".. c #C36D1B",
"X. c #C76C16",
"o. c #CB721B",
"O. c #C77218",
"+. c #D3781A",
"@. c #CC7106",
"#. c #C76D26",
"$. c #C67327",
"%. c #D67A25",
"&. c #C16C35",
"*. c #E67F29",
"=. c #926954",
"-. c #AD7150",
";. c #886B64",
":. c #92776E",
">. c #B3766D",
",. c #8B5D4E",
"<. c #C47D7E",
"1. c #C07D53",
"2. c #BBB539",
"3. c #B4AD30",
"4. c #BB8138",
"5. c #D58F1C",
"6. c #D6862A",
"7. c #DA8838",
"8. c #D2922E",
"9. c #E7973A",
"0. c #E68E2E",
"q. c #CDAF34",
"w. c #EBAF35",
"e. c #CAB015",
"r. c #E3C334",
"t. c #AE8F57",
"y. c #B6B848",
"u. c #BCB955",
"i. c #B4AB4C",
"p. c #968678",
"a. c #B9876A",
"s. c #B79A69",
"d. c #B98876",
"f. c #B9977B",
"g. c #A98B75",
"h. c #B8A16F",
"j. c #C89651",
"k. c #E79444",
"l. c #C7B745",
"z. c #C5A658",
"x. c #D7B85B",
"c. c #D3AE4D",
"v. c #E8B749",
"b. c #E6B959",
"n. c #F2AC4A",
"m. c #C38D77",
"M. c #C79679",
"N. c #C38F6A",
"B. c #D0B36C",
"V. c #E8B86E",
"C. c #BEC058",
"Z. c #BCC564",
"A. c #CCC458",
"S. c #F9C947",
"D. c #E8C55A",
"F. c #FBC957",
"G. c #F8CD4B",
"H. c #C5C665",
"J. c #D6C970",
"K. c #EAC968",
"L. c #F6C965",
"P. c #EEC879",
"I. c #9A8886",
"U. c #9B9197",
"Y. c #A59489",
"T. c #B59988",
"R. c #AC928D",
"E. c #B7A49B",
"W. c #B1A296",
"Q. c #A89BA5",
"!. c #AC9FB0",
"~. c #ABA4AA",
"^. c #B6A7A9",
"/. c #B5ABB4",
"(. c #BCB3BB",
"). c #ADA9B3",
"_. c #C79885",
"`. c #D39889",
"'. c #D0948C",
"]. c #CAA689",
"[. c #D6A589",
"{. c #C9A898",
"}. c #D8A996",
"|. c #D9B599",
" X c #D0B58E",
".X c #E4B69A",
"XX c #E7B290",
"oX c #C7B5A9",
"OX c #D8B7A4",
"+X c #C7BBB7",
"@X c #CEACAB",
"#X c #E7B9A6",
"$X c #EAB6AD",
"%X c #D79BA5",
"&X c #DAC187",
"*X c #D9C697",
"=X c #E5C989",
"-X c #F9D787",
";X c #EAC897",
":X c #F5D998",
">X c #EFCF90",
",X c #FDE99B",
"<X c #DBC6B9",
"1X c #D5C8B0",
"2X c #E7C6AA",
"3X c #F5C9A8",
"4X c #ECCBB4",
"5X c #EBC4BB",
"6X c #ECCCBB",
"7X c #E7C7B6",
"8X c #F4CBB4",
"9X c #F3CCBB",
"0X c #FCCCBB",
"qX c #F6C8B7",
"wX c #EAD5B8",
"eX c #F7D7BA",
"rX c #F2D8A9",
"tX c #FBE6B7",
"yX c #FFF6B6",
"uX c #F7E5B2",
"iX c #BDB6C3",
"pX c #C6BBC4",
"aX c #CBC5CA",
"sX c #D6C9C7",
"dX c #D6CCD4",
"fX c #D9D4D6",
"gX c #D2CCCF",
"hX c #EACCC4",
"jX c #F3CCC3",
"kX c #E8D5C8",
"lX c #F3D3C4",
"zX c #FBD4C4",
"xX c #F4DCCB",
"cX c #FCDDCB",
"vX c #F8D9C7",
"bX c #E6D8D8",
"nX c #FDDCD4",
"mX c #F7DDD8",
"MX c #FBE5C9",
"NX c #FFF6C9",
"BX c #FDE2D2",
"VX c #FAE7D7",
"CX c #FEF3DB",
"ZX c #FDF6D7",
"AX c #ECE6D6",
"SX c #DDD4E1",
"DX c #E7DBE5",
"FX c #FCDDE1",
"GX c #F9EAE8",
"HX c #F4F4EC",
"JX c #FDF3EB",
"KX c #FAF6E6",
"LX c #EDF7F4",
"PX c #F5F4F3",
"IX c #FAF6F8",
"UX c #ECEBEB",
/* pixels */
"' ' _ ) _ _ } { { _ _ / _ / _ ( | ( ^ { _ ( ( { ( ' ' P ] / _ _ _ ( } ( [ ( ( { _ _ ) ) _ ( { { _ ) ' ' | | ( ( _ _ ' ' ",
"' ' _ _ _ _ ( ( | ~ _ _ / @.~ | { ~ ( _ / _ ( ( ~ ( [ ) ] [ ' / | | ~ [ ~ ~ { ( | _ / ' ( ( { { _ _ ' ( ^ ( { ( _ / / _ ",
"{ | { ( _ _ ( { { { | '  .~ ' ^ ( @.) P O.X.o. . .( _ _ '  ...%.~ _ _ / ( { | | ~ ( ' _ ( _ ( ( _ _ _ ( { ( ( ( _ _ _ / ",
"^ | { ( / _ _ { ^ { ~ ' '  .' ' [ I I U H e 3 e #.I I L J F 0 a I / ) _ } { ( ^ | | { ( ( | ' ( _ _ ( ( ( { { ( _ _ _ _ ",
"{ ( _ / _ _ ( ^ { | ( @.@.O.X...E G 6 2 + i h + d r 1 O 2 t t 2 w #.' { ~ ( _ _ / _ ( { { { _ _ _ _ ( ( ( { ( ( _ ( _ _ ",
"} _ / [ _ / | | ' X.I K w 3 J G 1 + $ i f B B c   $ 7 i u N D N 1 T &.#.o.+.] P / / ( { { ( / [ ( _ _ ' ( ( _ ( _ ( ( _ ",
"{ ^ ' [ / ' [  .W G 5 4 8 t o + 7 i u u f : M A x y u y y u v A 7 2 5 6 q G R 4.o.@.' _ _ _ _ _ _ / ( ' [ ( ( ( ( { { ( ",
"{ ( ' ` P ..#.J 3 O 7 v S S b f l y l y f , v S b y y - y = b M I.sXE.g.;.g + 6 w K $.o.P P _ _ ( _ _ _ ' ' ' ( ( ( { { ",
"{ ( ( ' ..R 6 o $ y f - k v A z > z : > - c C C Z l ; s ; x A B B W.oX1XgXfXsXR.h 1 6 H O.) / ( ( ( { _ | ( ( ( ' ' { { ",
"( ' ' ..H + + f f : : l k b A v > s > > k C S Z Z c s > ; B M B n p.h.g.Y.Y.E.+XkX2X:.6 6 K $.X.' _ ( / ( _ ( _ { ( ( ( ",
"_ ) E e o i g , f ; : : x C B Z c ; l x = l v A C v > z l l S A m t.z.j.f.T.s.s.t.[.sXsX:.+ e &.X.) ( } } / { ( ( _ ' _ ",
"_ @.d O i ; ; f , u : > b S Z Z M f - : k k : c C A x z = * i n n j j.c.z.f.z.z.z.f.Y.).SXsXp 3 U I ] / _ } } ( ( _ / _ ",
"( o.q + g ; ; ; f ; l k l b M M B N ; > - > > > f M M , ;.R.;.p m :.XXB.c.t.B.=X=X*X XY.U.(.bX:.4 H $.P @.) _ { ( _ / ) ",
"{ ` R O , y f : u ; k y = u x c C C y ; : - = i , i c T.xX{.R.'.g.'..XXXP.-XNXNXNXNXNXAX(.Q.Q.bX{.4 G W ] / { { ( ( _ ) ",
"( [ E 6 o * > > > s : u l l = - : M v > k u c :.Y.:.g.VXOXOX5X5X.Xm.1.[.3XrXMXwX4X8XMXVXKXkXW.I.sX@X+ G I @._ } { ( ( _ ",
"_ / I T O # . < z > ; y u - l k : > M * o u E.5X#X0XwXMXMXMXvXzXnX.Xm.XX0X9XlXwX8X8X4X6XxXCXAX+X^.sX@X4 H $./ { { ( _ / ",
"_ ) P E 0 # @ . < l u u y y k k k = c V m T.'.a.m.3X4X4XMXZXMXeXvX0XM.`.9XwXlX9X]..X8XwX5XjXCXBXhXOXcXY.4 Q  .^ ( ) ) ) ",
"_ [ / X.K o # @ % % & * @ * > k = M @XjXjX9X#X#X`._.0X4X6XxXVXVX]..X8Xf.#X9X5XcX[.g.[.8XqX5XxXVX9X7XhXBXV 6 #.^ ( ) ) ) ",
"( { _ ' $.q o @ & % . . & @ X u R.hXjXjX6X4XwX6X0XXXd.$X9X5XcXGXqXd.#X.X_.$X0XcXzXT.m..X0X6XwXVX4XwX7XhXlX5 J  .' _ ) P ",
"{ ^ { _ ` Q + X @ % % @ @   N <XnX5X5X9X6XeXkX7X].3X}.d.}.9X5XBXGX_._..Xa..XqXjXnX$Xa.}.9X6X4XcXOXcX6X6XkXT.3 E ' ( _ ) ",
"( ( ( _ ` R 7 I.@ . % &   ;.CXjX7XhXzX#X_.2XkXVX|.a.$X`.a.|.wX6XCX8X.X Xa.}.jXjXnXnX_.#XwX9XwXxX{.zXcX<XhXxXt G o./ } { ",
"_ _ ( / %.e h IXC       g 2X}.#XcXxXcX4X_.>.<XBXzXm.`.$Xa.[.eX<XZXMX.XM.N.$XjXhXMXvX X4X4X6X6XxX XzXzX{.<XAXY.1 O._ { { ",
"_ ) ) ] E 3 {.gXR.c n ,.d.m.>.m.vXvXeXMXMX*X<XxX0Xm.}.XXN.[.0X4XCXwXa.a.`.qX7XzXMX2X X3X8XqXlXBXwXcXzX_.{.^.bX7 K [ _ { ",
"_ / _ I H 6 bX/.@XhXT. X.X$X`.d.{.wXBXwXeXMXBXxX0Xm.[.`.a..XqX9XCXwXT..X8X4XeXrX*Xz.i.XX>X;XMXBXtXzX.Xd.T.Y.DXn w  ./ } ",
"| ( { X.d n AX~.fX1X XuXMXeXzX#X].M.2XvXuXkXBXcX'.m.XX.X}.3XqXlXCXAX4X8X8XrX Xu.i.Z.u.i.i.=XNX*X4X.X1.-.T.U.dXI.a #.[ ( ",
"^ ( ^ #.q :.bX^.bXhXwXMXuXwX2XOXqX|.g.{.xXkXxXxXT._.}.0XqXqXwXhXKX7XwX2X2X=Xu.Z.y.u.u.i.C.J.Z.t.s.t.B.Q =.'.+X+X3 E ` ( ",
"( { ^ o.5 E.kX^.bXhXMX2XT.{.{.@X$XnX'.d.OXMXxXMXjX$XjXjXhX6X7XCXcX9X<XuXJ.i.u.y.Z.Z.J.Z.C.C.y.y.s.z.-Xz.=.T.^.hX6 T  .( ",
"( ( { X.5 oXsX^.mXlXxX2XOXcXcXBXFXFXcXOX{.AXAXxXhX5XjX5X7XeXtXtXeXuXuX:Xc.3.C.y.Z.Z.u.H.Z.y.3.2.l.P.V.k.! f.^.kX8 H  .( ",
"_ ( { I 5 +XsXW.mXwX6XlXzXjX4XqX5XjXzXnXmXkXkXVXwXwXkXwXeXyXL.b.c.A.D.2.2.A.3.u.J.u.y.y.C.C.3.3.i.x.D.D.j.B.^.bX8 H o./ ",
"( | ( U 5 1X<XI.$X0XqXqX6X8X0X0X$XzX7XlXBXVXmXAXuXuXuXuXuXJ.x.c.3.2.3.3.2.l.3.q.u.y.2.2.2.q.2.3.l.l.e.w.x.h.E.bX8 H  ._ ",
"^ ( ' U + 1XsXI.$X`.[.$X$X}.`.M._.;XeX<XlXmXxXMXuX X1XNXVXCXNX=XA.3.e.3.3.q.q.c.v.v.q.q.q.q.K.x.x.q.e.q.x.t.@XbX8 H  .^ ",
"{ ( ' E 5 1XfXE..Xm.1.m._.[.M.M.a.M.2X4X9XvXBXeXXX=XZXKXHXHXJXZX,XA.2.q.3.q.v.n.k.6.7.8.8.v.V.b.c.q.e.q.x.s.@XbX9 H [ { ",
"{ ^ { E 5 oXAXE.m.m.|.|.0X3XXX.X`.a.[.9X9X6XtX;X XrXKXJXHXHXHXJXCXyXD.q.q.5.5.6.6.%.+. .+.*.7.k.9.5.r.r.b.h.+XkX6 H o.{ ",
"{ ( ( #.5 E.VXE.m.3XBXcX[.a.s.[.3Xm._.zX4X4XtX X XZXIXPXLXHXHXJXHXZX,XD.v.w.9.9.n.k.*.+.%.%.7.%.+.5.w.w.B.h.fX<X5 K  .{ ",
"} ( / $.3 Y.lXg.}.BXxX6Xd.f.OXlXqXd.}.hX7XwXtX*XoXKXLXLXLXLXKXKXKXZXZX:Xv.w.n.9.6.6.6.0.+.%.k.7.*.0.w.b.B.E.DXE.2 U  .^ ",
"_ ) ' $.r =.cXf.$XxXjX].M.8XcXBXOX}.hXjXVXCXCXVXbXIXPXLXHXZXuXrXrXuXZXNXL.q.8.6.6.7.%.6.0.9.n.n.n.9.w.b.T.pXDXp.5 E ' { ",
"_ _ ^ o.G p BXOX2XBX5Xd.d.[.0X.X[.6XhXGXHXHXJXHXIXPXIXJXNX:XK.K.D.K.>XyX,XD.w.9.n.k.9.*.*.0.0.%.7.8.8.z.T.dXfXN 0 O.' _ ",
"/ } ( ' R 4 7X6X<X0XzX`.N.M.M.M.2XlXbXIXPXLXIXPXIXPXJXKXMXV.F.G.G.F.L.,XyXP.n.q.9.%.%.#.#.7.k.k.W 4.j.s.1XDXpXt J O./ / ",
"/ ( ( ] W 3 g.mX2X4XlX2X#X8XqX9XlX<XAXLXPXHXHXHXPXHXJXKXMX;XL.F.F.F.L.-XyXP.v.5.8.x.V.V.XXV.1.-.V..XM.T.fXdXQ.2 K [ / _ ",
"| _ | ' I e h mXwX6X7X4X4X8XjXhX6XsXbXIXHXHXKXKXVXMXuXMXNXyXL.F.F.F.b.-XNX:Xc.F.-X,XtX0X$X'.`.'.[.ZX|.<XbX^.V 1 $./ _ ) ",
"` [ ^ ( @.K + @XGXhXsX7X9X4X4X9X8X6XbXPXLXHXCXtX>XK.D.K.,XyX,XK.F.G.P.tXNX2X>X>X`.`.'.jXqXOX'.<.$XGXsXbXpXE.8 F .._ _ ( ",
"' ( { { _ $.6 n VXfXhXmXOX2X3X;X:X2XfXIXLXKXMX:XL.G.G.S.K.,XyX=XD.J.uXNXMXeX|.`.'.'.R.%XGX%X>.%XFXpXfXdX!.:.4 E  ._ | ( ",
"_ _ { { / O.K O E.GXDXDXhXt.j.F.S.c.wXUXPXJXuXb.F.F.F.F.F.-XNXAX1XNXZXAXwXwX}.'.$X<.>.jXxX+X5XFXdXfXSX!.^.8 F o.' / { { ",
"( ( ( _ [ / $.0 t sXDXSXDXvXt.U w.D.*XAXIXJX:Xb.F.G.G.G.F.-XZXKXZXuXwX*XrX2X%X>.<.<.$XnXwXsX5XpXbXfX!.!.:.2 E / ) / { { ",
"_ ( / _ ( ( ' E + :.fXUXgXAXVXf.H 1.XX1XGXJX,Xx.G.S.G.G.L.:XZXkX*XJ.x.x.>XtXzXcX$XnXjX-.=.W.sXbXfXW.Q.T.2 Y P _ / _ { { ",
"( _ _ / / _ ( X.G + Y.fXUXgXbXJX0X=.,.|.fXKXNX=XD.r.G.K.=XyXNX*XB.D.F.n.V.#X0X2XOX_.,.=.{.kXfXaXQ.^.^.8 q W P _ _ ( } { ",
"{ { ( _ [ / _ ) $.d 7 W.dXDXfXfXGXKX^.W.aXgXKXZX:XP.J.rXMXZX>XV.n.n.L L &.&.T F p =.oXbXAXfXiX!.Q.E.n + W I ) ) ( { ' ' ",
"^ { ( _ ) ) _ _ _ I 6 t ^.pXDXSXfXfXIXHXDXfXaXfXAXNXZXGXUX1X-.j.n.I F F F F T <.$XFXGXfXaX~.!.Q.^.,.4 Q I ) @./ ( ( ' ' ",
"{ { ( _ ' ' ( ( ( ] W 6 8 E.pXSXdXgXgXbXUXPXUXDXfXfXsXsX@X;.h Y Y Y -.>.T.$XnXGXIXDXpXpX!.Q.).^.Y 2 R E ` / _ _ ( ( ( ' ",
"{ { _ ( _ ( ( { ( / X.R 6 7 Y.(.pXfXdXdXgXfXUXUXLXIXPXUXDXhX5XzXzXmXGXJXGXJXDXdXpX).!.!.Q.Q.W.h 2 R E ` _ _ } ( { ( ' ' ",
"( { ( ' ( ( ( } ( { / I W e 5 :./.).aXdXaXaXaXaXdXbXbXDXGXGXPXGXGXDXSXpXpX+X(.).).).!.Q.@Xg.i 5 Q E ` X./ { ( ( ( ( ' / ",
"( _ ' ' ' ( ( { { { ( / O.E J 4 n R./.^.aXaXaXaXpXpX+X+X+X+XiXiXiXiXpX/./.^.)./.~.~.^.W.,.O e Q E ` ` ~ ( } ^ } ( _ _ ' ",
"( ( _ _ _ ( ( | { } } ( (  .X.E 6 5 m T.).).).iXpXpXpXpXpX+X+X(.iX(.(././.~.~.~./.^.;.8 3 K ../ [ _ ~ _ { ^ { ^ ( ( ' ' ",
"( ( _ _ ' ( ( ( ( ~ ( { ( ~ ( ` $.H 6 5 n I.~.).^./././.)././.).^.^.~.~.^./.~.Y.m 7 1 w W X.[ ( / ( _ { { | ^ | { ( _ ( ",
"_ _ _ ( ( ' ' ( _ _ ( / ~ ( { _ P O.$.H 0 2 9 m :.U.Q.^.).).).).~.).~.U.I.V g 2 a H E %.' ' ' _ } _ ~ { ^ ^ ( { ( ( _ / ",
"_ _ { _ ( ( ( ' _ _ ) _ ' _ ( ( _ ' '  .#.E G 0 1 7 7 t g h g h h t 7 5 $ 6 d K &...^ ^ ( ( _ _ ( ( | ( ^ { { ( _ _ _ _ ",
"_ _ ( ( ( { _ ( _ ) ] ) ) / _ _ ( ' ' ( ' '  .o...K H J w w w F w J J L I o.o. .' ) ' _ _ ( _ _ _ } ( { ( ( ( ( _ _ _ ( ",
"/ _ ( ( { { { ( ' ' ` ' ) _ _ _ _ ( ( ( { { | { ( ' X.O.o.o.o.o.+.o.@._ } { ( ~ _ / _ _ / _ _ ( ( ( ( ( ( ( ( ( _ _ _ _ ",
"/ _ ( ( { ( { { ( ( ) _ _ _ _ _ _ _ ( { _ _ / / [ [ ' / ^ ~ ~ ( _ ) / / ( ( { } _ _ / _ ) _ _ _ / _ ' _ ' _ _ _ _ _ ( ( ",
"' _ ( ( ( { { ( { ( ( ( ( ( ( _ ' _ ( _ _ _ ) ) P / ( ( { { { { ( _ } _ _ ( _ ( ( / _ _ _ ) / / ' ' ' ' / _ / _ _ _ ( _ "
};
