/* XPM */
static char *_0491_d0582147e26600bf1b9672a80935a3657a8ba6174c1fe59ab0a3f1f89c600286[] = {
/* columns rows colors chars-per-pixel */
"60 60 256 2 ",
"   c #0C0200",
".  c #08080A",
"X  c #130200",
"o  c #1B0200",
"O  c #140C02",
"+  c #1C0B01",
"@  c #130D0A",
"#  c #1B090B",
"$  c #16120C",
"%  c #1D150A",
"&  c #0E0F15",
"*  c #160E12",
"=  c #151313",
"-  c #191713",
";  c #1C1B1B",
":  c #191819",
">  c #0F1314",
",  c #230301",
"<  c #2B0201",
"1  c #2D0E00",
"2  c #250B06",
"3  c #340100",
"4  c #3C0200",
"5  c #3B0A01",
"6  c #330D03",
"7  c #2C1201",
"8  c #271607",
"9  c #341300",
"0  c #3C1C00",
"q  c #371B06",
"w  c #230814",
"e  c #261816",
"r  c #361618",
"t  c #24211D",
"y  c #34271B",
"u  c #32250E",
"i  c #171B22",
"p  c #231E23",
"a  c #1E2429",
"s  c #222424",
"d  c #252A2B",
"f  c #2A2B2C",
"g  c #292727",
"h  c #352B28",
"j  c #2C2E32",
"k  c #383838",
"l  c #343233",
"z  c #430100",
"x  c #4A0100",
"c  c #440B00",
"v  c #4B0B03",
"b  c #470D0C",
"n  c #540201",
"m  c #5B0201",
"M  c #520B02",
"N  c #5C0B01",
"B  c #58080A",
"V  c #441401",
"C  c #4C1400",
"Z  c #431B01",
"A  c #4C1B01",
"S  c #45130C",
"D  c #531301",
"F  c #5C1201",
"G  c #531C00",
"H  c #581706",
"J  c #451D15",
"K  c #630501",
"L  c #6B0301",
"P  c #670C05",
"I  c #760801",
"U  c #621100",
"Y  c #691700",
"T  c #7A1704",
"R  c #671E1A",
"E  c #7D1813",
"W  c #492703",
"Q  c #552200",
"!  c #572803",
"~  c #573203",
"^  c #492514",
"/  c #572A17",
"(  c #4E3511",
")  c #6C2C00",
"_  c #652500",
"`  c #782900",
"'  c #683504",
"]  c #733400",
"[  c #793802",
"{  c #6B2215",
"}  c #673B19",
"|  c #763714",
" . c #792317",
".. c #47362B",
"X. c #553828",
"o. c #502B2C",
"O. c #6F3C26",
"+. c #3C4118",
"@. c #3E433D",
"#. c #684606",
"$. c #7D4105",
"%. c #784819",
"&. c #705011",
"*. c #4D4639",
"=. c #684629",
"-. c #784B24",
";. c #78542D",
":. c #6B4732",
">. c #795735",
",. c #73483B",
"<. c #693C43",
"1. c #3F4A4E",
"2. c #464946",
"3. c #565451",
"4. c #754D42",
"5. c #736D56",
"6. c #5E6462",
"7. c #6F6D6C",
"8. c #644E65",
"9. c #881805",
"0. c #961C02",
"q. c #8B170E",
"w. c #812209",
"e. c #982503",
"r. c #833C00",
"t. c #893802",
"y. c #953900",
"u. c #88351B",
"i. c #9B3614",
"p. c #8B2A18",
"a. c #BB3E0C",
"s. c #B83902",
"d. c #A63818",
"f. c #B83916",
"g. c #A82D08",
"h. c #8A3928",
"j. c #B13B21",
"k. c #C93906",
"l. c #D23705",
"z. c #864508",
"x. c #974803",
"c. c #885D05",
"v. c #985309",
"b. c #854818",
"n. c #99581B",
"m. c #904F15",
"M. c #A64900",
"N. c #B94305",
"B. c #A5580C",
"V. c #BA5D06",
"C. c #BB4416",
"Z. c #AC5C11",
"A. c #A65B18",
"S. c #B35C17",
"D. c #AE4118",
"F. c #996C14",
"G. c #BC630C",
"H. c #BB680B",
"J. c #B86718",
"K. c #BC721B",
"L. c #A66C10",
"P. c #92592A",
"I. c #964B36",
"U. c #8D4E2D",
"Y. c #AE5621",
"T. c #99632C",
"R. c #8A673A",
"E. c #9A6930",
"W. c #A86627",
"Q. c #B66C25",
"!. c #BD6D24",
"~. c #B46C2A",
"^. c #BB722A",
"/. c #B97838",
"(. c #AB6F2F",
"). c #C64503",
"_. c #C55D01",
"`. c #CC5E01",
"'. c #CA580A",
"]. c #C64516",
"[. c #CF5117",
"{. c #C56402",
"}. c #CC6601",
"|. c #C56903",
" X c #CB6902",
".X c #C4650B",
"XX c #CB6609",
"oX c #C5690B",
"OX c #CB6B0B",
"+X c #D16501",
"@X c #D16A03",
"#X c #D1640A",
"$X c #D36A0B",
"%X c #DA6A00",
"&X c #D77605",
"*X c #C46713",
"=X c #C46C13",
"-X c #CB6C13",
";X c #C46D1B",
":X c #C96D1A",
">X c #C96314",
",X c #D66912",
"<X c #CB7215",
"1X c #C3731C",
"2X c #CA731A",
"3X c #C67717",
"4X c #D37215",
"5X c #C1710E",
"6X c #E56C17",
"7X c #F97918",
"8X c #ED7607",
"9X c #C36E21",
"0X c #C47224",
"qX c #CA7323",
"wX c #C8792A",
"eX c #C57834",
"rX c #D66A25",
"tX c #EC6B23",
"yX c #E17624",
"uX c #825341",
"iX c #986944",
"pX c #93714F",
"aX c #A26F43",
"sX c #A67648",
"dX c #B97C57",
"fX c #B0724D",
"gX c #AF7D6A",
"hX c #8A7365",
"jX c #CE7F44",
"kX c #B58610",
"lX c #B28C28",
"zX c #D68E02",
"xX c #E88800",
"cX c #E9970E",
"vX c #F9A90D",
"bX c #F0B10D",
"nX c #CD8B2D",
"mX c #FFB92D",
"MX c #F6AB30",
"NX c #D7B607",
"BX c #FFC331",
"VX c #F3D61F",
"CX c #B98F50",
"ZX c #AF9174",
"AX c #CE9148",
"SX c #F4BA44",
"DX c #CC956C",
"FX c #F2CB53",
"GX c #FFEA4F",
"HX c #7C8688",
"JX c #BFA3AF",
"KX c #A09E8D",
"LX c #D8B88F",
"PX c #F3C89D",
"IX c #F5D8AE",
"UX c #EEDFD4",
/* pixels */
"}.}.}.}.}.}.}.}.}.}.}.}.}.}.}.}.}.}. X X X X}.}.}.XXXX#X}.}. X|. X X$X}.{. XXX#X}. X}.}.}.{.}. X|.|.}.@X X X}.}.#X#XXX.X",
"}.}.}.}.}.}.}.}.}.}.}.}.}.}.}.}.}.}. X X}.}.}.}.+XXX}.}.}.}. X X}.}._.@X X@X}.}.{.@X}.@X+X+X@X{.|.|.}.}.}.|.}.#X#XXXXX|.",
"}.}.}.}.}.}.}.}.}.}.}.}.}.}.}.}.+X}.}.}.}.}.}.}.}.}.+X@X+X}.}.}.{.#X}.@X{.{.}.}. X X_.XX}.}.}. X X X}.}.+X}.XXXXXX}. X|.",
"}.}.}.}.}.}.}.}.}.}.}.}.}.}.}.}.+X+X}.}.}.}.}.}.}.}.}.}.}.}.}.}.+X}.@X}.}. X$X}. X{.XX$X#X+X{.}.|. X}.+X+X+X+XXXXX|. X|.",
"}.}.}.}.}.}.}.}.}.}.}.}.}.}.}.}.}.+X+X}.}.}.XX|.}.|.|. X}.}.}.+X+X}.+X}.}.XX}.#X X XXX#X`.#X}.|.XX}.+X}.}.+X}.}.}.}. X X",
"}.}.}.}.}.}.}.}.}.}.}.}.}.}.}.}.}.}.}.}.XX|. X X X X}.}. X}.XX}.}.}.XXXX}.-X}.}.}. XXXXX#X}. X}.}.}.+X+X}.}.}.}.}.}.}. X",
"}.}.}.}.}.}.}.}.}.}.}.}. X}.}.}. XXX}.}.}.XX}.}.}.}. X}.}.XXXXXXXX X{.H.5XV.{.XX}. XoXV.XX-X{.}.+X+X+X}.}.|. X}.+X+X@X}.",
"}.}.}.}.}.}.}.}.}.}.}.}.}.}.}.}. X|.}.}.}.}.}.}.+X}. X}.|.XX#XXX|.XX$XH.H.Q x.:X|.oXK.) t.qXJ.>XXX}.+X+X.X|. X X#X+X}.}.",
"}.}.}.}.}.}.}.}.}.@X}.}.}.}.}. X X{.+X@X`.}.#XXX@X}.@X{.|. XXX}.XXXX}.{.J.G 3 n.0XJ.' o $./.' ] K.|.}.#X>X.XOX}.XX+X}.}.",
"}.}.}.}.}.}.}.}.}. X}.}.}.}.}. X|.}.@X`.+X-XV.=X.X=XG.J.Q.Q.J.J.K.*X}.OX~.C | D m.[ , &.] 5 9 7 z.H.+X+X`.OXXX|.XX}.}.}.",
" X}.}.}.}.}.}.}.}.}.}.}.}.}. X X|.OX{.@X-X>X!.Q.Q.(.E.Z 7 7 0 R.iX~.H.H.aXV u.Y m w.nXSX' < E.&.Q wXXX+X@X}.{.OX{. X|. X",
"}.}.}.}.}.}.}.}.}.}.}.}.}.}.}. X|.|. XXXM.` ) ) _ V 6 o       q ( %.(.(./ < p.D.y.G.BXbXc.lXFX#.~ /.J.XX}.}.}.|.|.|.|. X",
"}.}.}.}.}.}.}.}.}.}.}.}.}.}.}.}. X}.+X}.J.x.G A A 9 9 o u 4.R.>.+ + ^ X.X o i.N.+XmXbXkXNXGXkX+ 5 V r.0X|.}.}. X|.|.}.+X",
"}.}.}.}.}.}.}.}.}.}.}.}.}.}.}.}.XX{.+X}.oXJ.n.T.P.P.pX:.9 pXpXCX5.$ e h $ X y.,X&XmXvXbXVXVXF.lXnX) < [ 3X{.@X}.|. X+X+X",
"}.@X}.}.}.}.}.}.}.}.}.}.}.}.}. XXXXX+X%X}.|.1XJ.~./.aX;.+ 7 9 q y . = @ X o ` MXBXvX&XmXbXzXbXGXSXnX=., ] -X#X#X}.}.+X+X",
"}.}.}.}.}.}.}. X}.}.}. X}.}.}.}.XX#X+X+X}.}.H.0X^.b.G 5 < ;.-.%.o       o >.nX3XnXxXzXxXxXvXbXcXcXv.< 0 W.;XXXXX}.+X+X+X",
"}.}.}.}. X}.}.}.}.}.{. X}.{.+X}.}.`.+X+X+XXXZ.H G 3 4 z.v.K.1XK.v.b.>.q / ,.O.V A.3X&X&X&XzXzXcXMXG.E.-.G [ :X{.}.+X}.}.",
"}.}.}.}.}.}.}. X|. X@XXX@X{.XX-XqXqX:XqX9XlXW.%.-.-.P.~.qXV.|.H.<XQ.~ , 0 ^ y , G v B.SXMXVXFXmXyXx.] V c v.-X}.@X}.}.}.",
"+X+X}.}.}.XXXX|.|. X{.}.{.oX0Xm.F Q G ! W W ( ~ #.sX/.Q.9XqX:X.XV.!.c -.9 o O O #.kXFXlX&.&.&.(.v.4 A z.B.1X{.+X+X}.}.XX",
"+X+X XoX+X}..X.X|. X'.}.}.3Xz.b.U.c 1 X   O O X 1 Q _ ' _ _ ) ~.eXr.| } 1 X.q   0 AXCXu +.5.ZXiX=.A 5 n.wX.X}.+X+X}.XXOX",
"+X}.|.|.+X+XXX|. X}.+X{.}.:X[ G I.| / o e = O e % O O X , o o ^ / < J , ' fXV { R.' 3 # 3.KXUXKX..7 + 3 t.;X-X{.XX|.XXXX",
" X XoX|.+X+X}.}.}.@X{.XX$XM.z.iXb.F , o %   8 $ : : & > @ @ @   X ..% o dXb.| dXU.5 o.w p @.7.KX8 0 -.' x.:X_.-X|.XX}.}.",
"}.|.|.}.+X+X}.}.}._.$XOX}.M.z.%.H / O.1 o o o X @ * . & > k 1.s   l *   } D u.U.I.fXJX8.w w f 8 V A.0X<X4X%X`.+X}.}.}.+X",
"|.}.|. X+X+X+X}.XXXX|.{.XX<Xv.) A 5 / Z } :.X.X.X . a a a @.7.6.@.= & X o / { h.fXgXUX7.o.<.X q n.:X{.}.`.`.@X}.}.}.@X+X",
"}.}.}.}.+X+X+X+X X}.@X`.}.|.-XqXA.) ' b.pX} =.X.# = d d d d 2.6.HXj : 8 + 9 R I.Y R.LXZXgX4.< ' eXXX}. X}.}. X X}. X@X+X",
"+X}.}.}.}.+X+X}. X}.XX}.{.|.V.*XeXW.%.-.~ + + + t > i d d f 2.2.1.a - e # X b c b.DXLXIXZX3 z n.;XXX}.}.}.}.|.OX}. X}.}.",
"}.}.}. X}.+X}.}.@X}..X*X2X1XqXW.| ! X X $ y y h d a i a g j 3.f . t p *     # o / } ;.uX0 c n.qX.X}.}.}.}.{.}.XX}.}.}.}.",
" X}. X}.}.}.{.}.}.-XwXB.r.[ $.Q o 2 e i f f h g p a a j g e h @ - g g p $   O + Z ! G Q Q n.qX.X|.{.}.}.}.}.}. X}.}.}. X",
"oX}.}.+X}.}.XX=X0Xv.] C 3 ! 9 2 ..g g ; f f g ; - = f t * O   X e e l : ; % X Z S.2X2XwXqX>X.X}. X X}.}.}.}.}. X}.+X}.}.",
"oX}.}.+X+XXX|.=Xn.b.%.#.iXZX,.r k j g i d d a e @ e 8 2 6 3 < < , 2 ; & *.y W T.=X}.{.}._.+X$X{. X}.+X+X}.}. XXX}.+X+X+X",
"OX{.+X+XXX}.}.1XZ ;.DXdXdXdXI.V r 2.f j d s : ; @ o < M  .P B B B 3 X s 3.+ m.K..X X}.@XXX{.@X{. X X+X}.}.|.oXoXXX#X+X%X",
"XX}.+X+X`.}.+X1X~ o U.I.AXDXU.5 8 2.@ @ - = @ * - , v N E q.L E { v X.hX7 0 Z.OXXX|.}. X}. X X X}.}.+X+X}. X|..X+X`.+X+X",
"XXXX+X}.+X@X}.=X] ' DXPXPXZX/ o h h o ^ q   # w ; 2 c N K T p. .O.4 gXU.G A.<X}.XX.X,XXX{.}. X}.}.}.}.}.}.}. X X}.}.@X}.",
"#X}.}.XX}.}.}. XwXr.c ! sX=.< / q o } aX:., S < w w < c v M B H 4 J C G W.wXH.OXXXXX_.{.$X X{.@X}.}.}.}.}.}.}.}.}.}.}.}.",
"}.}.XX|.}.}.+X}._.0Xr.C G v [ n.4 [ /.m.< C P B w w e 8 X O X , r r , =.P.m.n.G.{. X X X X{.}.|.@X}.}.}.}.}.}.}.}.}.}.}.",
"}. X}.XX X}.+X#X$X.X;XJ.^.^.1XJ.!.J.!.r.z K L L B < # - - = e , < 4 v z F F P x.oXOX|. X}.}.}. X X}.}.}.}.}.}.}.}.}.}.}.",
"|.|.}.}.}.@X+XXXXX#X{. X.X|.}.{.XXqXz.z L I q.q.E B 3 , o , 5 n E 0.j.].k.f.C.I y.H.,X{.@X@X{.}.}.}.}.}.}.}.}.}.}.}.}.}.",
"|.|.}.@X}.}.}.XX#X#X+X+X}.}.+X+X`.9Xu.5 I d.f.0.9.L B b 3 R N I 0.f.k.l.k.k.].C.P y.>X$X}.+X}.}.}.}.}.}.}.}.}.}.}.}.}.}.",
" X X}.}. X X XXX'.,X{.{.@X{.}.+X,XJ.b.5 9.[.6Xs.0.T N v 4 B E 9.f.k.l.l.k.k.,X>XZ.Y y.4XoX|.@X}.}.}.}.}.}.}.}.}.}.}.}.}.",
"}.}.}. X X X X}.#X_.&X X|. XXX.XqXz.3 Y e.).7X6XN.T v 3 b M m 9.9.0.s.l.).a.6XyXAX` y.OXH.|.+X}.}.}.}.}.}.}.}.}.}.}.}.}.",
"+X}.}.}. X X}.}.}.}.XX{.|..X=XJ.(.| z T '.8X7X7XrXP 3 , < , v { N u.0.s.s.s.k.rXjXY M.$XXXXX{.}.}.}.}.}.}.}.}.}.}.}. X}.",
"+X+X}.}.OX}.}.}. X@X{.}.OX*X!.t.3 4 n p.'.7X7X6Xg.N < r o.< 3 3 z x d.e.0.a.a.C.Y x..X}.{. X+X{.}. X}.}.}.}.@X}.}.}.}.}.",
"+X}.}.}.}.+X}.}.|.{.}.{.}.;Xu.4 v n T f.).tXtXa.T c b S / / 5 b h.m I i.d.d.Y.L y.oX|.|. X{.}.}.}.}.}.}.}.}.}.}.}.}.}.}.",
"XX}.}.}.+X}.}.}. X}.}.@X4Xy.z F Y q.j.f.N.N.e.T N 4 z z z z 4 4 P u.w.P m m n x.:X X|. X XXX X+X}.}.}.}.}.}.}.}.}.}.}.}.",
"+X}.XX}.}.}.}.@X}.+X}.{.<Xt.4 F P L 9.0.C.d.U z N Y.S.S.S.G.S.Y.c z x x x.S.V.*X|.{.@X}.}.@X|. X}.}.}.}.}.}.}.}.}.}.}.}.",
"}.}.}.}. X X}.}.+X}.}.oX;X[ 3 B m L L I I K H T.S.;XoX-XXXOX.X=XW.n.n.Z.H.OX$XXXOXXX}.@X}.}. X X X}.}.}.}.}.}.}.@X}.}.}.",
"|. X+X}.}.}.XXXX+X#X{.oXeX| < 5 B L I L Y P v ^.*XXX{.OX{.{.}.{.oX:X2X>XXX{.}.}.{.{.}.XX}.{.@X}.}.}.}.}.}.}.}.}.}.}.}.}.",
"|. X+X+X}.}.}.}.}.}.oX0X| 5 J S z n P  .U U J.H.XX{. XXX X}.@X}.}.{.}.}.XXXX}.}. X XXX{. X}.`.#X}.}.}.}.}.}.}.}.}.}.}.}.",
"}. X}.}.@X}.+X}.}.OX~.%., 2 :.uX5 3 < 3 F S.4X{.XXXX}.XX}.|.}.+X}.}.}.}. X}.}.}.}.}. X X X}.}.}.}.}.}.}.}.}.}.}.}.}.}.}.",
"{.}.}.}. X}.+X+X{.;X$., + e 1 :.4.X Z P.B.<X{.}.}.XX|.}. X}.+X+X}.}.}.}.+X}.}.}.}.}.}.}.}.}.}.}.}.}.}.}.}.}.}.}.}.}.}.}.",
" X}.}.}. X X X}.+X:X) X e t   # 8 Z W.3X=X{.#X}.}.}. X X}.}.+X#X}.}.}.}.}.}.}.}.}.}.}.}.}.}.}.}.}.}.}.}.}.}.}.}.}.}.}.}.",
"XX}.}.}.|.|. X X}.;X' o 8 ; . .   ^ eXV. X+X}.XX+X}. X X}.@X}.}.}.}.}.}.}.}.}.}.}.}.}.}.}.}.}.}.}.}.}.}.}.}.}.}.}.}.}.}.",
"}.}.}.}.}.|.XX}.}.-XA.W 2 d i i . + $.qX{.}.+X}.}.}.}.}.}.}.}.XX}.}.}.}.}.}.}.}.}.}.}.}.}.}.@X X}.}.}.}.}.}.}.}.}.}.}.}.",
"}.}.}.|.|.XX|.}.}.XXwX' X j 2.a = 8 5 [ -X+X}.@X}.}.}.+X+X}.|.|. X}.}.}.}.}.}.}.}.}.}.}.}.}.}.}.}.}.}.}.}.}.}.}.}.}.}.}.",
"}.}.}.}.XXXX}.}.@X}.|.Z.A o =.ZX5.*.=.A 1X{.+X}.|.XX+X+X}.XX|. X X}.}.}.}.}.}.}.}.}.}.}.}.}.}.}.}.}.}.}.}.@X}.}.}.}.}.}.",
" X}.}.}.}.XX}.+X+X+X}.-XW.Q 3 } W 6 0 C K.}.@X}. X X}.}.}.XX X X X}.}.}.}.}.}.}.}.}.}.}.}.}.}.}.}.}.}.}.}. X}.}.}.}.}.}.",
"|. X}.}.}. X X}.+X%X+X.X;XZ.r.] [ ] [ v.H.oX X}.XX}. X X}.}.}.+X}.}.}.}.}.}.}.}.}.}.}.}.}.}.}.}.}.}.}.}.}.}.}.}.}.}.}.}.",
"XX|.}.}.}.}. X}.}.+X}.{.OX-X=XqXqXqX:X-X=X|.|.{.}.}.}. X}.}.}.}.}.}.}.}.}.}.}.}.}.}.}.}.}.}.}.}.}.}.}.}.}.}.}.}. X@X}.}.",
" X X}.}.}.}.}. X}.@XXXXX X|.{.|.}.XX}.}. X|.}.@X@X+X}.}.}.}.}.}.}.}.}.}.}.}.}.}.}.}.}.}.}.}.}.}.}.}.}.}.}.}.}.}.}.}.}.}.",
" X X}.}.}. X}.|.}.{.{.{. X XXX X#X+X+X+X$X X{.{.+X+X}.}.}.}.|. X X}.}.}.}.}.}.}.}.}.}.}.}.}.}. X}.}.}.}.}.}.}.}.}.}.}.}."
};
