/* XPM */
static char *_4454_2edb9eef0fb336c6c611f22c1fc9e3327ab9d75923fd88262de27f12abfdc225[] = {
/* columns rows colors chars-per-pixel */
"60 60 254 2 ",
"   c #040402",
".  c #0C0201",
"X  c #090A01",
"o  c #0C0A0B",
"O  c #08060A",
"+  c #130201",
"@  c #1B0100",
"#  c #140C02",
"$  c #1B0D01",
"%  c #130C0C",
"&  c #19070B",
"*  c #191409",
"=  c #191816",
"-  c #100F0F",
";  c #230200",
":  c #2B0100",
">  c #230C01",
",  c #2C0B00",
"<  c #230F0D",
"1  c #340100",
"2  c #3B0100",
"3  c #330C02",
"4  c #3C0B00",
"5  c #3A070E",
"6  c #22130C",
"7  c #281809",
"8  c #331400",
"9  c #3C1500",
"0  c #381808",
"q  c #241B13",
"w  c #231C1B",
"e  c #2B1916",
"r  c #371816",
"t  c #200C15",
"y  c #1A241D",
"u  c #28221A",
"i  c #382917",
"p  c #2C2A0A",
"a  c #1C1C23",
"s  c #261D29",
"d  c #3E1E23",
"f  c #1D2624",
"g  c #232423",
"h  c #2B2827",
"j  c #362825",
"k  c #393839",
"l  c #302F30",
"z  c #440300",
"x  c #4C0201",
"c  c #440C00",
"v  c #4C0B00",
"b  c #4A0C0A",
"n  c #520301",
"m  c #540B00",
"M  c #5B0B01",
"N  c #5B0705",
"B  c #431401",
"V  c #4B1400",
"C  c #4D1D00",
"Z  c #451705",
"A  c #5D1301",
"S  c #5C1B00",
"D  c #561705",
"F  c #571813",
"G  c #640200",
"H  c #660A04",
"J  c #770903",
"K  c #651300",
"L  c #681A04",
"P  c #791704",
"I  c #6D1F13",
"U  c #721914",
"Y  c #462305",
"T  c #532301",
"R  c #582704",
"E  c #462615",
"W  c #523215",
"Q  c #632300",
"!  c #682903",
"~  c #762705",
"^  c #6B3302",
"/  c #6C3B01",
"(  c #643407",
")  c #733300",
"_  c #7C3501",
"`  c #7C3B01",
"'  c #773908",
"]  c #642816",
"[  c #792417",
"{  c #673816",
"}  c #773B17",
"|  c #4A372A",
" . c #5A3623",
".. c #4E3531",
"X. c #6D3A28",
"o. c #6F3737",
"O. c #764604",
"+. c #794819",
"@. c #775013",
"#. c #5B4125",
"$. c #5B4134",
"%. c #454239",
"&. c #6C482C",
"*. c #7C593A",
"=. c #724F2F",
"-. c #7D7021",
";. c #393642",
":. c #433F40",
">. c #3F4344",
",. c #474A4A",
"<. c #4C4753",
"1. c #555553",
"2. c #6E574B",
"3. c #6B7272",
"4. c #616942",
"5. c #820C02",
"6. c #871803",
"7. c #941900",
"8. c #951A03",
"9. c #8A1F17",
"0. c #A31A00",
"q. c #89240B",
"w. c #972606",
"e. c #823E02",
"r. c #8A3D04",
"t. c #832614",
"y. c #982B15",
"u. c #923511",
"i. c #A52A08",
"p. c #A93807",
"a. c #B6360A",
"s. c #AE3915",
"d. c #BA3715",
"f. c #AF2B0D",
"g. c #8F392B",
"h. c #B03E24",
"j. c #CB3B03",
"k. c #C83909",
"l. c #C83E13",
"z. c #CF3607",
"x. c #874507",
"c. c #974A04",
"v. c #854917",
"b. c #895419",
"n. c #995618",
"m. c #935704",
"M. c #AA4800",
"N. c #A85B09",
"B. c #B55605",
"V. c #A35718",
"C. c #B04814",
"Z. c #9B6808",
"A. c #896418",
"S. c #BD6301",
"D. c #BD680E",
"F. c #A8641A",
"G. c #BD6B12",
"H. c #B2641B",
"J. c #BD6B1B",
"K. c #B96616",
"L. c #BF7416",
"P. c #AF7009",
"I. c #8C5327",
"U. c #965825",
"Y. c #895938",
"T. c #8B4C2F",
"R. c #A65C24",
"E. c #B85A39",
"W. c #986939",
"Q. c #A96625",
"!. c #BD6B24",
"~. c #B36A29",
"^. c #BD7428",
"/. c #BA7738",
"(. c #AD6C32",
"). c #C74806",
"_. c #C55E01",
"`. c #CB5E01",
"'. c #CA5A07",
"]. c #D05F00",
"[. c #C64619",
"{. c #D25008",
"}. c #C56402",
"|. c #CC6601",
" X c #C56902",
".X c #CB6902",
"XX c #C5650B",
"oX c #CA6509",
"OX c #C4690B",
"+X c #CB6B0A",
"@X c #D16502",
"#X c #D26A02",
"$X c #D2630B",
"%X c #D26A0A",
"&X c #C97305",
"*X c #D67903",
"=X c #C46C13",
"-X c #CA6C13",
";X c #C36D1C",
":X c #C86815",
">X c #CB7113",
",X c #C4721C",
"<X c #CA711A",
"1X c #D3741A",
"2X c #DA6311",
"3X c #E87606",
"4X c #EB7A1C",
"5X c #C34223",
"6X c #CA6E23",
"7X c #C46D24",
"8X c #CC7324",
"9X c #C67527",
"0X c #D0722D",
"qX c #E67529",
"wX c #8D574F",
"eX c #956E4B",
"rX c #AD6C44",
"tX c #A77543",
"yX c #BB7A49",
"uX c #B46F46",
"iX c #AC7A61",
"pX c #C3714C",
"aX c #A48123",
"sX c #B98A00",
"dX c #D08511",
"fX c #D38E0A",
"gX c #ED871C",
"hX c #E98B0E",
"jX c #DBA21D",
"kX c #F2A716",
"lX c #CC9334",
"zX c #F98E2F",
"xX c #D5AB32",
"cX c #FDB330",
"vX c #F5C60E",
"bX c #DFC13F",
"nX c #FFD82B",
"mX c #AF8A5E",
"MX c #BEAC53",
"NX c #AD8366",
"BX c #EBB550",
"VX c #E3A37D",
"CX c #D89563",
"ZX c #FFCC42",
"AX c #F9C651",
"SX c #F3C962",
"DX c #768282",
"FX c #B3A196",
"GX c #D5A88A",
"HX c #E7A486",
"JX c #F4B7B4",
"KX c #F3C8AF",
"LX c #C8C1A4",
"PX c #FDEDD3",
/* pixels */
"|.|.|.|.|.|.|.|.|.|.|.|.|.|.|.|.#X|.#X@X@X@XoXoX|. X X X X|.|.|.|.|.|. XoXoXoX+X].$X X X X.X@X'.$X@X@X|.#X.X X|.|.@X#X#X",
"|.|.|.|.|.|.|.|.|.|.|.|.|.|.|..X|.|.|.|.|.|.|.oX|.|.|. X|.|.|.oX|.|..XoX|.|.|.|.%XoX.X X X X$XoXoX+X|.|.|.|.|.|.|.|.|.@X",
"|.|.|.|.|.|.|.|.|.|.|.|.|.|.|.|.|.oX|..X|.oX|.|.oX X|.|.|.@X@X@X.X.X.X.X|.|.|.|.|.}..X X X.X#XoX|.|.|.@X|.@X.XoX|.|.|.|.",
"|.|.|.|.|.|.|.|.|.|.|.|.|.|.|.|.oX|.|..XoX|. X|.|.|.|.|.@X|.@X|.|..X|.|.|.|.|.|.oX+X|. X.X}.@X|.|.}.|.#X@X|. X X.X|.|.|.",
"|.|.|.|.|.|.|.|.|.|..X|.|.|.|.|. X|.oX|.|.|.@X@X@X|.|.|.|..XoX X@X@X|.|.#X|..X.XoXXX|.@X#X@X}.|.|.|.|.|.oXoX X X|.|.@XoX",
"|.|.|.|.|.|.|.|.|.|.#X|.|.|.|.|. X|.|.|.@X@X@X@X@X#X#X|..XoXXXXXoXoX|.@X@X@X X XoX:X+X.X-XOX-XXX|.|.|.}.|.oX X X|.|.$X$X",
"|.|.|.|.|.|.|.|.|.|.|.|.|..X|.|.|.|.@X@X@X@X@X@X@X|.|..X XoXoXoXoXoX X|.@X@X.X}.oX-XK.~ L Q._ Q.XX%X#X X.X.X}.oX|.|.|.oX",
"|..X|..X|.|.|.|.|.|.|.|.|.|.|.|.|.|.@X|.@X|.@X|.|.|.|..X|..XoX.X|. X X|.oXoX|.S._ !.E.x ` ^ Q A H.8X8XOXOX.X|.@X|.|.oX|.",
"#X|.|.|.|.|.|.|.|.|.|.|.|.|.|.|.@X|.|. XoXoX.X X|.|.$X$X|.|.#X|. X}. X.X|.-XoXN.1 T L _ BXY N.aX' R T (./ m.&X|.|.|.oXoX",
"|.|.|.|.#X|.|.|.|.|.|.|.|.|.|.|.oX|..X X XOXOX X+X|.oX@X|.|._.+XG.G.D.OXXX'.=XV.3 T L 7XAXm.jXAXY R 9 9 -.O.Z..X|.|.oXoX",
"|.|.|.|.|.|.|.|.|.|.|.|.|.|.|.#X@X|. XoXD. X X X|.@X@XoXXX,X^.(.tXtX~.J.7X7X7XQ.B yX1X4XzXS.nXO.O.BX! 4 SX/ ) 1X X|.oXoX",
"|.|.|.|.|.|.|.|.|.|.|.|.|.|.|.|.|.|.oXXX X XoX|._.%X|.=XH.n.b.( #.*.yX(.U.U.v.^ 1 ^ B.3X3XB.jXP.sXZXP.` AXO.x.=X}.|.oX@X",
"|.|.|.|.|..X|..X|.|.|.|..X|.|.|.|.|.oX|.|.|.|..X%X-X=X^.R.T 8 + . $ W W i W 9 { ^ x.jXcXhX@X&XnXvXnXfXdXBX^ e.8XoX@X|.oX",
"|.|.|.|.|.|.|.|.|..X|.|.|.|.|.|.|.|.|.@X#X|.|.oXM._ x.O.T 9 W #.#.#.j X   u @  .{ b.aXlXgX3XhXkXnXvXdXcX=XQ ) N.:X@X XoX",
"|.|.|.|.|.|.|.|.|.|.|.|.|.|.|..XXX|.@X@X#X@X.XD.c.c : ; 3 Y.eX=.&.2...+ # 6 # + + . + R K.4XgXdXkXfX*XkX` P.( ) -X@X X X",
"|.|.|.|.|.|.|.|.|.|.|.|.|.|.|.|.oX|.|.#X|..X XD.^.n.R ( O.+.T : : ; @ 8 W E j o o a + , ) c.M.dXfXjXcXhXfXBXO./ -X#X}.|.",
"|.#X|.|.|.|.|.|.|.|.|.|.|.|.|.|.+X|.|..X.X.X X XXXoX<X0Xc.S Q ! Q ~ Q v./.tX, . O w o * ; ; : Z.xXbXlXZ.BXlXD _ &X#X|.oX",
"|.|.|.|.|.|.|.|.|.|.|.|.|.|.|.|._.%X.X|.|.|..X.X|.@X@X|.OX9X/./.yXyX9X~.(.' :  .r + @ j & ; R MXMX-.-.=.n.O.S V.+X@X@X@X",
"|.|.|.|..X|.|.|.|.|.|.|.|..X|.|.%X|.|.|.@X|._.+X].$X@X|.}.,XQ.v.+.+.A.(.} 2 e.~.T.2 C eXE ; =.mXp 4.LXPX*.8 V.+X|.|.|.+X",
"|.|.|.|.|.|.|.|.|.|.|.|.|.|.|.|.|.`.@X|.@X$XoXoX:X:X<X,XL.Q.( @ @ @ 8 @.+ E Q.n.' c rX! W.C : 8 p 1.4.FXp &.7XoXoX X.X.X",
"|.|.|.|.|.|.|.|.|.|.|.|.|.|.|.|._.%X`.@X1X=X-XJ.F.x.b.b.Y.W + $ X * X * # < :  .@ : T.q.P ~ u.NXu o w $ 9 n.=X|.|.|..X X",
"|.|.|.|.|.|.|..X|.|.|.|.|.|.|..X|.|.+XB.x.c.n.n.R @ @ + @ ; # X = y y f h h j . o @ L q.q.u.pXJXE E , 9 n.;X X@X@X@X.X X",
"|.|.|.|.|.|.|.|.|.|.|.|.|.|.|.|. XD.F.) T B ; @ # $ . + ; ; > q * X f >.<.DX3.y O < F [ E.E.CXHXwXo.: I.;X_.@X@X#X@X|..X",
".X|.|.|.|.|.|.|.|.|.|.|.|.|.|. X XP.B =.HXwX0 ; &   & < > r 7 # X y f h <.<.DX3.= = ; F L ' rXHXJXo.v c.1X|.@X@X].#X.X.X",
"|.|.|.|.|.|.|.|.|.|.|.|.|.|. XoX,XK 4 C L U [ b + % & r e & O % = s g k >.,.3.3.= q + , ; *.Y.NXX.z V.6XXXoX}.#X|.|.|.|.",
"|.|..X|.|.|.|.|.|.|.|.|.|.|.|.oX;XQ W.iXg.[ [ b + O @ @ & = s s s s l ..l ,.1.1.# $ 8 eXY : 9 c v U.<X XoX|.|. X XoX|.|.",
"|.|.|.|.|.#X|.|.|.|.|.|.|.|.|.|.XXJ.( ; c wX| . w q q q w k l <.:.<.:.g k >.k   # 9 H.K.=XJ.<XD.G.L.}.|.|.|..XS.oXXXoXoX",
"|.|.|.|.|..X|.|.|.|.|.|.|.|..X|..XJ.W.Y + > > . u %.u f l :.<.<.:.s h h a O - # > Q.XX#X|.]._.#XS.S..X#X_.*X X.XoXoX$X$X",
"|.|.|.|.|.|.|.|.|.|.|.|.|.|.|. XXXH.#.8 , =.Y.V @ s k s a = t s s @ & &   - g p V F.>XS.|.|.+X|..X.X|.|.oX|.}.|..X|.oX].",
"|.|.|.|.|.|.|.|.|.|.|.|.|.|. XoX<XS eXKXGXNXuXT.3 + l ,.l = < < @ 3 5 ; * = e B F.G.oX X+X|.|..X|.oX|.#X_.@X#X|.|.|.@X@X",
"|.|.|.|.|.|.|.|..X|.|.|.|.|.|.oX7XD 8  .] yXCXT.r + h k   # ; c ~ m N F r 0 V R.=X|..X|.@X$X}. X+X|.|.|.#X@X}.|.|.|.|.@X",
"|.|.#X|.|.|.|.|.oXoXXXOXXXXX.XXX,XQ ( GXHXGXCX] @ + g k X * W ] I ~ g.b 1 9 R.:XoX|.|.@X].|.|..X|.|.|.|.|.|.|.|.|..X.X|.",
"|.|.|.@X.X|.|.oXOXK.Q.~.!.K.XXoX+X=X! T eXiX&.@ & + - = h h E o.T.] ..2.8 W.J.|.@X@X|._.%XoX|.|.@X|.|.|. X}.|..X X X X X",
"%X+X|.oX}.>X-XJ.~.K n x N N.;XK.K.!.(.V : 0 3 ; @ > e w * 6 | ..X.&.2.& @ S H.:X:XXX:X+X|.|.|.|.%X@X|.|..X|. X|. XoXoXoX",
"|.oX=X;XL.F.Q.W.B S p.p.P N m c c 4 Z , ; b [ I ] v : ; ; > e w e e 3 1 m n v z D Q.^.K. X.X|.#X_.+X#X|.|.@X|.@X|.|.|.|.",
"XX,XQ.c Y 9 0 8 ; 2 0X).p.H.H.(.U.2 ; z F U 6.6.6.P K I ] b ; + & ; F g.g.g.g.m c v b Q.D. X}.|.+X.X|.|.#X].@X@XoXoX|.|.",
"!.n.8 p 7 * . $ 2.2 s.k.2X4XzXqXqX0XL n P 7.8.8.6.i.h.y.9.U b b 2 z H J P P J G K x : V Q.L.}..X X X|..X@X].@X|.|.oX.X X",
"U.C 7 g y f X l FXZ w.qX{.].).{.{.{.C.i.p.a.f.a.s.y.y.5.J J n x U U 5.5.5.5.5.6.J P m 2 c ~.9XOXoX.XoXoX|.@X#X|. XoX X X",
"U.1 p = O a O = j 2 q.5Xi.7.8.k.j.j.j.j.k.).[.s.w.J H H n b : 1 H J J J d.d.d.d.a.d.y.J x x A R.,X+XB.}.@X|.}.#X.X X X X",
"Y., u - O - a O . ; N q.q.6.8.7.d.k.z.z.f.0.8.J G G x 2 1 : : Z N G H 9.y.i.8.7.l.k.l.d.y.K M K L N.0X=XXX+X|.|. X X X X",
"i 6 - * t + * . + @ : 2 z z I t.q.s.).z.z.f.s.5.G m 1 ; @ ; ; : : 2 z x x A M H 7.d.j.z.[.a.p.w.K K A R.J.XX+X}.=X-X-XoX",
"# h X = s r @ &.+.@.+.+.+.c 2 x x P C.[.[.0.6.P n 2 C I.+.+.I.v.v.v.v.v.} 2 2 z G w.k.).j.j.k.[.s.} T S U.0X7X9Xx.v c.9X",
"X * q q | : +.7X^.8X,X;X9Xc.r.c.x 2 m M H m 2 2 L x.N.,X,X,X-X-X=X,X<X7X!.u.} 1 v I w.i.j.z.k.d.u.L Z ; Z T T R ; &.=.+.",
"X 7 2.> . 3 H.oX}.@X`.`..X+X>X;XU.' x.e._ ' +.} n.9XOX X.X|.`.#X|. X|.oX=X9X^.` 2 v ~ P w.a.d.y.n X.3 > + e e + ..2.9 R ",
"  6 ..6 $.1 H.|.#X|.@X#X X XOX X;X6X1X%X1X6X6X8X-X+X|.|.|.@X@X`.|.@X|.oX|.XX}.,X) 2 2 D ~ t.[ n X.=.j a l ;.u i $.> C U.",
"W ; ; ; { ` D.|.|.|.@X@X#X XoX}.}.|.].].@X_.oX}._.#XoX|.@XoXoX|.@X#X$XoX%X|. XoX!.r.{ 2 x ~ v 1  .i t l ;.f = 7 @ T Q.9X",
"~.) ` e._ J.oX|.|.|.oX|.@X@X X|..X X@X%X_.|.%X.X|.|._.#X.X X.X X|.|.|. X|.|.+X|._.8X7Xr.^ V ; + . q g l f y # + T F.=X X",
"=X<X<X=X<X X.X|..X}.|.@X].@X XoX.X.X|.|.|..X X X X#X|.|. X}. X.X|.|.+X|.|.#X}.+X@X|.}.<X^.' / { 7 = u = % + Y / N.>X X.X",
"|.oXoX X X X|.|..X|.|.|.#X|.|.|..X|.|.|.|..X.X.X.X#X|.|..X.X.X|.|.|.|.|..X|.|.|.|.|..XoXOX=X;X/.8 # * * @ C F.,X X.XoX.X",
"|..X|.|.|.|.|.|.|.|.|.|.|.|.|.|.|.|.|.|.|.|.|.|.|.|.|.|..X|.|.|.|.|.|.|.|.|.|.|.#X|.|.|.|..X|.J.O.; + @ C Q.OX X|.|. XXX",
"|.|.|.|.|.|.|.|.|.|..X|.|.|.|.|.|.|.|.|.|.|.|.|.|.|.|.|.|.|.|.|.|.|.|.|.|.|.|.|.|.|.|.|.|.|.|. X9Xe.Q ^ V.8X.X|.@X|.|.oX",
"|.|.|.|.|.|.|.|.|.|.|.|.|.|.|.|.|.|.|.|.|.|.|.|.|.|..X|.|.|.|.|.|.|.|.|.|.|.|.|.|.|.|.|.|.|.|..XS.=X9X9X-X_.`.#X@X@X|.oX",
"|.|.|.|.|.|.|.|.|.|.|.|.|.|.|.|.|.|.|.|.|.|.|.|.|.|.|.|.|.|.|.|.|.|.|.|.|.|.|.|.|.|.|.|.|.|.|.|.#X|.}.XXXX@X%X@X|.oX|.oX",
"|.|.|.|.|.|.|.|.|.|.|.|.|.|.|.|.|.|.|.|.|.|.|.|.|.|.|.|.|.|.|.|.|.|.|.|.|.|.|.|.|.|.|.|.|.|.|.|.|._.|.%XoX|.@X|..X|.oXoX",
"|.|.|.|.|.|.|.|.|.|.|.|.|.|.|.|.|.|..X|.|.|.|.|.|.|.|.|.|.|.|.|.|..X|.|.|.|.|.|.|.|.|.|.|.|..X.X}.%XoX|. XoX#X X|.oXoX|.",
"|.|.|.|.|.|.|.|.|.|..X|.|.|.|.|.|.|.|.|.|.|.|.|.|.|.|.|.|.|.#X.X|.|.|.|.|.|.|.|.|.|.|.|.|.|.|.|. X X}.|.oX|.}..X X.X|.|.",
"|.|.|.|.|.|.|.|.|.|.|.|.|.|.|.|..X|.|.|.|.|.|.|.|..X|.|.|.|.|.|.|.|.|.|..X#X|.|.|.|.|.|.|.|.|..X|. X|.@X@X|.|. X.X|.|.|.",
"|.|.|.|.|.|.|.|.|..X|.|.#X|.|.|.|.|.|.|.|.|.|.|.|.|.|.|.|.|.|.|.|.|.|.|.|.|.|.|.|.|.|.|.|.|.|..X X|.@X@X@X|.|..X|.|.|.@X",
"|.|.|.|.|.|.|.|.|.|.|.|.|.|.|..X|.|.|.#X|.|.|.|.|.|.|.|.|.|.|..X|.|.|.|.|.|.|.|.|.|.|.|.|.|.|..X X|.@X@X@X@X|.|.|.@X@X@X",
"|.|.|.|.|.|.|.|.|.|.|.|.|.|.|.|.|.|.|.|.|.|.|.|.|.|.|.|.|.|.|.|.|.|..X|.|.|.|.|.|.|.|.|.|.|.|..X X.X@X@X|.|.|.|.|.|.@X@X"
};
