/* XPM */
static char *_9716_788c1de5bf925d5e32ed7af540b976c821782ec6ad4b3e2204fade1c547513cd[] = {
/* columns rows colors chars-per-pixel */
"60 60 256 2 ",
"   c #040301",
".  c #0B0201",
"X  c #090807",
"o  c #150101",
"O  c #1B0200",
"+  c #120B03",
"@  c #1D0C01",
"#  c #130B0A",
"$  c #18080B",
"%  c #071506",
"&  c #161508",
"*  c #0D0B14",
"=  c #140C11",
"-  c #1D1213",
";  c #181A18",
":  c #0D1617",
">  c #230200",
",  c #2B0201",
"<  c #2C0C00",
"1  c #250B07",
"2  c #330201",
"3  c #3C0300",
"4  c #340D01",
"5  c #3C0C00",
"6  c #340A0B",
"7  c #2C1204",
"8  c #23140A",
"9  c #27130A",
"0  c #381706",
"q  c #221414",
"w  c #221B14",
"e  c #2A1917",
"r  c #341918",
"t  c #210C13",
"y  c #1A2518",
"u  c #0E3005",
"i  c #27241B",
"p  c #37281B",
"a  c #35301F",
"s  c #2E2C0B",
"d  c #1D1C22",
"f  c #231C23",
"g  c #321F21",
"h  c #292827",
"j  c #312B23",
"k  c #332929",
"l  c #33332D",
"z  c #382E32",
"x  c #363836",
"c  c #2B3130",
"v  c #430200",
"b  c #4C0200",
"n  c #4B0B01",
"m  c #430D00",
"M  c #520301",
"N  c #5C0400",
"B  c #550B00",
"V  c #5A0E01",
"C  c #580A0C",
"Z  c #431300",
"A  c #4B1501",
"S  c #4B1C01",
"D  c #46150C",
"F  c #531401",
"G  c #541C00",
"H  c #5D1D00",
"J  c #5A1706",
"K  c #451B16",
"L  c #581A14",
"P  c #620401",
"I  c #630A00",
"U  c #6B0A02",
"Y  c #740601",
"T  c #661904",
"R  c #7A1503",
"E  c #741B14",
"W  c #472607",
"Q  c #542200",
"!  c #5C2500",
"~  c #5A2B07",
"^  c #5A3208",
"/  c #442914",
"(  c #512513",
")  c #48351B",
"_  c #563613",
"`  c #493804",
"'  c #632301",
"]  c #672904",
"[  c #762604",
"{  c #643302",
"}  c #6A3708",
"|  c #793300",
" . c #743B01",
".. c #7B3C02",
"X. c #753706",
"o. c #693916",
"O. c #753B12",
"+. c #7D2519",
"@. c #561F22",
"#. c #453B39",
"$. c #4F332B",
"%. c #713725",
"&. c #384831",
"*. c #26501D",
"=. c #6A4505",
"-. c #754406",
";. c #76461C",
":. c #704C10",
">. c #484526",
",. c #484339",
"<. c #5C4839",
"1. c #744724",
"2. c #775833",
"3. c #6B4C2E",
"4. c #76651F",
"5. c #543846",
"6. c #384042",
"7. c #484647",
"8. c #554B44",
"9. c #47534B",
"0. c #71574F",
"q. c #707158",
"w. c #860900",
"e. c #831B01",
"r. c #891705",
"t. c #971901",
"y. c #8B1C11",
"u. c #A51E02",
"i. c #8A2808",
"p. c #972405",
"a. c #873802",
"s. c #953703",
"d. c #972E16",
"f. c #843515",
"g. c #A62805",
"h. c #BA370A",
"j. c #A8361B",
"k. c #B63915",
"l. c #B12F04",
"z. c #873322",
"x. c #943A27",
"c. c #8D2B28",
"v. c #A13B25",
"b. c #C63B0B",
"n. c #C63E11",
"m. c #C73D20",
"M. c #874405",
"N. c #964C04",
"B. c #985406",
"V. c #844714",
"C. c #995719",
"Z. c #905211",
"A. c #B8440A",
"S. c #A75808",
"D. c #B85D04",
"F. c #B44416",
"G. c #A85B16",
"H. c #B55D15",
"J. c #A44804",
"K. c #8B6218",
"L. c #BE6102",
"P. c #BC640B",
"I. c #BC670B",
"U. c #AC6419",
"Y. c #BC6513",
"T. c #BD6B14",
"R. c #B56718",
"E. c #BC721D",
"W. c #A97A04",
"Q. c #844A2A",
"!. c #944829",
"~. c #825122",
"^. c #985A27",
"/. c #885D33",
"(. c #A85D25",
"). c #B14E27",
"_. c #946F36",
"`. c #A96727",
"'. c #B46B23",
"]. c #B96B28",
"[. c #BB7428",
"{. c #A66734",
"}. c #AD7239",
"|. c #B87736",
" X c #B66E35",
".X c #C64A01",
"XX c #C25E01",
"oX c #CB5E01",
"OX c #C25708",
"+X c #C84B19",
"@X c #C56402",
"#X c #CC6601",
"$X c #C56A03",
"%X c #CB6902",
"&X c #C4650B",
"*X c #CB6509",
"=X c #C46A0A",
"-X c #CB6B0B",
";X c #D16501",
":X c #D26A03",
">X c #D16409",
",X c #D26B0A",
"<X c #DA6D08",
"1X c #C97407",
"2X c #DC7504",
"3X c #C36514",
"4X c #C46B13",
"5X c #CB6B13",
"6X c #C66C1A",
"7X c #D26E19",
"8X c #CA7115",
"9X c #CB721C",
"0X c #C57418",
"qX c #D4741E",
"wX c #EB7616",
"eX c #C47222",
"rX c #CB7423",
"tX c #C77829",
"yX c #C67835",
"uX c #CC6A21",
"iX c #ED7626",
"pX c #805E43",
"aX c #A05747",
"sX c #987359",
"dX c #966A47",
"fX c #B5795A",
"gX c #AA704D",
"hX c #997768",
"jX c #C07F47",
"kX c #74817A",
"lX c #BC960D",
"zX c #B8843B",
"xX c #CE8A04",
"cX c #E88C09",
"vX c #EEAA0E",
"bX c #C88C2D",
"nX c #EB962A",
"mX c #F2B131",
"MX c #D1AB08",
"NX c #F9C314",
"BX c #FFCD2F",
"VX c #FFE42D",
"CX c #AE8872",
"ZX c #A88165",
"AX c #CDA355",
"SX c #F2B24E",
"DX c #DAAC73",
"FX c #CC9360",
"GX c #FDC550",
"HX c #FAD65E",
"JX c #B59A8F",
"KX c #A4A9A2",
"LX c #D0A68F",
"PX c #E8B795",
"IX c #E3BFA5",
"UX c #D3A295",
/* pixels */
"#X#X#X#X#X#X#X#X#X#X#X#X#X#X#X#X%X*X%X%X#X#X;X;X;X;X#X;X#X;X#X#X#X#X#X%X#X*X;X#X:X#X%X@X=X*X;X;X;X#X*X*X#X#X;X;X#X#X#X$X",
"#X#X#X#X#X#X#X#X#X#X#X#X#X#X#X#X%X%X%X#X#X#X#X#X;X#X#X#X#X#X#X;X#X#X#X#X*X$X#X#X;X@X%X$X%X#X;X;X:X#X%X$X-X;X;X;X#X#X%X$X",
"#X#X#X#X#X#X#X#X%X:X#X#X#X#X#X#X%X#X#X#X#X*X*X*X#X#X#X%X%X*X%X#X;X>X;X*X$X$X*X*X:X#X%X%X@X%X$X$X@X%X@X%X#X#XoX;X>X#X$X$X",
"#X#X#X#X#X#X#X#X#X#X#X#X#X#X#X#X#X#X#X#X#X*X$X#X#X#X#X#X=X&X$X#X#X#X;X;X$X$X$X*XoX;X*X%X:X%X$X$X#X-X%X#X%X#X#X;X#X*X%X%X",
"#X#X#X#X#X#X#X#X#X#X#X#X#X#X#X#X#X#X#X;X#X#X$X*X#X#X%X@X$X=X*X%X$X%X;X;X%X%X%X%X;X#X#X#X>XoX%X#X>XoX;X@X$X$X$X@X*X#X;X;X",
"#X#X%X#X#X#X#X#X#X#X#X#X#X#X#X#X%X#X;X;X#X@X$X%X#X#X#X%X$X&X@X#X$X$X;X;X#X%X%X%X#X:X>X*X3X3X6X*X>X>X-X*X@X$X$X$X#XoX;X;X",
"#X#X#X#X#X#X#X#X#X#X#X#X#X#X#X#X*X*X#X#X#X%X%X@X#X;X#X%X%X$X#X;X#X#X#X#X#X%X$X%X<XoX;X6X' X.`.T.Y.T.&XP.*X-X%X*X;X;X>X*X",
"#X#X#X#X#X#X#X#X%X#X#X#X#X#X#X#X#X#X;X;X#X#X%X%X#X;X#X#X#X%X;X#X#X#X#X#X@X$XI.Y.OX9XoXtX' , 5 -. .| M.[ 9XD.5X#X;X;X*X*X",
"#X#X:X#X#X#X#X#X#X#X#X#X#X#X#X#X#X#X;X;X#X#X@X;X;X#X:X#X%X#X#X#X-X#X*X*X#X4X! v B f. X|.G O.=.1 < =. .! [.R.I.%X:XoX*X$X",
"#X#X#X#X#X#X#X#X#X#X#X#X#X#X#X#X#X#X#X*X>X:X#X#X;X:X#X%X@X%X#X-X@X,X#X#X$XI.{.m ~ ] b M ] SXK.~ DXK.=.V.{ B.] 8X#X#X$X$X",
"#X#X#X#X#X#X#X:X#X#X#X#X#X#X#X#X*X#X#XoX*X>X#X#X#X@X$XL.-X=XY.3X*X@X-X*X@X8XR.}.Q ] N.s.D.SX8XbXHX-. .C.O < ! T.*X:X$XL.",
"#X#X#X#X#X#X#X%X#X#X#X#X#X#X#X#X#X#X#X*X#X#X*X&XD.8X4XT.R.'.`.'.6XP.&X5X-X&XU.{ , 4 G.wX2XvX@XnXlX^ bX-.=._.A 0X#X#X$X$X",
"#X#X%X#X#X#X#X#X#X#X#X#X#X#X#X:X#X#X#X%X#X*X-X&XrX'.`.|.`.~ ^ _.`.'.[.'.].}.2.W < , X.1XcX;XoXmXMXlXmXB.lXbXJ [.-X#X$X$X",
"#X#X#X#X#X#X#X#X#X#X#X#X#X#X#X#X;X;X@X$X%X%X-XD.V F A Q dX_.2._ _.~.1.~.1.1.p > ) _.AXGXnX2X2XvXNXVXvXxXBXK.n bXY.-X$X%X",
"#X#X#X#X#X#X#X#X#X%X#X#X#X#X#X#X>X:X@X$X%X%X*XS.2 2 > > D s s &.&.s a a <.p > $./ W { ^.iXiX2XcXNXVXvXmXbX! -.m | 6XL.%X",
"#X#X#X#X#X#X#X#X#X#X#X#X:X#X#X#XoX:X$X%X@X@X-XD.Z.^.;., > O + u & &.&.: %   O r 0 7 < 3 s.3X<XxXxXNXvXxXtXV :._.n [.L.$X",
"#X#X#X#X#X#X#X#X#X#X#X%X#X#X#X#X>X#X#X@X:XD.:X=X8X4X6XN.N.M., O + + u % u *.y . > 0 $.@ < Z Z.nXlXvXVXmX=XeXzX=.S.&X$X$X",
"#X#X#X#X#X#X#X#X#X#X#X#X#X#X#X#X;X#X#X#XL.=X=XL.$XI.4XrXyXgX/.2.2.2.>.*.*.u % . ( 0 7 y   . Z N.mXlX4.:.a.J. .B.$X-X%X@X",
"#X#X#X#X#X%X#X#X#X#X#X#X#X#X#X#X#X#X%X$X0XtX[.tX[.[.`.' W W / ) ) ) a y u *.% 3. XC.0 o o O F AXAX` s q.sX! N.0X-X-X;X#X",
"%X#X#X#X#X#X#X#X#X#X#X#X#X#X#X#X#X%X=XS.V H ' T ! { _ O @ + + + + . . . u y % s jXV.m <./ O C.zX` y 9.KX0.S yXL.@X#XoX>X",
":X#X#X#X#X#X#X#X#X#X#X#X#X#X#X#X@X6X`.O.gXQ.m > O @ 1 w & # # + - = o O +   : X ( 2 D %.z.| T G 7 + h q.8.m eX%X$X$X-X>X",
"#X#X#X#X#X#X#X#X#X#X#X#X#X#X#X%X-XH.m G UXaXL > * ; = &   X X * . f k / #         O @.v !.(.] E >.j   ; _ Z.Y.#X$X$X#X#X",
"#X#X#X#X#X#X#X#X#X#X#X#X#X#X#X#X5Xa.A ZX!.E L > $ * .   + X   * . r r 9 # y z z # . 9 , !.aXfXFXhX7.* e C.5X%X%X$X%X#X:X",
"#X#X#X#X#X#X#X#X#X#X#X#X#X#X#X#X,XS...Q.R z.Q.> O O 7 <.,.+ .   q w @ 8 & x 9.9.7.; o O o.!.gXLXIXJX5.( tX#X%X#X#X#X;X;X",
"#X#X#X#X#X#X#X#X%X#X#X#X#X#X#X#X%XI.S.] T B O. ...-.;.3.>.8 - k ,.k k k k h 7.6.kXc   O > o.gXZXIXJXo.M.7X>XoX;X#X*X>X>X",
"#X#X#X#X#X#X#X%X#X#X:X#X#X#X#X$XL.1X$XtXG.'  .|.yX}.o.O . & j z x x x z i h z 6.9.y . / ] X.a.} Q.o.M.rXOX;X#X:X*X*X>X>X",
"#X#X#X#X#X#X#X#X#X#X#X#X#X#X#X#X1X1XXX=XeXbXyX`.-.o.o q y d ; f x x 7.f h l h h d # . 1.yXJ.[ | [ N.qX@X#X%X#X%X#X$X%X#X",
"#X#X#X#X#X#X#X#X#X#X#X#X#X#X#X%XL.5XrXH.a.| ..{ O 8 z d c h h c #.d d   ; - ; d * 8 ~ C.5X>X9X6X0X=X#X;X#X%X$X@X%X@X#X#X",
"#X#X#X#X#X#X:X#X#X#X#X#X#X#X%X*X9XH.X.{ H ] G , o X #.z c h c c ; . . $ * : : : # 0 C.E.5X*X3X&X$X1X@X%X#X#X#X%X;X;X#X#X",
"#X#X#X#X#X#X#X#X#X#X#X#X#X#X#X-XH.| ~ sXPXIXfX3.q = * 5.k h g - t 1 2 6 o h x i + 5 S.=X*X#X@X$X$XL.%X%X,X#X#X@X#X#X#X*X",
"#X#X#X#X#X#X#X#X#X#X#X#X#X#X#X8X-.5 sXLXCXfXDXaX( O - 7.h 9 > 2 B N P J 6 q - @ S S.8XL.*X,X#X:X$X-X;X;XoX>X#X#X%X%X%X#X",
"%X#X#X#X#X#X#X%X#X#X@X#X%X@X#X-XB.A 4 O ( fXPXsXD O - c o - 4 n U y.i.c.K r 1 4 G.4X@X%X,XoX;X#X#X#X#XoX;X;X:X@X$X$X%X%X",
":X:X%X#X#XoX*X@X@X,X-X-X1X%X#X*X=XtX1.< sXJXZXhX# . . # w i e K J x.!.z.@.0.~ C.4X*X@X%X%X#X#X%X#X#X#X#X#X#X:X#X%X%X#X#X",
":X#X@X#X#X<XXX-X8XS.N.B.S.eX&X#X%X4XB.A A Z < < e 1 , > t q #.<.0 v F 5 0.7 V.[.*X#X%X#X$X-X%X#X#X#X#X#X#X#X#X#X#X#X#X#X",
">X#X#X:X*X@X:X&XU.Q > o _ ^.H.7X*X5X4X4X8XtX^.2 L M U C 6 t = 7.8.@ o z 7.@ Z.6X@X%X$X-X#X@X#X;X#X#X#X#X#X#X#X#X%X#X#X#X",
"OX5X#X#X$X=X@XrX{ < j l 8 o ' G.G.J.D.uX$X3X^.v N r.w.y.C , o g q k o 1 > , -.E.8X=XXX&X#X#X:X#X#X#X#X#X#X#X#X#X#X#X#X#X",
"4X5X#X@X#X-X4X`.( 9 c ; y - o > , 3 Q ^.(.yXf.b U r.u.u.y.P C 2 > , v ] y.R b a.C.H.7X;X;X;X;X:X#X#X#X#X#X#X#X#X#X#X#X#X",
"5X&X#X:X%XP.`.Q / #.% ; c : ; e 2 T ] 2 V !.b I Y t.n.+Xk.Y N b v L E R g.).s.P M s.H.&X;X#X-XoX#X#X#X#X#X#X#X#X#X#X#X#X",
";X;X;X;X@XeX! 1 #.&.% ; ; ; q , U d.j.R B 3 B I i.A.A.iXiXt.C 3 M P Y r.t.k.h.b.F.R b a.4X@X&X*X#X#X#X#X#X#X#X#X#X#X#X#X",
";X;X;X;X$X'.W 9 k h y & . @ O L v.u.m.j.R v M i.A.OXwXcXuXr.B 2 L z.R r.y.t.l.b.b.F.).T | 0X&X*X#X#X#X#X#X#X#X#X#X#X#X#X",
";X#X#X@X0XT , $.g - $ o < 0 > J j.r.u.m.l.p.r.p.b.iXwXwXF.P , 4 5 n P Y Y Y Y l.h.n.b.F.G  .9XoX#X#X#X#X#X#X#X#X#X#X#X#X",
"#X%X#X=XeXG , 5.r 1 , o.gX{.} 2 i.j.w.g.k.h.l.g.b.iXwXA.R b 2 4 3 n M P Y y.d.g.h.b.b.g.v O.rX#X#X#X#X#X#X#X#X#X#X#X#X#X",
"$XXX:X-X'.! 4 0.<.> X.].R.tXV.3 C P R r.r.g.h.b.b.+Xk.e.P (.U.R.U.G.F v b M E d.u.u.t.r.v O.E.*X#X#X#X#X#X#X#X#X#X#X#X#X",
"-X*X:XL.E.Q 4 / pX! a.7X5XP.'.X.v b P P P Y d.k.t.w.U P (.6X-X@X*X0XG.{.A 2 b R j.k.k.p.I b a.5X&X#X#X#X#X#X#X#X#X#X#X#X",
"#X#XXX-XT.'.Q 2 5 X.3X#XXX-X=XI.R.a.v b C C C I I v V H.=X=X@X#X#X%X-XT.{.m M R t.r.t.j.c.b i.9X*X#X#X#X#X#X#X#X#X#X#X#X",
"#X:X#X#X&X4XR.C.G.U.,X:X#X#X%X$X4XI.G.V.2 3 v 3 n (.C.T.$X:X>X#X#X:X#X$X[.F b x.d.e.r.y.E v a.9X$X#X#X#X#X#X#X#X#X#X#X#X",
"*X#X;X;X;X;X=X=XT.9X@X@X:XoX#X%X%X@X4XY.H.S.H.S.H.4X-X$X%X#X#X:X#X*X#X-XR.J , A z.!.x.[ B v a.5X$X#X#X#X#X#X#X#X#X#X#X#X",
"&X>X#X;X>X#X:X@X#X@X$X#X;X#X>X#X#X#X#X-X=X-X%X-X:X#X:X#X@X#X#X%X*X#X>X&X6XG.Z , 3 n n v , o.R.$X%X#X#X#X#X#X#X#X#X#X#X:X",
"#X#X#X;X;X#X#X#X#X%X%X#X#X#X#X#X#X#X#X#X#X$X#X%X#X#X#X#X#X%X#X#X:X#X#X*X*X3X{.Z 1 e O r > ;.tX$X%X%X#X@X%X*X#X#X#X#X#X#X",
"#X#X#X#X#X#X#X#X#X#X#X#X#X#X#X#X#X#X#X#X#X#X#X#X:X#X#X#X#X#X#X#X%X#X#XoX;X5X XQ + : X X p / M.9X&X$X%X*X%X%X#X:X#X#X#X;X",
"#X#X#X#X#X#X#X#X:X#X%X#X#X#X#X#X#X#X#X#X#X#X#X#X#X#X#X#X#X#X#X#X@X-X-X;X;XoX].A e j i l x i 7 ;.tX5X&X$X#X:X@XoX#X#X#X*X",
"#X#X#X#X#X#X#X#X#X#X#X#X#X#X#X#X#X#X#X#X#X#X#X#X#X#X#X#X#X#X#X%X$X$X#X#X;X&X[.S 7 ; % ; y c + 4 A a.rX4X*X#X:X#X%X%X$X$X",
"#X#X#X#X#X#X#X#X#X#X#X#X#X#X#X#X#X#X#X#X#X#X#X#X#X#X#X#X#X#X#X%X%X@X%X#X;X=X[.S @ i ; & l 7.p 1 4 4 -.tXP.#X#X#X#X%X$X=X",
"#X#X#X#X#X#X#X#X#X#X#X#X#X#X#X#X#X#X#X#X#X#X#X#X#X%X#X#X#X#X#X#X%X%X#X#X#X*X'.Q O @ ) #.,.8.0.CX0.o.O...rX@X:X;X#X%X@X$X",
"#X#X#X#X#X#X#X#X#X#X#X#X#X#X#X#X#X#X%X#X#X#X#X#X#X#X#X#X#X#X#X#X#X-X*X#X#X#X4XN.V.5 2 > @ 8 0 _ / 0 4 T 6X@X#X;X#X%X$X=X",
"#X#X#X#X#X#X#X#X#X#X#X#X#X#X#X#X#X#X#X#X#X#X#X#X#X#X#X#X#X#X#X#X#X:X&X*X;X#X%X5XeXC...O.1.1.O.o.o.:. .G.4X*X;X;X#X#X*X*X",
"#X#X#X:X#X#X#X#X#X#X#X#X#X%X:X#X#X:X#X#X#X#X#X#X#X#X#X#X#X#X#X#X#X#X*X#X#X#X$X$X=X=X0X0XE.0X9XrXeXeX0X6X*X;X;X#X;X#X*X&X",
"#X%X#X#X#X#X#X#X#X#X#X#X#X#X#X#X#X#X#X#X%X#X#X#X#X#X#X#X#X#X#X#X;X#X%X@X#X#X&X&X@X@X$X$X$X#X#X#X$X@X@X#X#X;X;X#X#X#X*X*X",
"#X#X#X#X#X#X#X#X#X#X#X%X#X#X#X#X#X#X#X#X#X#X#X#X#X#X#X#X#X#X#X#X;X;X;X;X;X;X*X*X%X%X$X%X#X#X#X#X;X;X#X#X#X;X;X;X>X*X#X#X",
"#X#X#X#X#X#X#X#X#X#X#X#X#X#X#X#X#X#X#X#X#X#X#X#X#X:X%X#X#X#X#X;X;X;X;X;X>X;X*XoX-X#X#X:X:X;X#X#X;X;X;X;X;X#X#X-XoX;X#X;X"
};
