/* XPM */
static char *_27_230cc87ba70dec22080c9bdfac8b6803f695823a30d2b0ff557ec32019eed0ad[] = {
/* columns rows colors chars-per-pixel */
"60 60 250 2 ",
"   c #050101",
".  c #0C0301",
"X  c #0C0B0A",
"o  c #140201",
"O  c #1B0200",
"+  c #130A02",
"@  c #1A0A02",
"#  c #16090B",
"$  c #191209",
"%  c #191519",
"&  c #191616",
"*  c #100E13",
"=  c #230200",
"-  c #2B0101",
";  c #240B01",
":  c #2B0A00",
">  c #26070A",
",  c #330300",
"<  c #3B0100",
"1  c #330C02",
"2  c #3C0C00",
"3  c #3A0A0C",
"4  c #291201",
"5  c #261A0A",
"6  c #341501",
"7  c #391A06",
"8  c #271B16",
"9  c #361916",
"0  c #380E12",
"q  c #3A2606",
"w  c #25221B",
"e  c #372318",
"r  c #1C1F25",
"t  c #261F22",
"y  c #391C20",
"u  c #1C2124",
"i  c #2D2623",
"p  c #27282A",
"a  c #342C26",
"s  c #372F35",
"d  c #373736",
"f  c #2D2F31",
"g  c #430200",
"h  c #4C0402",
"j  c #4C0B01",
"k  c #440A06",
"l  c #530401",
"z  c #5C0202",
"x  c #540C0B",
"c  c #580907",
"v  c #441300",
"b  c #481705",
"n  c #551200",
"m  c #5A1200",
"M  c #521B00",
"N  c #551608",
"B  c #491B18",
"V  c #5A1514",
"C  c #4F0E13",
"Z  c #6A0302",
"A  c #6B0D00",
"S  c #650606",
"D  c #681B05",
"F  c #781707",
"G  c #6F160F",
"H  c #422102",
"J  c #4C2200",
"K  c #49230C",
"L  c #542300",
"P  c #552B00",
"I  c #5D2B01",
"U  c #582606",
"Y  c #59310B",
"T  c #442A14",
"R  c #59251A",
"E  c #58381C",
"W  c #473218",
"Q  c #622A01",
"!  c #692801",
"~  c #7B2501",
"^  c #772702",
"/  c #6B3506",
"(  c #7B3201",
")  c #783B06",
"_  c #672913",
"`  c #762818",
"'  c #683814",
"]  c #7C3D1A",
"[  c #411D29",
"{  c #482727",
"}  c #45342B",
"|  c #573727",
" . c #4C3A34",
".. c #663726",
"X. c #783C26",
"o. c #3F403B",
"O. c #754F11",
"+. c #47433A",
"@. c #564736",
"#. c #674A2C",
"$. c #654B3C",
"%. c #7D5938",
"&. c #734C31",
"*. c #77613C",
"=. c #443941",
"-. c #5A4B46",
";. c #5B5C57",
":. c #4B4A4A",
">. c #6C5647",
",. c #775D48",
"<. c #6F504C",
"1. c #7E6346",
"2. c #676966",
"3. c #881903",
"4. c #911900",
"5. c #842702",
"6. c #853900",
"7. c #882D15",
"8. c #A92C04",
"9. c #BC3C03",
"0. c #AE320C",
"q. c #893E29",
"w. c #C33D01",
"e. c #834102",
"r. c #8A4401",
"t. c #864609",
"y. c #974900",
"u. c #845802",
"i. c #9A5809",
"p. c #864719",
"a. c #8D5416",
"s. c #975B1A",
"d. c #964E13",
"f. c #A45704",
"g. c #B45A07",
"h. c #BC4816",
"j. c #A35A16",
"k. c #AE4B0C",
"l. c #8A6312",
"z. c #BD6303",
"x. c #BD680A",
"c. c #B67602",
"v. c #AA6419",
"b. c #BC6412",
"n. c #BB6A15",
"m. c #B5641B",
"M. c #BB6D1B",
"N. c #B76A1B",
"B. c #A86900",
"V. c #984526",
"C. c #895726",
"Z. c #955C23",
"A. c #955C2F",
"S. c #955737",
"D. c #A25D27",
"F. c #AE4C29",
"G. c #9A6425",
"H. c #9D693A",
"J. c #936D2E",
"K. c #AB6824",
"L. c #B86B24",
"P. c #B87329",
"I. c #B96A32",
"U. c #AB7131",
"Y. c #B87535",
"T. c #CC5E00",
"R. c #C65C0A",
"E. c #D55F01",
"W. c #CE500E",
"Q. c #C56401",
"!. c #CC6601",
"~. c #C56903",
"^. c #CA6901",
"/. c #C4650B",
"(. c #CB650A",
"). c #C46A0C",
"_. c #CC6A0B",
"`. c #D16401",
"'. c #D26A05",
"]. c #D16C0A",
"[. c #D56707",
"{. c #C9720E",
"}. c #D47502",
"|. c #C56614",
" X c #C46D13",
".X c #CC6C13",
"XX c #C36B1A",
"oX c #C96816",
"OX c #D66512",
"+X c #C37115",
"@X c #C4721B",
"#X c #CB7217",
"$X c #D4751A",
"%X c #F16F16",
"&X c #E97A16",
"*X c #F27513",
"=X c #EC750D",
"-X c #C56B22",
";X c #C37224",
":X c #C77528",
">X c #C57934",
",X c #D16C26",
"<X c #835F47",
"1X c #8B6746",
"2X c #9A6446",
"3X c #957153",
"4X c #BB7C45",
"5X c #AB714E",
"6X c #9A7F61",
"7X c #B77C63",
"8X c #C17A5A",
"9X c #BF8B0D",
"0X c #B78336",
"qX c #C98D00",
"wX c #CB9706",
"eX c #D79500",
"rX c #D18D11",
"tX c #E68B01",
"yX c #E39500",
"uX c #EE9C0E",
"iX c #DBA800",
"pX c #F2B115",
"aX c #C98D2D",
"sX c #F59726",
"dX c #EC8C2E",
"fX c #F8BB2E",
"gX c #DFAD34",
"hX c #FFD31E",
"jX c #FFC929",
"kX c #FFC739",
"lX c #FBD633",
"zX c #FFE73A",
"xX c #BC8044",
"cX c #AE8C6E",
"vX c #998351",
"bX c #F5B746",
"nX c #E2B744",
"mX c #CB8E6F",
"MX c #D1B14E",
"NX c #FFCB46",
"BX c #EACF40",
"VX c #A68D84",
"CX c #B39A8F",
"ZX c #96918D",
"AX c #DCB195",
"SX c #CEA491",
"DX c #EFBDA4",
"FX c #F8D4BD",
"GX c #C8C0B3",
"HX c #EFE0C9",
/* pixels */
"!.!.!.!.!.!.!.!.`.!.!.^.!.!.!.!.`.`.!.!.!.!.!.!.!.^.!.!.!.!.].(.OX(.Q.~.~.^.`.'.`.`.~.z.`.`.!.~.(.^.~.~.!.!.(.`.!.`.(.(.",
"!.!.!.!.!.!.!.!.!.!.!.!.!.!.!.!.!.!.!.!.!.!.!.!.!.!.!.!.!.!.(.`.`.`.(.^.^.^.!.`.(.!.~.~.'.`.Q.].(.^.^.^.^.^.(.!.`.`.(.(.",
"!.!.!.!.!.!.!.!.!.!.!.!.!.!.!.!.^.^.^.^.^.!.!.!.!.`.!.!.!.!.!.!.!.!.!.!.!.!.`.'._./.~.~.Q.!.!.!.`.!.`.!.~.Q.`.`.!.!.!.!.",
"!.!.!.!.!.!.!.!.!.!.!.^.!.!.!.^.^.~.~.^.^.!.!.!.!.!.!.!.`.!.!.!.^.!.!.`.!.!.`.^.^.~.^.^.^.`.`.!.`.`.`.!.^.^.!.!.(.!.!.!.",
"!.!.!.!.!.!.!.!.!.!.!.!.!.!.!.!.~.~.Q.^.^.^.!.!.!.!.!.`.!.^.^.^.^.^.!.!.!.`.'.`.!.'.!.`.'.!.T.`.`.`.!.!.!.!.^.~.^.!.!.(.",
"!.!.!.!.!.!.!.!.!.!.!.!.!.!.!.^.^.^.^.!.Q.!.!.`.!.`.!.!.!.^.^.^.(.Q.!.!.`.(.(.Q.`.`.!.`./.(..X/.`.`.^.^.!.!.Q.~.^.!.!.!.",
"!.!.!.!.!.!.!.!.!.!.!.!.!.!.!.!.!.(.(.!.(.!.!.!.!.!.!.(.!.!.(.(.`.`.E.(.!.!./.Q.!.Q.!.^.~.).b. X~.^.^.!.!.!.!.!.^.^.!.!.",
"!.!.!.!.!.!.!.!.!.!.!.!.!.!.!.!.`.`.`.`.!.`.!.!.!.!.!.!.(.(.(.`.!.`.(.(.^.^.x.n.n.).^.z.+Xy.D L.n.).).^.(.!.(.!.!.^.!.!.",
"!.!.!.!.!.!.!.!.!.!.!.^.!.!.!.!.!.`.`.`.!.!.!.!.!.^.!.!.!.[.T.`.^.^.(.Q.!. Xr.< ! Y.x.@Xa., b U.K.L.L.oX|.(.(.`.!.!.!.!.",
"!.!.!.!.!.!.!.!.!.!.!.`.!.!.!.`.`.`.!.!.!.^.^.Q.Q.].T.!.!.!.`.!.~.^.^.(.n.K.H.' - ^ >Xy.< L G.j b j z L.XX(.^.`.!.!.!.(.",
"!.!.!.!.!.!.!.!.!.!.!.!.!.!.!.^.!.!.!.^.^.^.~.~._.~.Q.^._.`.T.!.^.^.~.M.O.6 6 - ^ k.h D B.kXN.j 9XgXv.n x._.Q.!.`.!.!.(.",
"!.!.!.!.!.!.!.!.!.!.!.!.!.!.!.!.^.^.^.~.^.^.^.~.~._.{.x.~.x.).n.n.N.P.G.b . . b I.,X5.y.uXjXc.f.NXwXP s.N.+X{.Q.`.`.(.(.",
"!.!.!.!.!.!.!.!.!.!.!.!.!.!.!.^.^.Q.^.^.!.^.^.(._.x.n.N.L.P.K.U.H.1XvX#.o O # = 3.h.R.dXfXeXwXlXgXI i.M v n z.'.!.`.(.(.",
"!.`.!.!.!.!.!.!.!.!.!.!.^.`.!.!.^.^.^.^.!.!.!.Q. XF m Q v C.3X3XE 4 w X } -.$ O S R.].sXfXeXhXhXqXc.BXu., C.M.~.!.!.(.Q.",
"!.!.!.!.!.!.!.!.^.!.!.!.!.!.!.!.(.(.!.`.`.`.`.Q.).f.g - = 4 q 5 @.$.s =. .; e L z {.NXfXtXuXlXyXeXjXzXBXJ.J m b._.(.!.^.",
"!.!.!.!.!.!.!.!.!.!.!.!.!.!.!.!.(.(.`.`.`.!.`.^.b.>Xs.%.,.@.d } W 6 6 8 O 9 | / Y.aXrXrXtXtXtXyXjXiXiXlXP , t.M.(.(.^.^.",
"!.!.!.!.!.!.!.!.!.!.!.!.!.!.!.^.^.(.`.T.`.`.!.^. XP.J.%. .7 5 6 = U a.J o 8 y 9 <.P / aXz.$X}.yXyXqXfXrX1 a.>X|.~.~.).).",
"!.!.!.!.!.!.!.!.!.!.!.!.!.!.!.^.T.^.(.`.!.^.^.!..X~ v : O Y O.O.O.s.4XH.T . # y 9 4 , M D gXbXrXNXkXyXg.0XI D /.!.Q.).).",
"!.!.!.!.!.!.!.!.!.!.!.!.!.!.!.!.'.^.'.!.Q._.!.(.(.0.6.y.r.v.,XL.:X8XO.K e . . . @ @ H G.gXgXO.O.O.l.rXnX0X< 5./.`.`.~.c.",
"!.!.!.!.!.!.!.!.!.!.!.!.!.!.!.!.!.`.Q.!.(.T.Q._.(.oX:XP.:X:X@X;XO.U 2 +   . q 1XW o O J.MXO.q >.cXvXu.0XM e.:X.XE.`.^.~.",
"!.!.!.!.!.!.!.`.!.!.!.!.!.!.!.!.^.^.~.~.^.^.^..X:XP.Y.' I Y P P W q +.w X + E mX#.6 C.O.J o a ZXGXHX@.H r.XXR.`.`.!.!._.",
"!.!.!.!.!.!.!.!.!.!.!.!.!.!.!.!.Q.Q.~.+XM.@X:X( Q I Y ; o o @ @ i +.2.;.f + | 2XI 2X4XM 7 } # =.;.CX@.4 L._.(.(.!.!.(.(.",
"!.!.!.!.!.!.!.!.!.!.!.!.!.!.!.!.!.OX-X6.I P Y - 6 e w $ 8 & a a a f o.2.+.X a B _ q.q.A.CXVXO [ <.T : O.b.(.^.!.^.^.!.(.",
"!.!.!.!.!.!.!.!.!.!.!.!.!.!.!.(..X-X^ g &.E 2 = e d d f % p u w w p o.;.o.$ & > G 7.F.8XDXSX> <.$.- ) P.).!.^.~.Q.^.^.!.",
"!.!.`.^.!.!.!.!.!.!.!.!.!.!.!.(.N.( c 5XFXDX8Xm O . t f r r % * % u =.+.* * 8 # O ..V.D 2XAXVXCXk ) #X~.~.~._.^.`.!.!.^.",
"!.!.!.!.!.!.!.!.!.!.!.!.!.!.!.).v.< n 2X7X7XmXq.b e X o.d f t X % r f &   8 % # o = D V.H.AXFXS.j L.~.`.~.~.~.!.`.`.`.!.",
"!.!.!.!.!.!.!.!.!.!.!.!.!.!.!.Q.x.( Q - ] 5XSXY 6 } +  .o.% % # o r % % $ X   X . : ] ] ..&.#.= ) #XQ.!.^.^.!.`.`.`.`.`.",
"!.!.!.!.!.!.!.!.!.!.!.!.!.`.!.^._. XI./ p.7XcXH o ; o 8 8 O - - > # # f & p f + 5 O.G.! ! ! I p.XXz.!./.^.!.`.`.`.`.`.`.",
"!.!.!.!.!.!.!.!.!.!.!.!.!.!.!.!.!.Q.n.N.m b I 7 = O 3 3 , , x c C , o % d ;.:.o L Y.M.{.,X,X@XXX X^.!.!.Q.Q.'.`.`.`.`.`.",
"!.!.!.!.!.!.!.!.!.!.!.!.!.!.!.!.!.(.~.x.aXxXA.6 ; 0 R V C N l S Z V ; i ;.:.O : e.XXz.^.T.T.!.].!.`.!.(.(.(.`.`.`.!.!.^.",
"!.!.!.!.!.!.^.`.!.!.!.!.!.!.!.!.`.T.}.z.N.p.; 5 9 { 0 , 3 k < N F ` ..,.+.o - 6.:Xz.].!.^.'.T.!.[.T.`.Q.!.(.(.!.!.^.~.~.",
"`.!.!.^.!.!.!.!.!.!.!.!.^.^.!.`.(.!.Q.+XI.< O # > = - - - - > 3 G G <.>.q b O.:X~.^.`.!.!.!.^.'.E.`.!.Q.`.!.!.!.^.~.~.~.",
"`.!.!._._.!.^.`.(.`.!.!.Q.~.].(.^.!.Q. XV.k - , 3 k j C , O 9 8 k { <.9 Q aXL.).~.~.`.`.!.!.(.`.`.`.!.!.!.!.!.!.!.^.^.^.",
"^.`.^.^.!.Q.Q.(.].!.^.'.~.(.Q.!.Q.~.^.b.g j V x x c ^ 7.D M K T = | a > t.XXR.(.~.^.`.`.!.!.!.!.!.!.!.!.^.!.!.!.!.!.!.!.",
"^.^.^.^.~.~.!.(.`.`.`.`.Q.~._..X_._._.b.g j S S S Z 0.k.$XdX,X3.l j - J L.(.`.!.!.!.!.!.(.Q.!.^.!.!.!.!.!.!.!.!.!.!.!.!.",
"^.^.^.^.^.^.!.!.`.`.`.!._.).f.i.j.j.n.L.m j l S Z 3.0.w.`.=X*XdXoXm.( g ^ oX`.'.!.!.(.(.Q.!.^.^.^.!.!.!.!.!.!.!.!.!.!.!.",
"^.!.`.`.`.!.!.!././.!.!.}.f., = + : S.A.5X< g l S 3.4.8.9.OX%X%X*X&X,X9.3.7.b.(.!.(.Q.^.(.!.^.!.`.^.!.!.!.!.!.!.!.!.!.!.",
"(.!.`.`.`.`.`.!.^.^._.Q./.v.O o *   . : &.2 , x c S A 3.4.8.OX%X*X%XW.w.F.^ 5.#XQ.!.!.^.Q.!.!.!.^.!.!.!.!.!.!.!.!.!.!.!.",
"(.E.`.E.`.`.!.!.^.^.(.n.L.p.@ * u X + @ ; = , , < x g D 5.4.3.8.w.w.w.w.W.3.6.;X(.!.~.^.^.(.!.^.!.!.!.!.!.!.!.!.!.!.!.!.",
"(.(.`.`.`.!.^.!.^.`.(.XXs.> X f r * e a o 9 C C x h < g A F 4.3.0.8.8.9.F.F ^ -X(.!.^.^.!.'.!.!.!.!.!.!.!.!.!.!.!.!.!.!.",
"~.^.!.!.^.^.Q.^.`.!.!.+Xs.O $ p * . e 3X1 k x S S G G 7.A l F 3.4.4.8.F.` m 6.+X(.^.`.!.`.`.!.!.!.!.!.!.!.!.^.!.^.`.!.!.",
"Q.^.^.^.^.^.~.^.`.T.!. XG.O . i 8 + : <X1 0 x S Z Z 3.3.q.V.7.3.F F 5.A g ( M././.^.(.`.`.!.!.!.!.!.!.!.!.!.`.!.!.!.!.!.",
"^.^.Q.^.^.^.Q.^.(.].T.+XG.O @ X p a O ; . O C j h l G _ R q.S.Z < < < ( XXR.[.!.^.^.^.Q.!.!.^.^.!.!.!.!.!.!.!.!.!.!.!.!.",
"!.(.Q.Q.!.^.^.^.(.T.^.n.s.= @ o # 8 4 ,.4 = - < < < g g < g l h C , ! :X`.`.!.!.!.^./.^.(.^.!.!.!.!.!.!.!.!.!.!.!.!.!.!.",
"`.`.`.(.!.Q.^.!.`.`.^.P.Z.= = 9 B 7 , H.K.j.K.D.j g S Z z z z ^ k / @X_.!.!.[.^.^.^.!.Q.^.^.!.`.!.!.!.!.!.!.!.!.!.!.!.!.",
"`.`.`.!.!.^.!.`.E.[.Q.n.s.< - | 1XY < D.#X XL.L < V Z Z Z F F l / P./.!.].(.!.Q.^.^.^.^.!.!.!.`.!.!.!.!.!.!.!.!.!.!.!.!.",
"!.!.!.!.^.!.!.E.[.!._.(.+Xr., , 2 k j.@X|.m.U O - 3 l Z G l g ( M./.OXT.Q./.(.^.^.!.^.(.!.`.!.!.!.!.!.'.!.!.!.!.!.!.!.!.",
"!.^.^.^.^.!.`.!.!.!._.^.^._.s.Z.s.s.).).N.M o <.0 = V ` g ] D.N.^.^.T.OX^._.^.^.!.!.!.!.`.`.!.!.!.!.!.!.!.!.!.!.!.!.!.!.",
"!.!.!.!.!.!.!.!.!.!.!.^.!._. X X#X).(.g.L O . w $.3X9 - O.I.XX!.!.!.Q.(.!.(.^.^.^.^.!.!.`.^.!.`.^.!.!.!.!.!.!.!.^.!.!.!.",
"!.!.!.!.!.!.!.!.!.!.!.!.!.!.!.!.Q.!.`.|., + .   @.@.e } b Z. X~.!./.!.^.!.!.T.!.`.^.!.!.^.!.!.!.!.!.!.!.!.!.!.!.!.!.!.!.",
"!.!.!.!.!.!.!.!.'.!.!.!.!.!.!.^.^._.!..Xd., @ . $ w a w . ; Z.M.).Q.(.!.!.!.!.!.^.!.^.^.`.!.!.!.!.!.!.!.!.!.!.!.!.!.!.!.",
"!.!.!.!.!.!.!.!.!.!.!.!.!.!.^.^._.Q.!.(.XXj.; & & d +.w & 5 6 a. X_.^.Q.'.^.!.!.`.^.!.`.^.^.!.!.!.!.!.!.!.!.!.!.!.!.!.!.",
"!.!.!.!.!.!.`.!.!.!.!.!.!.!.!.^.Q.^.^.Q.'.|.a.7 i -.-.,.VX-...' y.].^.(.'.!.!.!.!.^.`.^.!.!.`.!.!.!.!.^.!.!.!.^.!.^.`.!.",
"!.!.!.!.!.!.!.!.!.!.!.!.`.^.`.^.^.^.^.^.`.!.;Xp.1 ; 1 b ' 2 b g 6._.Q.^.(.!.(.^.^.!.^.!.!.!.^.!.!.`.!.!.!.!.!.`.!.!.!.!.",
"!.!.!.!.!.!.!.!.!.!.!.!.^.!.!.!.^.^.!.!.!.'./.;Xi.6.r.) O.6.6.6.g.[.!.^.!.!.!.!.`.^.^.!.!.!.!.!.!.!.!.!.!.!.!.!.!.!.!.!.",
"!.!.!.!.!.!.!.!.!.!.!.!.!.!.!.!.(.T.^.!.^.!.(.(._.{.$X+X#X X#X.X].!.Q.^.`.!.!.!.^.^.`.^.!.!.!.!.!.!.!.!.!.!.!.!.!.!.!.!.",
"!.!.!.!.`.!.!.!.!.!.!.!.!.!.!.!.!.`.^.Q.^.^.^.!.`.T.(.^./.).|.(.Q.!.!.!.!.!.!.!.!.^.!.!.!.!.!.!.!.!.^.!.!.!.!.!.`.!.!.!.",
"!.!.!.!.^.!.!.!.!.!.!.!.!.^.!.`.`.!.^.(.Q.^.!.!.`.`.`.^.~.).(.(.`.Q.^.^.!.!.!.!.!.!.!.!.!.!.!.!.!.!.!.!.!.!.!.!.^.!.!.!.",
"!.!.!.!.!.!.!.!.!.!.^.!.!.!.!.`.!.!.^.~.^.^.^.!.!.!.^.^.^.^.^.!.^.^.^.^.!.!.!.!.`.^.!.!.!.!.!.!.!.!.!.!.!.!.!.!.!.!.!.!.",
"!.!.!.!.!.!.!.!.!.!.!.!.!.!.!.!.`.!.^.^.^.!.^.^.^.^.^.^.Q.^.^.^.^.!.!.Q.!.!.!.!.^.!.!.!.!.!.!.!.!.!.!.!.!.!.!.!.!.!.!.!."
};
