/* XPM */
static char *_6058_695a3ac296b5bef9e432844570d8c4d37b320cb1cc66ea6d55e490d857290a77[] = {
/* columns rows colors chars-per-pixel */
"60 60 256 2 ",
"   c #0C0301",
".  c #0C0A03",
"X  c #080808",
"o  c #130300",
"O  c #1C0301",
"+  c #140B03",
"@  c #1C0A00",
"#  c #140D0C",
"$  c #180809",
"%  c #181409",
"&  c #0D1213",
"*  c #141314",
"=  c #1A1A15",
"-  c #1B1B1B",
";  c #161817",
":  c #110D10",
">  c #230200",
",  c #2B0200",
"<  c #230B01",
"1  c #2B0A01",
"2  c #2D0C08",
"3  c #330200",
"4  c #3C0200",
"5  c #340C00",
"6  c #3A0C00",
"7  c #380909",
"8  c #291305",
"9  c #341202",
"0  c #3C1202",
"q  c #351A03",
"w  c #261A16",
"e  c #361919",
"r  c #1D2118",
"t  c #272318",
"y  c #372619",
"u  c #33290A",
"i  c #1C1C22",
"p  c #271B22",
"a  c #1F2429",
"s  c #242424",
"d  c #2C2B25",
"f  c #272829",
"g  c #352827",
"h  c #3C3128",
"j  c #352C32",
"k  c #393435",
"l  c #2B2F30",
"z  c #430200",
"x  c #4B0200",
"c  c #440B00",
"v  c #4B0B01",
"b  c #4A090D",
"n  c #530300",
"m  c #530A00",
"M  c #5D0B02",
"N  c #5A0806",
"B  c #441301",
"V  c #4B1300",
"C  c #481706",
"Z  c #541400",
"A  c #541B00",
"S  c #5B1D00",
"D  c #5A1507",
"F  c #491512",
"G  c #630401",
"H  c #6B0301",
"J  c #640B01",
"K  c #670B09",
"L  c #7C0E03",
"P  c #770501",
"I  c #621B00",
"U  c #681905",
"Y  c #781706",
"T  c #6C1916",
"R  c #4C2100",
"E  c #472706",
"W  c #572703",
"Q  c #4A3605",
"!  c #583307",
"~  c #49321C",
"^  c #553418",
"/  c #4D2615",
"(  c #632401",
")  c #622C00",
"_  c #6A2704",
"`  c #7C2D00",
"'  c #762604",
"]  c #6B3300",
"[  c #623505",
"{  c #7A3400",
"}  c #753B01",
"|  c #793A04",
" . c #792717",
".. c #663716",
"X. c #713719",
"o. c #463729",
"O. c #573B25",
"+. c #4A3234",
"@. c #703923",
"#. c #3C433C",
"$. c #7A4405",
"%. c #784716",
"&. c #734E0A",
"*. c #58422A",
"=. c #554535",
"-. c #4E483A",
";. c #7A4826",
":. c #6F4B31",
">. c #7B6A32",
",. c #423D44",
"<. c #613C65",
"1. c #543868",
"2. c #3A4443",
"3. c #4B4647",
"4. c #544B48",
"5. c #59595A",
"6. c #554B53",
"7. c #664B44",
"8. c #65564E",
"9. c #5D635F",
"0. c #7C6964",
"q. c #840A00",
"w. c #821302",
"e. c #861A09",
"r. c #951B05",
"t. c #892704",
"y. c #853A03",
"u. c #943B05",
"i. c #982919",
"p. c #963518",
"a. c #8C2D15",
"s. c #A92B0A",
"d. c #B32C04",
"f. c #B73501",
"g. c #A93816",
"h. c #AC3414",
"j. c #903825",
"k. c #A83324",
"l. c #C63907",
"z. c #C63D0F",
"x. c #894707",
"c. c #964A07",
"v. c #865505",
"b. c #9A5705",
"n. c #874A15",
"m. c #934B14",
"M. c #8B5217",
"N. c #9B5817",
"B. c #A14904",
"V. c #A85909",
"C. c #B65C05",
"Z. c #A35D1D",
"A. c #A65C16",
"S. c #B44D15",
"D. c #A66700",
"F. c #BC6202",
"G. c #BC650C",
"H. c #BB690B",
"J. c #BB7602",
"K. c #AA6517",
"L. c #BE6B13",
"P. c #B66B1C",
"I. c #BB6C1C",
"U. c #B66516",
"Y. c #BE711F",
"T. c #8B5724",
"R. c #985B24",
"E. c #864433",
"W. c #825932",
"Q. c #94522F",
"!. c #A6583A",
"~. c #B25929",
"^. c #966439",
"/. c #9B6B30",
"(. c #A96625",
"). c #BC6C24",
"_. c #B46926",
"`. c #BA7329",
"'. c #A96B34",
"]. c #A77138",
"[. c #B57436",
"{. c #B86F34",
"}. c #9E6E1A",
"|. c #C84207",
" X c #D34708",
".X c #C45E00",
"XX c #CA5F01",
"oX c #C44416",
"OX c #D25214",
"+X c #E35910",
"@X c #C56402",
"#X c #CC6601",
"$X c #C56903",
"%X c #CB6902",
"&X c #C4640A",
"*X c #CB6509",
"=X c #C46A0B",
"-X c #CC6A0B",
";X c #D16501",
":X c #D26A02",
">X c #D2650B",
",X c #D26B0B",
"<X c #D96906",
"1X c #CD710A",
"2X c #D77406",
"3X c #C36C13",
"4X c #CB6C14",
"5X c #C36E1B",
"6X c #C86A19",
"7X c #D56D13",
"8X c #C4731C",
"9X c #CB731B",
"0X c #C77214",
"qX c #D37219",
"wX c #E76F12",
"eX c #D05A2B",
"rX c #C36D21",
"tX c #CC6E23",
"yX c #C47222",
"uX c #C3742A",
"iX c #CC7626",
"pX c #CC7530",
"aX c #F37F34",
"sX c #956E4C",
"dX c #B17751",
"fX c #88746B",
"gX c #B98B37",
"hX c #B9870A",
"jX c #D58F11",
"kX c #CB9031",
"lX c #ED8A35",
"zX c #ECAE30",
"xX c #DAA00F",
"cX c #FECF2B",
"vX c #FFEA30",
"bX c #BA8E4F",
"nX c #B0886F",
"mX c #A79B78",
"MX c #CDAC50",
"NX c #EEB34D",
"BX c #D6A67E",
"VX c #DB8E5A",
"CX c #F8C954",
"ZX c #F7C86B",
"AX c #DECA67",
"SX c #977CAF",
"DX c #BFA187",
"FX c #D79E80",
"GX c #D9B696",
"HX c #E0B8AE",
"JX c #D1C5B1",
"KX c #F0CEB8",
"LX c #FFE3BD",
"PX c #E7C597",
"IX c #C1A1C8",
"UX c #DECAC9",
/* pixels */
"#X#X#X#X#X#X#X#X#X#X#X#X#X#X#X#X#X#X#X%X%X%X@X@X$X$X%X%X#X%X#X#X>X>X*X%X%X%X%X#X#X#X@X%X@X%X:X#X:X@X%X%X@X*X;XXX%X%X%X%X",
"#X#X#X#X#X#X#X#X#X#X#X#X#X#X#X#X#X:X#X%X%X%X%X@X*X%X%X%X#X#X#X;X;X;X*X#X%X@X%X#X#X:X%XF.1X%XXX#X%X#X#X,X%X#X#X;X%X%X#X@X",
"#X#X#X#X#X:X#X#X#X#X#X#X#X#X#X#X#X;X#X:X;X#X#X#X#X#X#X*X*X#X#X#X#X#X>X#X%X@X%X#XXX#X>X*X@X%X#X#X#X;X;XXX&X-X%X%X$X%X%X#X",
"#X#X#X#X#X#X#X#X#X#X#X#X#X#X:X#X#X#X;X#XXX;X;X;X;X#X;X#X#X*X;X#X%X%X#X*X%X%X%X#X#X<X:X#X@X$X@X-X;XXX>X>X#X%X$X$X@X*X#X;X",
"#X#X#X#X#X#X#X#X#X#X#X#X#X#X#X%X#X*X*X#X#X;X;X;X;X;X;X;X;X#X;X#X%X$X$X&X*X#X:X#X;X#X#X#X#X@XL.c.H.=X&X*X%X%X#X%X%X*X;XXX",
"#X:X#X#X#X#X#X#X#X#X#X:X#X#X#X#X%X=X&X%X#X#X;X#X;X;X;X;X;X;X#X#X#X%X$X=X4X#X#X#X#X;X%X#X@X0X`.V ] K.5X3X*X#X#X#X#X*X;X;X",
"#X#X#X#X#X#X#X#X#X#X#X#X#X#X#X#X%X&X%X@X%X%X%X#X#X#X#X#X#X#X#X#XXX#X#X*X*X*X%X%X*X>X;X&XU.N.%.6 Q &._.V.C.#X:X;X%X*X#X*X",
"#X#X#X#X#X#X#X#X#X#X#X#X#X#X#X#X%X@X%X%X%X%X#X%X#X%X%X%X%X%X%X#X#X;X#X#X#X#X-X=X6XB.tXrX{.z B , MXW [ x c.9X-X*X*X%X*X&X",
"#X#X#X#X%X#X#X#X#X#X#X#X#X#X#X#X#X;X;X#X#X%X%X-X%X&X%X*X@X%X-X@X@X#X#X;X;X*X$XJ.Z.x y.n.M.S bXW $.&.8 O ] (.b.D.,X#X*X*X",
"#X#X#X#X#X#X#X:X#X#X#X#X#X#X#X#X;X;X;X;X#X#X%X%X&X%X@X-X@X&X*X%X%X#X:X*XXX,XF.H.(.4 W x N m.CX$.J.ZXQ < 5 } $.$.C.7X>X;X",
"#X#X#X#X#X#X#X#X#X#X#X#X#X#X#X#X;X#X#X#X#X#X#X#X%X#XXX:X;X;X;X#XXX>X-X$X,X@X1XY.(.7 (._.C.wXNX%XzXhXW gX! > MXv.{ 4XXX;X",
"#X#X#X#X#X#X#X#X#X#X#X#X#X#X#X#X%X#X#X#X#X#X#X#X#X#X#X#X;X#X#X:XtXU.b.A.b.V.K.Z.^.4 z K.2X2X2XV.zXv.D.CXv.[ AX&.{ iX*X;X",
"#X%X#X#X#X#X#X#X#X#X%X#X#X:X#X#X%X$X%X@X#X#X;X#X:X#X:X@X%X.X$XG./.W.< O @ 9 O.=.O./ B 4 D.xXxXb.jXcXxXcXxXD.NX$.{ yX.X*X",
"#X:X#X#X:X#X#X#X#X#X#X#X#X#X%X%X$X$X%X%X#X#X;X#X#X@X@X=X9XL.yXN...*.-.d t y y 8 O :.=.W MXCXNX_ D.cXvXvXJ.zXzXW { K.qX>X",
"#X#X#X#X#X#X#X#X#X#X#X#X#X#X#X%X%X%X%X#X;X#X;X#X*X4X5X_.A.R./.;.u d #.*.E W _ 5 O   # @ 1 %.0 }.kXzXcXxX2XzXB.x.! } 1X#X",
"#X#X#X#X#X#X#X#X%X#X#X#X#X%X%X%X*X*X#X#X;X;X#X*X*XC.P.{ 3 4 , q *.-.h ~ sX].'.^., > f d e O > gXAXQ b.jXjXjXD.NX%.] 0X#X",
"%X#X;X#X;X#X@X*X%X@X#X#X#X-X@X@X&X*X%X%X$X$X%X#X4Xu.v c 4 c 6 9 u u . w ^.}.[.N.n E.@ X # o o mXQ % u >.AXkXzXNXW ] iX@X",
"%X#X;X;X;X#X#X%X@X%X:X#X#X@X-X-X*X#X#X@X$X%X@X@X&XL.K.(.'.'.T.].gX:.  o < q T.x Q.j., > > O   % . r 9.JXPXbXgX[ 3 x.3X$X",
"%X%X#X;X;X;X*X*X*X%X;X#X:X;X<X#X;X#X#X;X<X:XXX>X*X@X3XP.'.'.].].;.@ O : .   $ 1 7.4 z ^.dXZ > o % . 6.0.mXJXsX> { 3X=X$X",
"%X@X#X;X#X;X*X*X*X%X#X#X;XXX;X;X;X#X%X&X&X.X6XI.L.U._.'.%.3 5 7 1 ~ ,.,.3.i & - e 1 !.y.uXpX! 0.p l d $ 3.UX=.! uX-X@X@X",
"$X%X%X#X;XXX*X*X%X#X#X;X<X;X;X#X#X-XU._.{.{.'.$.< q < 1 8 < e w t l g k 6.3.k - o 1 sXy.pXu.!.KX1.SX7.q % o.5 n.yX@X%X%X",
"$X$X#X#X;X;X*X;X,X%X;X;X#X#X@X=XU.`.] 5 c z 9 q t t - * * = s d f f ; f 3.3.4.; - o 0 Q.i.~.BXKX<.IXHX*.> o X.P.3X-X#X>X",
"%X%X#X;X*X*X#X%X#XXX*X*X@X0XP.[.! 8 O @ @ w y r d s l i ; t f s a = % t 4.3.2.& & . o 0 _  .p.j.nXKXLXW., $.`.G.@X*XXX<X",
"%X#X#X#X%X#X%X%X;X#X*X*XG.I._ 5 <   y h s f f f f f a ; = * w w = = = = l 3.l ; = % . o 3 _ !.!.BXGXPX! | yXG.=X%X#X;X;X",
"#X#X#X#X#X%X#X#X#X;X%X=X`.W O :.@.3 O +.k * - - r a ; ; r % o O O   # : - p ; ; * s * . o , O.dXdXdX[ | rX=X*X@X#X#X;X;X",
";X*X*X#X#X%X@X%X#X%X%X=X( ;.DXGXFX@.F e j k t t 8 @ @ . X o > F 7 2 O X X & s s i ; 5.d k O 3 A D T | _.7X>X,X#X;X#X#X#X",
";X;X*X*X%X%X%X%X@X2XF.3Xv B O.E ^.dX:.2 k l   O W R.sX^ O 7 T n N N 7 $ = X f * i 5.#.l 3.8 %.V.b.b.3X4X@X%X#X#X#X#X#X#X",
"#X;X;X*X%X@X#X#X:X%X%XG.A.3 ^ nXFXbX( > > + W T.K.[.M.5 2 / b N K N b 7 O o w w 5.j t t y , Z.9X=X7X@X.X$X%X#X;X#X%X#X*X",
";X#X;X#X#X#X#X#X#X#X*X=XL.}.! @.X.W y.m.c.x.U.rX).M.q + p p e e e F b j.{ _ > g :./ e $ > } 6X#X#X#X%X,X%X@X#X#X#X#X*X*X",
"%X#X#X#X#X#X#X#X-X>X*X@XF.3Xc.y.n.{ A.3XqX*X&X5XN.5 o < O O > > w y / X.~.dX^ g 3 / , ;.M.Y.@X#X;X#X*X#X@X%X%X#X%X#X*X#X",
"%X%X#X;X;X;X;X*X#X#X#X#X*X%X-XqX7X4X0X$X.X4XuXM.1 O , D  .M N U B > 2 9 ^ ^ o.w 2 3 | _.0X%X%X%X%X#X>X#X#X:X*XXX#X#X*X%X",
"$X@X#X;X;X;X;X*X#X#X;X:X;X#X#X#X;X#X%X-X*XrXm.6 o 2 D G k.g.g.g.p.a.D , , > @ # 2 ;.`.=X%X@X%X@X@X#X*X,X#X@X#X#X#X#X%X%X",
"$X%X#X;X;X*X%X%X%X#X#X#X*X<X%X#X;X;XXX@X9Xm.z , < 0 T G L r.s.oXz.oXS.t.B.n., O o ..).@X#X:X*X#X;X;X;X*X#X%X;X#X#X#X*X*X",
"$X$X*X>X#X#X#X#X%X%X#X*X;X.X.X%X@X#X*XiXm.v x b 3 B T H H q.r.d.l.l.z.OXaX&X( n.%.4 _ =X$X@X.X,X#X#X#X*X#X%X#X#X#X#X*X*X",
":X#X*X*X%X#X;X#X#X#X.X-X4XiXpX5X1XJ.yXx.4 c K K 7 3 N H H P L r.s.d.z.|. X<XqXlXlXu.y.{ L.4X&X&X*X%X;X#X#X@X%X%X;X;X#X#X",
"#X;X-X#X;X;X#X:X;X#X4X5Xy.` ` ` K.`.v.c 4 N P H v 3 n K H H H L q.r.s.d.|.+XwXwXwXlXVXx _ U.-X%X@X%X#X#X&X%X$X%X;X;X;X;X",
";X#X@X.X;X;X.X%XXX*XuXy.n z z z I X.0 , H e.e.P H N v v K K H H P q.P w.d.l.d.+X+XOXeXe.x A.-X$X%X%X%X%X%X@X$X$X;X;X#X#X",
"%X-X-X%X#X#X-X4XiX{.n.3 n a.T J D b 3 z q.k.i.L G K v z x x n G H H H H Y s.r.s.l.l.l.z.J { L.$X%X%X@X%X%X%X$X@X;X;X#X*X",
"-X@XC.1X-X0X_.$.] ! > , a.p.w.w.k.i.G Y k.i.L L K n 4 v ' ' W 4 z z z x J ' J e.z.l.l.z.S.H { P.*X#X#X#X;X#X%X#X;X#X#X%X",
"%X%X-XH.x.$.%.8 E / < 6 p.L w.k.e.w.P a.e.K J n x m ( n.uXuXZ.( ( W ' I x v 4  .h.l.z.l.eXm.4 } I.*X*X;X;X#X&X&X#X#X%X%X",
";X*X).| O + . u :.dXB E.e.P k.e.L K T K n m 3 A U c.tXqXG.&X3X0XyXtXtXU._ W , C Y s.d.oXg.t.6 > ] rX*X*XXX-X9X9X4X%X#X,X",
"#X4X| > $ a & . @ sX5 D Y L Y H n n x n n Z W x.uXtXXXXX*X-X#X@X@X#XXX*X0X(.R , n t.r.g.~.b O E 5 { U.6XtXV.` x.y.V.qX.X",
",XV.> + # & X = @ :.o.> b x z z m I I U M c.iX3X3X&X%X*X<XXX#X#X%XF.#X<X&X4XU.( z U e.g.^.0 B sX~ > T.Z.%.) ..9 0 } C.3X",
"=XN.@ f X & # + @ @ ^ 5 , V A D N.kXY.rXtX9X&X*X.X*X-X;X;XXX#X%X$X1X#XXX;XXX4X~.4 v J ' > O sXfXw o ..R > O.mXy *.R ` 4X",
"0XN.@ l i X : + < 0 V S M ~.pXtX6X.XG.*X>XXXXX>X;X;X%X@X%X,X:X#X%X%X%X:X#X%X-XG.Z 3 I D O # 7.y # # @ o.h   X % + 1 c.8X",
"L.Z.O f - * : + < sX[.).rXL.XX#X;X%X,X@XXX>X7XXX;X;X#X%X$X%X@X%X#X#X@X%X@X%X%X3X{.Z A ,   # o o : f d - X : - @ 9 n.`.H.",
"-XA.> l - * * < > T.P.=X$X%X%X@X%X@X@X%X%X*X#X#X;XXX%X%X%X#X%X*XXX>X%X%X%X#X#X*X6XI.W V B O w ; f - - . : % % 1 m.8X$X-X",
"1XV., w d . # o , /.8X$X%X%X%X$X$X%X@X%X%X@X%X;X;X#X#X#X#X#X@X%X<XXX#X#X%X@X-X*XXX*XI.[.].R / 4.: ; .     + < M.8X@X#X#X",
"-XG.c > 7.-.y ~ 3 N.8X@X%X@X%X%X%X%X%X%X#X#X#X#X#X#X#X#X%X:X%X#X#X;X#X#X%X%X#X#X#X;X=XG.P._.) ! = X # o 5 0 x.uX=X%X#X#X",
"%XL.K.V sXnXE :.A A.3X%X:X%X%X@X%X%X#X#X#X#X#X#X#X#X#X#X#X#X#X:X;X;X#X#X*X#X#X#X#X;X#X-X=XU.).W @ . o 1 T.`.L.=X@X%X#X%X",
"*X=XI.K.V B B V A.Y.-X@X#X;X%X;X#X#X#X#X#X#X#X#X#X#X#X#X#X#X#X#X#X;X#X%X#X%X#X#X;X#X#X#X=XH.I._.W 5 V x.P.=X$X*X%X%X%X%X",
"#X%X=XL.P.(._.I.3X=X%X#X#X;X#X*X#X#X#X#X#X#X#X#X#X#X#X#X#X#X#X#X#X#X#X%X&X#X%X#X;X;X#X#X@X-XF.yXK.P.P.3X=X%X#X#X%X%X%X@X",
";X#X#X@X4X4X=X$X@X@X#X#X;X;XXX#X#X#X#X#X#X#X#X#X#X#X#X#X#X#X#X#X#X#X#X%X%X%X%X#X;X;X;X;X:X*X%XF.&X3X@X.X:X;X#X:X#X#X*X@X",
"#X#X#X,X.X%X@X%X#X#X:X%X#X#X;X*X#X#X:X#X#X#X#X#X#X#X#X:X#X#X#X#X#X%X#X%X#X@X%X#XXX#X:X#X;X#X@X,X*X#X:X;X#X;X:X#X#X%X#X*X",
"#X,X#XXX<X#X:X#X#X%X%X%X#X%X#X#X#X#X#X#X#X#X#X#X#X#X#X#X#X#X:X#X#X#X#X@X%X@X%X#X#X:X;X:X#X;X:X.X%X@X#X#X#X#X#X#X%X*X*X%X",
"#X.X*X*X#X;X;X#X*X#X@X%X%X%X%X%X#X#X#X#X#X#X#X#X#X#X#X#X#X#X#X#X#X;X#X%X%X%X@X%X#X#X#X#X;X#X:X;X*X#X*X#X#X#X%X%X%X&X%X%X",
"%X%X%X%X%X*X*X@X%X@X%X%X%X#X@X%X#X#X#X#X#X#X#X#X#X#X#X#X#X#X#X#X#X#X#X%X%X#X@X@X%X#X%X#X#X#X#X#X%X%X#X#X#X#X#X%X%X$X%X@X",
"#X%X#X%X%X%X&X*X%X%X%X%X%X*X%X%X#X#X#X#X#X#X#X#X#X#X:X#X#X#X#X#X;X;X#X#X%X@X%X%X%X%X%X#X@X#X#X#X%X%X#X#X#X#X#X%X%X%X%X%X",
"#X#X@X%X$X=X$X$X%X#X%X#X#X;X#X*X#X#X#X#X#X#X#X#X#X#X#X#X#X#X#X#X;X#X#X#X#X%X%X%X$X%X@X%X%X#X%X%X*X%X#X#X;X#X#X#X#X#X%X%X",
";X#X%X%X%X@X$X%X%X#X#X#X#X;X*X#X#X#X:X#X#X#X#X#X#X#X#X#X#X#X#X#X#X;X;X#X#X#X%X%X%X@X%X@X%X&X*X%X%X%X#X#X#X#X;X#X;X#X#X%X"
};
