/* XPM */
static char *_208_8f7f1e5ec2871d06abf3be01267fca8b4f35b80f723818a6e10c173515546480[] = {
/* columns rows colors chars-per-pixel */
"60 60 256 2 ",
"   c #0C0201",
".  c #0A0A07",
"X  c #140200",
"o  c #1B0200",
"O  c #1C0B01",
"+  c #160C08",
"@  c #19130A",
"#  c #140E10",
"$  c #141413",
"%  c #18191A",
"&  c #0E1411",
"*  c #230201",
"=  c #2C0200",
"-  c #230B01",
";  c #2B0C02",
":  c #260A0B",
">  c #330101",
",  c #3C0100",
"<  c #340B00",
"1  c #3D0A00",
"2  c #35000A",
"3  c #281407",
"4  c #391301",
"5  c #361806",
"6  c #261917",
"7  c #301518",
"8  c #19221D",
"9  c #28231D",
"0  c #38261A",
"q  c #322308",
"w  c #191E22",
"e  c #2E1E29",
"r  c #1D2323",
"t  c #172321",
"y  c #242323",
"u  c #292927",
"i  c #362B26",
"p  c #38342C",
"a  c #292D33",
"s  c #382D34",
"d  c #2E3234",
"f  c #373637",
"g  c #2C302F",
"h  c #430201",
"j  c #4C0100",
"k  c #440B00",
"l  c #4C0B00",
"z  c #490B0C",
"x  c #540400",
"c  c #5D0201",
"v  c #530B02",
"b  c #590B06",
"n  c #441400",
"m  c #4C1400",
"M  c #431B00",
"N  c #4D1A00",
"B  c #45180B",
"V  c #541400",
"C  c #531C00",
"Z  c #5A1703",
"A  c #481A14",
"S  c #5C0D15",
"D  c #640400",
"F  c #6C0300",
"G  c #630B01",
"H  c #6A0A02",
"J  c #740901",
"K  c #621300",
"L  c #631C01",
"P  c #6B1B01",
"I  c #691206",
"U  c #771903",
"Y  c #6E1B13",
"T  c #482403",
"R  c #5D2401",
"E  c #562802",
"W  c #4C3206",
"Q  c #593503",
"!  c #482816",
"~  c #592812",
"^  c #533218",
"/  c #632C01",
"(  c #6D2C00",
")  c #642202",
"_  c #772801",
"`  c #6A3703",
"'  c #743501",
"]  c #7C3D01",
"[  c #773704",
"{  c #782714",
"}  c #663815",
"|  c #7A3B14",
" . c #453529",
".. c #583524",
"X. c #4A3C37",
"o. c #542B2A",
"O. c #73382D",
"+. c #3E403F",
"@. c #5A4200",
"#. c #7A4206",
"$. c #7B4415",
"%. c #6A4A0F",
"&. c #4E4237",
"*. c #774727",
"=. c #734B31",
"-. c #776405",
";. c #3C3F44",
":. c #3E4647",
">. c #464747",
",. c #574A49",
"<. c #525454",
"1. c #6D5155",
"2. c #7C6155",
"3. c #5D676A",
"4. c #6F6B6B",
"5. c #6E5E61",
"6. c #8B1701",
"7. c #871804",
"8. c #961702",
"9. c #85120B",
"0. c #A61E00",
"q. c #882707",
"w. c #972606",
"e. c #833D01",
"r. c #853300",
"t. c #823714",
"y. c #983517",
"u. c #903013",
"i. c #A62803",
"p. c #A73504",
"a. c #B53706",
"s. c #A9361A",
"d. c #B73A18",
"f. c #B52D0D",
"g. c #9E3A22",
"h. c #C33907",
"j. c #C03E1E",
"k. c #884705",
"l. c #944C06",
"z. c #964A0A",
"x. c #87591A",
"c. c #9B5718",
"v. c #8F520D",
"b. c #A85807",
"n. c #BB5C06",
"m. c #B74719",
"M. c #A55915",
"N. c #AE4F0E",
"B. c #BC6303",
"V. c #BD650D",
"C. c #BE6A07",
"Z. c #AB6318",
"A. c #BC6414",
"S. c #BC6B12",
"D. c #BB6D1C",
"F. c #B66719",
"G. c #BC7216",
"H. c #BE7C0E",
"J. c #865226",
"K. c #975723",
"L. c #8B4B36",
"P. c #8D5B36",
"I. c #904B2B",
"U. c #A45C24",
"Y. c #B65635",
"T. c #966430",
"R. c #AA6626",
"E. c #B76824",
"W. c #BC7323",
"Q. c #B97529",
"!. c #B86733",
"~. c #AF7335",
"^. c #926C07",
"/. c #C55E00",
"(. c #CB5E01",
"). c #C75E0C",
"_. c #C45415",
"`. c #CE500A",
"'. c #E55E18",
"]. c #C56401",
"[. c #CC6601",
"{. c #C56A02",
"}. c #CB6902",
"|. c #C4640B",
" X c #CB6509",
".X c #C46B0B",
"XX c #CC6A0B",
"oX c #D16401",
"OX c #D26A03",
"+X c #D16409",
"@X c #D36B0B",
"#X c #D96906",
"$X c #D47406",
"%X c #C46514",
"&X c #C46B13",
"*X c #CB6C13",
"=X c #C46C1C",
"-X c #CC6E1A",
";X c #C86617",
":X c #D66A13",
">X c #C5721C",
",X c #CB721A",
"<X c #C97315",
"1X c #D17310",
"2X c #EB7906",
"3X c #F27619",
"4X c #F17115",
"5X c #CC572A",
"6X c #C56E22",
"7X c #C37323",
"8X c #CB7324",
"9X c #C4752B",
"0X c #C7792A",
"qX c #C47B38",
"wX c #D17621",
"eX c #EE702E",
"rX c #EA5D2F",
"tX c #885745",
"yX c #9C5946",
"uX c #906B54",
"iX c #AD7457",
"pX c #B37E5E",
"aX c #A77C65",
"sX c #C67353",
"dX c #E37A41",
"fX c #7D827C",
"gX c #B68A05",
"hX c #AC9507",
"jX c #988504",
"kX c #D4840C",
"lX c #E89115",
"zX c #F4AB12",
"xX c #D8962A",
"cX c #ED8F26",
"vX c #EDB327",
"bX c #CFAC1A",
"nX c #F5CE30",
"mX c #FFE22D",
"MX c #AE8265",
"NX c #888276",
"BX c #CA8C43",
"VX c #CFAF53",
"CX c #F3AB59",
"ZX c #CD8F73",
"AX c #F5CF52",
"SX c #F5E06D",
"DX c #977785",
"FX c #B3988F",
"GX c #B8B197",
"HX c #938A83",
"JX c #D09D89",
"KX c #DBB196",
"LX c #E7B295",
"PX c #F2CEAC",
"IX c #D6D0BA",
"UX c #FACECB",
/* pixels */
"[.[.[.[.[.[.[.[.[.[.[.[.[.[.[.[.OXOX[.[.}.[.].}.[.[.oXoX[.[.[.[.oX+XoXoX}.[.oX XXX].{.}.{.].oX+X#X(.}.}.[. X X X}.}.[.oX",
"[.[.[.[.[.[.[.[.[.[.[.[.[.[.[.[.oX[.[.[.}.}.}.}.[.[.[.[.[.[.}.[.[.oX[.[.].[.oX[. X].}.{.{.{.[.+X(.[.[.}.].[.;X(.}.}.[.[.",
"[.[.[.[.[.[.[.[.[.[.[.[.[.}.OX[.[.[.[.[.[.[.[.[.[.[.[.[.}.}.}.}.}.].}.[.[.[.oXoX[.oX(. X{.{.[.}.oX+X].[.oX[.}.[.].}.[.oX",
"[.[.[.[.[.[.[.[.[.[.[.[.[.[.[.[.[. X[.[.[.OX[.[.[.[.[.[.}.}.}.{.{.{.].}.[.oX[.[.oXoX+X+X}.{.}.}.[.[.].}.[.}.}.}.}.}.oX[.",
"OX[.[.[.[.[.[.[.[.[.[.[.[.[.[.}.XX X].[.[.[.oX[.[.[.[.].}.[.].}.].{.}.}.[.[.}.{.[.[.@X[./.[.].+X@X/.}.}.].}.}.}.[.oX+XoX",
"[.[.[.[.[.[.[.[.[.[.[.[.[.[.[.}. X{.[.[.oXoXoX[.[.}. X[.[.].[.[.}.}.{.}. X[.{.{.}.[.[.OX}.[.;X).).-X}.}.}.[.}.}.[.[.+X+X",
"[.[.[.[.[.[.[.[.[.[.[.[.[.[.[.}.}.}.}.[.[.oXoXOX[.[.[. X[.[.+X[.[. X}. X+X X}.{.]..X].[.[.|.Z.' _ W.B.{. X X[.].[.[.+XoX",
"[.[.[.[.[.[.[.[.[.[.[.[.[.[.[.[.{.}.}.[.[.[.[.[.}.}.[.[.+XoXoXoX+X[.[. X+X X}.{.XXn.=XZ.S.7X#.= ' k.( S.;X).*X X X[.[.oX",
"[.[.[.[.[.[.[.[.[.[.[.[.[.[.[.[.[.[.[.[.[.[.[.}.[.}.[.}.[.oXoXoXoXoX(.oX+X[.{.{.-XU 1 < $.~.) [ k.E ` ] k.) <X].[.+X X].",
"[.[.[.[.[.[.[.[.[.[.[.[.[.[.[.[.[.[.}.}.}.}.[.}.}.].}.}.oX[.oXoXoX[.#X#X].].{.C.E.R.M o n l ) CXK./ VX^.@.-.) ,X X[.].V.",
"[.[.[.[.[.[.[.[.[.[.[.[.[.[.[.[.[.[.[.[.[.].}.]./.[.}.].}.{.[.OXOX].}.}.OX[.{..X/ 1 ; *.M.G r.CXkXH.AXbXAXjXC 9X.X].{..X",
"[.[.[.[.[.[.[.[.[.[.[.[.[.[.[.[.[. X[.}. X X}.}.[.}.].]..X.XB.S.B.G.V.D.E.E.D.~.P.5 * ' qX:X$XlX.XlXgX@.nXhXm ~.F.<X].}.",
"[.}.[.[.[.[.[.[.[.[.[.[.[.[.[.[.+X[.(. X[.].[.[.}.[.}..X&XW.Q.R.Q.~.J.*.uXuXaX^ q 0 = > k.$XlX[.n.zXbXgXnX{.Q ` x.) .X+X",
"[.[.[.[.[.[.[.[.[.[.[.[.[.[.[.[.[.[.[. X}.}.[.oX[.[.XXn.Z V T M 5 %. .i u % % +   X ..P.BXAXcX2X2XzXnXmXzXkXQ.* < N wX(.",
"[.[.[.[.[.[.[.OX[.[.[.[.[.[.[.[.[.[. X}.}.}.oXoXoX+X;XA., = * X X O . . >.g 6 6 - o.^ B W x.cX2X2XkXzXmXzXlXxXn %.N V.}.",
"[.OX[.[.[.[.[.}.}.OX[.}.}.[.[.oXoX[.}.}.}.[.oXoXoX(.|.A.c.K.*... .+. .q q 3 o =...5 5 3 - ; [ 1X$XvXnXnXnXlXG.^.T.C <X}.",
" X(.oXoXOX[.[.[.[.[.}. X]. XoXoXoXoX[.+X}.].OX[.oX(. XXX&X8XE.U.~ ^ T x.k.k.v.~.E o - 7  .3 * ^.AXhX@.%.@.v.,XA.K.m *XoX",
" X[.oX[.[.}.}.[.oX[.[. XXX}.oXoXoXoX]. XXX}.[.[.oX[.].OX}.]. X6Xx.J.x.Z.W.Q.Q.' ~ *.3 O - o W VXSX-.. ,.GXP.z.E.' v.|.OX",
" X}.}.}.}.{.{.[.oXoXoX[.{.}.}.[.].[.}. X[.[.[.XX[.+X(.[.OX{.].C.D.qXQ.9XW.~.*.o *.O.= ! tXk J.~.Q 3 @ 5.IXIXMXT m qX|.}.",
"].}.}.}.{.{.}.[.oXoXoX[.}.{.{.{.}.}.}.].].].}.].[. X+XoXB..X>XW.E.' L ) C E O X n = ~ L.L.I.] V W 0 . X.HXGXNX- Z 6X].}.",
"}.}.[.}. X]. X[.oXoXoXoX}.{.{.{.{.].}.[.}.OX[.[.+X+X(.*X7XQ.R Q W O - i &.@ . @   o tXL.D sXc.v FXDX7 e s X.s 5 v.B.XX X",
"[.[.[.[.[.}.]. XoXoXoXoX[.}. X].}.[. X[.}.].}.|.;X8XE.( / Q * X . 8 :.>.3.>.8 $ $ X A L.{ U Y.ZXUXHXo.1.+ X   M 9X X}.].",
"[.oXoXoX[.[.}. X[. XoXoX[.oXoX[.[.oX+X(.+X+X&X0XR./ ^ - X @ 9 u y u ;.:.>.fX3.r w $   i Z _ Y.sXLXJXyXyXB 4 #.l.XX[.].}.",
"oXoXoXoXoX[.}.[.|.[.(.oXoXoXoXoX(. X X%X0XZ.' ` E * X & t r 6 u a r t d :.3.NXd & w .   ; *.t.I iXLXUXaX1 C BX.X{.[.}.{.",
"[.[.oX[.oX[.}.[.XX X}.OX(.oXOX X<X>X9XR.@.W X O o 7 u g d d y u u g y 9 p u  .# . & $ $ + * O.P.iXLXKX*.m z.=X).[.[.}.{.",
"[.}.[.[.[.}.{.].{. X[.[.OX}.,Xb.' ' ` E o O i + u y u :.>.f e y 6 6 6 i 8 @ 9 6 e 6 $ #   o V | ) t.E < z.=X|.[.oX[.}.{.",
"}.[.[.[.[.[.}.{.].}.[.}.].>Xc.C < Q | m = - i 9 y % 8 8 % 6 O : 2 2 * # $ w g >.f f d 6 X n ( P _ L ) v.>X X[.[.[. X}.}.",
"[.[.[. X[.}.}.}.}.}./. X&XM.` ^ uXKXLXpX=.; 6 >.8 8 8 & . @ = , S S z = o   # y d d 3.0 4 K.9X8X6X8X0XG.].].OX[.[.[.].}.",
"oXoX+X X[.[.[.}.].}.[.].8X' n uXuXuXMXZXyXZ : >.a t .   . 3 A G Y Y t.Y x z 6 9 <.,. .T v.<X&X). X%X). XXX[.[.[.oX}.}.{.",
"[.[.[.[.[.oX[.[.}. X[.[.,Xz.> = ..=.pXLXiXk - p . . . # + : z z b Y G Y Y } - &.4.2.5 $.>XB.}. X+X(.[.[.}. XoX+XoX[.].].",
"].}.}.[.[.oX[.[. X].oXoX(.,Xc./ pXLXLXZX2.X X X 0 X 6 6 % # : : : 3 o ! ..A 3 1.O.z k v.C.}.}.}.].@X}.].}.oX[.[.oX[.}.{.",
"{.{.}.[.[.[.[.[.}. XOX[.}.}.=Xz.l j l j = E M } uX* * : * * * = * - 3 O 0 : ,.o.2 , l.0X].}.].}.}.].].[.}.[.+X XoX[.}.{.",
"}.}.[.[.].{.].}.@XXX1X1XB..XC.>XM.v L Z r.7X6XQ.tX> > > S b U 7.P V , = 5 6 ,.7 , K l.1X[.[.}.}.}.}.[.}.[.[.[.[.[.[.[.}.",
"}.[.oX[.XX]..X&Xb.l.l.v.Z.S.V.=XE.6XD.7X*X[.(.F.*.= z S F 7.d.d.5X5Xy.t.C > : * P.BXA.]. X+X[.}.}.[.[.[.[.[.[.[.[.[.[.[.",
"[.}.[.oX/.*XA.E.E o 3 * R ~.R.z.M.7XV.|.B.{.$Xb.o o z c F 7.9.d.5XrXeXeXN.w._ x { K.F.*X[.[./.[.}.[.[.[.[.}.[.[.[.[.[.[.",
"[.oX[.oX@X.X9XR * X.>. .; R | h P M.Z.D.V.&X>Xk.= * > x D J J 7.8.8.a.`.`.`._.p.G h _ >XXX+XXX].}.[.[.[.[.[.[.[.[.[.[.[.",
"]. X[.].].S.~.N i f u % 3 ; , H c h N T.M.!.t.h b b 2 = l D H 7.8.f.a.'.4X3X4X4X:Xp.x r.;XB.XX X[.[.[.[.[.[.[.[.[.[.[.[.",
"XX].}.}..XZ.N ; i d & & g 5 Z 7.7.t.= = N I.h b J D z 2 , j x D D 7.8.a.a.'.2X4X3XeXN.x r.>X]. X[.[.[.[.[.[.[.[.[.[.[.[.",
"{.}.].{.7X) ; 0 s w . y : B Y.i.i.w.x Y = 1 U w.s.J D S x , = 1 z x P 7.7.p.`.'.3XeXm._ , ' >X[.[.[.[.[.[.[.[.[.[.[.[.[.",
"}.}.[.|.!.N - i r y % X   ~ m.h.h.d.w.y.h , u.d.7.J F c S z = < 1 h x D J 7.6.p.n.a.i.U , | -XoXOX[.[.[.[.[.[.[.[.[.[.[.",
"[.[.oX=XE 5 i 6 6 y O - o ~ y.w.j.f.j.d.H D m.s.9.F F G z = k U.E.E.K j J I.{ U 6.6.d.8., | -X[.[.[.[.[.[.[.[.[.[.[.[.[.",
"oX(.oX8X5 0 &.6 @ 3 o | *.h P J q.6.i.i.u.s.8.8.F G D x , , R.D.V.;XZ.!.I L h , J d.j.w.h [ -XoX[.[.[.[.[.[.[.[.[.[.[.[.",
"}.OX[.=XE - uX..O o e.E.9X_ h h h L P J F 9.9.D D l l v U.E.&X.X].}.XX%XR.Z 2 c i.d.0.q.k [ wX[.[.[.[.[.[.[.[.[.[.[.[.[.",
"[.[.[.&XE 4 W =.W Q =X*X).6XR.K.| > x c F D F H b , V U.A. X}.].}.].[.%XQ.l x y._.0.8.8., [ 8X/.[.[.[.[.OX[.[.[.[.[.[.[.",
"oX[.[..XD.Z < > #.W..X].*X|.*X-XA.A.u., h h , , x Z.n.-X.X}.[.[.{.}.[.|.E.Z j U 8.8.f.i.h $.>X[.[.[.[.[.[.[.[.[.[.[.[.[.",
"[.[.].].1Xb.c.R.A.].[.[.[. X[.[.[.1XV.M.R.K.R.M.Z.&X X[.}.[.oX[.].}.@X|.W.l x U 8.i.rX5Xb ( 6X].[.[.[.[.[.[.[.[.[.[.[.[.",
"[.+X}.{.].*X=X=X*X[.[.oX}.OX[.[.oX[..X&X-X8X|.*X&XV.].].OX].oXoXoX(.(.|.W.V v y.a.'.eX`.q.b r.-X X}.[.[.[.[.[.[.[.[.[.[.",
" X}.}.{.[.(.+X).(.OX[.oX[./.oX[.[.[.}.].].[.oX[.|.*X X X[.[.oXoX+X[.OX XE.Z x Y.eX_._.p.q.c r.wX}.[.[.[.OX[.[.[.[.[.[.[.",
"[.[.[.[.[.[.[.[.[.OX[.[.[.[.[.[.[.[.}.}.}.[.[.[.[. X}.}.[.}.[.[.oXoX(..XD.V j O.t.t.P K j ( V.}.}.[.[.[.[.oX[.[.[.[.[.[.",
"[.[.[.[.[.[.[.[.[.[.[.[.[.[.[.[.[.[.[.[.[.[.[.[.[.[.}.[.[.[.[.[.[.oX[. XD.V > , > 4 > = } ~.F.|.}.[./.oX[.[.oX[.[.[.[.[.",
"[.[.[.[.[.[.[.[.[.[.[.[.[.[.[.[.[.[.[.OX[.[.[.[.[.[.[.[.[.[.[.[.[.[.[.].C.l.1 7 - O 0 - - J.~.6X.X].@X].}.[.[.[.[.[.[.[.",
"[.[.[.[.[.[.[.[.[.[.[.[.[.[.[.[.[.[.[.[.[.[.[.[.[.[.[.[.[.[.[.[.[.}.OX}.C.BX5 X . . $ % 6 5 R l l.9XS.V.XX[.OX[.[.}.}.}.",
"[.[.OX[.[.[.[.[.[.[.[.[.[.[.[.[.[.[.[.[.[.[.[.[.[.[.[.[.[.[.[.}.{.].[.[.B.G.q   . t w $ $ : q 5 5 T ' qXV.].[.[.[.}.{.|.",
"[.[.[.[.[.[.[.[.[.[.[.[.[.}.[.[.[.[.[.[.[.[.[.[.[.[.[.[.[.[.}.}.|.XX[.(.}.G.q . $ a a r r $ &.FXX.^ P.' >X].oXoX[.}.{..X",
"[.[.[.[.[.[.[.[.[.[.[.[.[.[.[.[.[.[.[.[.[.[.[.[.[.[.[.[.[.[.[.}.].XXoXoXoX%XM   % y y w r y s 5.X.&.~ / 6X].OXoX[.}.{.{.",
"[.[.[.[.[.[.[.[.[.[.[.OX[.[.[.[.[.[.[.[.[.[.[.[.[.[.[.[.[.[.}.}.}.].oXoXoX.Xc.= o X X X X + o o o - * L 0X X(.OX[.}.].].",
"[.[.[.[.[.[.[.[.[.[.[.[.[.[.[.[.[.[.[.[.[.[.[.[.[.}.[.[.[.[.[.}.C.C.[.OXoX+X%XN.e.] e.e.#.#.k.] k.[ e.b.V.XX+XoX[.[.[.[.",
"[.[.[.[.[.[.[.[.[.[.[.[.[.[.[.[.[.[.[.[.[.[.[.[.[.[.[.[.[.[.[.}.{.C.OXoX(.oX@X|.-X-X-X,X.X<X<X<X>X<X&X*XXX].].[.oXoXoXoX",
"[.[.[.[.[.[.[.[.[.[.[.OX[.[.[.[.[.[.OX[.[.[.[.[.[.[.[.[.[.[.[.[.}.[.oXOX{.{.}.}.].].[.[.{.{.B.].].].{.}.{. X[.OX[.oXoXoX",
"[.[.[.[.[.[.[.[.[.[.[.[.[.[.[.[.[.[.[.[.[.[.[.[.OX[.[.[.[.[.[.[.oXoXoXOX.XC.].].{.}.+X[.[.}.}.}.[.[.}.}.[.[. X[.+XoXoX[."
};
