/* XPM */
static char *_3150_ad97b2e83edb3fddbac24755d9d8ec8e90220d0db33abddd180a06fac7d20f30[] = {
/* columns rows colors chars-per-pixel */
"60 60 251 2 ",
"   c #0D0300",
".  c #080702",
"X  c #140200",
"o  c #1C0200",
"O  c #150C01",
"+  c #1B0C02",
"@  c #17090B",
"#  c #081704",
"$  c #181409",
"%  c #0C1212",
"&  c #191715",
"*  c #140F15",
"=  c #240200",
"-  c #2C0200",
";  c #230C02",
":  c #2B0900",
">  c #250E0C",
",  c #340300",
"<  c #3C0200",
"1  c #3B0C01",
"2  c #320B05",
"3  c #281606",
"4  c #371906",
"5  c #271816",
"6  c #341E19",
"7  c #2D0B17",
"8  c #1B201A",
"9  c #292218",
"0  c #372719",
"q  c #342D16",
"w  c #1D1C24",
"e  c #271C23",
"r  c #1D2324",
"t  c #2C2C2D",
"y  c #272625",
"u  c #352B26",
"i  c #2B2936",
"p  c #323233",
"a  c #383839",
"s  c #313330",
"d  c #430201",
"f  c #4C0200",
"g  c #430C01",
"h  c #4B0C00",
"j  c #490B0E",
"k  c #5C0301",
"l  c #5C0B01",
"z  c #520801",
"x  c #421300",
"c  c #4B1300",
"v  c #451B02",
"b  c #4D1C01",
"n  c #43190C",
"m  c #531401",
"M  c #5C1401",
"N  c #5B1B00",
"B  c #551807",
"V  c #4F1416",
"C  c #640300",
"Z  c #680903",
"A  c #750601",
"S  c #641400",
"D  c #641C01",
"F  c #6D1B00",
"G  c #6B1507",
"H  c #7A1600",
"J  c #781905",
"K  c #691913",
"L  c #791C15",
"P  c #492808",
"I  c #5D2300",
"U  c #5B2B01",
"Y  c #562405",
"T  c #472617",
"R  c #582915",
"E  c #4A3418",
"W  c #573419",
"Q  c #5B3604",
"!  c #632300",
"~  c #642B00",
"^  c #6B2C00",
"/  c #6A2506",
"(  c #782801",
")  c #6A3705",
"_  c #793704",
"`  c #662915",
"'  c #673916",
"]  c #793718",
"[  c #483427",
"{  c #573827",
"}  c #473A34",
"|  c #512B27",
" . c #6A3529",
".. c #4B1A2F",
"X. c #3A423E",
"o. c #354F29",
"O. c #684805",
"+. c #7B4605",
"@. c #7B4718",
"#. c #584936",
"$. c #4F4437",
"%. c #774B29",
"&. c #735131",
"*. c #3B3C45",
"=. c #3C4242",
"-. c #494947",
";. c #5A5B5A",
":. c #50514D",
">. c #725745",
",. c #68564A",
"<. c #656859",
"1. c #716056",
"2. c #705A7E",
"3. c #5C6568",
"4. c #707171",
"5. c #871703",
"6. c #981B00",
"7. c #8B1209",
"8. c #852802",
"9. c #9B2802",
"0. c #8B3B00",
"q. c #863600",
"w. c #9B2D15",
"e. c #863F1A",
"r. c #8C2A0F",
"t. c #A72A04",
"y. c #A93704",
"u. c #B73704",
"i. c #A63617",
"p. c #B53C18",
"a. c #B12F0F",
"s. c #913724",
"d. c #A83E2A",
"f. c #C1390F",
"g. c #894606",
"h. c #974704",
"j. c #975107",
"k. c #884C16",
"l. c #984C14",
"z. c #975518",
"x. c #8D5713",
"c. c #A74A02",
"v. c #A85707",
"b. c #BA5A04",
"n. c #B74817",
"m. c #A95B16",
"M. c #AF4909",
"N. c #BE6303",
"B. c #BB6709",
"V. c #AD631A",
"C. c #BA6918",
"Z. c #BA701C",
"A. c #A56600",
"S. c #895526",
"D. c #8F502B",
"F. c #B44527",
"G. c #AF592F",
"H. c #8B6436",
"J. c #A86626",
"K. c #B86B25",
"L. c #BD7426",
"P. c #B87329",
"I. c #A96C36",
"U. c #AD7535",
"Y. c #B87636",
"T. c #B27630",
"R. c #9A7719",
"E. c #C64A05",
"W. c #D64C05",
"Q. c #C45E00",
"!. c #CB5E00",
"~. c #CA510A",
"^. c #D3590C",
"/. c #D5571C",
"(. c #C56502",
"). c #CC6601",
"_. c #C56902",
"`. c #CB6902",
"'. c #C4650A",
"]. c #CA660A",
"[. c #C56B0B",
"{. c #CC6A0B",
"}. c #D16501",
"|. c #D26A02",
" X c #D56A0A",
".X c #C9720C",
"XX c #D57309",
"oX c #C36613",
"OX c #C46B13",
"+X c #CB6D12",
"@X c #C26C1A",
"#X c #CA6D1C",
"$X c #C76618",
"%X c #D56A17",
"&X c #CB7314",
"*X c #CB721C",
"=X c #C47218",
"-X c #D2771E",
";X c #E56B1B",
":X c #E97618",
">X c #F37A17",
",X c #ED730B",
"<X c #D05729",
"1X c #C66C26",
"2X c #C47224",
"3X c #CD7522",
"4X c #C77827",
"5X c #D4782A",
"6X c #C87833",
"7X c #CD6B33",
"8X c #F67A23",
"9X c #E77025",
"0X c #E05A1D",
"qX c #935A4A",
"wX c #916A4F",
"eX c #A66745",
"rX c #AB7653",
"tX c #A97665",
"yX c #D1714B",
"uX c #7F8078",
"iX c #BC850F",
"pX c #BD8830",
"aX c #CB910C",
"sX c #F09116",
"dX c #F4B90B",
"fX c #CD8C29",
"gX c #EC8E30",
"hX c #F7B22C",
"jX c #DDB51A",
"kX c #FEC92B",
"lX c #FDCB16",
"zX c #83837E",
"xX c #B98C76",
"cX c #B58E70",
"vX c #B08359",
"bX c #CE9852",
"nX c #C9AC54",
"mX c #D0946B",
"MX c #E2A47B",
"NX c #F7C95F",
"BX c #7E7E80",
"VX c #A07D81",
"CX c #7F8583",
"ZX c #AA8B89",
"AX c #A39B9A",
"SX c #D7A98E",
"DX c #EAB391",
"FX c #E3B6A4",
"GX c #EECDAB",
"HX c #C5C2B1",
"JX c #FFE5E2",
/* pixels */
").).).).).).).).).).).|.).).).`._._.`.].].]._._._._.}.}.}.}.}.)._..X_.+X@XoX`.).).).}.}.}.).].`.).).`.).).).).).).).).).",
").).).).).).).).).).).).).).).`.`.`.).}.]._._._.`.{.!.}.}.).(.[.B.B..X( h.1X[.Q.&X{.].).|.).(.`.`.).).).).).).).).).).).",
").).).).).).).).).).).).).).).).).).}.).)._.).).{.Q. X).{.[.Z.P.U x.fXN 0.7X1X6X_ _ OX{.Q.).).).).).).).).).).).).).).).",
").).).).).).).).).).).).).).).).}.}.}.)._.).}.}.}.{.].{.'.C.^ v U.+.2 z.( j.q.h - ) 2X'.`.`.).).).).).).).).).).).).).).",
").).).).).).).).).).).).).).).).).).}.].}.}.}.}.).).(.'.2XY.x - fXgXg.fXfXU O.pXO.Q pXC.N.`.|.!.|.).).).).).).).).).).).",
").).).).).).).).).).).).).).).).).).].}.}.}.}.}.).).*X2XF M S.h 8.hXaXhXhXA.aXNXO.; N h..X(.).}.).).).).).).).).).).).).",
").).).).).).).|.).).).).).).).`.`.).).].).}.}.}.}.oX! ! h.c.b.b.u.E.XXsXsXhXlXiXiXiXY D &X(.].].).).).).).).).).).).`.).",
").).).).).).).).).).).).).).).`._._.).}.).).}.).].C.] , m.gX:X;X9X X,X|.|.sXdXlXkXA.O.J.&X].]. X).).).).).).).).).).|.).",
").).).).).).).).).).).).).).).`._.[.`._. X].(.].$X1XY.k.S M.8X:X%X8X#XM.|.XXdXlXhXiXU Y h.OX`.`.).).).).).).).).).).).).",
").).).).).).).).).).).).).).).).`.(.`.|.].+X(.[.K.z.S.H.d e.5X*X0.q.q.y. XhXkXjXiXbXbX) D &X[.(.).).).).).).).).).|.).).",
").|.).).).).).|.).).).).).).).).).).|.).b._.^.K.S.E q $.; n G.] , 4 4 R z.C.hXjXnXH.@.z.c.+X(.`.).).).).).).).).).).).).",
").).).).).).).`.).).).).).).).).).).).).`..XC.l.W & & a O X B h > s u [ #.b R.nXHXvX= j.OXN.{.(.`.).).).).).).).).).).).",
").).).).).).).).|.).).).).).).).).).).`.|.'.V.%.3 * w & . . X ; 7 > ; 6 5 o [ wXHX#.) fX.X_.(.).).).|.).).).).).).).).).",
").).).).).).).).).).).).).).).).}.).`._.(.C.I.W + + 3 o O X > [ T x R 4 e i @ i $.E j.N._.(.(.|.).).).).).).).).).).).).",
").).).).).).).).).).).).).).).).}.}._.(.[.L.%.3 o P U @., x P vXmX1XyXtXAXBX7  .4 ) *X_.).).}.(.).).).).).).).).).).).).",
").).).).).).).).).).).).).).).|.).{._.B.K.z.3 ; - I.pXY.d qX' mXNX1Xd.ZXJXBX..qXP ^ &X(.{.].).}.).).).).).).).).).).).).",
").).).).).).).).).).).).).).).).).`.[.L.H.v W v ! V.K.g.! D.R %.G.l.l.G.FXVXxXqXB h.{.).}.).).).`.).).).).).).).).).).).",
").).).).).).).).).).).).).).).).).`.B.q.Y P %.+.6XY.U.1 ` - o n z l.mXeXxXJXJXqXq.4X{.).).).].).).).).).).).).).).).).).",
").).).|.).).).).).).).).).).).`.].%Xv.Z ^ K._ T.k.%.&.2   + O ,.R f ] mXDXGXmX/ h.[.(.).}.|.).(.).).).).).).|.).).).).).",
").).).).).).).).).).).).).).).).!.+X$X*X&XB.Z.@.= +   @ * $ y O u - 1 @.D. .M k.*X{.`.(.(.).}.}.).).).).).).).).).|.).).",
").).).).).).).).).).).).).).).).{.].{.b.[.4X%.= $ 8 =.=.p t & 9 . $ .   o 1 l.2X'.Q.`.`.|.).).).).).).).).).).).).).).).",
").).).).).).).).).).).).).).).).(.].).{.Z.+.; 9 9 % 3.4.;.p & % % r 8 9 $ { I.C.'. X`.`.}.}.).).).|.).).).).).).).).).).",
").).).).).).).).).).).).).).).).).`.`.C.@.+ 9 $.p w w r 3.=.:.=.i & -.X.t ; ' Z.B.{.(._.).).`.].).).).).).).).).).).).).",
").).).`.).).).).|.).).).).).).`.`.(.{.m.; 3 3 -.-.i & y t :.3.3.;.r CX;.a ,.2 ) &X(.`.`.(.(.{.(.).).).).).).).).).).).).",
").).).).).).).).).).).).).).).).}.{.=Xk.; & t i =.y @ y =.3.4.uXuXy zX;.-.#.o O.&X(.).`.(.`.].].).).).).).).).).).).).).",
").|.).).).).).).).).).).).).).).}.OXg.: 3 w :.i y &   5 y $.1.4.4.s 4.$.5 | = ' =X|.).).(.].).).).).).).).).).).).).).).",
").).).).).).).).).).).).).).).).+Xv.; $ & t *.r w & ; - n T T { u <.s + 4 h - _ OX`.}.^.).).).}.).).).).).).).).).).).).",
").).).).).).).).).).).).).).).{.L.k.O 8 i r & r % . 4 ` ` ` ] ` 3 <.[ T ] D.m _ 5X(. X}.).).}.}.|.).).).).).).).).).).).",
").`.).).).).).).).).).|.).).`.OXx.= 9 :.3.*.% $ # # 2 K d.p.p.yXT ,.| D.yXyX1 ' C.'.].].`.}.).).).).).).).).).).).).).|.",
").).).).).).).|.).).).).).).).@XS.= 9 -.3.3.e % o.o., C 7.6.u.d.V } 4 ] p.9.x o g.3XN.(.}.).).).).).).).).).).).).).).`.",
").).).).).).).).).).).).).).}.=XS.X q 4.4.4.$.9 # O h C A 7.t.5.n 0 4 I 6.6.c o ^ Y.OX(.).}.`.`.`.).).).).|.).).).).).).",
").).).).).).).).).).).).).).|.+Xz.; 9 -.s 5 3 3   O j C H p.0XyXP s E Y w.F.B ; < _ 2X'.`.}.).`.).).).).).).).).).).).).",
").`.).).).|.).).).).).)._.).`.(.Z.k.; y 1 W H.>.3 o n B Z L n.F.T 1.{  .F.r.4 + [ 4 ) P.oX}.).).).).).).).).).).).).).).",
"`.`.).).).}.).).).).`.`.).`.).`.+Xm.= 5 ` rXmXP &.4 - V  . .( D.6 1.[  .s.z > 5 4 P 1 _ #X).).}.|.).).).).).).).`.).).).",
").).).).).).).).).).).`.).).).].].l.o 0 eXMXGXqX .- 7 e e 6 6 T & <.a 6 | ; O 3 W cX&.I @X`. X(.).).).).).).).).).).).).",
").).).).).).).).).).`.).).).).).+Xm.= 4 tXDXDXGXxX4 X @ X o 5 5   y & + > > o = wXMXcXk.q.{.Q.).).).).).).).).).).).|.).",
").).).).).).).).).].].).).).}.).].C.g.- { GXSXcX{ o g f h h = o o o o = - d j < K H.SXD.S -X(.`.`.).).).).).).).).).).).",
").}.).).).).].].].].}.).).).}.).).{.Z.+.: #.[ n o g J H J ( j , B h d B G G 5.Z f D ` ) V.+X_.(.).).).).).).).).).).).).",
"}.).).}.).].).`.).].).).).).).).|.(.XXZ.S.o = - z J 5.y.y.8.5.k J A A w.p.a.y.y.H f ~ J.[.`.).`.).).).).).).).).).).).).",
"}.|.).).`.).`.(.`.).).).}.).).}.).`.`.v.N x f K i.<X/.9X;X0X<Xp.r.H w.<Xp.0X;X;X1Xn.S g.*X(._.).).).).).).).).).).).).).",
"}.}.).).).).]._.).).).).).|.`.`.].].OXV.d l J 7.t.~.>X>X:XgX<XG./ < l 5.a.W.W.,X>X:XM.F 0.5X(.).).).).).).).).).).).).).",
"}.).).`._.]._.).(.`.).).).).(.).].#Xm.S k H a./.^. X,X X].c.H k - c M J 6.u.W.,X>X>X5Xn.F 0.+X}.).).).).).).).).).).).).",
").).).).]._.`.).).).|.).`.`._.{.(.+XG.d A p.;X>X>X>XsXoXF f q.0.k.M d < S 8.n.^.;X>X8X9XF S #X}.).).).).).).).).).).).).",
"}.).)._.).].`.).).}.).).`._.N.N.&Xm.D F c.%X>X,X>XW.c.F _ q.K.4X5X0.g.] N M H 6.t.E.W./.F S 5XQ.).).).).).).).).).).).).",
").).).).]._.).).}.).).}._.].OXZ.J.I k i.~.:X,X>X^.t.Z ( @X*XOX'.Q.+X#X6Xl.l k Z 6.u.u.9.S ! 3X).`.).).).).).).).).).).).",
").).).).`.(.).).).}.}.].(.OX=XV.I d 5.p.E.8X:X^.9.Z q.2X(.).].}.{.).(.).3Xl.S k 9.a.6.5.M c h.[.(.).).).).).).).).).).).",
"`.).`.`.`.).).).}.}.}.).'.oXv.( k A A t.E.^./.t.S d C.N._.`.!.}.(.(. X).!.5XI < A 7.7.7.L d ! =X_.).).`.).).).).).).).).",
").).).).).).).).}.}.).].oX2Xl.d 7.A A 7.6.t.9.H f ( B.`.(.].}.!.).).}.}.).#X~ 2 k A r.L h < ! L.'.).`.`.`.).`.).).).).).",
").).}.}.}.}.}.).).).].(.3XV.Y g L C Z Z C G Z k 8.$X X(.`.`.).]. X}.(.}.).*XN 1 S Z K Z  .z D L.(.`.(.{.[.(..X(.).).).}.",
"`.).}.!.}.}.).)._.`.`.&XV.N , { l G r.r.K Z f ( $X%X(.(.`._.(. X!.}.).`.).oXz.g z V V j | R I 4X[.(.).)._._.(.`.).).}.}.",
"(.{.).).].{.).).`._._.v.U o | ZX` ` d.s.f d ( 1X$X].(.[._._.).).{.]._.(._.N.6X~ = 5 7 e 5 O Y L.(.}.}.}.(.}.).).`.].).].",
"{.(.).(.].{.|.).).(.&Xj.= 6 0 wX{ 1 l C / ( 1X].).].{._.N.`.|.}.).`._.`.).'.L.~ + w * e a u P x.2X+X).}.}.).|.(.).(.`.].",
").}.}.}.].[.(.).).&XJ.P . y u 5 > o - _ 1XoX{.).).).(.[.).}.!.}.!.}.).}.|.].$X~ 3 a * e p t $ 4 @.z.2XN.|.}.!. X).].]._.",
").}.}.}.`.(.).].+Xm.U o & # y ;.u ; ) T.'.).`.(.).).(._.|.}.!.}.}.}.}.).).].3X^ O % > @ w *.e + o 1 k.L.'.XX}.!.}.).(._.",
").).|.|._.(.].+XV.~ = 0 s a q # . 3 U.B. X).{.(.`.`.`.`.).).).}.).).`.`.(.N.&X~ + r s u *.:.#.,.,.T Q z.C.(.}.}.}.}.).`.",
"].`.).)._.(.{.2X] = 4 } zXuX<.<.q 4 Z.(.(.}.).].`.(.`.).).|.}.).}.).).`._._.[.g.;   3 q 9 0 W wX&.P ' h 2X].}.}.}.)._.(.",
"}.).`.(.`.`.[.m.W T 1.ZXHX4.:.AX$.1 Z.).).).).}.`._.`.`.}.}.).).).}.}.].].`.`.=X+.Y c b v v v c n v c _ B.+X(.|.).).).`.",
"}.).`.).).)..Xq.1 T { >.#.E &.4 = ^ $X).).}.).)._._._.).}.}.)._.).!.}.).).).`.[.@XC.Z.2XK.T.P.L.P.L.Z.OX{.].Q.).).).].`.",
"}.!.).).(.). Xh.m h m c z m m m ^ C.OX'.].).}.}.)._._.).}.).(.`.(.}.}.}.}.).'.[.B.[.{._.'.'.].'._.(.].].(.].).`.)._.`.).",
" X(.).|.).).`.[.K.Y.U.I.Y.P.K.K.@X*XoXoX X}.^.].).`._._.).).`._.).).}.}.}.].'.'._._._.`.).).}.).|.).).).(.`.`.(.`.).`.(."
};
