/* XPM */
static char *_8553_8cd7555806045d1dbbf50ab3b518b0d0ca80447924e030df6bb762a2efa45421[] = {
/* columns rows colors chars-per-pixel */
"60 60 255 2 ",
"   c #0D0301",
".  c #090806",
"X  c #140200",
"o  c #1B0200",
"O  c #1B0B01",
"+  c #180A09",
"@  c #1A1309",
"#  c #1B1B1B",
"$  c #171716",
"%  c #100B14",
"&  c #240100",
"*  c #2C0100",
"=  c #240C03",
"-  c #2B0B01",
";  c #250C0A",
":  c #330200",
">  c #3C0200",
",  c #3D0B00",
"<  c #370B09",
"1  c #25150A",
"2  c #351300",
"3  c #3C1300",
"4  c #361B08",
"5  c #231C1B",
"6  c #2A1A17",
"7  c #3C1E16",
"8  c #1E231E",
"9  c #3B2407",
"0  c #292319",
"q  c #342519",
"w  c #2D2000",
"e  c #141E20",
"r  c #2B1D23",
"t  c #211233",
"y  c #292728",
"u  c #362A26",
"i  c #3A342C",
"p  c #2C3334",
"a  c #363838",
"s  c #322D33",
"d  c #1A2624",
"f  c #440200",
"g  c #4C0300",
"h  c #440A00",
"j  c #4C0B01",
"k  c #440D0C",
"l  c #540300",
"z  c #5C0300",
"x  c #590C03",
"c  c #441400",
"v  c #4B1400",
"b  c #441D00",
"n  c #4B1A00",
"m  c #461B0B",
"M  c #551400",
"N  c #5C1301",
"B  c #541900",
"V  c #581B07",
"C  c #471712",
"Z  c #571714",
"A  c #5D0E13",
"S  c #610B00",
"D  c #690600",
"F  c #760800",
"G  c #621302",
"H  c #6A1704",
"J  c #7D1100",
"K  c #751805",
"L  c #6F1515",
"P  c #4A2505",
"I  c #562400",
"U  c #572A04",
"Y  c #5C3401",
"T  c #472717",
"R  c #57261A",
"E  c #5B3717",
"W  c #6C2300",
"Q  c #652C00",
"!  c #672603",
"~  c #792603",
"^  c #683708",
"/  c #7B3303",
"(  c #783605",
")  c #682717",
"_  c #772715",
"`  c #763514",
"'  c #653F14",
"]  c #432822",
"[  c #553C29",
"{  c #45393B",
"}  c #4E312B",
"|  c #69392E",
" . c #3E433D",
".. c #7A4204",
"X. c #7B4618",
"o. c #6C4414",
"O. c #564334",
"+. c #684638",
"@. c #75533A",
"#. c #754829",
"$. c #3E3C41",
"%. c #191144",
"&. c #4B3450",
"*. c #493366",
"=. c #454846",
"-. c #57504B",
";. c #595A58",
":. c #534E54",
">. c #675849",
",. c #6B645C",
"<. c #5D6563",
"1. c #696A65",
"2. c #766D64",
"3. c #6D7673",
"4. c #757777",
"5. c #72726B",
"6. c #820B00",
"7. c #881903",
"8. c #981900",
"9. c #871C12",
"0. c #882609",
"q. c #982604",
"w. c #883A03",
"e. c #943D00",
"r. c #8B2512",
"t. c #953419",
"y. c #A52902",
"u. c #AA3806",
"i. c #B93A0A",
"p. c #B43916",
"a. c #AC3812",
"s. c #9A3728",
"d. c #AC3C24",
"f. c #C43702",
"g. c #8C4403",
"h. c #884508",
"j. c #974805",
"k. c #865405",
"l. c #9C5502",
"z. c #874716",
"x. c #994A15",
"c. c #8C5319",
"v. c #985818",
"b. c #B64508",
"n. c #A75806",
"m. c #B45908",
"M. c #A55915",
"N. c #B0470F",
"B. c #9F6016",
"V. c #957110",
"C. c #BD6809",
"Z. c #A66719",
"A. c #BC6B1A",
"S. c #B66717",
"D. c #A7740B",
"F. c #864526",
"G. c #974A2A",
"H. c #855623",
"J. c #975925",
"K. c #845736",
"L. c #AE4F2A",
"P. c #96662E",
"I. c #A96926",
"U. c #B56B23",
"Y. c #B86B25",
"T. c #BC7122",
"R. c #B6732B",
"E. c #A96C34",
"W. c #B46938",
"Q. c #B87633",
"!. c #A87836",
"~. c #C34803",
"^. c #C55E01",
"/. c #CB5F00",
"(. c #C75205",
"). c #CA5714",
"_. c #D85915",
"`. c #CC4E0E",
"'. c #E65C18",
"]. c #C56402",
"[. c #CC6601",
"{. c #C66902",
"}. c #CB6902",
"|. c #C4650A",
" X c #CB6509",
".X c #C5690B",
"XX c #CB6A0B",
"oX c #D16401",
"OX c #D26A03",
"+X c #D26A0A",
"@X c #D56707",
"#X c #CD7901",
"$X c #C36C13",
"%X c #CA6B14",
"&X c #C46D1C",
"*X c #CA6F1B",
"=X c #C36514",
"-X c #DA6916",
";X c #CB7115",
":X c #C4731C",
">X c #CB721B",
",X c #C57314",
"<X c #D87417",
"1X c #D27108",
"2X c #E8670C",
"3X c #E77607",
"4X c #F2790E",
"5X c #E56A1A",
"6X c #E97616",
"7X c #F47A17",
"8X c #C47424",
"9X c #C87528",
"0X c #C9702A",
"qX c #FB7A23",
"wX c #EB6E29",
"eX c #836251",
"rX c #9B6D54",
"tX c #A9714E",
"yX c #84627A",
"uX c #B47E66",
"iX c #8A5F58",
"pX c #D27240",
"aX c #C67641",
"sX c #B38125",
"dX c #A6881A",
"fX c #C98401",
"gX c #D09313",
"hX c #F68119",
"jX c #EF940A",
"kX c #F5B417",
"lX c #C78F35",
"zX c #EB8D35",
"xX c #E8AE3D",
"cX c #F2B826",
"vX c #D1A133",
"bX c #FFD23C",
"nX c #B48956",
"mX c #B68C72",
"MX c #D8924C",
"NX c #CF936F",
"BX c #DAA179",
"VX c #F9B16E",
"CX c #E0A561",
"ZX c #F6CD63",
"AX c #99969A",
"SX c #868789",
"DX c #AA9090",
"FX c #B5A09F",
"GX c #DBB28F",
"HX c #E9B792",
"JX c #E8BDA3",
"KX c #F5CA9C",
"LX c #FFD6B3",
"PX c #FAD9C9",
"IX c #FFE8D2",
/* pixels */
"[.[.[.[.[.[.[.[.[.[.[.[.[.[.[.[.OXoX[. X}. X X.X[.oX/.+X X].OX[.[.].XX{.].oX[.}.}.{.}.].[. X X X[.[.[.[.oX[.[.[.[.OX[.[.",
"[.[.[.[.[.[.[.[.[.[.[.[.[.OX[.[.oX[. X}.}.}.]. X[.[.@X[.].}.oXoX[.+X].{.XX]. X X X XoXOX].].+X}.[.[.[.[.[.[.[.[.[.[.[.[.",
"[.[.[.[.[.[.[.[.[.[.[.[.[.[.[.[.[.[.{.}.[.[.}.}.}.[. X XXX].[.oXoX/.,XC.W S.{.}./.%X[.].].1X].].}.[.[.[.[.[.[.[.[.[.[.[.",
"[.[.[.[.[.[.[.[.[.[.[.[.[.[.[.[.[.}.].}.[.oX].}.[.}. X/.XX|. X X X|.W v.h Z.A.,X0X~ n.>X}.].}.}.}.].[.[.[.[.[.[.[.[.[.[.",
"[.[.[.[.[.[.[.[.[.[.[.[.[.[.[.[.}.}.}. XoXoXoXoXOX].OX].$XT.&X9XZ.! R.Y k.I Z.U m & B.Q.C.}.}.[.OX[.[.[.[.[.[.[.[.[.[.[.",
"[.[.[.[.[.[.[.[.[.[.[.[.[.[.[.[.}.}. X XoXoXoXoX}.}.{.C.l.W W N ! Z.ZXk.xXD.I sXP.2 3 U n.1X].].[.[.[.[.[.[.[.[.[.[.[.[.",
"[.[.OX[.[.[.[.[.[.[.[.[.[.[.[.[.].]. X XoXoX[.[.].{.C.lXv.: f g.l 0XzX}.bXgXfXxXMXc V.9 j.%XXX}.[.[.[.[.[.[.[.[.[.[.[.[.",
"[.[.[.[.[.[.[.[.[.[.[.[.[.[.[.[.}.}.}.[.[. X}.].{.XXn.N ^ H.M.0Xb.b.(.jXjXjXkXfXfXsXCXY j.,XXX X[.[.[.[.[.[.[.[.[.[.[.[.",
"[.[.[.[.[.[.[.[.}.[.[.[.[.[.[.}.{.}.}.}.}..X}.}.[.}.m.H j aX).b.qX2XoX3XoX3XfXkXcXcXD.9 l.:X X]. X[.[.[.[.[.[.[.[.[.[.[.",
"[.[.[.[.[.[.[.[.[.[.[.OX[.[.[.}.}.].].[.XX X]. X[.[.&XY.w.H ~.2X5X-XzX].~.3XkXbXkXbXvXsX( n. X@X[.[.[.[.[.[.[.[.[.[.[.[.",
"[.[.[.[.[.[.[.[.[.[.[.[.[.[.[.}.}.{.[.[.[.[.[.oXoX[.|.9Xx.l ).wXY.0.z./ b.<XgXbXgXdXZXdX..m.[.[.OX[.[.[.[.[.[.[.[.[.[.[.",
"[.[.[.[.[.[.[.[.[.[.[.[.[.[.[.[.{.}.[.oX[.oX X|. X;XU.c.#.j 0.tXB - q 3 / S...ZXdXvXdXY n.1XOX[.[.[.[.[.[.[.[.[.OX[.[.[.",
"[.[.[.OX[.[.[.[.[.[.[.[.[.[.[.[.[./.oXoXoX[. XA.I.c.#.q @ O & T @ 5 y i } E I nXnXKXP c.8X^.[.}.[.[.[.[.[.[.[.[.[.[.[.[.",
"[.[.[.[.[.[.[.[.[.[.[.[.[.[.[.[.@X[.[.oXoXXX&XI.#.9 1 $ . .     @ 6 O 1 u ; - ] mXJXn c.%X}.{.}.}.[.[.[.[.[.[.[.[.[.[.[.",
"[.[.[.[.[.[.[.[.[.[.[.[.[.[.[.[.oXoX[.].}.$XB.o.w # . $ $ .   4 E j ) L : ] t % { [ Q M. XoX]..X}.[.[.[.[.[.[.[.[.[.[.[.",
"[.[.[.[.[.[.[.[.[.[.[.[.[.[.[.OXOX]..X%X,XZ.^ = @ . O 1 O = 4 E MXMX0XuXrXFX*.%.=.- v.,X}.}.}.}.}.[.[.[.[.[.[.[.[.[.[.[.",
"[.[.[.[.[.[.[.[.[.[.[.[.[.[.[.OXoX[..Xl.M.z.- 1 w 9 P Y P c rX~ VXVXG.tXJXPX&.*.iXf j.>X].[.].{.[.[.[.[.[.[.OX[.[.[.[.[.",
"OX[.[.[.[.[.[.[.[.[.[.[.[.[.[.[.[.].,Xg./ ^ o 4 Y tXtX!.o.U F._ E.I.t.G.tXJXyXFX_ W m. X].}.[.}.}.[.[.[.[.[.[.[.[.[.[.[.",
"[.[.[.[.[.[.[.[.[.[.[.[.[.[.[.[.[.OX].;Xk.h U X.!.J.!.Y 3 [ o & v N W.NXG.HXPXPXQ M.-X_.@X/.[.OX[.[.[.[.[.[.[.[.}.OX[.[.",
"[.[.[.[.[.[.[.[.[.[.[.[.[.[.[.[.[.}.oX;Xg...I.z.^ 2 ' X o   + 6 >.h D E.GXHXKXtX! m. XoX@XoX[.[.[.[.[.[.[.[.[.[.[.[.[.[.",
"[.[.[.[.[.[.[.[.[.[.[.[.[.[.[.[.[.oXoXoX|.8Xj., o X @ $ . $ # y - C & T @.@.#.M S.%X}.].[.].}.[.[.[.[.[.[.[.[.[.[.[.[.[.",
"[.[.[.[.[.[.[.[.[.[.[.[.[.[.[.[.[.].[.-X^.A.E.'   e a ;.p d e $ 0 X + + X X v W.&X].}.#X}.[.}.].}.[.[.[.[.[.[.[.[.[.[.[.",
"[.[.[.[.[.[.}.[.[.[.[.[.[.[.[.[.}.}. X/./.9Xz.X 0 # y 3.3.=.p a $ % 5 i 5 ; K.I.=X].{.{.].].@X X[.[.[.[.[.[.[.[.[.[.[.[.",
"[.[.[.[.[.[.OX[.[.[.[.[.[.[.[.[.}.}.}.|.*XI.E O i =.p p <.$.<.3.a y 8 4.y q = I.A.}.{.C.oX[.[.[.[.[.[.[.[.[.[.[.[.[.[.[.",
"[.[.[.[.[.[.[.[.[.[.[.OX[.[.[.[.OX}.}.C.I.^ O q s s $.e p =.4.4.3.=.p AXy =.4 #.C.}.{.].+X/.@X[.[.[.[.[.[.[.}.[.[.[.[.[.",
"[.[.[.[.}.OX[.[.[.[.[.[.[.[.[.[.[.}.XXU.^ O y a a r $ # y s &.3.3.<.y AX$ 2.[ : n.].}.OX+X/.@X].[.[.[.[.[.[.[.[.[.[.[.[.",
"[.[.[.[.[.[.[.[.[.[.[.[.[.[.[.oXoX XU.Y X y =.a 5 ; o o ; r s =.=. .p SX# { - : M.<X[.]./.[.}.}.}.[.[.[.[.[.[.[.[.[.[.[.",
"[.[.[.[.[.[.[.[.[.[.[.[.[.[.[.[.oX%X( = 0 p 0 # . X < < k k - O   0 1.i o * R > M.XX].].@XOX^.}.[.[.[.[.[.[.[.[.[.[.[.[.",
"[.[.[.[.[.[.[.[.[.[.[.[.[.[.[.[.[.*X^ X i ;.,. .8 X : A _ K 0.( P q 1.0 Q r.) f M.&X%X@X@X/.[.}.}.[.[.[.[.[.[.[.[.[.[.[.",
"[.[.[.[.[.[.[.[.[.[.[.[.[.[.[.[.[.:X^ o u =.,.,.a 6 * x J q.N.pXrX9 2.T aX0X_ > : v.$X X/.@X+X].[.[.[.[.[.[.OX[.[.[.[.[.",
"[.[.[.[.[.[.[.[.[.[.[.[.[.[.[.[.].>X( * 1 =.;.6 4 7 - : F 7.q.L.G.3 { ] G.L.) - = #.8X].}.[.[.[.[.[.[.[.[.[.[.[.[.[.[.[.",
"[.OX[.[.[.[.[.[.[.[.[.[.[.[.[.}.{.|.0X^ O y q 4 +.rX@.- K 9.8.8.t.R O.T 9.F * ; q 2 v.$X.XXX}.OX[.[.[.[.[.[.[.[.[.[.OX[.",
"[.[.[.[.[.[.[.[.[.[.[.[.[.[.[.[.[.].XXR.E = 2 K.GXrXm V g r.p.d.G.R ,.T s.D o r &.O.c B.T.C.XX}.}.[.[.[.[.[.[.[.[.[.[.OX",
"[.[.[.[.[.[.[.[.[.[.[.[.OX[.[.[.[.OX].$X..& ! mXBXnXJXrX: _ r.L.| m 5.q ) A + r ] 4 K.N x.A.].}.[.[.[.[.[.[.[.[.[.[.[.[.",
"[.[.[.[.[.[.[.[.[.[.[.[.[.[.[.[.oXOX]..X8X/ : rXGXNXuXE & ] +.| [ 1 1.% u & % $ 2 @.BXNXQ x.>X].}.[.[.[.[.[.[.[.[.[.[.[.",
"[.[.[.[.[.[.[.[.[.[.[.[.[.[.[.}.[.[.}. X).9X` * K.LXrX& & 6 # y q O y   5 + X O P NXG.tXNXQ j.1X[.[.[.[.[.[.[.[.[.[.[.[.",
"[.[.[.[.}.[.[.[.[.[.[.[.[.[.[.[.}.}. X}./.=XR.` * R Z h & & & o & & o o * & & & : NXF.uXX.w.=X}.[.[.}.}.[.[.[.[.[.[. X}.",
"[.[.[.[.[.[.[.[.[.[.[.[.[.[.[.[.}.].}.}./.0Xx.j j g g S H N V Z h j f l l V ) ` z.H g M w.E.|.XX[.[.[.[.[.[.[.[.[.[.[.[.",
"[.[.[.[.[.[.[.[.[.[.[.[.[.[.[.[. XOX]. X=X0X` > N H 0.a.a.p.L.a.J r.J t.y.p.7.q.0.H H > J.9X|.].[.[.[.[.[.[.[.[.[.[.[.[.",
"[.[.[.[.OX[.[.[.[.[.[.OX[.[.[.[.[.[.[.}.@Xj.M j D 6.q.`.'.f.8.8.7.d.9.y.L.y.8.y.u.u.t.~ N n.>X XOX}.[.[.[.[.[.[.[.[.[.[.",
"[.[.[.[.[.[.[.[.[.[.[.[.[.[.[.oXoX[.[.].;Xw.> G 7.i.5X2XqX_.y.7.r._ g g z J p.'.5X-X-XN.H G m. X}.[.[.[.OX}.].oX[.[.[.[.",
"[.[.[.[.[.[.[.[.OX[.[.].[.[.[.[.[.[.oX].>Xg.> r.i._.4X4X6X`.q.l g f * C Z 9.8.`.`.7X6X<XN.l j.9XXX[.[.[.[.].[.[.[.[.[.[.",
"[.[.[.[.[.[.[.[.[.}.].}.[.[.[.[.{.].@X+Xj.G S q.`.@X4X3X).0.z g.e.g.h.h g _ 7.y.f.wX7X6X6Xu.K v.%X].OX/.[.[.[.[.[.[.[.[.",
"[.[.[.[.[.[.[.[.}.}.[.oXOX[.[.}. XXX[.9X` f 0.b.5X7XhX+X7.D x.T.:X:XA.j./ l F F 8.y.u.6XqX).l h.*X].[.[.oX[.[.[.[.[.[.[.",
"[.[.[.[.[.[.[.OX[.[.[.oX}.[.[.]. X:Xj.~ G D q._.7X7X2X~.l f 9X|.].|..X$X0Xw.f D D 6.q.(._.u.g h.8X[.[.].OX[.[.[.[.[.[.[.",
"[.[.[.[.[.[.[.}.[.[.[.].].[.oX X;Xx.j f l 9.b.5X4X7X5X7.M j.=X[.@X[.].{.|.&Xz.l D F y.y.y.0.f z.*XOX[./.}.[.[.[.[.[.[.[.",
"[.[.[.[.[.[.[.[.[.[.[.}.[.XXOX=Xv.N g S 6.y._.7X7X6Xe.D w.8X X].[.[.].}.].^.*Xw.g l F J 7.r.j ! m.+X]. X].[.}.[.[.[.[.[.",
"[.[.[.OX[.[.[.[.[.[.}.}. XXXC.M., v L D F 8.i.5X).j.l N 9X|. XXX@X}.}.{.[.@X].8Xj g S L 9.K f * e.XX X[.}.[.}.}.[.[.[.OX",
"}.}.[.[.[.[.oX[.[.].XX|. X0Xc.2 O m K F D F 6.q.0.x j g.$X X@X]. X X[.[.[.[..XA.g f A A L x | > e.%XXX{.].{.{.}.[.oXoX[.",
"}.}.[.[.[.[.[.[.oX[. X|.*Xh.3   q T S 9.s.9.L z f l g.S.XX+X}. X[.[.[.[.[.[.}.=X( M k Z Z Z +.2 h.:X].[.].}.{.].[.oXoXoX",
"[.[.[.}.].}.[.[.].+X].|.9XU 4 X eXuXV _ G.r.g S ~ e.*X.X].}.].@XoXoX}.{.}.}.}.C.Q.2 = 6 ; @ 5   k.A..XOXoXoX[.oX[.oX[.[.",
"[.[.[.}.}.}. X}.[./.oX Xc.4 1 6 [ eXT > z G W w.8X%X X}.{.{.XX[.oX[.}.].}.[.[..XI.3 = 8 @ 8 a q P I.8XXX/.oXoX@X[.}.}.}.",
"[.[.}.}.}.}.].[.oXoX@X>XI X = u u y ; o , g.9X<X.XXX].OX[.].OX[.[.}. X.X XoXoX[.U.c q 8 # s y u = U X.M.%XoXoX[. X X|. X",
"[.].}.[.}.}.[.[.[.@X}.M.P @ @ . $.:.6 - z.Q.C.}.}.[.[.OX].}.].oX[.{.|.|. X[.oX XU.3   $ % % y a ; X - I M.;X}.[.}.].|.|.",
" X}.[.oXoX[. X X.XC.J.3 O y p a #   X E R.C.}.oX[.}.{.{..X}.}.[.[.}. X X X@XoX XZ.P 0 y a p =.;.-.>.[ 9 ^ M.$X}.}.}.}.].",
"|.}.[.oXoX[.}..X|.9Xn o 0 =.AX3.1.>.O Y T.}.oXoX[. X}.].XX}.[.OX}.}.}. X[.oX[. XR.3   = i 1 u q O.rXO.E I W *X].[.}.}.}.",
"].].[.oXoX[.[.{.$Xv.P ] 2.FXFX,.2.mX0 U 8X/.oXoXoXoXoX/. X X[.[.}.]. X[.[.[.@X].S.Q v P n v n n B v n c n g.%X[.oXoX[.].",
" X}.[.oXoXoX[. XA.M P T [ @.E o.+.- & h.*X[.oXoX@XoXoX@X@X X[. X X}.[.[.{.}.}.}.XXA.T.R.A.T.8XT.:XT.R.Q.A.&XXX[.oXoXoX@X",
" X[.[.[.[.OXoX[.&X/ v n n v M v n h g.$X.X}.[.@X.X.X].oXoXoX[.[.[.[.[. X}.}.[.[. X|.|.C.|.}. X].]. X|.|.XX].].OX[.[.[.oX",
"[.[.[.[.[.oX@XoXA.U.Q.R.R.E.W.R.R.T.%X].}.OX].].|.C.{.[.oXoX[.[.[.[.[.}.{.{.[.oXOX}.|.XXoX X/.[.oX1X[.].[.oX[.OX[.[.oXoX"
};
