/* XPM */
static char *_5628_b3b125be90ad962efe6d8641c7d8941c330b154397906ee14e817963502f4077[] = {
/* columns rows colors chars-per-pixel */
"60 60 256 2 ",
"   c #0C0300",
".  c #090A0A",
"X  c #150201",
"o  c #1C0200",
"O  c #1A0A01",
"+  c #160908",
"@  c #0A1305",
"#  c #191609",
"$  c #181717",
"%  c #120A13",
"&  c #240300",
"*  c #2B0200",
"=  c #230C00",
"-  c #2B0C01",
";  c #260E0A",
":  c #330200",
">  c #3C0100",
",  c #340D01",
"<  c #3B0B02",
"1  c #360C0A",
"2  c #24140B",
"3  c #281706",
"4  c #331201",
"5  c #3C1101",
"6  c #371A05",
"7  c #271A16",
"8  c #351B15",
"9  c #250C10",
"0  c #0F2913",
"q  c #28231B",
"w  c #352619",
"e  c #33260B",
"r  c #130B2C",
"t  c #1C2223",
"y  c #1F2A2E",
"u  c #2B2323",
"i  c #272928",
"p  c #362926",
"a  c #35352A",
"s  c #292E33",
"d  c #393838",
"f  c #312E33",
"g  c #440200",
"h  c #4A0100",
"j  c #4B0B01",
"k  c #440E02",
"l  c #540300",
"z  c #5D0401",
"x  c #530B01",
"c  c #5B0B00",
"v  c #590F0C",
"b  c #451201",
"n  c #451A02",
"m  c #4A1706",
"M  c #541400",
"N  c #5B1501",
"B  c #551C01",
"V  c #591D03",
"C  c #4C1B16",
"Z  c #6B0200",
"A  c #620A01",
"S  c #650501",
"D  c #720400",
"F  c #790C00",
"G  c #631C01",
"H  c #6A1703",
"J  c #781806",
"K  c #6D1A14",
"L  c #482405",
"P  c #542200",
"I  c #5D2201",
"U  c #572A01",
"Y  c #432818",
"T  c #5B2A18",
"R  c #4C351B",
"E  c #5B360E",
"W  c #632500",
"Q  c #6A2501",
"!  c #632B01",
"~  c #69280B",
"^  c #732400",
"/  c #742B01",
"(  c #7A2505",
")  c #6C3300",
"_  c #673605",
"`  c #773804",
"'  c #693C16",
"]  c #6E2D14",
"[  c #432A27",
"{  c #433A38",
"}  c #503428",
"|  c #71392C",
" . c #214A1E",
".. c #2C5528",
"X. c #734001",
"o. c #7A490E",
"O. c #794911",
"+. c #6A420B",
"@. c #41433F",
"#. c #564639",
"$. c #7E4823",
"%. c #664833",
"&. c #6E4A29",
"*. c #7E603A",
"=. c #3D3B41",
"-. c #35285E",
";. c #42275E",
":. c #482D64",
">. c #3C4242",
",. c #494747",
"<. c #504C4C",
"1. c #51524F",
"2. c #585755",
"3. c #4B4E57",
"4. c #6A5749",
"5. c #7B584C",
"6. c #68625B",
"7. c #6D6857",
"8. c #654D63",
"9. c #5E6366",
"0. c #636363",
"q. c #6B6A67",
"w. c #746C62",
"e. c #757678",
"r. c #72716B",
"t. c #860B00",
"y. c #841400",
"u. c #891903",
"i. c #991D00",
"p. c #842604",
"a. c #972703",
"s. c #8D3C01",
"d. c #843701",
"f. c #983606",
"g. c #8C3118",
"h. c #A62506",
"j. c #AC3300",
"k. c #AA3903",
"l. c #B73908",
"z. c #AA3817",
"x. c #903823",
"c. c #894505",
"v. c #974904",
"b. c #895401",
"n. c #99580A",
"m. c #874917",
"M. c #9B5617",
"N. c #8C4B18",
"B. c #B84600",
"V. c #A75708",
"C. c #B55A05",
"Z. c #BC4417",
"A. c #A45C14",
"S. c #A75A17",
"D. c #B75D16",
"F. c #A7470E",
"G. c #9C610C",
"H. c #BD6402",
"J. c #BC6707",
"K. c #AA6114",
"L. c #A9631A",
"P. c #B4621C",
"I. c #BC6B1B",
"U. c #B86716",
"Y. c #BC731B",
"T. c #A96B0D",
"R. c #8B422B",
"E. c #8B5724",
"W. c #95582F",
"Q. c #AF5729",
"!. c #9A662D",
"~. c #966535",
"^. c #AA6829",
"/. c #BA6C23",
"(. c #B56A27",
"). c #B97327",
"_. c #B36D34",
"`. c #C55F02",
"'. c #CB5D01",
"]. c #CA5808",
"[. c #C44815",
"{. c #C75519",
"}. c #D75718",
"|. c #CB4F06",
" X c #C56402",
".X c #CC6601",
"XX c #C56A02",
"oX c #CB6902",
"OX c #C4650B",
"+X c #CA650A",
"@X c #C46A0B",
"#X c #CB6A0B",
"$X c #D26402",
"%X c #D26A03",
"&X c #D2640B",
"*X c #D26B0A",
"=X c #D86704",
"-X c #C97408",
";X c #C26613",
":X c #C56C13",
">X c #CB6D13",
",X c #C16D1B",
"<X c #CC6713",
"1X c #D86816",
"2X c #CC7314",
"3X c #CB721C",
"4X c #C77318",
"5X c #D27217",
"6X c #E77608",
"7X c #EC7918",
"8X c #F67816",
"9X c #EA6D0C",
"0X c #C96E23",
"qX c #C3722B",
"wX c #C87425",
"eX c #D27626",
"rX c #CE7232",
"tX c #F67B27",
"yX c #EB7830",
"uX c #C65E2B",
"iX c #94674C",
"pX c #A57248",
"aX c #AE7456",
"sX c #8A7574",
"dX c #AC7364",
"fX c #8B5B45",
"gX c #CD7C63",
"hX c #BD8403",
"jX c #DA9808",
"kX c #D08C06",
"lX c #EC9309",
"zX c #EAA810",
"xX c #D39231",
"cX c #F1832A",
"vX c #D7AA31",
"bX c #F3B12E",
"nX c #FFC929",
"mX c #B58258",
"MX c #B7846F",
"NX c #CE8952",
"BX c #D09572",
"VX c #EDB16D",
"CX c #E9A348",
"ZX c #FFCD50",
"AX c #F7C36F",
"SX c #8F6887",
"DX c #AB9389",
"FX c #A7A295",
"GX c #9FA09A",
"HX c #D69F80",
"JX c #D6A786",
"KX c #EFB590",
"LX c #FCC9AC",
"PX c #F3CCB7",
"IX c #FFC695",
"UX c #F4D3CB",
/* pixels */
".X.X.X.X.X.X.X.X.X.X.X.X.X.X.X.X$X$X$X.X.XoXXXXXXXH.+XoX&X$X.X.X$X&X#XJ.2XJ..X'.+X>X+X.X%X$X.X.X.X.X.X.X.X.X.X.X.X.X.X.X",
".X.X.X.X.X.X.X.X.X.X.X.X.X.X.X.X$X$X.X.X.X.XoXXXXXXX&X'.&XoX#X X+X>Xd.Y.c.Y.>XeXwXs.C.+X.X.X.X%X.X.X.X.X.X.X.X.X.X.X.X.X",
".X.X.X.X.X.X.X.X.X.X.X.X.X.X.XoX.X.XoXXX&X&X$X.XXX%X.X$X#XC.c.qXY.` o.X.U X.).) _ * Q.eXXX.XXXXX.X.X.X.X.X.X.X.X.X.XoX.X",
".X.X.X.X.X.X.X.X.X.X.X.X.X.X.XoXoXoXXX.X].&X$X$X.X%X+X`.3XV.< X.` c.AX_ vX` _ b.E * Q c.C..X+XoX.X.X.X.X.X.X.XoX.X.X.X.X",
".X.X.X.X.X.X.X.X.X.X.X.X.X.X.XoX.X.X.X.X+X$X$X$X.X.X:XwX(.Q 5 _ g rXCX#XZXjXb.bXvXd.X.b n.#XOX.XoX.X.X.X.X.X.X.X.X.X.X.X",
".X.X.X.X.X.X.X.X.X.X.X.X.X.X.X.X.XoX.X$X.X.X.X$X%X@XC.v.` V X.VXd.k.9XlXzXjXnXkXXXbXVXP v.3XXX+X.X.X.X.X.X.X.X.X.X.X.X.X",
".X.X.X.X.X.X.X.X.X.X.X.X.X.X.X.XoXoX.X.X.XoX.X.X'.oXV.h c NXJ.+X7X'.|.6X6X6XkXjXzXnXb.) b.K.XX.X.X.X.X.X.X.X.X.X.X.X.X.X",
".X.X.X.X.X.X.X.X.X.X.X.X.X.X.XoXXX.X.X.XXXXX.X.X$X$X:XP.G f.1X].cX5XcX1X`.6XbXnXnXzXhXZX! c.2X.X.X.X.X.X.X.X.X.X.X.X.X.X",
".X.X.X.X.X.XoX.X.X.X.X.X.X.X.X.X X.X XXXXXXX@XXX$X=X#XY.M.h Z.yXQ.m.~.m.f.).vXnXkXvXZXT.I V.&X$X.X.X.X.X.X.X.X.X.X.X.X.X",
".X.X.X.X.X.X.X.X.X.X.X.X.X.X.X.XoX+X+XXXXXXX@X+X$X$XJ.).E.k x.~ * 4 n n m O.E vXxXxXT.U n.:X.X$X$X.X.X.X.X.X.X.X.X.X.X.X",
".X.X.X.X.X.X.X.X.X.X.X.X.X.X.X.X.X$X$X+XXXXXoX.X%XOXY.!.*.e X X # O w a { C L ^.~.IXI N.,XoX.X.X.X.X.X.X.X.X.X.X.X.X.X.X",
".X.X.X.X.X.X.X.X.X.X.X.X.X.X.X.X.X$X=X$XoXXX.X.XOXU.E.E R 3 . . 3 w 2 8 { 7 8 | HXLXP m.eX.X.X.X.X.X.X.X.X.X.X.X.X.X.X.X",
".X.X.XoX.X.X.X.X.X.X.X.X.X.X.XoXXXoX$X=X$X&X+X;X).~.R # .     ; 5 k 4 - O $ r r 8.4.B M.<X+X=X$X%X.X.X.X.X.X.X.X.X.X.X.X",
".X.X.X.X.X.X.X.X.X.X.X.X.X.X.XoXXX.X$X$X$X<X;X(.E.E # #   @ ; T NX(.!.aX%.SX-.r =.X E.wXOXoX=X'..X.X.X.X.X.X.X.X.X.X.X.X",
".X.X.X.X.X.X.X.X.X.X.X%X.X.X.XoXXXXX$X$X#XI.!.~.R q @ $ @ 3 E.~ VXVX_.BXJXUX;.;.sXk V.XXXX.X.X.X.X.X.X.X.X.X.X.X.X.X.X.X",
".X.X.X.X.X.X.X.X.X.X.XoX.X.X.X.X.X.XoXXXK.b.+.R q # 0 0 a e iX` NXqXp.g.HXPX8.sX| l C..XXXXXXX%X.X.X.X.X.X.X.X.X.X.X.X.X",
".X.X.X.X.X.X.X.X.X.X.X.X.X.X.X.X.X.X X:Xc.* O   # $  . .# %.O & k ~ _.BXN.JXUXPX' Q.+X$XXXXX.X$X%X.X.X.X.X.X.X.X.X.X.X.X",
".X.X.X.X.X.X.X.X.X.X.X.X.X.X.X.X$X$X.X@XY.` * = - 0 .. .@ O   7 fX> ] pXHXLXPXJXQ V.>X.XH.XX%X$X$X.X.X.X.X.X.X.X.X.X.X.X",
".X.X.X.X.XoX.X.X.X.X.X.X.X.X.X.X$X$XXXXX>XU.U.^.!.&.@ @   % $ u 9 [ * R iXdXpXM M.;X*X.XXXXX#X.X.X.X.X.X.X.X.X.X.X.X.X.X",
".X.X.X.X.X.X.X.X.X.X.X.X.X.X.X.X.X.X.X.X X`.+XqXN.- # q a t $ 7 8 + X o 1 : k M.,X@X+X XoXXX X#X.X.X.X.X.X.X.X.X.X.X.X.X",
".X.X.X.X.X.X.X.X.X.X.X.X.X.X.XoX+X+X%X.X`.2X/.N.- # a e.0.>.i i $ @   X X & E.).H..X.XoXoX.XoXXXoX.X.X.X.X.X.X.X.X.X.X.X",
".X.X.X.X.X.X.X.X.X.X.X.X.X.X.XoX XoX.X.X:X/.m.& w a s 9.0.1.q.,.i q 7 u . 8 n M.@XoX.X'.&X$XoXoXoX.X.X.X.X.X.X.X.X.X.X.X",
".X.X.X.X.X.X.X.X.X.X.X.X.X.X.X.X*X.X.X#XY.o.4 3 u >.>.s 1.3.e.e.q.d i 2.% =.w < V.oX%X$X&X]..X.XoX.X.X.X.X.X.X.X.X.X.X.X",
".X%XoX.X.X.X.X.X.X.X.X.X.X.X.X.X.X%XC.,Xo.3 = u t y y t a ,.2.e.e.>.i GXt 9.,.- A.oX$X$X&X&X.X.X.X.X.X.X.X.X.X.X.X.X.X.X",
".X.X.X.X.X.X.X.X.X.X.X.X.X.X.X.XoX XY.m.& # { { t $ t $ u a <.3.3.s i GX$ >.d = n.#X.X$X.X.XoXoXoX.X.X.X.X.X.XoX.X.X.X.X",
".X.X.X.X.X.X.X.X.X.X.X.X.X.X.XoX+XeXc.- # a d i $ $ % o ; p p d s t t GX7 i % & K.-X.X$X.XoXXX.X.X.X.X.X.X.X.X.X.X.X.X.X",
".X.X.X.X.X.X.X.X.X.X.X.X.X.X.X+X;X` 4 w 2.6.@.a . % & 1 1 1 1 X # i 0.{ o - C : n.J. X.X#XoX.XXX.X.X.X.X.X.X.X.X.X.X.X.X",
".X.X.X.X.X.X.X.X.X.X.X.X.X.X.X#XeX`   =.2.9.0.{ t   1 m v K T n = q r.2 m v iXx S.wXXX.X.X+X&XoX.X.X.X.X.X.X.X.X.X.X.X.X",
".X.X.X.X.X.X.X.X.X.X.X.X.X.X.X X:X/ o p d 0.q.u 7 + & v l J F.uXW.6 r.Y _.rXR.> B A.oX%X`.%X+X'..X.X.X.X.X.X.X.X.X.X.X.X",
".X.X.X.X.X.X.X.X.X.X.X.X.X.X.X.X#XK.m = u a p ; [ fX| > S y.j.uXW.n w.R Q.uX~ : & !.:X.X*X X.X=X.X.X.X.X.X.X.X.X.X.X.X.X",
".X.X.X.X.X.X.X.X.X.X.X.X.X.X.XXXXX4X(.n X 2 - &.BXmXm x S z.h.l.N.k #.Y J p.m = = 6 (.@X XoX.X X.X.XoX.X.X.X.X.X.X.X.X.X",
".X.X.X.X.X.X.X.X.X.X.X.X.X.X.X.XXXH.:XL.P & T dXVXpXdXdXh x.[.[.R.m 4.C x.K o 2 q Y P P.2XH.oX.X.X.X.X.X.X.X.X.X.X.X.X.X",
"oX.X.X.X.X.X.X.X.X.X.X.X.X.X.XoX.XoXXX,XL.V j aXVXaXHXMX& K f.Q.x.C w.[ | A & 9 q w &.V V.2XXX.X.X.X.X.X.X.X XoXoX$X.X.X",
".X.X.X.X.X.X.X.X.X.X.X.X.X.X.X.X%X XoX X,XD.G ~ KXLXdXm 1 5 ~ x.} 8 2.w C C X $ 7 6 iXpX! G.5X'.%X.X.X.X.X.XXX.XoX+X.X.X",
".X.X.X.X.X.X.X.X.X.X.X.X.X.X.X.X X.XXXXX#X>X(.) ' iX} O 9 9 8 p 7 7 u $ 7 7 % 9 C K NXdXiX) V.*X.X.X.X.X.X.X.X.X.X.X.X.X",
".X.X.X.X.X.X.X.X.X.X.X.X.X.X.X.X.XoXXX+X'.+XS.I & * , : : * X O O + o + % + X & h J gXx.$.` C.&X.X.X.X.X.X.XoXoX.X.X.X.X",
".X.X.X.X.X.X.X%XoX.X.X.X.X.X.X.XoX.XXX+X&XeX` : G A Z u.g.u.J c g > g 1 : g h K H z R.V N P.>X.X%X.X.X$X.X.X.X.X.X.X.X.X",
".X.XoX.X.X.X.X.X%X.X.X.X.X.X.XoX'.oX X>X].qX$.: A F t.i.[.{.z.y.S K z v z H u.f.v.S x / D.:X.X%X.X.X.X.X.X.X.X.X.X.X.X.X",
".X.X.X.X.X.X.X.X.X.X.X.X.X.X.X.X=X.X&X<X+XD.W g u.z.B.B.9XtX{.h.F g.F g.a.a.l.B.l.k.( s./.J.XX.X.X.X.X.X.XoX.X.X.X.X.X.X",
".X.X.X.X.X.X.X.X.X.X.X.X.X.X.X.X$X$X&X].eXs.> H a.[.cX8X6X].{.f.H g.K u.a.z.1XyXtX1X{.p.p.I.+X.X.X%X.X.X.X.X.X.X.X.X.X.X",
".X.X.X.X.X.X.X.X.X.X.X.X.X.X.X.X.X.X%X+XS.Q z y.j.9X9X8X7XB.J x g > > h z J k.}.tX8XtX<X( s.C.&XoX.X.X.X.X.X.X.X.X.X.X.X",
".X.X.X.X.X.X.X.X.X.X.X.X.X.X.X.XoX X'.3X` g t.a.|.8X8X8X1XU.c G G V I V N p.J k.}.9X7XtXP.l F.5X+X.X.X.X.X.XoX.X.X.X.X.X",
".X.X.X.X.X.X.X.X.X.X.X.X.X.X.XoX#X@X>X(.~ h y.j.=X6X8X&Xs.l / 0X0XwXL.I V M J F h.h.}.9X{.J / P.@X XoX.XoXXX.X.X.X.X.X.X",
".X.X.X.X.X.X.X.X.X.X.X.X.X.XoXoXJ.I.D.H h H h.}.tX7X1Xa.H ^ 0XH..XXXJ.Y.(.Q l S D h.l.l.j.a.g c.>XXX+X XoX.X.X$X.X.X.X.X",
".X.X.X.X.X.X.X.X.X.X.X.X.X.X.X#X2XD.^ h S F i.}.tXtX{.D A qX;X#X X.XoXXXXXI.A z K h.l.[.u.J h m.0XoXoX.XoXXX.X.X%X.X.X.X",
".X.X.X.X.X.X.X.X.X.X.X.X.X.X.X@XP.G h z S D i.[.1X|.a.l ^ I.@X XXX X%X.XXX#XqXG l Z t.t.u.p.x ' U.oX X+X&X.X.X.X.X.X.X$X",
".X.X.X.X.X.X.X.X.X.X.X.X.X.X.X:XQ x K Z Z Z F u.u.p.A / 0XOX.X*X&X.X.X XoXoX{.(.h x D u.u.J j * v.#X XXXoX+X.X.X.X.X.X.X",
"oX.X.X.X.X.X.X.X.X.X.X.X.X.X:X).V x J Z D D D u.p.z ^ qXOXoX.X.X.X&X+X%X.X.XoX/.j g A K J c C : s.2XXX+X.X.X.X.X%X$X.X.X",
"oXoX.X.X.X.X.X.X$X$X$X&X.X@X^.P < V H D u.u.D D c ^ 0XOX+X&X.XXX.X.X$X.X.XXX X;XG g m k C < 5.n d.2X`.+X.X X$X.X$X$X.X.X",
"XXoXoX.X$X.XoX.X.X$X&X X>XL.U o &.fXj x.Q.a.J A / qXOX.X$X.XoXXX.X.X.X.XoXoX#X;X_.b 1 [ 8 8 ; o n.U.XX.XoX%X.X$X$X$X$X.X",
".X.X.X.XoX.XoX.X X*X X:X(.P 3 O 4.DX} < K c h ~ I.:X X=X'.$XXXXXXX.X.X.X.X.X X;X_.b O + . # } 6 ' _.:XXX$X&X+X.X.X.X.X$X",
".X.X.X.X.X.XoXOXOX;X XwXU X # a q 2 9 o * ` ).U.@XH.*X.X$X.X.XXXXX.X.X.X.X.X$X<X(.b [ f t ;.f w & ' ^.I.<X+X XoX.X.X.X.X",
" XoX$X.X.X.X.X+X>XOX;X(.L X # # <.2.p o Q /.:XoX.X%X.X X%X.X.X.X.X.X$X+XoX$X$X+X(.< O @ . @ s p 2 o * ` /.J.@XXX+XoXoXoX",
"+XoX$X$X.X.X.X+X X:XY.B 4 w i q @ #   T rX:XoX.X%X'..XoXoX&X`.oX.X.X.X.X+X.X$XOX(.n 3 s y i ;.<.[ } w , ` Y.H.oX X.XXXoX",
"XXoX.X$X$X%X$X.XXXwXQ & O p r.r.4.w X ! wX XoXXXXXoXXXXX.X'.&X%X.X.X$X+X.X.X.XOX)., e q @.s d ,.4.DX4.#._ ` 2XXX.XoXOX+X",
"XXoX.X.X$X$X.X+X@XP.L 4 4.FXFX7.w.FXY ! 2X.XXX@X+XXXXX+X.X=XoX'..X.X.X.X.X.X.X@XU.B & = = # O 4 < n , , : ` 2X.X%X.X+XOX",
".X.X.X$X$X+X.XOXY.P L #.6.sX7.2.7.{ X ~ 3X.XXX@X+XXX+X+X$X$X$X.XoX$X$X$X.XoXoXXX XU.L.S.K.A.L.S.S.A.A.L.S.J. X$X.X%X.XoX",
"$X.XoX.X.X&X+XOX,XV * 4 4 - O 4 3 & & ) @X.XXXoXoX+X+X+X$X$X$X.X+X+X$X.X.X.XoXoX+X+X<X#X%X&X#X#X#X2XY.J.XX+X&X$X.X.X.X.X",
"$X$XXXXX+XoX$X$X:XC.V.A.A.S.S.A.V.A.A.D.*X$XoXXXoX.X&X.X$X.XoXXX+X].$X$XoXXXoXXX+X+X+X+X$X$X.X.X.XoXoXoX$X$X+X+XoXoXoXoX",
"$X.XXXXX X.X$X$X+X>X>X#XOX#X>X&X&X*X#XXX.X.XXXXXoX$X.X.X$XoXXXXXoX$X$X.XoXXXXX+X+X+X$X$X$X$X.X X.X.X.X$X$X$X$X+X+X X#X X"
};
