/* XPM */
static char *_9611_a64a238e87b811e0bbb3aab0a333a01a94893aa739a2e3688444ea406c2006dc[] = {
/* columns rows colors chars-per-pixel */
"60 60 256 2 ",
"   c #0B0302",
".  c #080905",
"X  c #140402",
"o  c #1B0301",
"O  c #140B01",
"+  c #1D0C02",
"@  c #150A0A",
"#  c #0D1507",
"$  c #181607",
"%  c #0D0813",
"&  c #130D16",
"*  c #141213",
"=  c #19191A",
"-  c #0F1A16",
";  c #220100",
":  c #2C0200",
">  c #230B01",
",  c #2C0B00",
"<  c #220A0A",
"1  c #340100",
"2  c #3B0200",
"3  c #330C00",
"4  c #3C0B00",
"5  c #3A090B",
"6  c #271306",
"7  c #311301",
"8  c #3A1400",
"9  c #391B04",
"0  c #241C15",
"q  c #291919",
"w  c #361814",
"e  c #290E15",
"r  c #1C2319",
"t  c #26211B",
"y  c #372719",
"u  c #2F260E",
"i  c #191523",
"p  c #2F1F21",
"a  c #1E2623",
"s  c #282827",
"d  c #3A2926",
"f  c #2B3728",
"g  c #33352B",
"h  c #2A2C31",
"j  c #2D3434",
"k  c #383837",
"l  c #3F2E32",
"z  c #450300",
"x  c #4C0200",
"c  c #430D00",
"v  c #4B0C01",
"b  c #540200",
"n  c #5B0400",
"m  c #540B01",
"M  c #5B0C00",
"N  c #451401",
"B  c #4D1300",
"V  c #451B05",
"C  c #5C1401",
"Z  c #5C1B02",
"A  c #541803",
"S  c #451A14",
"D  c #6B0200",
"F  c #630C00",
"G  c #6B0B00",
"H  c #640504",
"J  c #770803",
"K  c #641300",
"L  c #6B1201",
"P  c #6B1B02",
"I  c #651B06",
"U  c #7B1B01",
"Y  c #751805",
"T  c #671A12",
"R  c #452707",
"E  c #582705",
"W  c #462615",
"Q  c #572816",
"!  c #57330F",
"~  c #642C00",
"^  c #662502",
"/  c #742604",
"(  c #683607",
")  c #733400",
"_  c #7A3703",
"`  c #642914",
"'  c #723315",
"]  c #422D29",
"[  c #5A3627",
"{  c #473935",
"}  c #4E3426",
"|  c #683A26",
" . c #753924",
".. c #75302A",
"X. c #394223",
"o. c #774500",
"O. c #7D4914",
"+. c #48453D",
"@. c #554436",
"#. c #524427",
"$. c #7F4B21",
"%. c #7B5536",
"&. c #765031",
"*. c #5B431D",
"=. c #383E41",
"-. c #1A124C",
";. c #503E4A",
":. c #474848",
">. c #574B49",
",. c #5A5A58",
"<. c #535350",
"1. c #655D58",
"2. c #6D5246",
"3. c #55625C",
"4. c #6C6257",
"5. c #5D6464",
"6. c #696866",
"7. c #777977",
"8. c #6D7271",
"9. c #535A60",
"0. c #831A02",
"q. c #881801",
"w. c #8B1606",
"e. c #872704",
"r. c #9A2803",
"t. c #863902",
"y. c #953904",
"u. c #892617",
"i. c #893916",
"p. c #A63703",
"a. c #B83A03",
"s. c #B73C12",
"d. c #A92E0C",
"f. c #A93A24",
"g. c #C53E0B",
"h. c #C13D16",
"j. c #854707",
"k. c #974805",
"l. c #995407",
"z. c #8B4918",
"x. c #994B14",
"c. c #885217",
"v. c #9A5718",
"b. c #895700",
"n. c #A44C06",
"m. c #B84504",
"M. c #B8590A",
"N. c #A85715",
"B. c #A9540D",
"V. c #9C6D11",
"C. c #AA6E04",
"Z. c #BE6405",
"A. c #BD640D",
"S. c #BD6909",
"D. c #BA7709",
"F. c #AC651B",
"G. c #B66A1E",
"H. c #BC6C1C",
"J. c #BA6715",
"K. c #B07112",
"L. c #875429",
"P. c #975B24",
"I. c #885B35",
"U. c #8C4F34",
"Y. c #A55925",
"T. c #AF5134",
"R. c #966327",
"E. c #966536",
"W. c #A96725",
"Q. c #B56B24",
"!. c #B96D28",
"~. c #BB7126",
"^. c #B87739",
"/. c #A9683B",
"(. c #C94A05",
"). c #C85C04",
"_. c #D55905",
"`. c #CB531A",
"'. c #DC5616",
"]. c #D14C0D",
"[. c #C56402",
"{. c #CC6601",
"}. c #C56A03",
"|. c #CB6902",
" X c #C4650B",
".X c #CC6509",
"XX c #C5690B",
"oX c #CB6B0B",
"OX c #D16401",
"+X c #D26A03",
"@X c #D2640B",
"#X c #D16A0A",
"$X c #D96607",
"%X c #C97308",
"&X c #D97704",
"*X c #C46B13",
"=X c #CB6C14",
"-X c #C36C1C",
";X c #C66A1B",
":X c #DA6B19",
">X c #C2721E",
",X c #C9731B",
"<X c #C77213",
"1X c #D27112",
"2X c #E36C0A",
"3X c #EB6A1B",
"4X c #E97819",
"5X c #F77919",
"6X c #EE760F",
"7X c #C26B21",
"8X c #C37322",
"9X c #CB7323",
"0X c #C6762B",
"qX c #D26C31",
"wX c #E87C27",
"eX c #EE7029",
"rX c #E05B10",
"tX c #875B4A",
"yX c #916F59",
"uX c #B27558",
"iX c #B16F4E",
"pX c #8B736B",
"aX c #A76B6A",
"sX c #CA774F",
"dX c #B19130",
"fX c #DC8A05",
"gX c #C6950C",
"hX c #EB9416",
"jX c #F0B015",
"kX c #C8912A",
"lX c #F7AE30",
"zX c #E49312",
"xX c #FAC92D",
"cX c #F2C416",
"vX c #BC8145",
"bX c #B38C74",
"nX c #B4A07D",
"mX c #DB8142",
"MX c #D79768",
"NX c #D29773",
"BX c #C99274",
"VX c #DBA356",
"CX c #FFC941",
"ZX c #FFE263",
"AX c #F5C062",
"SX c #6C6599",
"DX c #798384",
"FX c #B5A898",
"GX c #A7989C",
"HX c #D9A383",
"JX c #E9B38C",
"KX c #E2A896",
"LX c #FFC680",
"PX c #F5C8B3",
"IX c #FFDDD7",
"UX c #A99FD1",
/* pixels */
"{.{.{.{.{.{.{.{.{.{.{.{.{.{.{.{.+XOXOX{.{.|. XXXoX|.{.OXOX{.+X|.oXZ.<XXX+X_.@XOX).+X{.{.[.}.{.{.{.{.{.{.{.{.{.{.{.{.{.{.",
"{.{.{.{.{.{.{.{.{.{.{.{.{.{.{.|.{.{.{.{..X.X X X[.[.$XOXOX{.[.[.*X8Xl.k.oXOX)..X1X|.|.|.%X|.|.{.{.{.{.{.{.{.{.{.{.{.{.{.",
"{.{.{.{.{.{.{.{.{.{.{.{.{.{.{.{.|.|.|.|._..X|.{.|.|.|.OX[.}.{.<Xl.l.j.I =XoX9XJ.k.*XoX[.|.{.{.+XOX{.{.{.{.{.{.{.{.{.{.{.",
"{.{.{.{.{.{.{.{.{.{.{.{.{.{.{.{.|.}.|.|.@X@XOXOX[.+X[.oX,X,X>XB.o.o.( _ l.S.t.E N ^.7X X.X{.$X{.{.{.{.{.{.{.{.{.{.{.{.{.",
"{.{.{.{.{.{.{.{.{.{.{.{.{.{.{.{.|.{.{.{.OX@XOXOX%XZ.XXn.j.' z.~ kXkXj.gXE _ o.R 8 ' k.;X X{.{.OX{.{.{.{.{.{.{.{.+X{.{.{.",
"{.{.{.{.{.{.{.{.{.{.{.{.{.{.{.{.{.{.OXOX{.OXOXOX}.%X0X/ 1 B v ~ lXfXzXxXC.C.AXV.6 ~ v H. X.X).{.{.{.{.{.{.{.{.{.|.{.{.{.",
"{.{.{.{.{.{.{.{.{.{.{.{.{.{.{.|.|.|.{.OX|.}.|.}.<Xl.j.t.I N.n.e.(.2XhXjXhXlXfXC.C.VXV Q.XX{.+X{.{.{.{.{.{.{.{.{.{.{.{.{.",
"|.{.{.{.{.{.{.{.{.{.{.{.{.{.{.|.[.|.OX{.[.}.|.[.XXt.2 j.sX).).4X(.$X6X2XfXfXjXjXxXo.V G.XX{.|.OX+X{.{.{.{.{.{.{.{.{.{.{.",
"{.{.{.{.{.{.|.{.{.{.{.{.{.{.{.|.oX[.{.|..X|.|.{.[.9Xt./ p.g.2X3XwXwX_.).fXjXxXcXgXC.o.b.S.{.{.{.{.{.{.{.{.{.{.{.{.{.{.{.",
"{.{.{.{.{.{.{.{.{.{.{.{.{.{.{.|. X.X+X{..X)..X|.OX[.0X/ U qXwXM.l.N.p._.hXxXcXgXxXZXdX~ S.[..X|.{.{.{.{.{.{.{.{.{.{.{.{.",
"{.{.{.{.{.{.{.{.{.{.{.{.{.{.{.{.OX{.+X[..X.X+X+X|.}.XXt.Y /.T.~ 8 R ^ Y.F.D.xXD.dXdXA <X[.{..X|.{.{.{.{.{.{.{.{.{.{.{.{.",
"{.{.{.{.{.{.{.{.|.{.{.{.{.{.{.|.{.{.{..XOX{.).[.XXS.>XQ.C E ` o q s 9  .( z.VXkXnX7 ~.oX+X{.[.|.|.{.{.{.{.{.{.{.{.{.{.{.",
"{.{.{.{.{.{.{.{.+X{.{.{.{.{.{.{.|.{.OX$XOX_.OX=X~.R.E.! X   O y p p d ] w W tXKXnX7 K.oXOX{..X[.|.{.{.{.{.{.{.{.{.{.{.{.",
"|.{.{.{.{.{.{.{.{.{.{.{.{.{.{.{.{.{.{.OXOX#XJ.W.&.9 9 +   O < > : : > @ i % w yX&.! H.}.{.OX{.|.|.{.{.{.{.{.{.{.{.{.{.{.",
"+X{.{.{.{.{.{.{.{.{.{.{.{.{.{.{.|.|.{..X<XJ.O.9 u $ # O + 7 $.vXN.!.tX2.SX-.w V V !.*X[.{.{.+XOX{.{.{.{.{.{.{.{.{.{.{.{.",
"{.{.{.{.{.{.{.{.{.{.{.{.{.{.{.|.[..X|.[.D.K.*.# # X.a . [  .R.LXVXqXMXPXUX-.;.L.v ~.XX|..X|.OXOX{.{.{.{.{.{.{.{.{.{.{.{.",
"{.{.{.{.{.{.{.{.{.{.{.{.{.{.{.{.|.}.{.#X~.$.$ f X.r $   %.L.U.MXT.e.Y.PXGX;.aXM I K. X).@X{.OX{.{.{.{.{.{.{.{.|.{.{.{.{.",
"{.{.{.{.{.{.{.{.{.{.{.{.{.{.{.{.}.|.{.Z.W.! $ r f r   { ! : 1 A i.sXsXI.PXIXHX/ G.D.|.+XOX)..X|.{.{.{.+X{.{.{.{.{.{.{.+X",
"{.{.{.{.{.{.{.{.{.{.{.{.{.|.{.{.oX}.Z.G.( $ X.f # . . . X o @. .z U.sXJXPXPXuXI ,X[.|.OX[.|.{.{.{.{.{.{.{.{.{.{.{.{.{.{.",
"{.{.{.{.{.{.{.{.{.{.{.{.{.{.{.{..XoXXX^ 7 @.#.# . . % . & s < S S 1 L.uXuXU.^ W.Z.|.+X|.|.oX{.{.{.{.{.{.{.{.{.{.{.{.{.{.",
"{.{.{.{.{.{.{.{.|.{.{.{.|.{.{.{.{.@X).M.Y.' 6   @ a h h i & s = X o + 6 : Z F. X{.$X|.[.+XOX{.OX{.{.{.{.{.{.{.{.{.{.{.{.",
"{.{.{.{.{.{.{.{.{.{.{.{.{.{.{.{.OXOX.X:X!.( > $ $ :.8.3.:.=.s . # a = O 9 /.H.|.{.{.}.}.OX{.+X|.{.{.{.{.{.{.{.{.{.{.{.{.",
"{.{.{.{.{.{.{.{.{.{.{.{.{.{.{.{.{.|.{.*XQ.E X g g s 5.5.5.3.f a - j k * w ! H.oX X.XoX|.).{.{.}.{.{.{.|.{.{.|.{.{.{.{.{.",
"{.{.{.{.{.{.{.{.{.{.{.{.{.{.{.{.{.{.|.A.iXR 6 f +.g =.:.5.7.8.3.a =.<.s { 7 ^ ;X X[.}.}.OX{.[.}.|.{.{.{.{.{.{.{.{.{.{.{.",
"{.{.{.{.{.{.{.{.{.{.{.{.{.{.{.|.|.[. X8X! + $ s j a i +.>.6.DX8.s ,.7.h 8.y A ~.}.}.|.|..XOX[.|.|.{.{.{.{.{.{.|.{.{.{.{.",
"{.{.{.{.{.{.{.{.{.{.{.{.{.{.|.|.XX;X!.E > t s = - i s d { :.9.=.- 6.8.i ,.9 c ~.S.|..X.X).{.+X|.{.{.{.{.{.{.{.{.|.{.{.{.",
"{.{.{.{.{.{.{.{.{.{.{.{.{.{.{..X*XQ.E 6 0 +.j i % . < q k j j j # 1.7.@ y o C 8X[.[.).@X@XOX+X{.{.{.{.{.{.{.{.{.{.{.{.{.",
"{.{.{.{.|.{.{.{.{.{.{.{.{.{.{.|.;X~ , = k k i % . < 5 5 e < + @ { ,.d o } v C ~.|.|..X.X$XOX_.OX{.{.{.{.{.{.{.{.{.{.{.{.",
"{.{.{.{.{.{.{.{.{.{.{.{.|.{.|.XXH.4 > s 1.<.s % @ 5 T / I C V ; >.,., Z ' M C ^.A.{.+X[.|.|.[.|.{.{.{.{.{.{.{.{.{.{.{.{.",
"{.{.{.{.{.+X{.{.{.{.{.{.{.{.{.XXQ.N + r +.8.>.d e 5 Y 0.r.T.iX| k 2.` sXT.F 2 ( 7X[.|.|.[.|..X|.{.+X{.{.{.{.{.{.{.{.{.{.",
"{.{.{.{.{.{.{.{.{.{.{.{.{.{.|. X~.4 + * s ,.{ q o : C J r.`.qXe.{ 4.' sXT.A X V ~.+X[.{.{.[.+X.X{.{.{.{.{.{.|.{.{.{.{.{.",
"{.{.{.{.{.{.{.{.{.{.{.{.{.{.[.XXJ.c.7 > 0 y 5 | 4.S x u.m.a.g.e.} @.L 0.C 4 6 7 _ ,XXX[.%X|..X|.{.{.{.{.{.{.{.{.|.{.{.{.",
"{.{.{.{.{.{.{.{.{.{.|.|.|.|.{.[.}.8XO.8 , 9 I.HX2.3 B / a.g.h.u.>.>.Y u.2 ; l { R ( 8XXXoX[.|.|.{.{.{.{.{.{.{.{.{.{.+X{.",
"{.+X{.{.{.{.{.{.|.|.|.|.|.[.|.|.[.}.0XN 1  .NXBXiXbXQ 2 y.f.T.Y { >.^  .7 < l ] W ( ) 8XZ.oX[.|.{.{.{.{.{.{.{.|.{.{.{.{.",
"{.{.{.{.{.{.{.{.{.{.{.{.{.{.{.{.+X[.A.y.c ..BXMXNXBXW > S ..%.S t s o w o @ 6 w tXBXi.) H.XX|.{.{.{.{.{.{.{.{.{.{.{.{.{.",
"{.{.{.{.{.{.{.{.{.{.{.{.{.{.{.{.{.{..X9Xz.c iXPXJX' ; 6 e d w O & = X @ @ X X } BXuXbXU._ [.|.{.{.{.{.{.{.{.{.{.{.{.{.{.",
"{.{.{.|.{.{.{.{.{.{.+X{.{.{.{.{..X.XoXA.^.N 9 tXuX^ 2 1 ; @ @ @ X @ o @ < < ; N U. .bXL.t.}.[.+X{.{.{.{.{.{.{.{.{.{.{.{.",
"{.{.{.{.{.{.{.{.{.{.{.{.{.{.{.{.[.|..X*X^.E : 1 x Y Y Y B 3 : ; 3 1 : 4 v ` ` x 1 ^ L.~ >XoX{.{.{.{.{.{.{.{.{.{.{.{.{.{.",
"{.{.{.{.{.{.{.{.OX{.OX{.{.OXOX{.+X{.OX=Xz.z n G r.d.(.`.d.u.n T F F L Y w.d.h.r.M 2 ) 0X XOX).{.{.{.{.{.{.{.{.{.{.{.{.{.",
"{.{.{.{.+X{.{.+X{.{.{.{.{.{.{.{.{.OX$X XB x D r.].].3X3X'.m.J w.u.Y r.r.s.'.].rXN.I l.7X.X.XOX|.+X{.{.{.{.{.{.{.{.{.{.{.",
"|.|.{.{.OX{.{.+X+X{.OX{.{.{.{.+X{.{..X-XZ x w.g._.5X3X'.eXs.D ' ..m ^ e.m.3X5X6XwXm.P k.1X}..X#X.X{.{.{.{.{.{.{.{.{.{.{.",
"|.|.{.{.{.{.{.{.{.+X|.{..X{.{.|..X XZ.N.x L m.].(.3XrX(.p.0.n x 2 1 1 K e.m.6X6X5X4XB.U n.S.[.{.{.{.{.{.{.{.{.{.{.{.{.{.",
"{.[.{.{.{.{.{.{.{.+X|.{.{.|.|.|.|.Z.0XM n 0.p.3X5X2X3X`.0.F I Z P C I C G r.m.3X2X5XwXy.M Q.=X@X{.{.{.{.{.{.{.{.{.{.{.{.",
"|.|.{.{.+X{.{.OX{.{.{..X[..XXX[. X7XY.n G r.m.$X6X$Xa.0.D x.mX!.!.0Xx.M C L q.d.p.$XqXp.M x.=X{.{.{.{.{.{.{.{.{.{.{.{.{.",
"{.|.{.{.{.OX{.{.{.{.|.|.|.oX[.XX9XN.x b 0.a.:X5X6X4Xy.F k.;XM. X X}.*X9XB.F n D w.r.g.s.P z )..X{.{.{.{.{.{.{.{.{.{.{.{.",
"|.[.{.{.{.{.{.{.{.{.|.[..X X[.,Xx.M n G q.p.:XhX6X).n _ ,X}.#X+X.X}.|.[.=Xk.x L w.s.d.w.Y b ;X|.|.{.{.{.{.{.{.{.{.{.{.{.",
"|.[.{.{.{.{.{.{.{.{.{.|.[. XoXn.b b D D w.d.`.qXm.e.H t.<X%X).{.{.|.}.}.oXn.m x H J u.q.Y m x.G.[.{.{.{.{.{.|.{.{.{.{.{.",
"{.{.|.{.{.{.{.{.{.{.{.oX XXX-Xn P G D D D w.q.w.U G n.9XZ.}.|.{.{..X}.}..X=XU.5 H J 0.U / x 2 F. X{.{.{.|.|.|.|.{.{.+X{.",
"{..X[.|.|.|.}.|.{.OXOX{..XJ.v.x P Y H D D J e.U K x.=X|.{.{.[.{._.+X[.[.XXH.z.2 F D Y Y n m c W.oX{.OX{.[.|.|.}.{.{.{.{.",
".X{.|.|.|.[.[.|.{.$XOX{.*X!.c 8 I n G u.J G P b n. X#X.X_.OX|.{.OXOX|..XoX-Xl.v m F m S Q tX4 W. XOX{.|..X|.[.oX{.{.OXOX",
".X.X_.OX{.|..X{.+X|.{.oXQ.P.3 tX[ ^ f.f./ K M x.=X@XXX[.|.OX{.|.|.|.|.OX).).7Xz.: w d q p X , P.H.|..X#X).OX+X[.|.{.{.{.",
".X{.OX{.{.{.@XOX{.|.}.K.v.8 o GXpXc K u.n x x.7X.X{.|.XX.X@X{.|.|.}.[.{.OX@X9Xv.o & * % i ;.X 1 W. X X.X|.{.{.{.{.|.|.|.",
"OXOXOX{.{.{.OXOX{.[.G.R.9 6 y 0 e ; 1 2 x.7XA. X}.[.|.OXOX).|.|.|.|.|.{.OX.X.Xk.> =.r s :.s 0 6 E.Q.K.*X[.{.$X|.{.|.|. X",
"OX{.{.|.{..XOX.X=XH.R.7 O # t 1.+.e ; c.7X=XXX[.}.|.{.OX_..X|.|.|.{.|.|.{.|.1Xv.O % * . . j y O o 8 v.H.oX{.OX{.OX{.|.[.",
"{.{.|.}.[.{.{.|.;XY.3 u s s # - * ] 4 v.<X}.}.[.|.{.{.+X{.+X{..X.X|.|.[.|.}.oXk.o s t s j :.+.f y V V v.-X.X).$X{.{.|.[.",
"{.|.}.}.[.|.|. XN.4 ; 6 +.8.5.:.* + P.K.S.}.|.|.{.OX{.{.{.{..XOX.X{..X|.}.[.%Xl.; $ d { d @.@.yXnX! $.Z B.=XOXOXOX{.|.|.",
"[.|.[.|.|.}.+XJ.R.: [ pXFXFX@.GXpX7 v.%X}.|.|.@XOX{.|.|.OX{.{..X.X.XOX{.|.}.|.J.O., : 3 : , , 8 7 , 4 v B.oX.X{.{.{.{.{.",
"|.|.{.|.{.{.{.M.N *.| yXpX%.4.%.9 1 l.%X|.{.{..XOX{.|.}.+XOX{.{.{..X{.{.[.|.|. X~.v.Y.P.v.W.v.P.P.P.Y.l.J.=X|.+X{.{.{.{.",
"{.{.{.).OXOX.XM.: , 3 4 3 7 6 9 ; c.9X).$X$X).#X.X.X|.|.{.{.{.{.{.{.{.{.|.}.|.|.[.oX=XXXoXoX=X*XH.-X,X,X X X[..X{.{.{.{.",
"{.OXOX{.).{.@XJ.E.%.I.L.L.I.I.$.R.W.A..X_.OXOX.X)..X{.|.{.{.{.{.{.{.{.|.[.[.{.{.{.OX{.{.OXOX{.{.|.). X[..X.X.X|.|.{.{.{."
};
