/* XPM */
static char *_6178_f65f85b1196182a564740617ec977b0f3c34bbc34926f0d33e5c87d3ce920e4e[] = {
/* columns rows colors chars-per-pixel */
"60 60 256 2 ",
"   c #0B0301",
".  c #010B01",
"X  c #090807",
"o  c #140301",
"O  c #1B0201",
"+  c #140A03",
"@  c #1B0B01",
"#  c #180A0D",
"$  c #051204",
"%  c #161408",
"&  c #080A11",
"*  c #190C16",
"=  c #1A1917",
"-  c #0F1714",
";  c #230200",
":  c #2B0200",
">  c #240B02",
",  c #2C0C00",
"<  c #280A09",
"1  c #330100",
"2  c #3A0201",
"3  c #340C00",
"4  c #3E0C00",
"5  c #231402",
"6  c #2C1401",
"7  c #29160B",
"8  c #341201",
"9  c #3A1301",
"0  c #371708",
"q  c #271B17",
"w  c #361B17",
"e  c #210F1B",
"r  c #052902",
"t  c #192417",
"y  c #0B2C06",
"u  c #3B2408",
"i  c #29231A",
"p  c #33231C",
"a  c #392A19",
"s  c #1E1E21",
"d  c #180926",
"f  c #1C2727",
"g  c #292C2A",
"h  c #282827",
"j  c #372827",
"k  c #2D332D",
"l  c #36322A",
"z  c #373836",
"x  c #2D2F36",
"c  c #440200",
"v  c #4B0300",
"b  c #400B00",
"n  c #4A0A06",
"m  c #520501",
"M  c #5B0401",
"N  c #550A01",
"B  c #5A0B04",
"V  c #4C1C01",
"C  c #461603",
"Z  c #5A1C01",
"A  c #571706",
"S  c #4E1813",
"D  c #630401",
"F  c #6A0400",
"G  c #640C02",
"H  c #6B0C00",
"J  c #740300",
"K  c #740D00",
"L  c #7A0A00",
"P  c #671903",
"I  c #7C1B02",
"U  c #781606",
"Y  c #731D15",
"T  c #4A2604",
"R  c #542500",
"E  c #592703",
"W  c #5E3302",
"Q  c #472617",
"!  c #562617",
"~  c #583416",
"^  c #4B3311",
"/  c #6B2301",
"(  c #642C00",
")  c #6B2A01",
"_  c #672604",
"`  c #792804",
"'  c #6B3703",
"]  c #7A3200",
"[  c #753A01",
"{  c #783803",
"}  c #672B1A",
"|  c #782815",
" . c #683915",
".. c #7C3B16",
"X. c #452923",
"o. c #4E342D",
"O. c #6F3327",
"+. c #334C2B",
"@. c #316930",
"#. c #1F4F10",
"$. c #7D4607",
"%. c #774711",
"&. c #734F0E",
"*. c #554938",
"=. c #65442A",
"-. c #7A512F",
";. c #7C602E",
":. c #3D3662",
">. c #423458",
",. c #3D4444",
"<. c #464948",
"1. c #565758",
"2. c #53524A",
"3. c #6C5743",
"4. c #765B47",
"5. c #6A5351",
"6. c #78634A",
"7. c #78695D",
"8. c #6B6356",
"9. c #666966",
"0. c #757B7C",
"q. c #71736E",
"w. c #831C03",
"e. c #8C1B01",
"r. c #891604",
"t. c #951902",
"y. c #860F00",
"u. c #882803",
"i. c #982906",
"p. c #863903",
"a. c #963903",
"s. c #912F17",
"d. c #A72D05",
"f. c #A63406",
"g. c #B73905",
"h. c #B3340E",
"j. c #823224",
"k. c #C03C00",
"l. c #884607",
"z. c #984702",
"x. c #9A550C",
"c. c #844B15",
"v. c #865316",
"b. c #9A5918",
"n. c #905308",
"m. c #B74605",
"M. c #AA5B08",
"N. c #B95C06",
"B. c #A85A17",
"V. c #B15E18",
"C. c #AA4714",
"Z. c #8F691D",
"A. c #BD6608",
"S. c #AC651B",
"D. c #B16116",
"F. c #B86817",
"G. c #BC751E",
"H. c #A26107",
"J. c #874926",
"K. c #86582D",
"L. c #945B25",
"P. c #865638",
"I. c #9A5F33",
"U. c #A75B27",
"Y. c #AD4F2C",
"T. c #986226",
"R. c #8C652D",
"E. c #A76927",
"W. c #B76A26",
"Q. c #B87227",
"!. c #A96634",
"~. c #BA7133",
"^. c #B17036",
"/. c #C54600",
"(. c #D44D04",
"). c #C55E01",
"_. c #CB5E00",
"`. c #C95806",
"'. c #D55703",
"]. c #C65018",
"[. c #D55A19",
"{. c #C94616",
"}. c #E15C14",
"|. c #C66402",
" X c #CC6601",
".X c #C56A02",
"XX c #CB6902",
"oX c #C4640B",
"OX c #CA650A",
"+X c #C46A0B",
"@X c #CC6A0B",
"#X c #D16402",
"$X c #D26A03",
"%X c #D2650B",
"&X c #D16C0B",
"*X c #DA6804",
"=X c #C8720C",
"-X c #C46C13",
";X c #CB6D12",
":X c #C46C1B",
">X c #CA6F1C",
",X c #C96613",
"<X c #D66816",
"1X c #C4711C",
"2X c #CB731D",
"3X c #C57515",
"4X c #D27216",
"5X c #D97302",
"6X c #E36806",
"7X c #EB7409",
"8X c #E4671A",
"9X c #EC7815",
"0X c #F47719",
"qX c #F67B0B",
"wX c #C66B25",
"eX c #D86723",
"rX c #C37222",
"tX c #CA7526",
"yX c #CA7731",
"uX c #F57A24",
"iX c #E97328",
"pX c #815F44",
"aX c #996A50",
"sX c #A37455",
"dX c #AE704E",
"fX c #997F66",
"gX c #DC8405",
"hX c #C99005",
"jX c #F38312",
"kX c #D8A203",
"lX c #F5AD14",
"zX c #E09F21",
"xX c #D6A72A",
"cX c #EEAC2A",
"vX c #FFCE1E",
"bX c #FFCF2A",
"nX c #B08C72",
"mX c #BBA154",
"MX c #D58F50",
"NX c #CAA952",
"BX c #CF9672",
"VX c #F1B074",
"CX c #EDB456",
"ZX c #FAC44A",
"AX c #AD9221",
"SX c #817397",
"DX c #919A93",
"FX c #AE9B8A",
"GX c #A9ABA1",
"HX c #D6AA8D",
"JX c #EBB58D",
"KX c #E5AFA3",
"LX c #F7CFB3",
"PX c #E9D6A0",
"IX c #EBCED1",
"UX c #DECDED",
/* pixels */
" X X X X X X X X X X XXX$X X X X#X#X#X X XOX X#X#X#XOX.X.XXX X X X|.4X-XS.l.A.|. X|.=XXX X#X X X X X X X X X X X X X X X",
" X X X X X X X X X X X X X X X X%X#X X X X X X#X#X#X.X|..X X$XXX4X+Xp.1XW.v A.-X>XrXz.M.OX X X X X X X X X X X X X X X X",
" X X X X X X X X X X X X X X X X XXXXXXXXX X X X#X XOX X#X#X_.N.[ &.&.( $.] [ Q.l.' 1 x.3X|. X#X X X XXX X X X X X X X X",
" X X X X X X X X X X X X X X X X XXXXX.X.XXXXX.X XXX X&X`.@X2XW.> 8 CXl.Z MX$.' E &.9 L.rXoX#X$X X X X X X X X X X X X X",
" X X X X X X X X XXX X X X X X XXX|. X X X.XOX X.X.X X&X4X:X] ' ( c Q.ZXhXZXzX] zXZXT T l.D.oX X X X X X X X X X X X X X",
" X X X X X X X X X X X X X X X X X X X XOX X X X.X.X$XN.a.l.) [ E.` m. XgXcXgXcXcXhX$.&.3 l.2X X X X X X X X X X X X X X",
"$X X X X X X X X X X X X X X X X X#X X#X#X#X X X.X5X#Xm.m A yXiXN.jX[.(.0X*XjXlXlXkXZXG.' S.-X|. X X X X X X X X X X X X",
" X X X X X X X X X X X X X X X X X#X%X X X#X#X XXX|.#XwXU._ a.4XqX7XiXuX8X/.5XgXvXvXcX' [ l.N.@X X X X X X X X X X X X X",
" X X X X X X X X X X X X X X X X X|.%X XXX.X X X XXX XoXyXb.B B.iX;Xz.Y.a.m.gXlXvXkXxXxX&.: z.4X X X X X X X X X X X X X",
" X X X X X X X X X XXX X X X XXX X X XOX.X.XXXXX$X|.+XrXB.%.2 J.yX] C V Z l.rXzXbXkXAXZ.mX$.z.,X.X X X$X X X X X X X X X",
" X X X X X X X X X X X X X X XXX.X.X.XOX X X XXX X-XQ.v.^ 5 o , O.3 ; j j ^ =.E NXxXPX^ > x.;X#X X X X X X X X X X X X X",
" X X X X X X X X X X X X X X XXXXX.X XOX#X X|.|.-XF.L.T o & X   # 7 w w q z j 0 R.NXPX^ v.1X#X_.#X X X X X X X X X X X X",
" X X X X X X X X X X X X X X X XXX X$X#X%X XOX-XE.L.~ w   . #   ; 9 2 b 3 ; d d $ *.7.! x.<X_.*X X X X X X X X X X X X X",
" X X X X X X X X X X X X X X X XXX X#X#X X XOXG.T.~ 7 X . $ o , Q nX!.U.dX3.SX:.* j < P.wX X#X_. X X X X X X X X X X X X",
" X X XXX X X X X X X$X X X X XXX X.X X X#X$XXXF.-.5 % . y #.6 J. .VXVX~.MXKXUX>.o.aX4 J.2XXX|. X X X X X$X X X X X X X X",
" X X X X X X X$X X X X X X X XXX|.OX@X X#X@X.XH.6 % y y @.#.T aX' BXyXu.u.HXUX5.aX..N x.1XXXXXXX X X X X X X X XXX$X X X",
" X X X X X X X X X X X X X X X XXXXX.X|.XXoXQ.c.5 $ r @.#.y =.> < 9 ) ~.BXj.HXIXLX..M.oX|..X X#X X$X X X X X X X X X X X",
" X X X X X X X X X X X X X X X X X|.5XXX X:Xn.9 6 t r @.+.. +   7 4.b } dXBXLXLXHXE M.$X.X$X`.#X X X X XXX X X X X X X X",
" X X X X X X X X X X X X X X X X&X). X|..XG.$.T 6.% . $ . . % = i 5 Q : } sXsXsXZ x.@X|..XA. X X X X X X X X X X X X X X",
" X X X X X X X X X X X X X X XXXOX&X_.OXOXa.) R.6 + X - k g t i = q o O < 3 1 b x.-X|. X=X.X.X@X X X X X X X X XXX X X X",
" X X X X XXX$X X X X X X X X XXX.X.X X#X%X`.F.&.o & - x 0.9.,.g = X * o w o O P.wXoX X&XN.XX X X X X X X X X X X X X X X",
" X XXX X X X X X X X X X X X XXX.XXX|.#X<XoXrXl.o s x ,.1.0.9.<.<.h = s z # j 9 B.&X).%XXXXX X|. X X X X X X X X X X X X",
" X X$X X X X X X X X X X X X X X X X$X#X_.,XQ.%.o z z f k 1.0.0.9.2.z f 9.t z @ b.-XOX$X X#X#X#X$X X X X X X X X X X X X",
" X X X X X X X X X X X X X X X X$X|.#X XOXQ.c.8 7 z ,.t - k 1.0.0.9.<.f DXt z a b S.-X X X#X#XOX X X X X X X X X X$X X X",
" X X X X X X X X X X X X X X X X X|.%X XwXn.< % t l j * X g z 1.1.1.x f GX- h a ; b.3XOX X X X X X X X X X X X X X X X X",
" X X X X X X X X X X X X X X XXXOXOX X2Xn.3 % g t = s * # < j j x x d f DXs q , ; L.-X.XXXXX X@X X X X X X X X X X X X X",
" X X X X X X X X X X X X X X X XOXOX;Xz.< % +.z i = * e 1 2 4 < ; * = 1.2.# 1 A 2 L.>X X X X X|. X X X X X X X X X X X X",
" X X X X X X X X X X$X X X X X X.X|.yX' # +.f f = * & + A | Y S A 0 i q.0 } s.| 1 L.>X|. XXX X$X X X X X X X X X X X X X",
" X X X X XXX$X X X X X X X X X XOX+Xc.8 a <.k t - f t + B w.w.Y.~.I.w 8._ dXY.w.c I.:X#X#X X|. X X X X XXX X X X X X X X",
" X X X X X X X X X X X X X X X X X2XW o a 8.9.g . t +.o B L t.d.<XU.0 3.E Y.C.u.1 V D.|. X#X#X X X X X X X X X X X X X$X",
" X X X X X X X X X X X X X X X X X1X .o i 1.0.2.- t +.@ Y h.d.d.k.i.X.o.A j.s.U : O B.=X.X|.@X$X X X X X X X X$X X X X X",
" X X X X X X X X X X X X X X X X X2X .o i k *.l % % t > | i.h.k.k.Y.X.8.! j.U | < + V S.-X|.@X X X X X X X X X X X XXX X",
" X X X X XXX X X X X X X X X X XXX3XB.Z 7 p 3 ! 4.o.o 5 ! B K U i.j.Q 2.! O.O.S # 7 ^ R S.2X|. X X X X X X X X X X X X X",
" X X X X X X$X X X X X X X X XXX XN.tX{ O p ! dXsXo.o.> w 0 S } O.! i l w X.S 1 O q a 8 Z D.OX X X X X X X X X X X X X X",
" X X X X X X X X X X X X X X X X#X X3X{ ; Q aXJXBX .O.; O > j j j q - s * q # o > S ! aXV c.wX#X X X X X X X X X X X X X",
"XX X X X X X X X X X X X X X X X#X X=X[ ; =.BXJXJXBXP.: 2 : # # # # o # O # < 0 : -.BXBXaX .V.#X X X X X X X X X X X X X",
"$X X X X X X X X X X X X X X X X%X_.=XH.C 8 fXLXJXBXO.n D B M B v c n 2 n c m B v } dXdXHXR p.4X X X X X X X X X X X X X",
" X X X X X X X X X X X X X X X$X_.OX|.G.Z.3 a nXP. .2 G s.t.s.U U D Y B G K K r.H v c ' K.%.H.A.XX X X X X X X X X X X X",
" X X X X X X X X X X X X X X X X%X X@XA.:XE.T o @ : v i.[.(.h.r.L D F J L i.m.[.f.e.G 1 N D.=X.X X X X X X X X X X X X X",
" X X X X X X X X X X X X X X X X#X#X|..XoXB.} 4 C _ C.eX0X0X[.k.r.U Y Y f.m.uXuX}.[.s.m V.1XOXXX X$X X X X X X X X X X X",
" X X X X X X X X X X X X X X X X$X X#X XyXp.c s.d.[.8X0X6X9X8Xh.y.Y S A u.f.}.0X0XuX>Xu.p.D..X.X X|.$X#X|.#X X X X X X X",
" X X X X X X X X X$X X X X X XXX X#X#X&XB.` F h./.(.'.qXjX6Xg.f.M c : : v w.d.}.uX0X9XOX` a.A.XX|.|. X|. X X X X X X X X",
" X X X X X X$X X X X X X X X X X$X|._.tX..2 f.m.'.qXqX7X6X[.I M P / E Z Z B e.d.eX8X0X0XwXM z.4X X X X X$X X X X X XXX X",
" X X X X X XXX X X X X X X$X X X).XX;XV./ B i./.'.qXqX7Xg.d.H ` W.Q.G.W._ B H I t.d.(.<X].U ` F.+X X X X X X|. X X X X X",
" X X X X X X X X X X X X X X X X|.;XD.` D t.h.}.9X7X6X<Xf.D ` W.F.+X@X+X:XW.P N G H t.h.h.i.c p.2X). X XXX X X X X X X X",
" X X X X X X X X X X X X X X X.X>XV./ m w.t.[.uX9X6Xm.f.H / tXoX.X@X X_.&X`.~.c v | h.h.t.y.c J.tX X X X X$X X X X X X X",
" X X X X X X X X X X X X X X X;XW./ m D F y.{.uX8X<Xf.F B yXA..X|.|.#X$X_.&XQ.P m M U y.t.i.c ..N.&X#X|. X X X X X X X X",
"XXXX X X X X X X X XXX X X X XtX) v Y F F J t.g.k.i.K M P F.oXXX X X X X&X).`.wXN v D r.y.Y A 1 z.&X X|.$X|.@X X X X X X",
".X.X X X X X X X|.*X|.XX@X XOXF.Z b U F J J J r.e.I v / wXOX.X|. X XOXOX#X%XOXW.v n B U U D S 2 p.4X|. X X XOX|.OX X#X#X",
"+XXX X#X XXX X X#X|. XXX|.oXtX) 1 S G L I w.H H U M P yXoX XXXXX X XOXOX X#X`.:XZ b A A B n 5.C l.rXoX&X#X X|.@X.X X#X#X",
" X X$X X X%X X X#X$X_.|..X-X^.V =.P.v j.Y.s.P Z c ) wXOX%X_.$X XXXXX.XXX#X X.X-XdX8 3 w w j < O %.Q.F._._.5X X|. X X#X#X",
" X X#X#XOXOX X X X X$X@X+XS.W O pXnXo.b P G c _ Q.S.|. X#X*X). X XXXXXOX$X#XXXA.E.8 @ % *   z q o %.rX;X#X#X X XXXXX X X",
" X X#X#XOXOX X X X X.XF.W.E 6 a 0 7   o 1 ] W.N.|..XXXXX|.XXOX X#X#XOXOX#X#X#XOXE.C a g s <.z p @ ~ !.D.OX X X$X X XXX X",
"XX X#X#X XOXXX X X X:X~.( O   % 2.1.g   W ~.OX#X#X$XXX.XOXOX|.OX X XOXOX X#X#X.XQ.9 + % & & = k 5 > 3 [ rXoX X|.XX X|..X",
".X.X X XOX.XXXXXOXF.^.V 8 p l t % . h u ( :XOX*X$X X X|.OXOX.X X X XOXOX.XXXXXA.Q.9 < j g f ,.2.l Q a 8 [ rX X#X XXXOX.X",
".X.X X XOX X XXX.XQ.E ; O l 9.q.2.h   ~ ~. X#X X XXX X#X XOX|.#X X#XOXOX XXX.XA.S.A : # o.x z *.6.nX-.=.( ] @X X X X.X.X",
".X.X XOXOX#X#X XF.( ; w 5.FXGX8.7.FXT ' tX#X_.#XOX.X XXX|.XX X#X#X X#X#X X X.X+XA.V.!.N 1 > > 3 9 C , 3 2 ] =X#X X XXX.X",
"XX.X X XOX#X X X1XV T =.4.fXpX4.pXW ' Q.OX X#X XOX+X XXXXX.X#X#X X X#X#X X XXXXX&X,XwXB.B.L.T.b.b.B.L.T.b.D.;X|.#X X X X",
"OXXX X#X%X X X.XF.Z 1 3 3 8 6 6 > ' F.+X_.<X X XOXOXOX XXXXX X X.X.XXX X X X X X X X XXX=X3X-X+X>X:XF.wX:X+XOX X X X X X",
" X#X'.#X#X#X.X+XrXb.L.K.K.;.;.;.-.E.@X|.&X`.#X$X%XOXOX.X XXXXX X.X.X.XXXXX X X X#X*X#X$X XXX X|.OXoXOXoXOXOX XXX X X X X"
};
